<?xml version="1.0" encoding="UTF-8" standalone="no"?>
<svg
   xmlns:dc="http://purl.org/dc/elements/1.1/"
   xmlns:cc="http://creativecommons.org/ns#"
   xmlns:rdf="http://www.w3.org/1999/02/22-rdf-syntax-ns#"
   xmlns:svg="http://www.w3.org/2000/svg"
   xmlns="http://www.w3.org/2000/svg"
   xmlns:sodipodi="http://sodipodi.sourceforge.net/DTD/sodipodi-0.dtd"
   xmlns:inkscape="http://www.inkscape.org/namespaces/inkscape"
   height="414.14929"
   width="823"
   id="svg1860"
   version="1.1"
   sodipodi:docname="distributed.svg"
   inkscape:version="0.92.3 (2405546, 2018-03-11)">
  <defs
     id="defs108" />
  <sodipodi:namedview
     pagecolor="#ffffff"
     bordercolor="#666666"
     borderopacity="1"
     objecttolerance="10"
     gridtolerance="10"
     guidetolerance="10"
     inkscape:pageopacity="0"
     inkscape:pageshadow="2"
     inkscape:window-width="1920"
     inkscape:window-height="1025"
     id="namedview106"
     showgrid="false"
     fit-margin-top="0"
     fit-margin-left="0"
     fit-margin-right="0"
     fit-margin-bottom="0"
     inkscape:zoom="0.23046875"
     inkscape:cx="717.92536"
     inkscape:cy="105.07464"
     inkscape:window-x="0"
     inkscape:window-y="27"
     inkscape:window-maximized="1"
     inkscape:current-layer="layer2" />
  <metadata
     id="metadata1866">
    <rdf:RDF>
      <cc:Work
         rdf:about="">
        <dc:format>image/svg+xml</dc:format>
        <dc:type
           rdf:resource="http://purl.org/dc/dcmitype/StillImage" />
        <dc:title></dc:title>
      </cc:Work>
    </rdf:RDF>
  </metadata>
  <g
     inkscape:groupmode="layer"
     inkscape:label="layer1"
     id="layer1"
     transform="translate(205.92536,-202.92535)">
    <polygon
       points="0,0 410,0 164,410 410,820 0,820 "
       style="fill:none;stroke:#000000;stroke-width:3"
       id="polygon3"
       transform="rotate(-90,205.57464,410)" />
  </g>
  <g
     inkscape:groupmode="layer"
     inkscape:label="layer2"
     id="layer2"
     transform="translate(205.92536,-202.92535)">
    <polygon
       points="118.62666,118.49 118.62666,145.00333 119.31,141.86 119.58334,140.49333 122.59,133.38667 127.23666,127.23666 133.38667,122.59 140.49333,119.58334 148.14667,118.62666 155.8,119.58334 162.90666,122.59 169.05667,127.23666 173.70334,133.38667 176.71001,140.49333 177.66667,148.14667 176.71001,155.8 176.16333,157.57666 174.93333,161.13001 200.62666,118.49 118.62666,118.49 59.313332,118.49 59.313332,147.46333 59.450001,146.23334 59.450001,88.970001 60.406666,81.316666 63.413334,74.209999 68.059998,68.059998 74.209999,63.413334 81.316666,60.406666 88.970001,59.450001 252.83333,59.450001 260.48666,60.406666 267.59332,63.413334 273.74335,68.059998 278.39002,74.209999 281.39667,81.316666 282.35333,88.970001 281.39667,96.623337 278.39002,103.73 278.25333,104.14 224.81667,193.11 223.72333,195.29666 224.27,194.47667 224.40666,194.06667 305.31332,59.176666 59.313332,59.176666 357.51999,0.136667 357.51999,0.136667 51.933334,213.06334 57.400002,262.53665 57.536667,265.67999 57.673332,264.85998 52.343334,215.79666 52.206665,213.06334 52.343334,210.33 54.119999,194.06667 51.933334,213.06334 357.51999,0.136667 357.51999,0.136667 114.8,259.53 115.21,264.85998 115.34666,265.67999 115.21,266.77335 115.48333,266.22665 115.89333,265.67999 119.44666,260.89667 119.58334,260.76001 119.99333,260.21335 120.26667,259.94 143.63667,235.06667 143.09,235.47667 136.80333,238.07333 130.10667,238.89333 123.41,238.07333 117.26,235.47667 111.79333,231.37666 107.69334,226.04666 107.01,224.40666 114.8,259.53 357.51999,0.136667 357.51999,0.136667 58.630001,364.48999 58.630001,364.76334 58.766666,364.48999 58.493332,363.12332 58.630001,364.48999 357.51999,0.136667 357.51999,0.136667 163.86333,250.64667 198.16667,250.64667 197.07333,252.83333 196.52667,253.51666 195.29666,255.42999 165.50333,294.92667 164.41,297.25 165.09334,296.01999 167.00667,293.01334 196.93666,253.51666 211.69667,221.53667 198.16667,250.64667 163.86333,250.64667 96.076668,338.11334 146.64333,338.11334 146.09666,339.07001 146.91667,337.84 146.64333,338.11334 96.076668,338.11334 55.486668,390.45666 54.529999,409.86334 55.213333,429.13333 55.896667,433.78 55.896667,432.54999 54.803333,411.09332 54.803333,408.76999 55.623333,389.63666 55.486668,390.45666 357.51999,0.136667 357.51999,0.136667 96.760002,481.88666 146.64333,481.88666 147.19,482.57001 148.55667,485.44 163.72667,520.83667 165.50333,525.0733 195.57001,564.57001 196.66333,566.34668 197.34666,567.16669 198.44,569.35333 210.46666,595.59332 197.61999,567.16669 167.28,526.98669 165.23,523.97998 163.72667,520.83667 147.19,482.16 145.27667,479.97333 146.64333,481.88666 96.760002,481.88666 57.536667,554.32001 57.536667,554.32001 115.48333,554.32001 114.93667,560.46997 107.14667,595.59332 107.83,594.09003 111.93,588.62335 117.39667,584.52332 123.54667,581.9267 130.24333,581.10669 136.94,581.9267 143.09,584.52332 144.04666,585.20667 119.44666,559.23999 115.48333,553.77332 115.34666,553.36334 115.48333,554.32001 57.536667,554.32001 57.400002,557.32666 51.933334,606.79999 54.939999,632.76666 52.48,609.66998 52.343334,606.93665 52.48,604.20331 57.810001,554.72998 57.400002,551.31335 57.536667,554.32001 357.51999,0.136667 357.51999,0.136667 176.16333,662.28668 176.71001,664.06335 177.66667,671.71668 176.71001,679.37 173.70334,686.47668 169.05667,692.62665 162.90666,697.27332 155.8,700.28003 148.14667,701.23669 140.49333,700.28003 133.38667,697.27332 127.23666,692.62665 122.59,686.47668 119.58334,679.37 119.31,678.00336 118.62666,674.85999 118.62666,701.51001 200.62666,701.51001 174.93333,658.73334 176.16333,662.28668 357.51999,0.136667 357.51999,0.136667 225.22667,627.43665 278.25333,715.85999 278.39002,716.27002 281.39667,723.37665 282.35333,731.03003 281.39667,738.68335 278.39002,745.78998 273.74335,751.94 267.59332,756.58667 260.48666,759.59332 252.83333,760.54999 88.970001,760.54999 81.316666,759.59332 74.209999,756.58667 68.059998,751.94 63.413334,745.78998 60.406666,738.68335 59.450001,731.03003 59.450001,673.63 59.313332,672.40002 59.313332,760.8233 305.31332,760.8233 224.95334,626.75336 225.22667,627.43665 357.51999,0.136667 365.17334,1.093333 372.28,4.1 378.42999,8.746667 383.07666,14.896667 386.08334,22.003334 387.04001,29.656666 386.08334,37.310001 383.07666,44.416668 382.94,44.826668 275.24667,224.40666 275.10998,224.54334 241.76334,279.62 241.62666,280.03 214.84,324.72 214.56667,325.13 190.92334,364.76334 190.64999,365.17334 164.54666,408.63333 164.27333,409.45334 164.13667,409.72665 164.27333,410.27335 164.95666,412.04999 191.06,455.51001 191.19667,455.64667 214.70334,494.87 241.49,539.42334 242.03667,540.10669 275.24667,595.59332 382.94,775.17334 383.07666,775.58331 386.08334,782.69 387.04001,790.34332 386.08334,797.99664 383.07666,805.10333 378.42999,811.25336 372.28,815.90002 365.17334,818.90668 357.51999,819.86334 29.656666,819.86334 22.003334,818.90668 14.896667,815.90002 8.746667,811.25336 4.1,805.10333 1.093333,797.99664 0.136667,790.34332 0.136667,508.26334 0.273333,455.37332 0.136667,432.68668 0.136667,29.656666 1.093333,22.003334 4.1,14.896667 8.746667,8.746667 14.896667,4.1 22.003334,1.093333 29.656666,0.136667 357.51999,0.136667 59.313332,59.176666 59.313332,118.49 "
       id="polygon6"
       transform="rotate(-90,205.57464,410)"
       style="fill:#000000;stroke:none;stroke-width:1" />
    <polygon
       points="150.47,595.32001 152.38333,599.69336 173.42999,663.38 173.84,664.88336 174.66,671.71668 173.84,678.54999 171.10667,684.97333 166.86999,690.44 161.40334,694.6767 154.98,697.40997 148.14667,698.22998 141.31334,697.40997 134.89,694.6767 129.42334,690.44 125.18667,684.97333 122.45333,678.54999 122.18,677.45667 107.55666,611.99335 107.01,606.93665 107.69334,600.92334 110.01667,595.32001 113.84333,590.53668 118.62666,586.71002 124.23,584.38666 130.24333,583.70331 136.25667,584.38666 141.86,586.71002 146.64333,590.53668 "
       id="polygon8"
       transform="rotate(-90,205.57464,410)"
       style="fill:#4b4b4b;stroke:none;stroke-width:1" />
    <polygon
       points="171.10667,134.89 173.84,141.31334 174.66,148.14667 173.84,154.98 173.42999,156.48334 152.24667,220.30667 150.33333,224.67999 146.50667,229.46333 141.72333,233.28999 136.11999,235.61333 130.10667,236.29666 124.09333,235.61333 118.49,233.28999 113.70667,229.46333 109.88,224.67999 107.55666,219.07666 106.87334,213.06334 107.42,208.00667 122.18,142.27 122.45333,141.31334 125.18667,134.89 129.42334,129.42334 134.89,125.18667 141.31334,122.45333 148.14667,121.63333 154.98,122.45333 161.40334,125.18667 166.86999,129.42334 "
       id="polygon10"
       transform="rotate(-90,205.57464,410)"
       style="fill:#4b4b4b;stroke:none;stroke-width:1" />
    <polygon
       points="115.21,150.88001 114.93667,153.75 101.81667,212.92667 111.93,260.35001 112.20333,262.94666 112.47667,265.67999 111.65667,272.37668 100.99667,311.87332 101.81667,315.15332 104.41333,312.69333 115.48333,273.60666 117.94334,267.59332 121.36,262.94666 154.29666,227.55 173.84,170.14999 176.02667,165.36667 176.16333,164.95666 205.82001,115.48333 115.62,115.48333 252.83333,62.456665 252.83333,62.456665 101.13333,508.53665 111.79333,547.48669 111.79333,547.62335 112.61334,554.32001 112.06667,559.65002 102.09,606.79999 114.93667,666.11334 115.07333,667.75336 115.48333,671.71668 115.62,671.71668 115.62,704.51666 205.95666,704.51666 176.16333,654.90668 176.02667,654.49664 175.34334,652.99335 173.84,649.71332 154.29666,592.03998 122.31667,558.01001 122.04333,557.73669 121.36,556.91669 117.94334,552.40668 115.34666,546.12 115.34666,545.71002 104.68667,507.71668 102.09,505.25665 101.13333,508.53665 252.83333,62.456665 259.66666,63.276669 266.09,66.010002 271.55667,70.246666 275.79334,75.713333 278.52667,82.136665 279.34668,88.970001 278.52667,95.803337 275.79334,102.22667 275.65668,102.63666 222.35667,191.47 195.84334,249.41667 194.88667,251.46666 193.24667,253.92667 162.90666,293.83334 145.96001,333.87668 144.86667,336.20001 144.73,336.47333 142.67999,339.48001 112.20333,376.65332 108.24,391.41333 106.6,409.86334 108.24,428.31332 112.34,443.34668 142.95334,480.92999 144.86667,483.79999 145.00333,483.93668 146.23334,486.53332 163.04334,526.57666 193.38333,565.93665 195.16,568.53332 196.11667,570.58331 222.08333,627.98334 275.65668,717.36334 275.79334,717.77332 278.52667,724.19665 279.34668,731.03003 278.52667,737.86334 275.79334,744.28668 271.55667,749.75336 266.09,753.98999 259.66666,756.72333 252.83333,757.54333 88.970001,757.54333 82.136665,756.72333 75.713333,753.98999 70.246666,749.75336 66.010002,744.28668 63.276669,737.86334 62.456665,731.03003 62.456665,673.49335 55.076668,609.53332 54.939999,606.93665 55.076668,604.34003 60.68,554.45667 54.393333,511.95334 54.256668,508.67334 54.256668,508.53665 54.393333,505.39334 61.773335,455.23666 58.766666,436.10333 58.630001,432.54999 57.536667,410.95666 57.536667,408.76999 58.630001,386.08334 58.766666,385.12668 58.903332,383.48666 61.773335,364.35333 54.256668,315.01666 54.119999,311.73666 54.256668,308.45666 60.543335,264.85998 54.939999,215.66 54.803333,213.06334 54.803333,212.92667 54.939999,210.46666 62.456665,146.36999 62.456665,88.970001 63.276669,82.136665 66.010002,75.713333 70.246666,70.246666 75.713333,66.010002 82.136665,63.276669 88.970001,62.456665 252.83333,62.456665 115.62,115.48333 115.62,148.14667 "
       id="polygon12"
       transform="rotate(-90,205.57464,410)"
       style="fill:#4b4b4b;stroke:none;stroke-width:1" />
    <polygon
       points="56.033333,149.64999 56.033333,150.88001 49.473331,212.92667 54.529999,263.08334 54.666668,265.54334 54.666668,265.67999 54.529999,268.95999 48.926666,311.60001 55.486668,361.07333 55.623333,364.35333 55.623333,364.48999 55.486668,367.76999 52.753334,389.22665 51.796665,409.86334 52.48,429.13333 55.623333,451.68332 55.759998,455.23666 55.759998,455.37332 55.623333,458.79001 48.926666,508.53665 54.529999,551.03998 54.666668,554.32001 54.529999,556.91669 49.473331,606.79999 56.033333,668.98334 56.169998,671.71668 56.306667,671.71668 56.306667,763.83002 310.64334,763.83002 227.00333,624.42999 226.86667,624.02002 225.63667,621.83331 199.39667,564.97998 169.46666,525.21002 167.69,522.61334 167.41667,522.06665 166.32333,520.01666 149.37666,480.92999 118.08,441.57001 115.89333,438.29001 113.29667,431.86667 113.02333,429.95334 112.47667,425.30667 112.34,417.65332 112.34,417.51666 112.20333,410.27335 112.20333,401.52667 112.47667,394.01001 113.29667,388.13333 115.89333,381.70999 116.57667,380.75333 118.21667,378.42999 149.24,339.20666 166.18666,300.12 167.55333,297.52335 167.55333,297.38666 169.19333,294.92667 199.26,254.74667 225.77333,198.03 226.86667,195.98 227.00333,195.57001 310.64334,56.169998 56.306667,56.169998 357.51999,3.143333 364.35333,3.963333 370.77667,6.696667 376.24335,10.933333 380.48001,16.4 383.21335,22.823334 384.03332,29.656666 383.21335,36.490002 380.48001,42.913334 380.34332,43.323334 272.64999,222.90334 272.37668,223.31334 239.85001,277.84332 239.57666,278.39002 239.30333,278.79999 212.38001,323.21668 212.24333,323.48999 188.87334,363.12332 188.60001,363.39667 162.36,406.58334 161.40334,408.63333 161.40334,409.59 161.53999,411.50333 162.36,413.41666 188.87334,456.73999 189.01,457.01334 212.10667,496.10001 212.24333,496.23666 239.71333,541.33667 239.85001,541.60999 272.23999,596.54999 272.64999,597.09668 380.34332,776.6767 380.48001,777.08667 383.21335,783.51001 384.03332,790.34332 383.21335,797.1767 380.48001,803.59998 376.24335,809.06665 370.77667,813.30335 364.35333,816.03668 357.51999,816.85669 29.656666,816.85669 22.823334,816.03668 16.4,813.30335 10.933333,809.06665 6.696667,803.59998 3.963333,797.1767 3.143333,790.34332 3.143333,671.71668 2.733333,607.0733 2.733333,606.93665 3.006667,554.32001 2.733333,508.81 2.733333,508.53665 3.28,455.23666 2.87,432.82333 2.87,409.86334 3.006667,387.17667 3.006667,387.04001 3.143333,364.35333 2.733333,311.87332 2.733333,311.73666 3.006667,265.54334 2.733333,213.06334 2.733333,212.92667 3.143333,148.01 3.143333,29.656666 3.963333,22.823334 6.696667,16.4 10.933333,10.933333 16.4,6.696667 22.823334,3.963333 29.656666,3.143333 357.51999,3.143333 56.306667,56.169998 56.306667,148.14667 "
       id="polygon14"
       transform="rotate(-90,205.57464,410)"
       style="fill:#4b4b4b;stroke:none;stroke-width:1" />
    <polygon
       points="149.92334,595.59332 151.83667,599.96668 172.74667,663.65332 173.15666,665.02002 173.97667,671.71668 173.15666,678.41333 170.56,684.70001 166.46001,690.03003 161.13001,694.13 154.84334,696.72668 148.14667,697.54669 141.45,696.72668 135.16333,694.13 129.83333,690.03003 125.73333,684.56335 123.13666,678.41333 122.86334,677.32001 108.10333,611.85669 107.55666,606.93665 108.24,601.06 110.56333,595.59332 114.11667,590.81 118.9,587.25665 124.36667,584.93335 130.24333,584.25 136.11999,584.93335 141.58667,587.25665 146.36999,590.81 "
       id="polygon16"
       transform="rotate(-90,205.57464,410)"
       style="fill:#4f4f4f;stroke:none;stroke-width:1" />
    <polygon
       points="170.56,135.3 173.15666,141.45 173.97667,148.14667 173.15666,154.84334 172.74667,156.21001 151.7,220.17 149.78667,224.40666 146.23334,229.19 141.45,232.74333 135.98334,235.06667 130.10667,235.75 124.23,235.06667 118.76334,232.74333 113.98,229.19 110.42667,224.40666 108.10333,218.94 107.42,213.06334 107.96667,208.14333 122.86334,142.40666 123.13666,141.45 125.73333,135.16333 129.83333,129.83333 135.3,125.73333 141.45,123.13666 148.14667,122.31667 154.84334,123.13666 161.13001,125.73333 166.46001,129.83333 "
       id="polygon18"
       transform="rotate(-90,205.57464,410)"
       style="fill:#4f4f4f;stroke:none;stroke-width:1" />
    <polygon
       points="114.52666,150.88001 114.25333,153.61333 101.27,213.2 111.38333,260.48666 111.93,265.67999 111.11,272.23999 100.45,311.60001 101.68,315.97333 104.82333,312.82999 116.03,273.74335 118.35333,268.00333 118.35333,267.86667 121.77,263.35666 154.57001,228.09666 174.52333,170.28667 176.57333,165.77667 176.57333,165.64 176.84666,165.36667 207.18666,114.8 114.93667,114.8 252.83333,63.139999 252.83333,63.139999 100.58667,508.53665 111.24667,547.62335 111.24667,547.76001 112.06667,554.32001 111.52,559.51331 101.40667,606.79999 114.25333,666.25 114.52666,669.12 114.8,671.71668 114.93667,671.71668 114.93667,705.20001 207.18666,705.20001 176.84666,654.49664 176.57333,654.22333 175.89,652.71997 174.52333,649.57666 154.98,592.1767 122.72667,557.59998 122.45333,557.32666 121.90667,556.64331 118.35333,552.13336 116.57667,547.76001 115.89333,546.25665 105.09666,507.30667 101.81667,504.16333 100.58667,508.53665 252.83333,63.139999 259.53,63.959999 265.81668,66.556664 271.14667,70.65667 275.24667,75.986664 275.24667,76.123337 277.84332,82.273331 278.66333,88.970001 277.84332,95.666664 275.24667,101.95333 274.97333,102.22667 221.94667,190.51334 195.43333,249.28 194.61333,250.64667 194.34,251.19333 192.7,253.65334 162.63333,293.01334 145.55,333.73999 144.45666,335.65332 144.18333,336.20001 142.13333,339.20666 111.65667,376.51666 107.69334,391.00333 106.05334,409.86334 107.69334,428.72333 111.65667,443.34668 142.40666,481.20334 144.45666,484.20999 145.82333,486.80667 162.36,526.44 192.97333,566.34668 194.61333,568.80664 195.70666,570.85669 222.08333,629.62335 274.70001,717.36334 275.24667,718.04669 275.24667,718.18335 277.84332,724.33331 278.66333,731.03003 277.84332,737.72668 275.24667,744.01331 274.97333,744.28668 271.14667,749.34332 265.81668,753.44336 259.53,756.03998 252.83333,756.85999 88.970001,756.85999 82.273331,756.03998 75.986664,753.44336 70.65667,749.34332 66.830002,744.28668 66.556664,744.01331 63.959999,737.72668 63.139999,731.03003 63.139999,673.49335 55.623333,609.53332 55.486668,606.93665 55.486668,606.79999 55.623333,604.34003 61.226665,555.14001 54.939999,511.95334 54.803333,508.67334 54.803333,508.53665 54.939999,505.53 62.32,455.10001 59.313332,436.10333 59.176666,432.54999 58.083332,410.95666 58.083332,408.90668 59.176666,386.08334 59.313332,385.12668 59.450001,383.48666 62.32,364.35333 54.803333,315.01666 54.666668,311.73666 54.803333,308.59332 61.09,264.99667 55.486668,215.52333 55.349998,213.06334 55.349998,212.92667 55.486668,210.46666 63.139999,146.23334 63.139999,88.970001 63.959999,82.273331 66.556664,75.986664 70.65667,70.65667 75.986664,66.556664 82.273331,63.959999 88.970001,63.139999 252.83333,63.139999 114.93667,114.8 114.93667,148.14667 "
       id="polygon20"
       transform="rotate(-90,205.57464,410)"
       style="fill:#4f4f4f;stroke:none;stroke-width:1" />
    <polygon
       points="55.349998,149.64999 55.349998,150.88001 48.926666,212.92667 53.983334,263.08334 54.119999,265.54334 54.119999,265.67999 53.983334,268.95999 48.380001,311.73666 54.939999,361.20999 55.076668,364.35333 55.076668,364.48999 54.939999,367.63333 52.206665,389.09 51.25,409.86334 51.933334,429.26999 55.076668,451.95666 55.213333,455.10001 55.213333,455.37332 55.076668,458.65332 48.380001,508.53665 53.983334,551.03998 54.119999,554.18335 54.119999,556.91669 48.926666,606.79999 55.349998,669.12 55.486668,671.71668 55.623333,671.71668 55.623333,764.51331 311.87332,764.51331 227.68666,624.02002 227.41333,623.74664 227.14,623.06335 226.32001,621.56 200.08,565.11664 169.87666,524.79999 168.10001,522.34003 167.82666,521.65668 166.86999,519.74335 149.64999,480.24667 118.49,441.16 116.44,438.01666 113.84333,431.73001 113.16,426.26334 113.02333,425.57999 112.88666,417.92667 112.88666,417.10666 112.75,410.27335 112.75,401.39002 113.02333,393.73666 113.84333,388.26999 116.44,381.98334 118.49,378.84 149.64999,339.61667 166.73334,300.25665 167.96333,297.79666 167.96333,297.66 169.74,295.20001 199.67,255.02 226.32001,198.30333 227.41333,196.39 227.41333,196.25333 227.68666,195.98 311.87332,55.486668 55.623333,55.486668 357.51999,3.826667 364.21668,4.646667 370.50333,7.243333 375.83334,11.343333 379.93332,16.673334 379.93332,16.809999 382.53,22.959999 383.35001,29.656666 382.53,36.353333 379.93332,42.639999 379.66,42.913334 272.23999,221.94667 272.23999,222.08333 272.10333,222.49333 239.03,278.25333 238.75667,278.52667 211.97,322.94333 211.83333,323.21668 188.32666,362.85001 188.05333,363.12332 161.81334,406.44666 160.85667,408.49667 160.72,409.59 160.99333,411.36667 161.95,413.69 188.19,456.73999 188.60001,457.28665 211.97,496.78332 212.10667,497.05667 212.24333,497.46668 239.16667,541.60999 239.30333,541.88336 271.96668,597.50665 379.38666,776.6767 379.93332,777.35999 379.93332,777.49664 382.53,783.64667 383.35001,790.34332 382.53,797.03998 379.93332,803.32666 379.66,803.59998 375.83334,808.65668 370.50333,812.75665 364.21668,815.35333 357.51999,816.17334 29.656666,816.17334 22.959999,815.35333 16.673334,812.75665 11.343333,808.65668 7.516667,803.59998 7.243333,803.32666 4.646667,797.03998 3.826667,790.34332 3.826667,671.71668 3.28,607.0733 3.28,606.79999 3.553333,554.18335 3.28,508.81 3.28,508.53665 3.826667,455.10001 3.416667,432.95999 3.416667,409.86334 3.553333,387.17667 3.553333,386.76666 3.69,364.35333 3.28,311.87332 3.28,311.73666 3.553333,265.54334 3.28,213.06334 3.28,212.92667 3.826667,148.01 3.826667,29.656666 4.646667,22.959999 7.243333,16.673334 11.343333,11.343333 16.673334,7.243333 22.959999,4.646667 29.656666,3.826667 357.51999,3.826667 55.623333,55.486668 55.623333,148.14667 "
       id="polygon22"
       transform="rotate(-90,205.57464,410)"
       style="fill:#4f4f4f;stroke:none;stroke-width:1" />
    <polygon
       points="149.51334,595.86664 151.28999,600.10333 172.06334,663.9267 172.47333,665.29333 173.29334,671.71668 172.47333,678.14001 170.01334,684.28998 165.91333,689.48334 160.72,693.58331 154.57001,696.04333 148.14667,696.86334 141.72333,696.04333 135.57333,693.58331 130.38001,689.48334 126.28,684.28998 123.82,678.14001 123.54667,677.32001 108.65,611.85669 108.10333,606.93665 108.78667,601.19665 110.97334,595.86664 114.52666,591.21997 119.17333,587.66669 124.50333,585.47998 130.24333,584.79669 135.98334,585.47998 141.31334,587.66669 145.96001,591.21997 "
       id="polygon24"
       transform="rotate(-90,205.57464,410)"
       style="fill:#535353;stroke:none;stroke-width:1" />
    <polygon
       points="170.01334,135.57333 172.47333,141.72333 173.29334,148.14667 172.47333,154.57001 172.06334,155.93666 151.01666,219.89667 149.24,223.99667 145.68666,228.64333 141.17667,232.19667 135.71001,234.38333 130.10667,235.06667 124.50333,234.38333 119.17333,232.19667 114.52666,228.64333 110.97334,224.13333 108.78667,218.66667 108.10333,213.06334 108.65,208.14333 123.54667,142.54334 123.82,141.72333 126.28,135.57333 130.38001,130.38001 135.57333,126.28 141.72333,123.82 148.14667,123 154.57001,123.82 160.72,126.28 165.91333,130.38001 "
       id="polygon26"
       transform="rotate(-90,205.57464,410)"
       style="fill:#535353;stroke:none;stroke-width:1" />
    <polygon
       points="113.84333,150.74333 113.57,153.47667 100.58667,213.06334 110.83667,260.62332 111.24667,265.54334 111.24667,265.67999 110.42667,271.96668 110.42667,272.10333 99.629997,311.60001 101.27,317.34 105.50667,313.37668 116.57667,273.88 119.03667,268.27667 122.31667,263.76666 155.25333,228.36999 175.20666,170.42334 177.11999,166.05 177.39333,165.64 208.28,114.11667 114.25333,114.11667 252.83333,63.823334 252.83333,63.823334 99.903336,508.53665 110.42667,547.62335 110.56333,548.03332 111.38333,554.32001 110.97334,559.37665 100.86,606.79999 113.57,666.52332 114.11667,671.71668 114.25333,671.71668 114.25333,705.88336 208.41667,705.88336 177.39333,654.22333 177.11999,653.81335 175.07001,649.30335 155.52667,591.90332 122.31667,556.23334 119.03667,551.72333 118.76334,551.1767 116.57667,546.12 105.64333,507.17001 101.40667,503.07001 99.903336,508.53665 252.83333,63.823334 259.25665,64.643333 265.40668,67.103333 270.60001,71.203331 274.70001,76.396667 277.16,82.546669 277.98001,88.970001 277.16,95.393333 274.70001,101.54333 274.42667,101.95333 221.39999,190.37666 194.75,248.86999 193.79334,250.92 193.52,251.19333 192.15334,253.24333 161.81334,293.01334 144.86667,333.32999 143.63667,335.92667 143.5,336.06332 141.58667,338.79666 111.11,376.24335 107.01,390.86667 105.37,409.59 107.01,428.85998 111.11,443.62 141.99667,481.61334 144.04666,484.48334 145.27667,487.07999 161.95,526.98669 192.42667,566.62 194.20334,569.08002 195.16,571.13 220.85333,628.66669 274.42667,718.04669 274.70001,718.45667 277.16,724.60669 277.98001,731.03003 277.16,737.45331 274.70001,743.60333 270.60001,748.79669 265.40668,752.89667 259.25665,755.35669 252.83333,756.1767 88.970001,756.1767 82.546669,755.35669 76.396667,752.89667 71.203331,748.79669 67.103333,743.60333 64.643333,737.45331 63.823334,731.03003 63.823334,673.49335 56.169998,609.53332 56.033333,606.93665 56.033333,606.79999 56.169998,604.47668 61.91,555.14001 55.486668,511.81668 55.349998,508.67334 55.349998,508.39999 55.486668,505.53 62.866665,455.10001 59.996666,435.96668 59.860001,432.54999 59.860001,432.41333 58.766666,410.95666 58.766666,408.90668 59.860001,386.22 59.860001,385.81 59.996666,383.62332 63.003334,364.21668 55.486668,314.88 55.349998,311.73666 55.349998,311.60001 55.486668,308.59332 61.773335,264.85998 56.169998,215.52333 56.033333,213.06334 56.033333,212.92667 56.169998,210.46666 63.823334,146.36999 63.823334,88.970001 64.643333,82.546669 67.103333,76.396667 71.203331,71.203331 76.396667,67.103333 82.546669,64.643333 88.970001,63.823334 252.83333,63.823334 114.25333,114.11667 114.25333,148.14667 "
       id="polygon28"
       transform="rotate(-90,205.57464,410)"
       style="fill:#535353;stroke:none;stroke-width:1" />
    <polygon
       points="54.666668,149.51334 54.666668,150.74333 48.243332,212.92667 53.436668,263.22 53.436668,265.67999 53.299999,268.82333 47.696667,311.60001 54.256668,361.34668 54.393333,364.21668 54.393333,364.48999 54.256668,367.49667 51.523335,388.67999 50.566666,409.59 51.25,429.26999 51.25,429.40668 54.393333,451.95666 54.529999,455.10001 54.529999,455.37332 54.393333,458.51666 47.833332,508.67334 53.299999,551.1767 53.436668,554.18335 53.436668,556.78003 48.380001,606.79999 54.666668,669.12 54.803333,671.71668 54.939999,671.71668 54.939999,765.19665 313.10333,765.19665 228.23334,623.74664 227.96001,623.33667 227.68666,622.65332 227.00333,621.28668 200.76334,564.97998 170.42334,524.39001 168.78334,521.92999 167.55333,519.46997 150.19667,479.97333 119.03667,440.75 116.98666,437.74335 114.52666,431.59332 114.39,430.36334 113.70667,425.57999 113.57,417.92667 113.57,417.51666 113.43333,410.27335 113.43333,401.39002 113.70667,393.73666 114.52666,388.40668 115.21,386.63 116.98666,382.25665 119.03667,379.25 150.06,340.16333 167.41667,300.53 168.64667,298.07001 168.78334,297.93332 170.14999,295.60998 200.35333,255.42999 227.00333,198.57666 227.96001,196.66333 228.23334,196.25333 313.10333,54.803333 54.939999,54.803333 357.51999,4.51 363.94333,5.33 370.09332,7.79 375.28665,11.89 379.38666,17.083334 381.84668,23.233334 382.66666,29.656666 381.84668,36.080002 379.38666,42.23 379.11334,42.639999 271.69333,221.67334 271.69333,221.81 271.55667,222.08333 238.48334,277.70666 238.21001,278.11667 211.28667,322.53332 211.28667,322.67001 211.14999,322.94333 187.78,362.30334 187.50667,362.85001 161.13001,406.17334 160.17334,408.49667 160.03667,409.59 160.31,411.36667 161.26666,414.10001 187.91667,457.28665 188.05333,457.69666 210.74,496.37332 211.14999,496.78332 238.75667,541.74664 238.89333,542.15668 271.28332,597.64331 271.42001,597.78003 379.11334,777.35999 379.38666,777.77002 381.84668,783.91998 382.66666,790.34332 381.84668,796.76666 379.38666,802.91669 375.28665,808.10999 370.09332,812.21002 363.94333,814.66998 357.51999,815.48999 29.656666,815.48999 23.233334,814.66998 17.083334,812.21002 11.89,808.10999 7.79,802.91669 5.33,796.76666 4.51,790.34332 4.51,671.71668 3.826667,607.0733 3.826667,606.79999 4.236667,554.18335 3.826667,508.81 3.826667,508.39999 4.51,455.10001 4.1,432.95999 4.1,409.59 4.236667,387.17667 4.236667,386.63 4.373333,364.35333 4.373333,364.21668 3.963333,311.87332 3.963333,311.60001 4.236667,265.54334 3.963333,213.2 3.963333,212.92667 4.51,148.01 4.51,29.656666 5.33,23.233334 7.79,17.083334 11.89,11.89 17.083334,7.79 23.233334,5.33 29.656666,4.51 357.51999,4.51 54.939999,54.803333 54.939999,148.14667 "
       id="polygon30"
       transform="rotate(-90,205.57464,410)"
       style="fill:#535353;stroke:none;stroke-width:1" />
    <polygon
       points="148.69333,596.27667 150.60667,600.37665 171.38001,664.20001 171.65334,665.42999 172.47333,671.71668 171.65334,678.00336 169.33,683.88 165.36667,688.93665 160.31,692.90002 154.43333,695.22333 148.14667,696.04333 141.86,695.22333 135.98334,692.90002 130.92667,688.93665 126.96333,683.88 124.64,678.00336 124.36667,677.04669 109.33334,611.58331 108.92333,606.93665 109.60667,601.46997 111.79333,596.27667 115.07333,591.76666 119.58334,588.48669 124.77666,586.29999 130.24333,585.61664 135.71001,586.29999 140.90334,588.48669 145.41333,591.76666 "
       id="polygon32"
       transform="rotate(-90,205.57464,410)"
       style="fill:#595959;stroke:none;stroke-width:1" />
    <polygon
       points="169.33,135.98334 171.65334,141.86 172.47333,148.14667 171.65334,154.43333 171.38001,155.66333 150.47,219.62334 148.55667,223.72333 145.27667,228.23334 140.76666,231.51334 135.57333,233.7 130.10667,234.38333 124.64,233.7 119.44666,231.51334 114.93667,228.23334 111.65667,223.72333 109.47,218.53 108.78667,213.06334 109.19666,208.28 124.36667,142.67999 124.64,141.86 126.96333,135.98334 130.92667,130.92667 135.98334,126.96333 141.86,124.64 148.14667,123.82 154.43333,124.64 160.31,126.96333 165.36667,130.92667 "
       id="polygon34"
       transform="rotate(-90,205.57464,410)"
       style="fill:#595959;stroke:none;stroke-width:1" />
    <polygon
       points="113.02333,150.60667 112.75,153.20334 99.903336,213.06334 109.88,260.89667 110.15334,264.58667 110.29,265.67999 109.60667,271.69333 98.946663,311.60001 100.86,318.84332 106.05334,313.78665 117.53333,274.01666 119.85667,268.82333 119.85667,268.68668 123,264.58667 123.54667,263.76666 124.23,263.22 155.93666,228.78 175.89,170.69667 177.80333,166.46001 178.07666,166.05 209.78334,113.29667 113.43333,113.29667 252.83333,64.643333 252.83333,64.643333 99.083336,508.53665 109.60667,547.89667 109.74333,548.16998 110.42667,554.32001 110.01667,559.10333 100.04,606.79999 112.88666,666.65997 113.29667,671.71668 113.43333,671.71668 113.43333,706.70331 209.78334,706.70331 178.07666,653.81335 177.80333,653.40332 175.89,649.03003 156.21001,591.35669 123.82,556.50665 123.54667,556.23334 119.85667,551.31335 117.39667,545.5733 117.39667,545.29999 106.19,506.48666 100.99667,501.29334 99.083336,508.53665 252.83333,64.643333 259.12,65.463333 264.99667,67.786667 270.05334,71.75 274.01666,76.806664 276.34,82.683334 277.16,88.970001 276.34,95.256668 274.01666,101.13333 273.74335,101.54333 220.71666,189.83 194.20334,248.59666 193.11,250.51 191.60667,252.83333 161.13001,292.32999 144.32001,333.05667 143.09,335.51666 141.03999,338.38666 110.29,375.56 106.19,390.86667 104.55,409.45334 106.19,428.58667 110.15334,444.03 141.31334,482.02335 143.36333,484.89334 144.59334,487.35333 160.99333,527.39667 191.74333,567.03003 192.7,568.53332 193.38333,569.48999 194.47667,571.40332 220.71666,630.03332 273.74335,718.45667 274.01666,718.86664 276.34,724.74335 277.16,731.03003 276.34,737.31665 274.01666,743.19336 270.05334,748.25 264.99667,752.21332 259.12,754.53668 252.83333,755.35669 88.970001,755.35669 82.683334,754.53668 76.806664,752.21332 71.75,748.25 67.786667,743.19336 65.463333,737.31665 64.643333,731.03003 64.643333,673.49335 56.990002,609.39667 56.853333,606.93665 56.853333,606.79999 56.990002,604.47668 62.866665,555.14001 56.306667,511.81668 56.169998,508.67334 56.169998,508.39999 56.306667,505.53 63.823334,455.10001 60.816666,435.96668 60.68,432.54999 60.68,432.27667 59.586666,410.82001 59.586666,408.90668 60.68,386.22 60.816666,384.85333 60.953335,383.76001 63.959999,364.35333 56.169998,314.88 56.033333,311.73666 56.033333,311.60001 56.169998,308.59332 62.73,264.58667 56.853333,215.52333 56.716667,213.06334 56.716667,212.92667 56.853333,210.60333 64.643333,146.36999 64.643333,88.970001 65.463333,82.683334 67.786667,76.806664 71.75,71.75 76.806664,67.786667 82.683334,65.463333 88.970001,64.643333 252.83333,64.643333 113.43333,113.29667 113.43333,148.14667 "
       id="polygon36"
       transform="rotate(-90,205.57464,410)"
       style="fill:#595959;stroke:none;stroke-width:1" />
    <polygon
       points="53.983334,149.10333 53.983334,150.60667 47.560001,213.2 52.48,263.35666 52.48,265.67999 52.343334,268.54999 46.876667,311.73666 53.299999,361.48334 53.436668,364.21668 53.436668,364.48999 53.299999,367.35998 50.703335,388.54334 49.746666,409.31668 50.43,429.26999 50.43,429.54334 53.436668,452.23001 53.573334,455.10001 53.573334,455.37332 53.436668,458.38 46.876667,508.67334 52.343334,551.45001 52.48,554.18335 52.48,556.64331 47.560001,606.79999 53.983334,669.25665 53.983334,671.71668 54.119999,671.71668 54.119999,766.01666 314.47,766.01666 228.91667,623.33667 228.64333,622.9267 227.68666,621.01331 201.03667,563.88666 171.10667,523.70667 169.60333,521.52002 169.33,520.97333 168.37334,519.19665 150.88001,479.42667 119.72,440.06668 117.80666,437.19666 115.48333,431.32001 115.21,428.99667 114.66333,425.71668 114.39,418.06332 114.39,417.51666 114.25333,410.13666 114.25333,401.25333 114.66333,393.60001 115.48333,388.67999 117.80666,382.80334 119.72,379.93332 150.74333,340.70999 168.23666,300.80334 169.46666,298.61667 169.46666,298.48001 170.97,296.29334 200.89999,255.70334 227.82333,198.85001 228.64333,197.07333 228.91667,196.66333 314.47,53.983334 54.119999,53.983334 357.51999,5.33 363.80667,6.15 369.68332,8.473333 374.73999,12.436666 378.70334,17.493334 381.02667,23.370001 381.84668,29.656666 381.02667,35.943333 378.70334,41.82 378.42999,42.23 271.01001,221.26334 271.01001,221.39999 270.87332,221.67334 237.8,277.57001 237.66333,277.84332 210.46666,322.12332 210.46666,322.26001 187.50667,361.48334 187.23334,362.03 186.82333,362.57666 160.44667,405.35333 159.49,408.08667 159.21666,409.45334 159.49,411.64002 160.44667,414.51001 187.09666,457.69666 187.36999,458.10666 210.19333,496.92001 210.33,497.19333 237.93666,542.15668 238.21001,542.56665 270.60001,598.05335 270.73666,598.19 378.42999,777.77002 378.70334,778.17999 381.02667,784.05664 381.84668,790.34332 381.02667,796.63 378.70334,802.50665 374.73999,807.56335 369.68332,811.52667 363.80667,813.84998 357.51999,814.66998 29.656666,814.66998 23.370001,813.84998 17.493334,811.52667 12.436666,807.56335 8.473333,802.50665 6.15,796.63 5.33,790.34332 5.33,671.71668 4.646667,607.0733 4.646667,606.79999 5.193333,554.18335 4.646667,508.81 4.646667,508.39999 5.466667,455.10001 5.466667,454.69 4.92,432.95999 4.92,409.31668 5.056667,387.17667 5.056667,386.90332 5.33,364.21668 4.646667,311.87332 4.646667,311.60001 5.193333,265.40668 4.646667,213.2 4.646667,212.92667 5.33,148.01 5.33,29.656666 6.15,23.370001 8.473333,17.493334 12.436666,12.436666 17.493334,8.473333 23.370001,6.15 29.656666,5.33 357.51999,5.33 54.119999,53.983334 54.119999,148.14667 "
       id="polygon38"
       transform="rotate(-90,205.57464,410)"
       style="fill:#595959;stroke:none;stroke-width:1" />
    <polygon
       points="147.87334,596.68665 149.64999,600.65002 170.42334,664.47333 170.83333,665.70331 171.51666,671.71668 170.83333,677.72998 168.37334,683.46997 164.68333,688.25336 159.89999,691.94336 154.16,694.40332 148.14667,695.08667 142.13333,694.40332 136.39333,691.94336 131.61,688.25336 127.92,683.33331 125.46,677.72998 125.32333,676.90997 110.29,611.44665 109.88,606.93665 110.56333,601.74335 112.61334,596.8233 115.75667,592.45001 120.13,589.30664 125.05,587.25665 130.24333,586.5733 135.43666,587.25665 140.35667,589.30664 144.73,592.45001 "
       id="polygon40"
       transform="rotate(-90,205.57464,410)"
       style="fill:#606060;stroke:none;stroke-width:1" />
    <polygon
       points="168.37334,136.53 170.83333,142.13333 171.51666,148.14667 170.83333,154.16 170.42334,155.39 149.51334,219.35001 147.73666,223.17667 144.59334,227.55 140.35667,230.69333 135.3,232.74333 130.10667,233.42667 124.91333,232.74333 119.99333,230.69333 115.62,227.55 112.47667,223.31334 110.42667,218.25667 109.74333,213.06334 110.15334,208.55333 125.32333,142.95334 125.46,142.13333 127.92,136.39333 131.61,131.61 136.53,127.92 142.13333,125.46 148.14667,124.77666 154.16,125.46 159.89999,127.92 164.68333,131.61 "
       id="polygon42"
       transform="rotate(-90,205.57464,410)"
       style="fill:#606060;stroke:none;stroke-width:1" />
    <polygon
       points="112.20333,150.47 111.93,153.06667 98.946663,213.2 108.92333,261.03332 109.19666,264.45001 109.33334,265.67999 108.65,271.42001 98.126663,311.87332 100.45,320.48334 106.73666,314.33334 118.49,274.29001 120.67667,269.23334 122.45333,266.77335 123.68333,265.13333 123.82,264.85998 124.23,264.45001 124.50333,264.31332 156.75667,229.19 176.84666,170.97 178.76,167.00667 178.76,166.86999 178.89667,166.59666 211.42334,112.34 112.47667,112.34 252.83333,65.599998 252.83333,65.599998 98.126663,508.81 108.65,548.16998 108.78667,548.44336 109.47,554.32001 109.06,558.96668 98.946663,606.79999 111.93,666.93335 112.34,671.71668 112.47667,671.71668 112.47667,707.65997 211.56,707.65997 178.89667,653.26666 178.76,652.99335 178.07666,651.35333 176.84666,648.75665 157.16667,590.94665 124.50333,555.8233 124.23,555.54999 123.27333,554.18335 120.67667,550.76666 118.35333,545.29999 118.35333,545.16333 107.01,506.07666 100.58667,499.79001 98.126663,508.81 252.83333,65.599998 258.84668,66.283333 264.58667,68.743332 269.37,72.433334 273.06,77.216667 275.51999,82.956665 276.20334,88.970001 275.51999,94.98333 273.06,100.58667 272.92334,100.99667 219.62334,189.83 193.24667,248.18666 192.28999,250.10001 191.60667,251.05667 190.78667,252.28667 160.31,291.92001 143.5,332.64667 142.40666,335.10666 140.35667,337.97665 109.33334,375.28665 105.23333,390.86667 103.59333,409.86334 105.23333,428.85998 109.33334,444.44 139.39999,481.06668 142.67999,485.30334 143.77333,487.76334 160.31,528.08002 191.06,567.57666 192.15334,569.21668 192.56334,569.90002 193.52,571.81335 220.17,630.98999 272.92334,719.00336 273.06,719.41333 275.51999,725.01666 276.20334,731.03003 275.51999,737.04333 273.06,742.78332 272.78665,743.05664 269.37,747.56665 264.58667,751.25665 258.84668,753.71668 252.83333,754.40002 88.970001,754.40002 82.956665,753.71668 77.216667,751.25665 72.433334,747.56665 69.01667,743.05664 68.743332,742.78332 66.283333,737.04333 65.599998,731.03003 65.599998,673.35669 57.946667,609.39667 57.810001,606.93665 57.810001,606.79999 57.946667,604.61334 63.823334,554.86664 57.126667,511.67999 56.990002,508.67334 56.990002,508.39999 57.126667,505.66666 64.916664,455.10001 61.773335,435.82999 61.636665,432.54999 61.636665,432.27667 60.543335,410.95666 60.543335,408.90668 61.636665,386.22 61.636665,385.81 61.773335,383.76001 64.916664,364.21668 56.990002,314.88 56.853333,311.73666 56.853333,311.60001 56.990002,308.73001 63.686668,264.85998 57.810001,215.38667 57.673332,213.06334 57.673332,212.92667 57.810001,210.60333 65.599998,146.50667 65.599998,88.970001 66.283333,82.956665 68.743332,77.216667 72.433334,72.433334 77.216667,68.743332 82.956665,66.283333 88.970001,65.599998 252.83333,65.599998 112.47667,112.34 112.47667,148.14667 "
       id="polygon44"
       transform="rotate(-90,205.57464,410)"
       style="fill:#606060;stroke:none;stroke-width:1" />
    <polygon
       points="53.026669,149.10333 53.026669,150.47 46.466667,213.2 51.523335,263.49335 51.523335,265.67999 51.386665,268.41333 46.056667,311.60001 52.343334,361.62 52.48,364.21668 52.48,364.48999 52.343334,367.08667 49.746666,387.99667 48.790001,409.17999 49.473331,429.67999 52.48,452.36667 52.616665,454.96335 52.616665,455.37332 52.48,458.24335 46.056667,508.67334 51.386665,551.58667 51.523335,554.18335 51.523335,556.50665 46.466667,606.79999 53.026669,669.39331 53.026669,671.71668 53.163334,671.71668 53.163334,766.97333 316.24667,766.97333 229.73666,622.78998 229.60001,622.51666 229.32666,621.83331 228.64333,620.60333 202.26666,564.15997 171.92667,523.15997 170.42334,520.97333 169.33,518.78668 151.42667,478.88 120.54,439.38333 118.62666,436.78665 116.30334,431.04666 116.16666,429.67999 115.62,425.98999 115.34666,418.20001 115.34666,417.10666 115.21,410.41 115.21,400.98001 115.62,393.46335 116.30334,388.95334 118.08,384.57999 118.62666,383.21335 120.54,380.61667 151.28999,341.12 169.19333,301.21335 170.28667,299.02667 171.65334,296.84 201.72,256.25 228.64333,199.26 229.60001,197.61999 229.60001,197.48334 229.73666,197.21001 316.24667,53.026669 53.163334,53.026669 357.51999,6.286667 363.53332,6.97 369.27335,9.43 374.05667,13.12 377.74667,17.903334 380.20666,23.643333 380.89002,29.656666 380.20666,35.669998 377.74667,41.273335 377.60998,41.683334 270.05334,220.99 270.05334,221.12666 236.98,277.16 236.70666,277.43332 209.64667,321.71335 209.64667,321.85001 186.82333,360.93668 186.55,361.62 186.14,362.16666 159.62666,405.07999 158.67,407.40332 158.39667,410.27335 158.53334,411.91333 159.62666,414.92001 186.41333,458.10666 186.68666,458.51666 209.51,497.73999 237.11667,542.70331 237.39,543.11334 269.78,598.59998 269.91666,598.73669 377.60998,778.31665 377.74667,778.72668 380.20666,784.33002 380.89002,790.34332 380.20666,796.35669 377.74667,802.09668 377.47333,802.37 374.05667,806.88 369.27335,810.57001 363.53332,813.03003 357.51999,813.71332 29.656666,813.71332 23.643333,813.03003 17.903334,810.57001 13.12,806.88 9.703333,802.37 9.43,802.09668 6.97,796.35669 6.286667,790.34332 6.286667,671.71668 5.603333,607.0733 5.603333,606.79999 6.15,554.18335 5.466667,508.81 5.466667,508.39999 6.423333,454.96335 5.876667,432.95999 5.876667,409.86334 6.013333,387.17667 6.013333,386.90332 6.286667,364.21668 5.466667,312.01001 5.466667,311.60001 6.15,265.40668 6.15,265.13333 5.603333,213.2 5.603333,212.92667 6.286667,148.01 6.286667,29.656666 6.97,23.643333 9.43,17.903334 13.12,13.12 17.903334,9.43 23.643333,6.97 29.656666,6.286667 357.51999,6.286667 53.163334,53.026669 53.163334,148.14667 "
       id="polygon46"
       transform="rotate(-90,205.57464,410)"
       style="fill:#606060;stroke:none;stroke-width:1" />
    <polygon
       points="147.05333,597.23334 148.83,601.06 169.33,665.02002 169.60333,665.97668 170.28667,671.71668 169.60333,677.45667 167.41667,682.78668 163.86333,687.43335 159.21666,690.98669 153.88667,693.17334 148.14667,693.85669 142.40666,693.17334 137.07666,690.98669 132.42999,687.43335 128.87666,682.78668 126.69,677.45667 126.55334,676.63666 111.24667,611.31 110.83667,606.93665 111.38333,601.88 113.43333,597.23334 116.44,593.13336 120.54,590.12665 125.18667,588.07666 130.24333,587.53003 135.3,588.07666 139.94667,590.12665 144.04666,593.13336 "
       id="polygon48"
       transform="rotate(-90,205.57464,410)"
       style="fill:#686868;stroke:none;stroke-width:1" />
    <polygon
       points="167.41667,137.07666 169.60333,142.40666 170.28667,148.14667 169.60333,153.88667 169.33,154.98 148.55667,218.94 146.78,222.63001 143.77333,226.73 139.81,229.73666 135.02667,231.78667 130.10667,232.33333 125.18667,231.78667 120.54,229.73666 116.44,226.73 113.43333,222.76666 111.38333,217.98334 110.83667,213.06334 111.24667,208.69 126.55334,143.09 126.69,142.40666 128.87666,137.07666 132.42999,132.42999 137.07666,128.87666 142.40666,126.69 148.14667,126.00667 153.88667,126.69 159.21666,128.87666 163.86333,132.42999 "
       id="polygon50"
       transform="rotate(-90,205.57464,410)"
       style="fill:#686868;stroke:none;stroke-width:1" />
    <polygon
       points="110.97334,150.33333 110.7,152.65666 97.716667,212.92667 107.69334,261.44333 108.10333,265.40668 108.10333,265.67999 107.42,271.01001 96.896667,311.60001 99.903336,322.53332 107.83,314.74335 119.72,274.56332 121.77,269.91666 121.77,269.78 124.50333,266.09 157.57666,230.01 178.07666,171.38001 179.71666,167.55333 180.26334,166.86999 213.74667,111.11 111.24667,111.11 252.83333,66.830002 252.83333,66.830002 97.033333,508.67334 107.55666,548.85333 108.24,554.32001 107.83,558.55664 97.989998,607.0733 110.7,667.20667 111.11,671.71668 111.24667,671.71668 111.24667,708.89001 213.74667,708.89001 179.99,652.58331 179.71666,652.31 177.94,648.48334 157.71333,590.12665 124.50333,553.90997 121.77,550.21997 119.72,545.43665 107.96667,505.53 99.903336,497.46668 97.033333,508.67334 252.83333,66.830002 258.57333,67.513336 263.90332,69.699997 268.54999,73.253334 272.10333,77.900002 274.29001,83.230003 274.97333,88.970001 274.29001,94.709999 272.10333,100.04 271.82999,100.31333 218.66667,188.73666 192.28999,247.64 191.33333,249.55333 190.92334,250.10001 189.96666,251.60333 159.35333,291.10001 142.54334,332.23666 141.45,334.56 139.53667,337.29334 108.24,374.60333 104.14,390.18332 102.5,409.31668 104.00333,429.26999 108.24,445.26001 139.81,483.11667 141.45,485.44 141.72333,485.85001 142.81667,488.31 159.21666,528.48999 190.24,568.12335 191.06,569.48999 191.74333,570.44665 192.7,572.35999 219.07666,631.67334 271.55667,719.27667 272.10333,719.96002 274.29001,725.28998 274.97333,731.03003 274.29001,736.77002 272.10333,742.09998 268.54999,746.74664 263.90332,750.29999 258.57333,752.48669 252.83333,753.16998 88.970001,753.16998 83.230003,752.48669 77.900002,750.29999 73.253334,746.74664 69.699997,742.09998 67.513336,736.77002 66.830002,731.03003 66.830002,673.35669 58.903332,609.26001 58.766666,606.93665 58.766666,606.66333 58.903332,604.61334 65.053337,554.59332 58.220001,511.67999 58.083332,508.67334 58.083332,508.39999 58.220001,505.80334 66.010002,455.23666 63.003334,435.69333 62.866665,432.54999 61.636665,410.82001 61.636665,408.90668 62.73,386.22 62.73,385.81 62.866665,384.03332 66.010002,364.21668 58.083332,314.74335 57.946667,311.73666 57.946667,311.32666 58.083332,308.86667 64.916664,264.99667 58.903332,215.38667 58.766666,213.06334 58.903332,211.28667 58.903332,210.74 66.830002,146.50667 66.830002,88.970001 67.513336,83.230003 69.699997,77.900002 73.253334,73.253334 77.900002,69.699997 83.230003,67.513336 88.970001,66.830002 252.83333,66.830002 111.24667,111.11 111.24667,148.14667 "
       id="polygon52"
       transform="rotate(-90,205.57464,410)"
       style="fill:#686868;stroke:none;stroke-width:1" />
    <polygon
       points="51.796665,149.10333 51.796665,150.33333 45.373333,213.06334 50.293335,263.63 50.293335,265.67999 50.156666,268.14002 44.963333,311.32666 51.113335,361.89334 51.25,364.21668 51.25,364.48999 51.113335,366.95001 48.653332,387.99667 47.696667,409.31668 48.380001,430.77335 51.25,452.50333 51.386665,454.96335 51.386665,455.37332 51.25,457.97 44.963333,508.39999 50.156666,551.85999 50.293335,553.90997 50.293335,556.23334 45.509998,606.66333 51.796665,669.53003 51.796665,671.71668 51.933334,671.71668 51.933334,768.20331 318.43332,768.20331 230.83,622.10669 230.55667,621.83331 229.73666,620.19336 202.95,563.34003 172.74667,522.34003 171.51666,520.4267 171.38001,519.88 170.42334,518.37665 152.65666,478.74335 121.36,438.56332 119.72,436.10333 117.53333,430.77335 116.85,425.85333 116.57667,418.20001 116.57667,417.10666 116.30334,410.27335 116.30334,401.11667 116.85,393.46335 117.53333,389.22665 119.72,383.89667 120.95,382.25665 121.49667,381.43668 152.38333,341.39334 170.28667,301.62332 171.38001,299.70999 171.38001,299.57333 172.61,297.66 202.81334,256.52335 229.73666,199.67 230.55667,198.16667 231.10333,197.48334 318.43332,51.796665 51.933334,51.796665 357.51999,7.516667 363.26001,8.2 368.59,10.386666 373.23666,13.94 376.79001,18.586666 378.97665,23.916666 379.66,29.656666 378.97665,35.396667 376.79001,40.726665 376.51666,41 269.37,219.76 269.09668,220.30667 268.95999,220.44333 236.02333,276.47665 235.75,276.88666 208.55333,321.03 208.55333,321.16666 185.59334,361.07333 185.18333,361.62 158.53334,404.26001 157.57666,406.85666 157.16667,410.27335 157.44,412.59668 158.53334,415.60333 185.45666,458.65332 185.86667,459.20001 208.28,498.14999 208.41667,498.28665 236.29666,543.11334 236.43333,543.52332 236.57001,543.65997 269.09668,599.69336 269.37,600.23999 376.24335,778.59003 376.79001,779.27332 378.97665,784.60333 379.66,790.34332 378.97665,796.08331 376.79001,801.41333 373.23666,806.06 368.59,809.61334 363.26001,811.79999 357.51999,812.48334 29.656666,812.48334 23.916666,811.79999 18.586666,809.61334 13.94,806.06 10.386666,801.41333 8.2,796.08331 7.516667,790.34332 7.516667,671.71668 6.56,607.21002 6.56,606.66333 7.38,554.04669 7.38,553.90997 6.56,508.94666 6.56,508.39999 7.653333,454.96335 7.106667,432.95999 7.106667,432.14002 6.97,409.86334 6.97,409.72665 7.106667,387.17667 7.106667,386.90332 7.516667,364.21668 6.56,312.01001 6.56,311.32666 7.38,265.40668 6.696667,213.2 6.696667,212.92667 7.516667,147.87334 7.516667,29.656666 8.2,23.916666 10.386666,18.586666 13.94,13.94 18.586666,10.386666 23.916666,8.2 29.656666,7.516667 357.51999,7.516667 51.933334,51.796665 51.933334,148.14667 "
       id="polygon54"
       transform="rotate(-90,205.57464,410)"
       style="fill:#686868;stroke:none;stroke-width:1" />
    <polygon
       points="145.96001,597.91669 147.46333,601.46997 167.82666,665.56665 168.10001,666.38666 168.78334,671.71668 168.10001,677.04669 166.05,682.10333 162.77,686.34003 158.53334,689.62 153.47667,691.66998 148.14667,692.35333 142.81667,691.66998 137.76,689.62 133.52333,686.34003 130.24333,681.96668 128.19333,677.04669 128.05667,676.36334 112.61334,611.03668 112.20333,606.93665 112.75,602.28998 114.52666,597.91669 117.39667,594.09003 121.22334,591.21997 125.59666,589.44336 130.24333,588.89667 134.89,589.44336 139.26334,591.21997 143.09,594.09003 "
       id="polygon56"
       transform="rotate(-90,205.57464,410)"
       style="fill:#727272;stroke:none;stroke-width:1" />
    <polygon
       points="166.05,137.89667 168.10001,142.81667 168.78334,148.14667 168.10001,153.47667 167.82666,154.43333 147.32666,218.53 145.82333,222.08333 142.95334,225.91 139.12666,228.78 134.75333,230.55667 130.10667,231.10333 125.46,230.55667 121.08667,228.78 117.26,225.91 114.39,222.08333 112.61334,217.71001 112.06667,213.06334 112.47667,208.96333 128.05667,143.36333 128.19333,142.81667 130.24333,137.76 133.52333,133.52333 137.89667,130.24333 142.81667,128.19333 148.14667,127.51 153.47667,128.19333 158.53334,130.24333 162.77,133.52333 "
       id="polygon58"
       transform="rotate(-90,205.57464,410)"
       style="fill:#727272;stroke:none;stroke-width:1" />
    <polygon
       points="109.47,150.06 109.19666,152.38333 96.486664,213.2 106.46333,261.71668 106.73666,265.40668 106.73666,265.67999 106.19,270.73666 95.529999,311.60001 99.083336,325.26666 108.92333,315.56332 121.08667,274.83667 122.72667,270.87332 122.86334,270.46335 125.46,267.04666 158.80667,230.42 179.44333,171.78999 180.67334,169.05667 181.22,167.96333 216.20666,109.60667 109.74333,109.60667 252.83333,68.333336 252.83333,68.333336 95.666664,508.53665 106.32667,549.26331 106.6,551.85999 106.87334,554.32001 106.6,558.28332 96.623337,606.93665 109.19666,667.61664 109.60667,671.71668 109.74333,671.71668 109.74333,710.39331 216.34334,710.39331 181.22,651.90002 180.67334,650.80664 179.44333,648.0733 159.08,589.71668 125.46,552.95331 122.86334,549.53668 120.95,544.61664 120.95,544.34332 109.06,504.84668 99.220001,495.00665 95.666664,508.53665 252.83333,68.333336 258.16333,69.01667 263.22,71.066666 267.45666,74.346664 270.73666,78.583336 272.78665,83.639999 273.47,88.970001 272.78665,94.300003 270.73666,99.220001 270.60001,99.629997 217.16333,188.60001 191.19667,247.09334 190.64999,248.18666 190.37666,248.86999 188.87334,250.92 158.12334,290.41666 141.31334,331.69 140.22,333.87668 138.44333,336.47333 107.01,373.92001 102.77333,390.32001 101.13333,409.31668 102.63666,429.40668 106.87334,445.67001 138.85333,483.93668 139.81,485.44 140.63001,486.39667 141.72333,488.72 157.98666,529.31 189.14667,568.94336 190.64999,571.13 191.47,572.90668 217.3,631.40002 270.60001,720.37 270.73666,720.78003 272.78665,725.70001 273.47,731.03003 272.78665,736.35999 270.73666,741.41669 270.46335,741.69 267.45666,745.65332 263.22,748.93335 258.16333,750.98334 252.83333,751.66669 88.970001,751.66669 83.639999,750.98334 78.583336,748.93335 74.346664,745.65332 71.339996,741.69 71.066666,741.41669 69.01667,736.35999 68.333336,731.03003 68.333336,673.21997 60.27,609.12335 60.133335,606.93665 60.27,605.29669 60.27,604.75 66.419998,554.72998 59.450001,511.40668 59.313332,508.67334 59.313332,508.12668 59.450001,505.94 67.513336,455.37332 64.370003,435.55667 64.23333,432.54999 63.003334,410.82001 63.003334,409.04334 64.096664,386.35666 64.23333,384.85333 64.23333,384.03332 67.513336,364.07999 59.450001,314.60666 59.313332,311.73666 59.450001,310.37 59.450001,309.00333 66.283333,264.99667 60.133335,215.25 59.996666,213.06334 60.133335,211.42334 60.133335,210.87666 68.333336,146.64333 68.333336,88.970001 69.01667,83.639999 71.066666,78.583336 74.346664,74.346664 78.583336,71.066666 83.639999,69.01667 88.970001,68.333336 252.83333,68.333336 109.74333,109.60667 109.74333,148.14667 "
       id="polygon60"
       transform="rotate(-90,205.57464,410)"
       style="fill:#727272;stroke:none;stroke-width:1" />
    <polygon
       points="50.293335,149.10333 50.293335,150.06 44.143333,212.78999 48.926666,263.90332 48.926666,265.67999 48.790001,268.00333 43.733334,311.46335 49.610001,362.16666 49.746666,364.07999 49.746666,366.67667 47.286667,388.81668 46.330002,409.04334 46.330002,409.31668 47.013332,431.04666 49.746666,452.91333 49.883335,454.96335 49.883335,455.37332 49.746666,457.69666 43.869999,508.67334 48.790001,551.99664 48.926666,554.04669 48.926666,556.09668 44.143333,606.66333 50.293335,669.80335 50.293335,671.71668 50.43,671.71668 50.43,769.70667 321.03,769.70667 232.06,621.42334 231.64999,620.60333 231.10333,619.64667 203.77,562.10999 173.84,521.52002 172.61,519.74335 172.33667,519.06 171.78999,517.96668 153.47667,477.78665 122.59,437.60666 121.08667,435.42001 119.03667,430.36334 119.03667,430.22665 118.35333,426.12668 117.94334,418.47333 117.94334,417.51666 117.67,410.27335 117.67,400.84332 118.35333,393.19 119.03667,389.63666 119.17333,389.22665 121.08667,384.57999 122.59,382.39334 153.61333,342.21335 171.65334,302.17001 172.47333,300.39334 172.47333,300.25665 173.70334,298.48001 203.90666,257.20666 231.10333,200.35333 231.92334,198.98666 231.92334,198.85001 232.06,198.57666 321.03,50.293335 50.43,50.293335 357.51999,9.02 362.85001,9.703333 367.90668,11.753333 372.14334,15.033334 375.42334,19.27 377.47333,24.326666 378.15668,29.656666 377.47333,34.986668 375.42334,39.906666 375.28665,40.316666 267.73001,219.62334 235.47667,274.83667 235.06667,275.79334 234.79334,276.20334 207.59666,319.93668 207.46001,320.34668 184.36333,360.39002 184.09,360.93668 157.03,403.98666 156.34666,406.03665 155.93666,409.86334 156.21001,413.28 157.30333,416.56 184.36333,459.20001 184.77333,459.74667 184.77333,459.88333 207.18666,498.97 235.06667,543.79669 235.47667,544.34332 267.18332,599.69336 267.59332,600.10333 375.28665,779.68335 375.42334,780.09332 377.47333,785.01331 378.15668,790.34332 377.47333,795.67334 375.42334,800.72998 375.14999,801.00336 372.14334,804.96668 367.90668,808.24664 362.85001,810.29669 357.51999,810.97998 29.656666,810.97998 24.326666,810.29669 19.27,808.24664 15.033334,804.96668 12.026667,801.00336 11.753333,800.72998 9.703333,795.67334 9.02,790.34332 9.02,671.71668 7.926667,607.21002 7.926667,606.66333 8.746667,554.04669 8.746667,553.63666 7.79,508.94666 7.79,508.12668 9.156667,454.96335 8.473333,433.09668 8.473333,432.00333 8.336667,409.86334 8.336667,409.31668 8.473333,387.17667 8.473333,386.90332 9.02,364.07999 7.926667,312.01001 7.926667,311.46335 8.746667,265.40668 7.926667,213.33667 7.926667,212.78999 9.02,147.87334 9.02,29.656666 9.703333,24.326666 11.753333,19.27 15.033334,15.033334 19.27,11.753333 24.326666,9.703333 29.656666,9.02 357.51999,9.02 50.43,50.293335 50.43,148.14667 "
       id="polygon62"
       transform="rotate(-90,205.57464,410)"
       style="fill:#727272;stroke:none;stroke-width:1" />
    <polygon
       points="144.59334,598.59998 146.09666,602.01666 166.18666,666.11334 166.46001,666.93335 167.00667,671.71668 166.46001,676.5 164.54666,681.14667 161.53999,685.10999 157.57666,688.11664 152.92999,690.03003 148.14667,690.57666 143.36333,690.03003 138.71666,688.11664 134.75333,685.10999 131.74667,681.14667 129.83333,676.5 129.69667,676.09003 114.11667,610.76331 113.70667,606.93665 114.25333,602.70001 115.89333,598.73669 118.49,595.18335 122.04333,592.58667 126.00667,590.94665 130.24333,590.40002 134.48,590.94665 138.44333,592.58667 141.99667,595.18335 "
       id="polygon64"
       transform="rotate(-90,205.57464,410)"
       style="fill:#7e7e7e;stroke:none;stroke-width:1" />
    <polygon
       points="164.54666,138.71666 166.46001,143.36333 167.00667,148.14667 166.46001,152.92999 166.18666,153.75 145.82333,217.98334 144.32001,221.26334 141.72333,224.67999 138.30667,227.27667 134.34334,228.91667 130.10667,229.46333 125.87,228.91667 121.90667,227.27667 118.49,224.67999 115.89333,221.26334 114.25333,217.3 113.70667,213.06334 114.11667,209.23666 129.69667,143.77333 129.83333,143.36333 131.74667,138.71666 134.75333,134.75333 138.71666,131.74667 143.36333,129.83333 148.14667,129.28667 152.92999,129.83333 157.57666,131.74667 161.53999,134.75333 "
       id="polygon66"
       transform="rotate(-90,205.57464,410)"
       style="fill:#7e7e7e;stroke:none;stroke-width:1" />
    <polygon
       points="107.69334,149.78667 107.55666,151.97333 94.846664,213.06334 104.68667,262.12668 104.68667,262.81 104.96,265.67999 104.41333,270.19 93.889999,311.73666 98.263336,328.27335 110.42667,316.24667 122.72667,275.24667 124.50333,271.42001 125.32333,270.32666 126.69,268.27667 160.31,231.10333 181.22,172.33667 182.58667,169.19333 182.72333,168.92 219.35001,107.83 107.96667,107.83 252.83333,70.110001 252.83333,70.110001 94.026665,508.67334 104.41333,549.40002 104.55,549.67334 105.09666,554.32001 104.82333,557.87335 95.120003,606.79999 107.55666,668.02667 107.69334,670.07666 107.83,671.71668 107.96667,671.71668 107.96667,712.16998 219.48666,712.16998 182.72333,650.94336 182.58667,650.66998 181.08333,647.52667 160.31,588.89667 127.64667,552.54333 127.37334,552.40668 124.50333,548.58002 122.72667,544.61664 110.56333,503.89002 98.400002,491.72665 94.026665,508.67334 252.83333,70.110001 257.61667,70.65667 262.26334,72.57 266.22665,75.576668 269.23334,79.540001 271.14667,84.186668 271.69333,88.970001 271.14667,93.753334 269.23334,98.400002 269.09668,98.673332 215.79666,187.50667 189.69333,246.41 188.87334,248.05 187.64333,249.96333 156.48334,289.87 139.94667,331.00665 138.85333,333.19333 138.30667,333.87668 137.21333,335.51666 105.23333,373.23666 100.99667,389.77335 99.493332,409.72665 100.99667,429.40668 105.23333,446.62668 137.48666,484.89334 138.58,486.53332 139.12666,487.21668 140.22,489.40332 156.48334,530.26666 187.91667,569.90002 188.05333,570.17334 189.28334,571.81335 190.10333,573.59003 215.79666,632.35669 269.09668,721.32666 269.23334,721.59998 271.14667,726.24664 271.69333,731.03003 271.14667,735.81335 269.23334,740.46002 266.22665,744.42334 262.26334,747.42999 257.61667,749.34332 252.83333,749.89001 88.970001,749.89001 84.186668,749.34332 79.540001,747.42999 75.576668,744.42334 72.57,740.46002 70.65667,735.81335 70.110001,731.03003 70.110001,672.94665 61.773335,608.98669 61.636665,606.93665 61.636665,604.88666 68.196663,554.72998 61.09,511.26999 60.953335,508.67334 60.953335,508.26334 61.09,506.07666 69.290001,455.37332 66.010002,435.42001 65.873337,432.54999 64.643333,410.68332 64.643333,409.04334 65.873337,386.35666 66.010002,385.26334 66.010002,384.30667 69.290001,364.48999 60.953335,314.33334 60.816666,311.73666 60.816666,311.46335 60.953335,309.14002 68.059998,265.13333 61.636665,215.11333 61.636665,213.06334 61.773335,211.69667 61.773335,211.01334 70.110001,146.78 70.110001,88.970001 70.65667,84.186668 72.57,79.540001 75.576668,75.576668 79.540001,72.57 84.186668,70.65667 88.970001,70.110001 252.83333,70.110001 107.96667,107.83 107.96667,148.14667 "
       id="polygon68"
       transform="rotate(-90,205.57464,410)"
       style="fill:#7e7e7e;stroke:none;stroke-width:1" />
    <polygon
       points="48.516666,149.10333 48.516666,149.78667 42.503334,212.78999 47.150002,264.04001 47.150002,267.73001 42.093334,311.73666 47.970001,362.44 47.970001,366.40332 45.509998,388.54334 44.689999,409.04334 44.689999,409.31668 45.373333,430.22665 45.373333,430.5 48.106667,453.18668 48.106667,457.42334 42.093334,508.67334 47.150002,552.27002 47.150002,555.96002 42.639999,606.66333 48.516666,670.07666 48.516666,671.71668 48.653332,671.71668 48.653332,771.48334 324.17334,771.48334 233.56334,620.46668 233.42667,620.19336 232.74333,618.96332 205.27333,561.4267 175.20666,520.4267 174.25,518.78668 173.42999,517.28332 154.98,476.96668 123.95667,436.51334 122.59,434.46335 120.67667,429.95334 120.13,426.39999 119.58334,418.74667 119.58334,417.24335 119.31,410.27335 119.31,409.31668 119.44666,402.20999 119.44666,400.84332 120.13,393.19 120.67667,390.04666 122.59,385.53665 123.95667,383.48666 154.70666,343.17001 173.29334,302.71668 174.11333,301.21335 175.07001,299.57333 205.41,258.16333 232.74333,201.03667 233.42667,199.80667 233.56334,199.53334 324.17334,48.516666 48.653332,48.516666 357.51999,10.796667 362.30334,11.343333 366.95001,13.256667 370.91333,16.263334 373.92001,20.226667 375.83334,24.873333 376.38,29.656666 375.83334,34.439999 373.92001,39.086666 373.78332,39.360001 266.22665,218.66667 233.56334,274.97333 233.28999,275.38333 205.95666,319.39002 183.13333,359.57001 182.99667,359.70666 182.72333,360.25333 155.66333,402.89334 154.57001,406.03665 154.16,409.31668 154.70666,414.10001 155.8,417.24335 182.99667,460.01999 182.99667,460.15668 183.27,460.56668 183.40666,460.70334 205.68333,499.92667 233.42667,544.07001 234.11,545.02667 234.11,545.16333 265.67999,600.65002 266.09,601.06 373.78332,780.64001 373.92001,780.91333 375.83334,785.56 376.38,790.34332 375.83334,795.12665 373.92001,799.77332 370.91333,803.73669 366.95001,806.74335 362.30334,808.65668 357.51999,809.20331 29.656666,809.20331 24.873333,808.65668 20.226667,806.74335 16.263334,803.73669 13.256667,799.77332 11.343333,795.12665 10.796667,790.34332 10.796667,671.71668 9.43,607.21002 9.43,606.66333 10.523334,554.04669 9.43,508.94666 9.43,508.26334 10.933333,454.96335 10.933333,454.69 10.113334,433.09668 10.113334,432.00333 9.976666,409.86334 9.976666,409.31668 10.25,387.04001 10.25,386.76666 10.796667,364.07999 9.43,312.14667 9.43,311.46335 10.523334,265.26999 9.566667,213.33667 9.566667,212.78999 10.796667,147.87334 10.796667,29.656666 11.343333,24.873333 13.256667,20.226667 16.263334,16.263334 20.226667,13.256667 24.873333,11.343333 29.656666,10.796667 357.51999,10.796667 48.653332,48.516666 48.653332,148.14667 "
       id="polygon70"
       transform="rotate(-90,205.57464,410)"
       style="fill:#7e7e7e;stroke:none;stroke-width:1" />
    <polygon
       points="142.95334,599.55664 144.32001,602.70001 164.13667,666.79669 164.27333,667.47998 164.82001,671.71668 164.27333,675.95331 162.63333,680.05335 159.89999,683.46997 156.48334,686.20331 152.38333,687.84332 148.14667,688.39001 143.91,687.84332 139.81,686.20331 136.39333,683.46997 133.66,680.05335 132.02,675.95331 131.88333,675.67999 116.03,610.35333 115.62,606.93665 116.03,603.24664 117.53333,599.69336 119.85667,596.54999 123,594.22668 126.55334,592.72333 130.24333,592.31335 133.93333,592.72333 137.48666,594.22668 140.63001,596.54999 "
       id="polygon72"
       transform="rotate(-90,205.57464,410)"
       style="fill:#8c8c8c;stroke:none;stroke-width:1" />
    <polygon
       points="162.63333,139.81 164.27333,143.91 164.82001,148.14667 164.27333,152.38333 164.13667,153.06667 144.18333,217.43666 142.81667,220.30667 140.49333,223.45 137.48666,225.77333 133.79666,227.27667 130.10667,227.68666 126.41666,227.27667 122.86334,225.77333 119.72,223.45 117.39667,220.44333 115.89333,216.75333 115.48333,213.06334 115.89333,209.64667 131.88333,144.18333 132.02,143.91 133.66,139.81 136.39333,136.39333 139.81,133.66 143.91,132.02 148.14667,131.47333 152.38333,132.02 156.48334,133.66 159.89999,136.39333 "
       id="polygon74"
       transform="rotate(-90,205.57464,410)"
       style="fill:#8c8c8c;stroke:none;stroke-width:1" />
    <polygon
       points="105.50667,149.51334 105.37,151.42667 92.933334,213.06334 102.63666,262.53665 102.63666,263.08334 102.91,265.67999 102.5,269.50665 91.976669,311.60001 97.169998,332.10001 111.93,317.34 124.77666,275.79334 126.28,272.51334 126.28,272.37668 128.19333,269.64334 161.95,232.06 183.27,173.02 184.5,170.28667 184.63667,170.01334 223.31334,105.64333 105.78,105.64333 252.83333,72.296669 252.83333,72.296669 92.113335,508.53665 102.63666,550.35669 102.91,553.36334 103.04667,554.32001 102.77333,557.46332 93.07,606.66333 105.37,668.43665 105.50667,670.34998 105.64333,671.71668 105.78,671.71668 105.78,714.35669 223.31334,714.35669 184.63667,649.84998 184.5,649.57666 183.27,646.84332 162.22333,587.94 128.19333,550.35669 126.28,547.62335 124.64,543.65997 124.50333,542.97668 112.06667,502.93332 97.306664,488.03665 92.113335,508.53665 252.83333,72.296669 257.07001,72.84333 261.17001,74.48333 264.58667,77.216667 267.32001,80.633331 268.95999,84.73333 269.50665,88.970001 268.95999,93.206665 267.32001,97.306664 267.18332,97.580002 213.74667,186.41333 188.19,245.72667 187.36999,247.23 186.41333,248.46001 186.14,248.86999 154.57001,288.91333 138.30667,330.32333 137.35001,332.23666 135.84666,334.42334 103.45667,372.28 99.083336,389.77335 97.580002,409.72665 98.946663,429.95334 103.45667,447.58334 136.11999,485.98666 137.62334,488.17334 138.58,490.08667 154.70666,531.22333 186.41333,570.99335 187.09666,572.08667 187.64333,572.77002 188.46333,574.40997 213.47333,632.90332 267.18332,722.41998 267.32001,722.69336 268.95999,726.79333 269.50665,731.03003 268.95999,735.26666 267.32001,739.36664 264.58667,742.78332 261.17001,745.51666 257.07001,747.15668 252.83333,747.70331 88.970001,747.70331 84.73333,747.15668 80.633331,745.51666 77.216667,742.78332 74.48333,739.36664 72.84333,735.26666 72.296669,731.03003 72.296669,672.94665 63.549999,608.84998 63.549999,605.02332 70.246666,554.86664 62.866665,510.99667 62.73,508.67334 62.73,508.26334 62.866665,506.35001 71.476669,455.37332 68.059998,435.01001 67.923332,432.54999 66.556664,410.68332 66.556664,409.04334 67.786667,386.35666 67.923332,384.85333 67.923332,384.57999 71.476669,364.48999 62.73,314.19666 62.593334,311.73666 62.593334,311.32666 62.73,309.41333 70.110001,265.13333 63.413334,214.97667 63.413334,211.14999 72.296669,146.91667 72.296669,88.970001 72.84333,84.73333 74.48333,80.633331 77.216667,77.216667 80.633331,74.48333 84.73333,72.84333 88.970001,72.296669 252.83333,72.296669 105.78,105.64333 105.78,148.14667 "
       id="polygon76"
       transform="rotate(-90,205.57464,410)"
       style="fill:#8c8c8c;stroke:none;stroke-width:1" />
    <polygon
       points="46.330002,148.96666 46.330002,149.51334 40.726665,212.78999 45.099998,264.31332 45.099998,267.32001 40.316666,311.73666 45.919998,362.71335 45.919998,366.13 43.596668,388.40668 42.776669,409.04334 42.776669,409.45334 43.323334,430.63666 43.323334,430.77335 46.056667,453.45999 46.056667,457.14999 40.316666,508.67334 45.099998,552.54333 45.099998,555.68665 40.726665,606.52667 46.330002,670.34998 46.330002,671.71668 46.466667,671.71668 46.466667,773.66998 328,773.66998 235.47667,619.37335 234.79334,618.00665 206.91333,560.74335 176.84666,519.19665 176.02667,517.83002 175.34334,516.46332 156.48334,476.01001 125.46,435.14667 124.36667,433.50665 122.72667,429.40668 122.59,428.58667 122.18,426.26334 121.63333,418.60998 121.63333,416.97 121.22334,410.54666 121.22334,409.45334 121.36,402.07333 121.36,400.84332 122.18,393.32666 122.72667,390.59332 123.54667,388.67999 124.36667,386.49335 125.46,384.85333 156.34666,343.98999 175.20666,303.53665 175.89,302.30667 175.89,302.17001 176.71001,300.80334 206.50333,259.39334 234.79334,201.85667 235.34,200.89999 235.47667,200.62666 328,46.330002 46.466667,46.330002 357.51999,12.983334 361.75665,13.53 365.85666,15.17 369.27335,17.903334 372.00665,21.32 373.64667,25.42 374.19333,29.656666 373.64667,33.893333 372.00665,37.993332 371.87,38.266666 264.31332,217.57333 232.06,274.01666 231.78667,274.56332 204.04334,318.57001 181.63001,358.61334 181.49333,358.75 181.22,359.29666 153.88667,401.79999 152.65666,405.48999 152.24667,409.17999 152.65666,414.37332 153.88667,418.06332 181.49333,460.97665 181.76666,461.52335 181.90334,461.66 203.77,500.74667 203.90666,500.88333 232.19667,545.5733 232.47,545.98334 232.60667,546.12 264.17667,602.15332 371.87,781.73334 372.00665,782.00665 373.64667,786.10669 374.19333,790.34332 373.64667,794.58002 372.00665,798.67999 369.27335,802.09668 365.85666,804.83002 361.75665,806.46997 357.51999,807.01666 29.656666,807.01666 25.42,806.46997 21.32,804.83002 17.903334,802.09668 15.17,798.67999 13.53,794.58002 12.983334,790.34332 12.983334,671.71668 11.343333,607.21002 11.343333,606.52667 12.573334,554.04669 11.206667,509.08334 11.206667,508.26334 12.983334,454.96335 12.983334,454.69 12.163333,433.09668 12.163333,432.14002 11.89,410 11.89,409.45334 12.163333,387.04001 12.163333,386.49335 12.846666,364.07999 11.206667,312.14667 11.206667,311.32666 12.573334,265.26999 12.573334,264.85998 11.343333,213.33667 11.343333,212.78999 12.983334,147.87334 12.983334,29.656666 13.53,25.42 15.17,21.32 17.903334,17.903334 21.32,15.17 25.42,13.53 29.656666,12.983334 357.51999,12.983334 46.466667,46.330002 46.466667,148.14667 "
       id="polygon78"
       transform="rotate(-90,205.57464,410)"
       style="fill:#8c8c8c;stroke:none;stroke-width:1" />
    <polygon
       points="141.03999,600.65002 142.13333,603.38336 161.81334,667.61664 161.95,668.02667 162.36,671.71668 161.95,675.40668 160.44667,678.8233 158.26,681.83002 155.25333,684.01666 151.83667,685.52002 148.14667,685.92999 144.45666,685.52002 141.03999,684.01666 138.03334,681.83002 135.84666,678.8233 134.34334,675.40668 134.34334,675.13336 118.08,609.94336 117.80666,606.93665 118.21667,603.79333 119.44666,600.78668 121.36,598.05335 124.09333,596.14001 127.1,594.90997 130.24333,594.5 133.38667,594.90997 136.39333,596.14001 139.12666,598.05335 "
       id="polygon80"
       transform="rotate(-90,205.57464,410)"
       style="fill:#9e9e9e;stroke:none;stroke-width:1" />
    <polygon
       points="160.44667,141.03999 161.95,144.45666 162.36,148.14667 161.95,151.83667 161.81334,152.24667 141.86,216.61667 140.76666,219.21333 138.85333,221.81 136.25667,223.72333 133.25,224.95334 130.10667,225.36333 126.96333,224.95334 123.95667,223.72333 121.36,221.81 119.44666,219.21333 118.21667,216.20666 117.80666,213.06334 118.08,210.19333 134.34334,144.73 134.34334,144.45666 135.84666,141.03999 138.03334,138.03334 141.03999,135.84666 144.45666,134.34334 148.14667,133.93333 151.83667,134.34334 155.25333,135.84666 158.26,138.03334 "
       id="polygon82"
       transform="rotate(-90,205.57464,410)"
       style="fill:#9e9e9e;stroke:none;stroke-width:1" />
    <polygon
       points="103.18333,149.24 103.04667,150.88001 90.610001,213.06334 100.31333,263.08334 100.45,265.26999 100.45,265.67999 100.17667,268.95999 89.653336,311.73666 95.940002,336.74667 114.11667,318.43332 127.1,276.47665 128.33,273.74335 128.33,273.60666 129.97,271.42001 163.72667,233.56334 185.59334,173.70334 186.68666,171.51666 186.68666,171.24333 227.55,103.18333 103.32,103.18333 252.83333,74.756668 252.83333,74.756668 89.926666,508.67334 100.31333,551.03998 100.45,552.81665 100.58667,554.32001 100.45,556.91669 90.883331,606.93665 103.04667,668.98334 103.18333,671.71668 103.32,671.71668 103.32,716.81665 227.55,716.81665 186.68666,648.62 186.68666,648.34668 185.59334,646.02332 163.86333,586.43665 129.97,548.58002 128.33,546.39331 127.1,543.52332 114.11667,501.84 96.076668,483.39002 89.926666,508.67334 252.83333,74.756668 256.52335,75.166664 259.94,76.669998 262.94666,78.856667 265.13333,81.863335 266.63666,85.279999 267.04666,88.970001 266.63666,92.660004 265.13333,96.076668 265.13333,96.349998 211.42334,185.73 186.00333,244.63333 185.32001,246 184.36333,247.50333 152.65666,287.41 136.11999,329.36667 135.3,331.14334 134.75333,331.82666 134.07001,332.92001 101.27,370.91333 96.623337,389.5 95.120003,409.86334 96.623337,430.09 101.13333,448.81332 134.48,487.35333 135.71001,489.26666 136.53,491.04334 152.65666,532.59003 183.67999,571.13 183.81667,571.26666 185.73,573.86334 186.41333,575.22998 211.28667,633.85999 265.13333,723.65002 265.13333,723.92334 266.63666,727.34003 267.04666,731.03003 266.63666,734.71997 265.13333,738.13666 262.94666,741.14331 259.94,743.33002 256.52335,744.83331 252.83333,745.24335 88.970001,745.24335 85.279999,744.83331 81.863335,743.33002 78.856667,741.14331 76.669998,738.13666 75.166664,734.71997 74.756668,731.03003 74.756668,673.63 65.736664,608.57666 65.736664,605.29669 72.706665,554.04669 65.053337,510.72333 64.916664,508.67334 64.916664,508.26334 65.053337,506.62332 73.936668,455.37332 70.383331,434.73666 70.246666,432.54999 70.246666,432.14002 69.01667,410.54666 69.01667,409.17999 70.246666,386.49335 70.246666,386.08334 70.383331,384.85333 73.936668,364.48999 65.053337,313.78665 64.916664,311.73666 65.053337,310.37 65.053337,309.68668 72.57,265.54334 65.736664,214.70334 65.736664,211.42334 74.756668,147.19 74.756668,88.970001 75.166664,85.279999 76.669998,81.863335 78.856667,78.856667 81.863335,76.669998 85.279999,75.166664 88.970001,74.756668 252.83333,74.756668 103.32,103.18333 103.32,148.14667 "
       id="polygon84"
       transform="rotate(-90,205.57464,410)"
       style="fill:#9e9e9e;stroke:none;stroke-width:1" />
    <polygon
       points="43.869999,149.10333 43.869999,149.24 38.403332,213.06334 42.639999,264.58667 42.639999,267.04666 37.993332,311.32666 43.459999,363.12332 43.459999,365.85666 41.136665,387.85998 40.316666,409.17999 40.316666,409.59 41,430.77335 41,431.04666 43.596668,453.87 43.596668,456.73999 38.130001,508.26334 42.639999,552.95331 42.639999,555.41333 38.540001,606.93665 43.869999,670.62335 43.869999,671.71668 44.006668,671.71668 44.006668,776.13 332.23666,776.13 237.52667,618.14331 237.52667,617.87 236.98,617.04999 208.96333,559.65002 178.89667,517.69336 178.07666,516.59998 177.94,516.19 177.53,515.50665 158.39667,474.91666 127.37334,433.64334 126.41666,432.27667 125.05,428.72333 124.77666,426.94666 124.64,426.39999 123.95667,418.60998 123.95667,417.51666 123.68333,410.41 123.68333,409.59 123.82,402.20999 123.82,400.84332 124.64,393.19 125.05,391.27667 126.41666,387.85998 126.41666,387.72333 127.37334,386.35666 158.26,345.35666 177.39333,304.49335 177.94,303.53665 177.94,303.39999 178.76,302.30667 208.69,260.35001 236.98,202.95 237.52667,202.13001 237.52667,201.85667 332.23666,43.869999 44.006668,43.869999 357.51999,15.443334 361.20999,15.853333 364.62668,17.356667 367.63333,19.543333 369.82001,22.549999 371.32333,25.966667 371.73334,29.656666 371.32333,33.346668 369.82001,36.763332 369.82001,37.036667 262.12668,216.61667 261.85333,217.02667 230.14667,272.78665 230.01,272.92334 229.73666,273.33334 201.99333,317.34 179.58,357.38333 179.44333,357.65668 179.17,358.06668 151.56334,401.11667 150.19667,405.21668 149.78667,409.59 150.33333,414.92001 151.56334,419.01999 179.58,462.07001 179.85333,462.61667 179.99,462.75333 201.99333,502.52335 230.28334,546.66669 230.55667,547.07666 230.69333,547.34998 261.85333,602.97333 262.12668,603.38336 369.82001,782.96332 369.82001,783.23669 371.32333,786.65332 371.73334,790.34332 371.32333,794.03332 369.82001,797.45001 367.63333,800.45667 364.62668,802.64331 361.20999,804.14667 357.51999,804.55664 29.656666,804.55664 25.966667,804.14667 22.549999,802.64331 19.543333,800.45667 17.356667,797.45001 15.853333,794.03332 15.443334,790.34332 15.443334,671.71668 13.53,607.21002 13.53,606.66333 15.033334,554.04669 13.393333,509.08334 13.393333,508.26334 15.443334,454.96335 14.486667,433.09668 14.486667,432.14002 14.35,409.86334 14.35,409.59 14.623333,387.04001 14.623333,386.76666 15.306666,364.07999 15.306666,363.67001 13.53,312.14667 13.53,311.32666 15.033334,265.26999 13.666667,213.33667 13.666667,212.78999 15.443334,147.87334 15.443334,29.656666 15.853333,25.966667 17.356667,22.549999 19.543333,19.543333 22.549999,17.356667 25.966667,15.853333 29.656666,15.443334 357.51999,15.443334 44.006668,43.869999 44.006668,148.14667 "
       id="polygon86"
       transform="rotate(-90,205.57464,410)"
       style="fill:#9e9e9e;stroke:none;stroke-width:1" />
    <polygon
       points="138.71666,602.01666 139.53667,604.20331 158.80667,668.5733 158.94333,668.84668 159.21666,671.71668 158.94333,674.58667 157.85001,677.32001 155.93666,679.50665 153.75,681.41998 151.01666,682.51331 148.14667,682.78668 145.27667,682.51331 142.54334,681.41998 140.35667,679.50665 138.44333,677.18335 137.35001,674.58667 137.35001,674.45001 120.81333,609.26001 120.54,606.93665 120.81333,604.47668 121.77,602.15332 123.41,600.10333 125.46,598.46332 127.78333,597.50665 130.24333,597.23334 132.70334,597.50665 135.02667,598.46332 137.07666,600.10333 "
       id="polygon88"
       transform="rotate(-90,205.57464,410)"
       style="fill:#b2b2b2;stroke:none;stroke-width:1" />
    <polygon
       points="157.85001,142.67999 158.94333,145.27667 159.21666,148.14667 158.94333,151.01666 158.80667,151.28999 139.39999,215.79666 138.58,217.84666 136.94,219.89667 135.02667,221.53667 132.56667,222.49333 130.10667,222.76666 127.64667,222.49333 125.32333,221.53667 123.27333,219.89667 121.63333,217.98334 120.67667,215.52333 120.40334,213.06334 120.67667,210.74 137.35001,145.41333 137.35001,145.27667 138.44333,142.54334 140.35667,140.35667 142.67999,138.44333 145.27667,137.35001 148.14667,137.07666 151.01666,137.35001 153.75,138.44333 155.93666,140.35667 "
       id="polygon90"
       transform="rotate(-90,205.57464,410)"
       style="fill:#b2b2b2;stroke:none;stroke-width:1" />
    <polygon
       points="100.04,148.96666 99.903336,150.19667 87.876663,213.06334 97.306664,263.76666 97.443336,265.26999 97.443336,265.67999 97.169998,268.14002 87.056664,311.73666 94.300003,342.48666 116.30334,319.93668 129.97,277.29666 130.92667,275.24667 130.92667,275.10998 132.15666,273.47 166.18666,234.65666 188.60001,174.79666 189.28334,173.15666 189.28334,173.02 189.42,172.88333 233.15334,100.04 100.17667,100.04 252.83333,77.900002 252.83333,77.900002 87.193336,508.67334 97.033333,550.90332 97.306664,551.58667 97.580002,554.32001 97.443336,556.23334 88.013336,606.93665 99.903336,669.66669 100.04,671.71668 100.17667,671.71668 100.17667,719.96002 233.15334,719.96002 189.42,646.97998 189.28334,646.84332 188.19,644.10999 188.19,643.97333 166.46001,585.07001 132.29334,546.66669 130.92667,544.89001 130.38001,543.52332 129.97,542.70331 116.57667,500.60998 94.436668,477.51334 87.193336,508.67334 252.83333,77.900002 255.70334,78.173332 258.43668,79.26667 260.62332,81.18 262.53665,83.366669 263.63,86.099998 263.90332,88.970001 263.63,91.839996 262.53665,94.436668 262.39999,94.709999 208.69,184.09 183.67999,243.67667 183.13333,244.77 182.86,245.04334 182.31334,246 149.78667,286.17999 133.79666,328.41 133.11333,329.77667 131.61,331.82666 131.47333,331.96335 98.263336,369.68332 93.889999,388.26999 92.25,409.72665 93.753334,430.63666 98.263336,450.04334 131.74667,488.44666 131.88333,488.58334 133.38667,490.63333 134.07001,492 149.78667,533.82001 182.45,574 182.86,574.68335 183.40666,575.22998 183.95334,576.46002 208.55333,635.5 262.39999,725.28998 262.53665,725.4267 262.53665,725.56335 263.63,728.15997 263.90332,731.03003 263.63,733.90002 262.53665,736.63336 260.62332,738.82001 258.43668,740.73334 255.70334,741.82666 252.83333,742.09998 88.970001,742.09998 86.099998,741.82666 83.366669,740.73334 81.18,738.82001 79.26667,736.63336 78.173332,733.90002 77.900002,731.03003 77.900002,673.21997 68.470001,608.30335 68.470001,605.57001 75.713333,554.32001 67.786667,510.31332 67.650002,508.67334 67.923332,506.21335 77.080002,455.37332 73.253334,434.32666 73.116669,432.54999 73.116669,432.41333 71.75,410.41 71.75,409.31668 73.116669,386.63 73.389999,384.57999 77.080002,364.48999 67.650002,313.37668 67.513336,311.73666 67.786667,309.27667 75.576668,265.67999 68.333336,214.42999 68.333336,211.69667 77.900002,146.64333 77.900002,88.970001 78.173332,86.099998 79.26667,83.366669 81.18,81.18 83.366669,79.26667 86.099998,78.173332 88.970001,77.900002 252.83333,77.900002 100.17667,100.04 100.17667,148.14667 "
       id="polygon92"
       transform="rotate(-90,205.57464,410)"
       style="fill:#b2b2b2;stroke:none;stroke-width:1" />
    <polygon
       points="40.726665,148.96666 35.669998,213.06334 39.633335,264.85998 39.633335,266.63666 35.396667,311.73666 40.316666,363.53332 40.316666,365.44666 38.266666,387.45001 37.583332,409.17999 37.583332,409.72665 38.130001,431.32001 38.130001,431.45666 40.453335,454.28 40.453335,456.32999 35.396667,508.67334 39.633335,553.36334 39.633335,555.14001 35.669998,606.93665 40.726665,670.89667 40.726665,671.71668 40.863335,671.71668 40.863335,779.27332 337.84,779.27332 240.26,616.50336 240.12334,616.36664 239.71333,615.40997 211.01334,557.73669 181.22,515.91669 180.67334,515.09668 180.53667,514.68665 180.26334,514.27667 160.72,473.54999 129.83333,431.73001 129.14999,430.63666 128.05667,427.90332 128.05667,427.63 127.78333,426.39999 126.82667,418.60998 126.82667,417.10666 126.41666,410.41 126.41666,409.31668 126.69,402.07333 126.69,400.98001 127.78333,393.32666 128.05667,392.09668 129.14999,389.36334 129.83333,388.26999 160.58333,346.45001 180.12666,305.72333 180.53667,305.04001 180.53667,304.90332 181.08333,304.08334 210.87666,261.85333 239.85001,204.31667 240.12334,203.77 240.12334,203.63333 240.26,203.49667 337.84,40.726665 40.863335,40.726665 357.51999,18.586666 360.39002,18.860001 363.12332,19.953333 365.31,21.866667 367.22333,24.053333 368.31668,26.786667 368.59,29.656666 368.31668,32.526669 367.22333,35.123333 367.08667,35.396667 259.39334,214.97667 259.12,215.25 227.82333,271.55667 227.82333,271.69333 227.55,271.96668 199.39667,315.83667 177.39333,356.15332 177.25667,356.29001 176.98334,356.83667 148.69333,399.47665 147.46333,403.98666 146.91667,409.72665 147.46333,415.05667 148.96666,420.79666 177.25667,463.43668 177.53,463.98334 177.66667,464.12 199.26,503.75333 227.96001,548.03332 228.09666,548.30664 228.23334,548.44336 228.36999,548.71668 258.98334,604.47668 259.39334,605.02332 367.08667,784.60333 367.22333,784.73999 367.22333,784.87665 368.31668,787.47333 368.59,790.34332 368.31668,793.21332 367.22333,795.94665 365.31,798.13336 363.12332,800.04669 360.39002,801.14001 357.51999,801.41333 29.656666,801.41333 26.786667,801.14001 24.053333,800.04669 21.866667,798.13336 19.953333,795.94665 18.860001,793.21332 18.586666,790.34332 18.586666,671.71668 16.263334,607.21002 16.263334,606.66333 18.040001,554.04669 16.126667,508.94666 16.126667,508.26334 18.586666,454.96335 17.356667,432.95999 17.356667,432.41333 17.083334,409.86334 17.083334,409.31668 17.493334,387.04001 17.493334,386.63 18.450001,364.07999 18.450001,363.53332 16.126667,312.14667 16.126667,311.46335 18.040001,265.26999 18.040001,264.85998 16.263334,213.33667 16.263334,212.78999 18.586666,147.87334 18.586666,29.656666 18.860001,26.786667 19.953333,24.053333 21.866667,21.866667 24.053333,19.953333 26.786667,18.860001 29.656666,18.586666 357.51999,18.586666 40.863335,40.726665 40.863335,148.14667 "
       id="polygon94"
       transform="rotate(-90,205.57464,410)"
       style="fill:#b2b2b2;stroke:none;stroke-width:1" />
    <polygon
       points="135.84666,603.65668 136.53,605.15997 155.25333,669.66669 155.39,669.80335 155.52667,671.71668 155.39,673.63 154.57001,675.40668 153.34,676.90997 151.83667,678.14001 150.06,678.96002 148.14667,679.09668 146.23334,678.96002 144.45666,678.14001 142.95334,676.90997 141.72333,675.40668 140.90334,673.63 140.90334,673.49335 123.95667,608.57666 123.82,606.93665 123.95667,605.29669 124.64,603.79333 125.73333,602.4267 127.1,601.33331 128.60333,600.65002 130.24333,600.51331 131.88333,600.65002 133.38667,601.33331 134.75333,602.4267 "
       id="polygon96"
       transform="rotate(-90,205.57464,410)"
       style="fill:#cbcbcb;stroke:none;stroke-width:1" />
    <polygon
       points="154.57001,144.45666 155.39,146.23334 155.52667,148.14667 155.39,150.06 155.25333,150.19667 136.39333,214.84 135.71001,216.20666 134.61667,217.57333 133.38667,218.66667 131.74667,219.35001 130.10667,219.48666 128.46666,219.35001 126.96333,218.66667 125.59666,217.57333 124.50333,216.34334 123.82,214.70334 123.68333,213.06334 123.82,211.42334 140.90334,146.36999 140.90334,146.23334 141.72333,144.45666 142.95334,142.95334 144.45666,141.72333 146.23334,140.90334 148.14667,140.76666 150.06,140.90334 151.83667,141.72333 153.34,142.95334 "
       id="polygon98"
       transform="rotate(-90,205.57464,410)"
       style="fill:#cbcbcb;stroke:none;stroke-width:1" />
    <polygon
       points="96.349998,149.10333 96.349998,149.37666 84.596664,213.06334 93.889999,264.45001 93.889999,265.67999 93.753334,267.18332 83.639999,311.73666 92.386665,349.45666 119.03667,321.57666 133.38667,278.39002 134.07001,277.02335 134.07001,276.88666 134.89,275.79334 135.16333,275.38333 135.43666,275.24667 169.05667,236.29666 192.01666,176.02667 192.56334,174.93333 192.56334,174.79666 239.71333,96.349998 96.486664,96.349998 252.83333,81.589996 252.83333,81.589996 83.776665,508.67334 93.889999,552.40668 93.889999,552.54333 94.026665,554.32001 94.026665,555.54999 84.73333,606.93665 96.349998,670.48669 96.349998,671.71668 96.486664,671.71668 96.486664,723.65002 239.71333,723.65002 192.56334,645.06665 192.56334,644.92999 191.74333,643.15332 169.46666,583.70331 135.43666,544.75336 135.16333,544.61664 134.89,544.20667 134.07001,543.11334 133.25,541.20001 119.44666,498.83334 92.523331,470.40668 83.776665,508.67334 252.83333,81.589996 254.74667,81.726669 256.52335,82.546669 258.02667,83.776665 259.25665,85.279999 260.07666,87.056664 260.21335,88.970001 260.07666,90.883331 259.25665,92.660004 259.25665,92.796669 205.41,182.31334 180.67334,242.31 180.26334,243.13001 179.99,243.40334 179.71666,243.95 146.78,284.26666 130.92667,327.17999 130.38001,328.27335 129.69667,328.95666 129.56,329.23001 95.120003,368.04334 90.473335,388.26999 88.833336,409.45334 90.33667,430.77335 90.33667,431.04666 95.120003,451.82001 129.56,490.90668 130.65334,492.13666 131.2,493.23001 146.78,535.73334 179.99,576.04999 180.26334,576.59668 180.53667,576.87 180.94667,577.69 205.41,637.27667 205.41,637.41333 259.25665,727.20331 259.25665,727.34003 260.07666,729.11664 260.21335,731.03003 260.07666,732.94336 259.25665,734.71997 258.02667,736.22333 256.52335,737.45331 254.74667,738.27332 252.83333,738.40997 88.970001,738.40997 87.056664,738.27332 85.279999,737.45331 83.776665,736.22333 82.546669,734.71997 81.726669,732.94336 81.589996,731.03003 81.589996,672.81 71.75,607.89331 71.75,605.97998 79.403336,554.72998 70.793335,509.90332 70.793335,507.57999 80.633331,455.10001 76.533333,433.78 76.533333,432.00333 75.166664,410.27335 75.166664,409.17999 76.533333,386.76666 76.533333,385.94666 80.769997,364.21668 70.65667,312.96668 70.65667,310.64334 79.26667,265.26999 71.613335,214.02 71.613335,212.10667 81.589996,147.05333 81.589996,88.970001 81.726669,87.056664 82.546669,85.279999 83.776665,83.776665 85.279999,82.546669 87.056664,81.726669 88.970001,81.589996 252.83333,81.589996 96.486664,96.349998 96.486664,148.14667 "
       id="polygon100"
       transform="rotate(-90,205.57464,410)"
       style="fill:#cbcbcb;stroke:none;stroke-width:1" />
    <polygon
       points="37.036667,149.37666 32.389999,212.65334 36.080002,265.13333 36.080002,266.22665 32.116665,311.73666 36.626667,362.57666 36.763332,364.48999 36.763332,365.03665 34.849998,387.17667 34.849998,387.31332 34.166668,409.17999 34.166668,409.72665 34.713333,431.59332 34.713333,432.00333 36.900002,454.00665 36.900002,455.92001 32.116665,508.67334 36.080002,553.36334 36.080002,554.72998 32.389999,606.52667 37.036667,670.48669 37.036667,671.71668 37.173332,671.71668 37.173332,782.96332 344.39999,782.96332 243.40334,614.59003 243.40334,614.45331 243.13001,614.04333 214.42999,557.05335 184.09,513.72998 183.81667,513.32001 183.54334,512.77332 163.31667,471.63666 132.70334,429.54334 132.29334,428.85998 131.47333,427.08334 130.24333,418.47333 130.24333,416.69666 129.83333,410.13666 129.83333,409.17999 130.10667,402.20999 130.10667,401.25333 131.33667,393.73666 131.47333,392.91666 132.29334,391.14002 132.56667,390.73001 132.70334,390.45666 163.04334,348.63666 183.40666,307.22665 183.54334,307.09 183.67999,306.67999 183.95334,306.26999 214.02,263.08334 243.26666,205.82001 243.40334,205.54666 243.40334,205.41 344.39999,37.036667 37.173332,37.036667 357.51999,22.276667 359.43332,22.413334 361.20999,23.233334 362.71335,24.463333 363.94333,25.966667 364.76334,27.743334 364.89999,29.656666 364.76334,31.57 363.94333,33.346668 363.94333,33.483334 256.25,213.06334 225.09,269.91666 224.95334,270.05334 224.81667,270.32666 196.11667,314.33334 174.66,354.51334 174.52333,354.78665 174.25,355.06 145.82333,397.42667 143.91,403.98666 143.5,409.45334 144.04666,415.73999 144.04666,415.87668 145.68666,422.29999 174.38667,465.07666 174.79666,465.48666 174.93333,465.76001 196.25333,505.53 196.25333,505.66666 225.22667,549.81 225.22667,549.94665 225.36333,550.08331 225.5,550.35669 256.11334,606.79999 256.25,606.93665 363.94333,786.51666 363.94333,786.65332 364.76334,788.42999 364.89999,790.34332 364.76334,792.25665 363.94333,794.03332 362.71335,795.53668 361.20999,796.76666 359.43332,797.58667 357.51999,797.72333 29.656666,797.72333 27.743334,797.58667 25.966667,796.76666 24.463333,795.53668 23.233334,794.03332 22.413334,792.25665 22.276667,790.34332 22.276667,671.30664 19.543333,607.21002 19.543333,606.52667 21.593334,554.04669 21.593334,553.36334 19.27,508.94666 19.27,508.12668 22.139999,455.10001 22.139999,454.69 20.773333,432.95999 20.773333,432.00333 20.5,409.86334 20.5,409.17999 20.91,387.17667 20.91,386.76666 22.003334,364.21668 22.003334,363.94333 19.27,312.01001 19.27,311.19 21.593334,265.40668 21.593334,265.13333 19.543333,213.2 19.543333,212.65334 22.276667,147.87334 22.276667,29.656666 22.413334,27.743334 23.233334,25.966667 24.463333,24.463333 25.966667,23.233334 27.743334,22.413334 29.656666,22.276667 357.51999,22.276667 37.173332,37.036667 37.173332,148.14667 "
       id="polygon102"
       transform="rotate(-90,205.57464,410)"
       style="fill:#cbcbcb;stroke:none;stroke-width:1" />
  </g>
</svg>
