<?xml version="1.0" encoding="UTF-8"?>
<!DOCTYPE svg PUBLIC "-//W3C//DTD SVG 1.1//EN" "http://www.w3.org/Graphics/SVG/1.1/DTD/svg11.dtd">
<svg width="160mm" height="90mm" viewBox="0 0 16000 9000" version="1.1" xmlns="http://www.w3.org/2000/svg" stroke-width="28.222" stroke-linejoin="round" xml:space="preserve">
 <path fill="rgb(255,255,255)" stroke="none" d="M 7999,9004 L 0,9004 0,0 15997,0 15997,9004 7999,9004 Z"/>
 <path fill="none" stroke="rgb(179,179,179)" stroke-linejoin="round" d="M 6485,8177 L 1046,8177 1046,379 11924,379 11924,8177 6485,8177 Z"/>
 <path fill="none" stroke="rgb(179,179,179)" stroke-linejoin="round" d="M 11924,8176 L 1046,8176"/>
 <path fill="none" stroke="rgb(179,179,179)" stroke-linejoin="round" d="M 11924,7201 L 1046,7201"/>
 <path fill="none" stroke="rgb(179,179,179)" stroke-linejoin="round" d="M 11924,6226 L 1046,6226"/>
 <path fill="none" stroke="rgb(179,179,179)" stroke-linejoin="round" d="M 11924,5251 L 1046,5251"/>
 <path fill="none" stroke="rgb(179,179,179)" stroke-linejoin="round" d="M 11924,4277 L 1046,4277"/>
 <path fill="none" stroke="rgb(179,179,179)" stroke-linejoin="round" d="M 11924,3302 L 1046,3302"/>
 <path fill="none" stroke="rgb(179,179,179)" stroke-linejoin="round" d="M 11924,2327 L 1046,2327"/>
 <path fill="none" stroke="rgb(179,179,179)" stroke-linejoin="round" d="M 11924,1352 L 1046,1352"/>
 <path fill="none" stroke="rgb(179,179,179)" stroke-linejoin="round" d="M 11924,378 L 1046,378"/>
 <path fill="none" stroke="rgb(179,179,179)" stroke-linejoin="round" d="M 1046,8326 L 1046,8176"/>
 <path fill="none" stroke="rgb(179,179,179)" stroke-linejoin="round" d="M 1046,8326 L 1046,8176"/>
 <path fill="none" stroke="rgb(179,179,179)" stroke-linejoin="round" d="M 2405,8326 L 2405,8176"/>
 <path fill="none" stroke="rgb(179,179,179)" stroke-linejoin="round" d="M 2405,8326 L 2405,8176"/>
 <path fill="none" stroke="rgb(179,179,179)" stroke-linejoin="round" d="M 3765,8326 L 3765,8176"/>
 <path fill="none" stroke="rgb(179,179,179)" stroke-linejoin="round" d="M 3765,8326 L 3765,8176"/>
 <path fill="none" stroke="rgb(179,179,179)" stroke-linejoin="round" d="M 5125,8326 L 5125,8176"/>
 <path fill="none" stroke="rgb(179,179,179)" stroke-linejoin="round" d="M 5125,8326 L 5125,8176"/>
 <path fill="none" stroke="rgb(179,179,179)" stroke-linejoin="round" d="M 6485,8326 L 6485,8176"/>
 <path fill="none" stroke="rgb(179,179,179)" stroke-linejoin="round" d="M 6485,8326 L 6485,8176"/>
 <path fill="none" stroke="rgb(179,179,179)" stroke-linejoin="round" d="M 7845,8326 L 7845,8176"/>
 <path fill="none" stroke="rgb(179,179,179)" stroke-linejoin="round" d="M 7845,8326 L 7845,8176"/>
 <path fill="none" stroke="rgb(179,179,179)" stroke-linejoin="round" d="M 9204,8326 L 9204,8176"/>
 <path fill="none" stroke="rgb(179,179,179)" stroke-linejoin="round" d="M 9204,8326 L 9204,8176"/>
 <path fill="none" stroke="rgb(179,179,179)" stroke-linejoin="round" d="M 10564,8326 L 10564,8176"/>
 <path fill="none" stroke="rgb(179,179,179)" stroke-linejoin="round" d="M 10564,8326 L 10564,8176"/>
 <path fill="none" stroke="rgb(179,179,179)" stroke-linejoin="round" d="M 11924,8326 L 11924,8176"/>
 <path fill="none" stroke="rgb(179,179,179)" stroke-linejoin="round" d="M 11924,8326 L 11924,8176"/>
 <path fill="none" stroke="rgb(179,179,179)" stroke-linejoin="round" d="M 1046,8176 L 11924,8176"/>
 <path fill="none" stroke="rgb(179,179,179)" stroke-linejoin="round" d="M 896,8176 L 1046,8176"/>
 <path fill="none" stroke="rgb(179,179,179)" stroke-linejoin="round" d="M 896,8176 L 1046,8176"/>
 <path fill="none" stroke="rgb(179,179,179)" stroke-linejoin="round" d="M 896,7201 L 1046,7201"/>
 <path fill="none" stroke="rgb(179,179,179)" stroke-linejoin="round" d="M 896,7201 L 1046,7201"/>
 <path fill="none" stroke="rgb(179,179,179)" stroke-linejoin="round" d="M 896,6226 L 1046,6226"/>
 <path fill="none" stroke="rgb(179,179,179)" stroke-linejoin="round" d="M 896,6226 L 1046,6226"/>
 <path fill="none" stroke="rgb(179,179,179)" stroke-linejoin="round" d="M 896,5251 L 1046,5251"/>
 <path fill="none" stroke="rgb(179,179,179)" stroke-linejoin="round" d="M 896,5251 L 1046,5251"/>
 <path fill="none" stroke="rgb(179,179,179)" stroke-linejoin="round" d="M 896,4277 L 1046,4277"/>
 <path fill="none" stroke="rgb(179,179,179)" stroke-linejoin="round" d="M 896,4277 L 1046,4277"/>
 <path fill="none" stroke="rgb(179,179,179)" stroke-linejoin="round" d="M 896,3302 L 1046,3302"/>
 <path fill="none" stroke="rgb(179,179,179)" stroke-linejoin="round" d="M 896,3302 L 1046,3302"/>
 <path fill="none" stroke="rgb(179,179,179)" stroke-linejoin="round" d="M 896,2327 L 1046,2327"/>
 <path fill="none" stroke="rgb(179,179,179)" stroke-linejoin="round" d="M 896,2327 L 1046,2327"/>
 <path fill="none" stroke="rgb(179,179,179)" stroke-linejoin="round" d="M 896,1352 L 1046,1352"/>
 <path fill="none" stroke="rgb(179,179,179)" stroke-linejoin="round" d="M 896,1352 L 1046,1352"/>
 <path fill="none" stroke="rgb(179,179,179)" stroke-linejoin="round" d="M 896,378 L 1046,378"/>
 <path fill="none" stroke="rgb(179,179,179)" stroke-linejoin="round" d="M 896,378 L 1046,378"/>
 <path fill="none" stroke="rgb(179,179,179)" stroke-linejoin="round" d="M 1046,8176 L 1046,378"/>
 <path fill="none" stroke="rgb(255,66,14)" stroke-width="80" stroke-linejoin="round" d="M 2405,1352 L 2677,1417 2949,1482 3221,1547 3493,1612 3765,1677 4037,1742 4309,1807 4581,1872 4853,1937 5125,2002 5397,2067 5669,2132 5941,2197 6213,2262 6485,2327 6757,2392 7029,2457 7301,2522 7573,2587 7845,2652 8116,2717 8388,2782 8660,2847 8932,2912 9204,2977 9476,3042 9748,3107 10020,3172 10292,3237 10564,3302"/>
 <path fill="none" stroke="rgb(0,69,134)" stroke-width="80" stroke-linejoin="round" d="M 2405,1518 L 2677,1550 2949,1584 3221,1620 3493,1659 3765,1699 4037,1741 4309,1785 4581,1831 4853,1879 5125,1929 5397,1981 5669,2034 5941,2090 6213,2147 6485,2207 6757,2268 7029,2331 7301,2395 7573,2462 7845,2530 8116,2600 8388,2671 8660,2744 8932,2819 9204,2896 9476,2974 9748,3054 10020,3135 10292,3218 10564,3302"/>
 <text class="TextShape"><tspan class="TextParagraph" font-family="Liberation Sans, sans-serif" font-size="353px" font-weight="400"><tspan class="TextPosition" x="861" y="8744"><tspan fill="rgb(0,0,0)" stroke="none">55</tspan></tspan></tspan></text>
 <text class="TextShape"><tspan class="TextParagraph" font-family="Liberation Sans, sans-serif" font-size="353px" font-weight="400"><tspan class="TextPosition" x="2220" y="8744"><tspan fill="rgb(0,0,0)" stroke="none">60</tspan></tspan></tspan></text>
 <text class="TextShape"><tspan class="TextParagraph" font-family="Liberation Sans, sans-serif" font-size="353px" font-weight="400"><tspan class="TextPosition" x="3580" y="8744"><tspan fill="rgb(0,0,0)" stroke="none">65</tspan></tspan></tspan></text>
 <text class="TextShape"><tspan class="TextParagraph" font-family="Liberation Sans, sans-serif" font-size="353px" font-weight="400"><tspan class="TextPosition" x="4940" y="8744"><tspan fill="rgb(0,0,0)" stroke="none">70</tspan></tspan></tspan></text>
 <text class="TextShape"><tspan class="TextParagraph" font-family="Liberation Sans, sans-serif" font-size="353px" font-weight="400"><tspan class="TextPosition" x="6300" y="8744"><tspan fill="rgb(0,0,0)" stroke="none">75</tspan></tspan></tspan></text>
 <text class="TextShape"><tspan class="TextParagraph" font-family="Liberation Sans, sans-serif" font-size="353px" font-weight="400"><tspan class="TextPosition" x="7660" y="8744"><tspan fill="rgb(0,0,0)" stroke="none">80</tspan></tspan></tspan></text>
 <text class="TextShape"><tspan class="TextParagraph" font-family="Liberation Sans, sans-serif" font-size="353px" font-weight="400"><tspan class="TextPosition" x="9020" y="8744"><tspan fill="rgb(0,0,0)" stroke="none">85</tspan></tspan></tspan></text>
 <text class="TextShape"><tspan class="TextParagraph" font-family="Liberation Sans, sans-serif" font-size="353px" font-weight="400"><tspan class="TextPosition" x="10380" y="8744"><tspan fill="rgb(0,0,0)" stroke="none">90</tspan></tspan></tspan></text>
 <text class="TextShape"><tspan class="TextParagraph" font-family="Liberation Sans, sans-serif" font-size="353px" font-weight="400"><tspan class="TextPosition" x="11740" y="8744"><tspan fill="rgb(0,0,0)" stroke="none">95</tspan></tspan></tspan></text>
 <text class="TextShape"><tspan class="TextParagraph" font-family="Liberation Sans, sans-serif" font-size="353px" font-weight="400"><tspan class="TextPosition" x="611" y="8297"><tspan fill="rgb(0,0,0)" stroke="none">0</tspan></tspan></tspan></text>
 <text class="TextShape"><tspan class="TextParagraph" font-family="Liberation Sans, sans-serif" font-size="353px" font-weight="400"><tspan class="TextPosition" x="320" y="7322"><tspan fill="rgb(0,0,0)" stroke="none">0.2</tspan></tspan></tspan></text>
 <text class="TextShape"><tspan class="TextParagraph" font-family="Liberation Sans, sans-serif" font-size="353px" font-weight="400"><tspan class="TextPosition" x="320" y="6347"><tspan fill="rgb(0,0,0)" stroke="none">0.4</tspan></tspan></tspan></text>
 <text class="TextShape"><tspan class="TextParagraph" font-family="Liberation Sans, sans-serif" font-size="353px" font-weight="400"><tspan class="TextPosition" x="320" y="5372"><tspan fill="rgb(0,0,0)" stroke="none">0.6</tspan></tspan></tspan></text>
 <text class="TextShape"><tspan class="TextParagraph" font-family="Liberation Sans, sans-serif" font-size="353px" font-weight="400"><tspan class="TextPosition" x="320" y="4397"><tspan fill="rgb(0,0,0)" stroke="none">0.8</tspan></tspan></tspan></text>
 <text class="TextShape"><tspan class="TextParagraph" font-family="Liberation Sans, sans-serif" font-size="353px" font-weight="400"><tspan class="TextPosition" x="611" y="3422"><tspan fill="rgb(0,0,0)" stroke="none">1</tspan></tspan></tspan></text>
 <text class="TextShape"><tspan class="TextParagraph" font-family="Liberation Sans, sans-serif" font-size="353px" font-weight="400"><tspan class="TextPosition" x="320" y="2447"><tspan fill="rgb(0,0,0)" stroke="none">1.2</tspan></tspan></tspan></text>
 <text class="TextShape"><tspan class="TextParagraph" font-family="Liberation Sans, sans-serif" font-size="353px" font-weight="400"><tspan class="TextPosition" x="320" y="1472"><tspan fill="rgb(0,0,0)" stroke="none">1.4</tspan></tspan></tspan></text>
 <text class="TextShape"><tspan class="TextParagraph" font-family="Liberation Sans, sans-serif" font-size="353px" font-weight="400"><tspan class="TextPosition" x="320" y="498"><tspan fill="rgb(0,0,0)" stroke="none">1.6</tspan></tspan></tspan></text>
 <path fill="none" stroke="rgb(0,69,134)" stroke-width="80" stroke-linejoin="round" d="M 12546,4252 L 13346,4252"/>
 <path fill="none" stroke="rgb(255,66,14)" stroke-width="80" stroke-linejoin="round" d="M 12546,4749 L 13346,4749"/>
 <text class="TextShape"><tspan class="TextParagraph" font-family="Liberation Sans, sans-serif" font-size="353px" font-weight="400"><tspan class="TextPosition" x="13446" y="4372"><tspan fill="rgb(0,0,0)" stroke="none">sin(a) + cos(a)</tspan></tspan></tspan></text>
 <text class="TextShape"><tspan class="TextParagraph" font-family="Liberation Sans, sans-serif" font-size="353px" font-weight="400"><tspan class="TextPosition" x="13446" y="4869"><tspan fill="rgb(0,0,0)" stroke="none">1+(90-a)/75</tspan></tspan></tspan></text>
</svg>