<?xml version="1.0" encoding="UTF-8" standalone="no"?>
<svg
   xmlns:dc="http://purl.org/dc/elements/1.1/"
   xmlns:cc="http://creativecommons.org/ns#"
   xmlns:rdf="http://www.w3.org/1999/02/22-rdf-syntax-ns#"
   xmlns:svg="http://www.w3.org/2000/svg"
   xmlns="http://www.w3.org/2000/svg"
   xmlns:sodipodi="http://sodipodi.sourceforge.net/DTD/sodipodi-0.dtd"
   xmlns:inkscape="http://www.inkscape.org/namespaces/inkscape"
   height="307.965774"
   width="616.000000"
   id="svg1860"
   version="1.1"
   sodipodi:docname="naive.svg"
   inkscape:version="0.92.3 (2405546, 2018-03-11)"
   inkscape:export-filename="/home/t.kuipers/Documents/PhD/Variable_Width_project/paper/paper_private_git/sources/method/overview/2D/naive.png"
   inkscape:export-xdpi="100"
   inkscape:export-ydpi="100"><defs
   id="defs206" />
<sodipodi:namedview
   pagecolor="#ffffff"
   bordercolor="#666666"
   borderopacity="1"
   objecttolerance="10"
   gridtolerance="10"
   guidetolerance="10"
   inkscape:pageopacity="0"
   inkscape:pageshadow="2"
   inkscape:window-width="1920"
   inkscape:window-height="1025"
   id="namedview204"
   showgrid="false"
   inkscape:zoom="1.2994235"
   inkscape:cx="200.20919"
   inkscape:cy="138.1575"
   inkscape:window-x="0"
   inkscape:window-y="0"
   inkscape:window-maximized="1"
   inkscape:current-layer="layer2" />

   inkscape:export-xdpi=&quot;100&quot;
   inkscape:export-ydpi=&quot;100&quot;
  <metadata
   id="metadata1866">
  <rdf:RDF>
    <cc:Work
       rdf:about="">
      <dc:format>image/svg+xml</dc:format>
      <dc:type
         rdf:resource="http://purl.org/dc/dcmitype/StillImage" />
      <dc:title></dc:title>
    </cc:Work>
  </rdf:RDF>
</metadata>
<g
   inkscape:groupmode="layer"
   inkscape:label="layer1"
   id="layer1">
  <polygon
     fill="rgb(125,125,125)"
     stroke="none"
     stroke-width="1.000000"
     points="107.948883,161.683746 112.877434,163.737305 113.151237,163.874207 152.990326,187.763977 156.960556,190.844315 160.177795,195.088348 162.231354,200.016891 162.915878,205.287704 162.231354,210.558502 160.177795,215.487061 156.960556,219.731079 152.716522,222.948334 147.787979,225.001892 142.517166,225.686417 102.678078,225.686417 97.407265,225.001892 92.478722,222.948334 88.234695,219.731079 85.017448,215.487061 82.963882,210.558502 82.279366,205.287704 82.279366,181.397934 82.963882,176.127121 85.017448,171.198578 88.234695,166.954544 92.478722,163.737305 97.407265,161.683746 102.678078,160.999222 "
     id="polygon3" />
  <polygon
     fill="rgb(125,125,125)"
     stroke="none"
     stroke-width="1.000000"
     points="518.592712,161.615295 523.521301,163.668854 527.765320,166.886093 530.982544,171.130127 533.036133,176.058670 533.720642,181.329483 533.789062,181.329483 533.789062,205.287704 533.036133,210.558502 530.982544,215.487061 527.765320,219.731079 523.521301,222.948334 518.592712,225.001892 513.321899,225.686417 473.345917,225.686417 468.075134,225.001892 463.146576,222.948334 458.902557,219.731079 455.685303,215.487061 453.631744,210.558502 452.947205,205.287704 453.631744,200.016891 455.685303,195.088348 458.902557,190.844315 462.872772,187.763977 502.848755,163.805756 503.122559,163.668854 508.051117,161.615295 513.321899,160.930771 "
     id="polygon5" />
  <polygon
     fill="rgb(125,125,125)"
     stroke="none"
     stroke-width="1.000000"
     points="595.464355,15.880876 328.980560,220.004883 328.706757,220.141800 323.778198,222.195358 314.468719,224.659622 315.495514,224.659622 322.546051,222.811417 330.212677,219.525726 543.919983,91.246582 544.193787,91.109680 549.122375,89.056114 554.393127,88.371597 559.663940,89.056114 564.592529,91.109680 568.836548,94.326927 572.053772,98.570953 574.107361,103.499496 574.791870,108.770309 574.860291,108.770309 574.860291,246.358932 574.107361,251.629730 572.053772,256.558289 568.836548,260.802307 564.592529,264.019562 559.663940,266.073120 554.393127,266.757629 61.606846,266.757629 56.336037,266.073120 51.407490,264.019562 47.163464,260.802307 43.946217,256.558289 41.892654,251.629730 41.208134,246.358932 41.208134,108.838760 41.892654,103.567955 43.946217,98.639404 47.163464,94.395378 51.407490,91.178131 56.336037,89.124573 61.606846,88.440048 66.877655,89.124573 71.806198,91.178131 72.080009,91.315033 285.650391,219.525726 293.111664,222.742966 298.998566,224.522720 300.093781,224.522720 292.290253,222.195358 292.153351,222.195358 292.016449,222.126907 291.742645,222.058456 287.224792,220.141800 286.950989,220.004883 41.002777,72.353821 41.002777,225.960220 82.074005,225.960220 217.061447,225.960220 82.074005,144.912994 82.074005,225.960220 41.002777,225.960220 41.002777,225.960220 398.801636,225.960220 533.994446,225.960220 533.994446,144.844543 398.801636,225.960220 41.002777,225.960220 41.002777,267.031433 575.065674,267.031433 575.065674,72.353821 328.980560,220.004883 595.464355,15.880876 600.735168,16.565395 605.663757,18.618958 609.907776,21.836205 613.125000,26.080231 615.178589,31.008780 615.863098,36.279587 615.931519,36.279587 615.931519,287.430145 615.178589,292.700958 613.125000,297.629517 609.907776,301.873535 605.663757,305.090790 600.735168,307.144348 595.464355,307.828857 20.535616,307.828857 15.264807,307.144348 10.336260,305.090790 6.092233,301.873535 2.874986,297.629517 0.821425,292.700958 0.136904,287.430145 0.136904,36.279587 0.821425,31.008780 2.874986,26.080231 6.092233,21.836205 10.336260,18.618958 15.264807,16.565395 20.535616,15.880876 25.806423,16.565395 30.734970,18.618958 31.008780,18.755861 305.775299,183.656845 307.691956,184.272919 310.430054,183.519943 584.991211,18.755861 585.265015,18.618958 590.193604,16.565395 595.464355,15.880876 "
     id="polygon7" />
  <polygon
     fill="rgb(129,129,129)"
     stroke="none"
     stroke-width="1.000000"
     points="107.811981,162.026001 112.672073,164.079559 112.945885,164.216461 152.784973,188.106232 156.686737,191.118118 159.835541,195.293701 161.889099,200.153793 162.505173,205.287704 161.889099,210.421600 159.835541,215.281693 156.686737,219.457275 152.511169,222.606064 147.651077,224.659622 142.517166,225.275696 102.678078,225.275696 97.544174,224.659622 92.684074,222.606064 88.508499,219.457275 85.359703,215.281693 83.306145,210.421600 82.690079,205.287704 82.690079,181.397934 83.306145,176.264023 85.359703,171.403931 88.508499,167.228363 92.684074,164.079559 97.544174,162.026001 102.678078,161.409927 "
     id="polygon9" />
  <polygon
     fill="rgb(129,129,129)"
     stroke="none"
     stroke-width="1.000000"
     points="518.455811,161.957550 523.315918,164.011108 527.491516,167.159912 530.640320,171.335480 532.693848,176.195572 533.309937,181.329483 533.378357,181.329483 533.378357,205.287704 533.036133,207.615067 532.693848,210.421600 530.640320,215.281693 527.491516,219.457275 523.315918,222.606064 518.455811,224.659622 513.321899,225.275696 473.345917,225.275696 468.212036,224.659622 463.351929,222.606064 459.176361,219.457275 456.027557,215.281693 453.973999,210.421600 453.357941,205.287704 453.973999,200.153793 456.027557,195.293701 459.176361,191.118118 463.078125,188.106232 503.054108,164.148010 503.327911,164.011108 508.188019,161.957550 513.321899,161.341476 "
     id="polygon11" />
  <polygon
     fill="rgb(129,129,129)"
     stroke="none"
     stroke-width="1.000000"
     points="595.464355,16.291588 328.775208,219.662628 328.501404,219.799530 323.641296,221.853088 312.620514,224.796539 310.566956,225.070343 315.427032,225.070343 322.682953,223.153687 330.554962,219.799530 544.125366,91.588844 544.399170,91.451942 549.259277,89.398376 554.393127,88.782310 559.527039,89.398376 564.387146,91.451942 568.562744,94.600731 571.711548,98.776306 573.765076,103.636406 574.381165,108.770309 574.449585,108.770309 574.449585,246.358932 574.244263,247.659515 573.765076,251.492828 571.711548,256.352936 568.562744,260.528503 564.387146,263.677307 559.527039,265.730865 554.393127,266.346924 61.606846,266.346924 56.472942,265.730865 51.612846,263.677307 47.437271,260.528503 44.288475,256.352936 42.234917,251.492828 41.618847,246.358932 41.618847,108.838760 42.234917,103.704857 44.288475,98.844757 47.437271,94.669182 51.612846,91.520393 56.472942,89.466827 61.606846,88.850761 66.740746,89.466827 71.600845,91.520393 71.874649,91.657295 285.376587,219.799530 292.632507,223.016785 299.135468,224.933441 303.721741,224.933441 302.352692,224.796539 301.873535,224.659622 291.811096,221.716187 287.430145,219.799530 287.156342,219.662628 40.592064,71.669296 40.592064,226.370926 81.663300,226.370926 218.567398,226.370926 81.663300,144.228470 81.663300,226.370926 40.592064,226.370926 40.592064,226.370926 397.364166,226.370926 534.405151,226.370926 534.405151,144.091568 397.364166,226.370926 40.592064,226.370926 40.592064,267.442169 575.476379,267.442169 575.476379,71.600845 328.775208,219.662628 595.464355,16.291588 600.598267,16.907656 605.458374,18.961218 609.633972,22.110012 612.782776,26.285587 614.836304,31.145683 615.452393,36.279587 615.520813,36.279587 615.520813,287.430145 614.836304,292.564056 612.782776,297.424164 609.633972,301.599731 605.458374,304.748535 600.598267,306.802094 595.464355,307.418152 20.535616,307.418152 15.401711,306.802094 10.541615,304.748535 6.366041,301.599731 3.217246,297.424164 1.163685,292.564056 0.547616,287.430145 0.547616,36.279587 1.163685,31.145683 3.217246,26.285587 6.366041,22.110012 10.541615,18.961218 15.401711,16.907656 20.535616,16.291588 25.669519,16.907656 30.529613,18.961218 30.803423,19.098122 305.433044,183.930664 307.691956,184.615173 310.703857,183.793762 585.196594,19.098122 585.470398,18.961218 590.330505,16.907656 595.464355,16.291588 "
     id="polygon13" />
  <polygon
     fill="rgb(133,133,133)"
     stroke="none"
     stroke-width="1.000000"
     points="107.675072,162.573624 112.398270,164.558731 112.672073,164.695633 152.511169,188.585403 155.659958,191.049667 156.276031,191.528839 159.356369,195.567505 161.341476,200.290695 161.957550,205.287704 161.341476,210.284698 159.356369,215.007889 156.276031,219.046555 152.237366,222.126907 147.514175,224.112015 142.517166,224.728088 102.678078,224.728088 97.681076,224.112015 92.957886,222.126907 88.919212,219.046555 85.838867,215.007889 83.853760,210.284698 83.237694,205.287704 83.237694,181.397934 83.853760,176.400940 85.838867,171.677734 88.919212,167.639069 92.957886,164.558731 97.681076,162.573624 102.678078,161.957550 "
     id="polygon15" />
  <polygon
     fill="rgb(133,133,133)"
     stroke="none"
     stroke-width="1.000000"
     points="518.318909,162.505173 523.042114,164.490280 527.080811,167.570618 530.161133,171.609283 532.146240,176.332489 532.762329,181.329483 532.830750,181.329483 532.830750,205.287704 532.146240,210.284698 530.161133,215.007889 527.080811,219.046555 523.042114,222.126907 518.318909,224.112015 513.321899,224.728088 473.345917,224.728088 468.348938,224.112015 463.625732,222.126907 459.587067,219.046555 456.506714,215.007889 454.521606,210.284698 453.905548,205.287704 454.521606,200.290695 456.506714,195.567505 459.587067,191.528839 460.203125,191.049667 463.351929,188.585403 503.327911,164.627182 503.601746,164.490280 508.324921,162.505173 513.321899,161.889099 "
     id="polygon17" />
  <polygon
     fill="rgb(133,133,133)"
     stroke="none"
     stroke-width="1.000000"
     points="554.393127,89.329926 395.379028,226.918549 534.952759,226.918549 534.952759,143.133240 395.379028,226.918549 554.393127,89.329926 554.393127,89.329926 81.115677,226.918549 220.552505,226.918549 81.115677,143.270142 81.115677,226.918549 554.393127,89.329926 559.390137,89.945992 564.113342,91.931107 568.152039,95.011444 571.232361,99.050117 573.217468,103.773308 573.833557,108.770309 573.901978,108.770309 573.901978,246.358932 573.422852,249.849991 573.217468,251.355927 571.232361,256.079132 568.152039,260.117798 564.113342,263.198120 559.390137,265.183228 554.393127,265.799316 61.606846,265.799316 56.609844,265.183228 51.886654,263.198120 47.847984,260.117798 44.767639,256.079132 42.782532,251.355927 42.166462,246.358932 42.166462,108.838760 42.782532,103.841759 44.767639,99.118568 47.847984,95.079895 51.886654,91.999557 56.609844,90.014442 61.606846,89.398376 66.603844,90.014442 71.327034,91.999557 71.600845,92.136459 285.445038,220.484055 292.290253,223.495941 298.998566,225.481049 315.563965,225.617950 322.956787,223.632843 330.623413,220.415604 544.399170,92.068008 544.672974,91.931107 549.396179,89.945992 554.393127,89.329926 "
     id="polygon19" />
  <polygon
     fill="rgb(133,133,133)"
     stroke="none"
     stroke-width="1.000000"
     points="595.464355,16.839205 328.501404,219.183472 328.227570,219.320374 323.504395,221.305481 312.483612,224.248917 307.486603,224.864990 302.489624,224.248917 302.010437,224.112015 291.947998,221.168579 287.703979,219.320374 287.430145,219.183472 40.044449,70.710968 40.044449,267.989777 576.023987,267.989777 576.023987,70.642517 328.501404,219.183472 595.464355,16.839205 600.461365,17.455273 605.184570,19.440382 609.223267,22.520725 612.303589,26.559395 614.288696,31.282587 614.904785,36.279587 614.973206,36.279587 614.973206,287.430145 614.288696,292.427155 612.303589,297.150360 609.223267,301.189026 605.184570,304.269348 600.461365,306.254486 595.464355,306.870544 20.535616,306.870544 15.538615,306.254486 10.815424,304.269348 6.776753,301.189026 3.696411,297.150360 1.711301,292.427155 1.095233,287.430145 1.095233,36.279587 1.711301,31.282587 3.696411,26.559395 6.776753,22.520725 10.815424,19.440382 15.538615,17.455273 20.535616,16.839205 25.532616,17.455273 30.255806,19.440382 30.529613,19.577286 305.227692,184.478271 307.691956,185.231247 310.909210,184.341370 585.470398,19.577286 585.744202,19.440382 590.467407,17.455273 595.464355,16.839205 "
     id="polygon21" />
  <polygon
     fill="rgb(139,139,139)"
     stroke="none"
     stroke-width="1.000000"
     points="107.538170,163.258133 112.056007,165.106339 112.329811,165.311707 151.689743,188.927658 151.895096,188.996109 155.796860,192.007996 158.808762,195.909775 160.656967,200.427597 161.273026,205.287704 160.656967,210.147797 158.808762,214.665634 155.796860,218.567398 151.895096,221.579285 147.377258,223.427490 142.517166,224.043564 102.678078,224.043564 97.817978,223.427490 93.300148,221.579285 89.398376,218.567398 86.386490,214.665634 84.538284,210.147797 83.922211,205.287704 83.922211,181.397934 84.538284,176.537842 86.386490,172.020004 89.398376,168.118240 93.300148,165.106339 97.817978,163.258133 102.678078,162.642075 "
     id="polygon23" />
  <polygon
     fill="rgb(139,139,139)"
     stroke="none"
     stroke-width="1.000000"
     points="518.182007,163.189682 522.699829,165.037888 526.601624,168.049789 529.613525,171.951553 531.461731,176.469391 532.077759,181.329483 532.146240,181.329483 532.146240,205.287704 531.461731,210.147797 529.613525,214.665634 526.601624,218.567398 522.699829,221.579285 518.182007,223.427490 513.321899,224.043564 473.345917,224.043564 468.485840,223.427490 463.967987,221.579285 460.066223,218.567398 457.054352,214.665634 455.206146,210.147797 454.590057,205.287704 455.206146,200.427597 457.054352,195.909775 460.066223,192.007996 463.967987,188.996109 464.173340,188.927658 503.670197,165.243256 503.944000,165.037888 508.461823,163.189682 513.321899,162.573624 "
     id="polygon25" />
  <polygon
     fill="rgb(139,139,139)"
     stroke="none"
     stroke-width="1.000000"
     points="554.393127,90.014442 392.846313,227.603073 535.637268,227.603073 535.637268,141.901093 392.846313,227.603073 554.393127,90.014442 554.393127,90.014442 80.431160,227.603073 223.016785,227.603073 80.431160,142.038010 80.431160,227.603073 554.393127,90.014442 559.253235,90.630516 563.771057,92.478722 567.672852,95.490608 570.684753,99.392380 572.532959,103.910210 573.148987,108.770309 573.217468,108.770309 573.217468,246.358932 572.601379,250.945221 572.532959,251.219025 570.684753,255.736862 567.672852,259.638641 563.771057,262.650513 559.253235,264.498718 554.393127,265.114777 61.606846,265.114777 56.746750,264.498718 52.228916,262.650513 48.327148,259.638641 45.315258,255.736862 43.467052,251.219025 42.850983,246.358932 42.850983,108.838760 43.467052,103.978661 45.315258,99.460831 48.327148,95.559059 52.228916,92.547173 56.746750,90.698967 61.606846,90.082901 66.466942,90.698967 70.984779,92.547173 71.258583,92.752525 284.897430,220.963211 292.358704,224.248917 298.793213,226.097122 315.700867,226.370926 322.956787,224.385818 331.171021,220.894760 544.741394,92.684074 545.015198,92.478722 549.533081,90.630516 554.393127,90.014442 "
     id="polygon27" />
  <polygon
     fill="rgb(139,139,139)"
     stroke="none"
     stroke-width="1.000000"
     points="595.464355,17.523726 328.159119,218.567398 327.885315,218.772751 323.367493,220.620956 323.230591,220.620956 312.483612,223.495941 312.346710,223.564392 307.486603,224.180466 302.626526,223.564392 302.215790,223.427490 292.632507,220.620956 292.564056,220.620956 292.427155,220.552505 292.153351,220.484055 288.046234,218.772751 287.840881,218.567398 39.359928,69.478828 39.359928,268.674286 576.708496,268.674286 576.708496,69.410378 328.159119,218.567398 595.464355,17.523726 600.324463,18.139793 604.842346,19.987999 608.744080,22.999889 611.755981,26.901655 613.604187,31.419491 614.220276,36.279587 614.288696,36.279587 614.288696,287.430145 613.604187,292.290253 611.755981,296.808075 608.744080,300.709869 604.842346,303.721741 600.324463,305.569946 595.464355,306.186035 20.535616,306.186035 15.675520,305.569946 11.157684,303.721741 7.255918,300.709869 4.244027,296.808075 2.395822,292.290253 1.779753,287.430145 1.779753,36.279587 2.395822,31.419491 4.244027,26.901655 7.255918,22.999889 11.157684,19.987999 15.675520,18.139793 20.535616,17.523726 25.395710,18.139793 29.913546,19.987999 30.187355,20.193356 305.022339,185.162796 307.691956,185.915771 311.114563,185.025894 585.812622,20.193356 586.086426,19.987999 590.604309,18.139793 595.464355,17.523726 "
     id="polygon29" />
  <polygon
     fill="rgb(146,146,146)"
     stroke="none"
     stroke-width="1.000000"
     points="107.332817,163.942657 111.713745,165.790863 111.919106,165.927765 151.758194,189.817535 155.249252,192.555618 158.124237,196.252029 159.972443,200.632965 160.520065,205.287704 159.972443,209.942444 158.124237,214.323364 155.249252,218.019775 151.552841,220.894760 147.171906,222.742966 142.517166,223.290588 102.678078,223.290588 98.023338,222.742966 96.722748,222.195358 93.642403,220.894760 89.945992,218.019775 89.877541,217.951324 87.071007,214.323364 85.222801,209.942444 84.675186,205.287704 84.675186,181.397934 85.222801,176.743195 87.071007,172.430710 87.071007,172.362259 89.945992,168.665848 90.014442,168.597397 93.642403,165.790863 98.023338,163.942657 102.678078,163.395050 "
     id="polygon31" />
  <polygon
     fill="rgb(146,146,146)"
     stroke="none"
     stroke-width="1.000000"
     points="517.976685,163.874207 522.357605,165.722412 526.054016,168.597397 528.929016,172.293808 530.777222,176.674744 531.324829,181.329483 531.393250,181.329483 531.393250,205.287704 531.119446,207.135910 530.777222,209.942444 528.929016,214.323364 526.054016,218.019775 522.357605,220.894760 517.976685,222.742966 513.321899,223.290588 473.345917,223.290588 468.691193,222.742966 467.390594,222.195358 464.310242,220.894760 460.613861,218.019775 460.545380,217.951324 457.738861,214.323364 455.890656,209.942444 455.343048,205.287704 455.890656,200.632965 457.738861,196.252029 460.613861,192.555618 464.104889,189.817535 504.080902,165.859314 504.286255,165.722412 508.667175,163.874207 513.321899,163.326599 "
     id="polygon33" />
  <polygon
     fill="rgb(146,146,146)"
     stroke="none"
     stroke-width="1.000000"
     points="554.393127,90.767418 390.176697,228.356033 536.390259,228.356033 536.390259,140.600510 390.176697,228.356033 554.393127,90.767418 554.393127,90.767418 79.678185,228.356033 225.754868,228.356033 79.678185,140.668961 79.678185,228.356033 554.393127,90.767418 559.047913,91.315033 563.428833,93.163239 567.125244,96.038223 570.000244,99.734634 571.848450,104.115570 572.396057,108.770309 572.464478,108.770309 572.464478,246.358932 572.053772,249.507721 571.848450,251.013672 570.000244,255.394592 567.125244,259.091003 563.428833,261.966003 559.047913,263.814209 554.393127,264.361816 61.606846,264.361816 56.952106,263.814209 52.571175,261.966003 48.874763,259.091003 47.642628,257.516602 45.999779,255.394592 44.151573,251.013672 43.603954,246.358932 43.603954,108.838760 44.151573,104.184021 45.999779,99.871544 45.999779,99.803093 48.874763,96.106682 48.943214,96.038223 52.571175,93.231689 56.952106,91.383484 61.606846,90.835869 66.261581,91.383484 70.642517,93.231689 70.847870,93.368599 284.555176,221.647736 291.947998,224.864990 298.793213,226.850098 315.632416,227.123901 323.641296,224.933441 331.307922,221.647736 545.152100,93.300148 545.357483,93.163239 549.738403,91.315033 554.393127,90.767418 "
     id="polygon35" />
  <polygon
     fill="rgb(146,146,146)"
     stroke="none"
     stroke-width="1.000000"
     points="595.464355,18.276697 327.748413,217.951324 327.543060,218.088226 323.162140,219.936432 312.141357,222.879883 307.486603,223.427490 302.831879,222.879883 302.421173,222.742966 292.837860,219.936432 292.769409,219.936432 292.632507,219.867981 292.358704,219.799530 288.388489,218.088226 288.183136,217.951324 38.606956,68.109787 38.606956,269.427277 577.461487,269.427277 577.461487,68.109787 327.748413,217.951324 595.464355,18.276697 600.119141,18.824314 604.500061,20.672520 608.196472,23.547504 611.071472,27.243916 611.071472,27.312368 612.919678,31.624847 613.467285,36.279587 613.535706,36.279587 613.535706,287.430145 612.919678,292.084900 611.071472,296.465820 608.196472,300.162231 604.500061,303.037231 600.119141,304.885437 595.464355,305.433044 20.535616,305.433044 15.880876,304.885437 11.499945,303.037231 7.803534,300.162231 4.928547,296.465820 3.080342,292.084900 2.532726,287.430145 2.532726,36.279587 3.080342,31.624847 4.928547,27.312368 4.928547,27.243916 7.803534,23.547504 11.499945,20.672520 15.880876,18.824314 20.535616,18.276697 25.190355,18.824314 29.571285,20.672520 29.776642,20.809423 304.611633,185.778870 307.691956,186.668747 311.525269,185.641968 586.223328,20.809423 586.428711,20.672520 590.809631,18.824314 595.464355,18.276697 "
     id="polygon37" />
  <polygon
     fill="rgb(154,154,154)"
     stroke="none"
     stroke-width="1.000000"
     points="107.059006,164.900986 111.234581,166.612289 111.439941,166.749191 151.279037,190.638962 154.564728,193.240143 157.302811,196.731186 157.850433,198.100235 159.014114,200.906769 159.561722,205.287704 159.014114,209.668625 157.302811,213.844208 154.564728,217.335266 151.073669,220.073349 146.898102,221.784637 142.517166,222.332260 102.678078,222.332260 98.297142,221.784637 95.490608,220.620956 94.121567,220.073349 90.630516,217.335266 88.440048,214.528732 87.892433,213.844208 86.181129,209.668625 85.633514,205.287704 85.633514,181.397934 86.181129,177.016998 87.892433,172.909882 87.892433,172.841431 90.630516,169.350372 90.698967,169.281921 94.121567,166.612289 98.297142,164.900986 102.678078,164.353378 "
     id="polygon39" />
  <polygon
     fill="rgb(154,154,154)"
     stroke="none"
     stroke-width="1.000000"
     points="517.702881,164.832535 521.878418,166.543839 525.369507,169.281921 528.107544,172.772980 529.818848,176.948547 530.366455,181.329483 530.434937,181.329483 530.434937,205.287704 529.818848,209.668625 528.107544,213.844208 525.369507,217.335266 521.878418,220.073349 517.702881,221.784637 513.321899,222.332260 473.345917,222.332260 468.964996,221.784637 466.158447,220.620956 464.789429,220.073349 461.298370,217.335266 459.107910,214.528732 458.560272,213.844208 456.848969,209.668625 456.301361,205.287704 456.848969,200.906769 458.012665,198.100235 458.560272,196.731186 461.298370,193.240143 464.584076,190.638962 504.560059,166.680740 504.765411,166.543839 508.940979,164.832535 513.321899,164.284927 "
     id="polygon41" />
  <polygon
     fill="rgb(154,154,154)"
     stroke="none"
     stroke-width="1.000000"
     points="554.393127,91.725746 386.754089,229.314362 537.348572,229.314362 537.348572,138.889206 386.754089,229.314362 554.393127,91.725746 554.393127,91.725746 78.719856,229.314362 229.177460,229.314362 78.719856,139.026108 78.719856,229.314362 554.393127,91.725746 558.774109,92.273361 562.949646,93.984665 566.440735,96.722748 569.178772,100.213799 570.890076,104.389374 571.437744,108.770309 571.506165,108.770309 571.506165,246.358932 571.026978,249.713074 570.890076,250.739853 569.178772,254.915436 566.440735,258.406494 562.949646,261.144562 558.774109,262.855865 554.393127,263.403503 61.606846,263.403503 57.225914,262.855865 54.898544,261.897552 53.050339,261.144562 49.559284,258.406494 48.395599,256.900543 46.821201,254.915436 45.109901,250.739853 44.562286,246.358932 44.562286,108.838760 45.109901,104.457832 46.821201,100.350708 46.821201,100.282257 49.559284,96.791199 49.627735,96.722748 53.050339,94.053116 57.225914,92.341812 61.606846,91.794197 65.987778,92.341812 70.163353,94.053116 70.368706,94.190018 284.281372,222.606064 291.742645,225.823318 298.519379,227.808426 315.906219,228.082230 323.641296,225.960220 331.718628,222.537613 545.631287,94.121567 545.836670,93.984665 550.012207,92.273361 554.393127,91.725746 "
     id="polygon43" />
  <polygon
     fill="rgb(154,154,154)"
     stroke="none"
     stroke-width="1.000000"
     points="595.464355,19.235025 327.269257,217.129898 327.063904,217.266800 322.888336,218.978104 311.867554,221.921539 307.486603,222.469162 303.105682,221.921539 302.694977,221.784637 293.111664,218.978104 293.043213,218.978104 292.906311,218.909653 292.632507,218.841202 288.867645,217.266800 288.662292,217.129898 37.648628,66.466942 37.648628,270.385590 578.419800,270.385590 578.419800,66.398491 327.269257,217.129898 595.464355,19.235025 599.845337,19.782642 604.020874,21.493944 607.511963,24.232025 610.250000,27.723080 610.250000,27.791533 611.961304,31.898655 612.508972,36.279587 612.577393,36.279587 612.577393,287.430145 611.961304,291.811096 610.250000,295.986664 607.511963,299.477722 604.020874,302.215790 599.845337,303.927094 595.464355,304.474731 20.535616,304.474731 16.154684,303.927094 11.979109,302.215790 8.488054,299.477722 5.749972,295.986664 4.038671,291.811096 3.491055,287.430145 3.491055,36.279587 4.038671,31.898655 5.749972,27.791533 5.749972,27.723080 8.488054,24.232025 11.979109,21.493944 16.154684,19.782642 20.535616,19.235025 24.916546,19.782642 29.092121,21.493944 29.297478,21.630848 304.406281,186.737198 307.623505,187.695526 311.799103,186.600296 586.702515,21.630848 586.907898,21.493944 591.083435,19.782642 595.464355,19.235025 "
     id="polygon45" />
  <polygon
     fill="rgb(164,164,164)"
     stroke="none"
     stroke-width="1.000000"
     points="106.785202,165.996216 110.618515,167.639069 110.823868,167.775970 150.662964,191.665741 153.743301,194.061569 156.276031,197.347260 157.918884,201.180573 158.398041,205.287704 157.918884,209.394821 156.276031,213.228134 153.743301,216.513840 150.457611,219.046555 146.624298,220.689407 142.517166,221.168579 102.678078,221.168579 98.570953,220.689407 94.737640,219.046555 91.451942,216.513840 88.919212,213.228134 87.276367,209.394821 86.797203,205.287704 86.797203,181.397934 87.276367,177.290817 88.919212,173.457489 91.451942,170.171799 94.737640,167.639069 98.570953,165.996216 102.678078,165.517059 "
     id="polygon47" />
  <polygon
     fill="rgb(164,164,164)"
     stroke="none"
     stroke-width="1.000000"
     points="517.429077,165.927765 521.262390,167.570618 524.548035,170.103348 527.080811,173.389038 528.723633,177.222351 529.202820,181.329483 529.271240,181.329483 529.271240,205.287704 529.065918,206.588287 528.723633,209.394821 527.080811,213.228134 524.548035,216.513840 521.262390,219.046555 517.429077,220.689407 513.321899,221.168579 473.345917,221.168579 469.238800,220.689407 465.405487,219.046555 462.119781,216.513840 459.587067,213.228134 457.944214,209.394821 457.465057,205.287704 457.944214,201.180573 459.587067,197.347260 462.119781,194.061569 465.200134,191.665741 505.176117,167.707520 505.381500,167.570618 509.214813,165.927765 513.321899,165.448608 "
     id="polygon49" />
  <polygon
     fill="rgb(164,164,164)"
     stroke="none"
     stroke-width="1.000000"
     points="554.393127,92.889435 382.441620,230.478058 538.512268,230.478058 538.512268,136.835648 382.441620,230.478058 554.393127,92.889435 554.393127,92.889435 77.556175,230.478058 233.421494,230.478058 77.556175,136.904099 77.556175,230.478058 554.393127,92.889435 558.500305,93.368599 562.333618,95.011444 565.619263,97.544174 568.152039,100.829872 569.794861,104.663185 570.274048,108.770309 570.342468,108.770309 570.342468,246.358932 570.000244,248.891647 569.794861,250.466049 568.152039,254.299362 565.619263,257.585052 562.333618,260.117798 558.500305,261.760651 554.393127,262.239807 61.606846,262.239807 57.499722,261.760651 53.666409,260.117798 50.380711,257.585052 47.847984,254.299362 46.205135,250.466049 45.725971,246.358932 45.725971,108.838760 46.205135,104.731636 47.847984,100.898323 50.380711,97.612625 53.666409,95.079895 57.499722,93.437050 61.606846,92.957886 65.713966,93.437050 69.547279,95.079895 69.752640,95.216805 283.323029,223.359039 291.468842,226.987000 298.450928,228.972107 315.906219,229.245911 324.052002,227.055450 332.676971,223.359039 546.247375,95.148354 546.452698,95.011444 550.286011,93.368599 554.393127,92.889435 "
     id="polygon51" />
  <polygon
     fill="rgb(164,164,164)"
     stroke="none"
     stroke-width="1.000000"
     points="595.464355,20.398710 326.653198,216.103119 326.447815,216.240021 322.614502,217.882874 311.593719,220.826309 307.486603,221.305481 303.379486,220.826309 303.105682,220.689407 293.522400,217.882874 293.317047,217.882874 289.483734,216.240021 289.278351,216.103119 36.484943,64.344925 36.484943,271.549286 579.583496,271.549286 579.583496,64.344925 326.653198,216.103119 595.464355,20.398710 599.571533,20.877874 603.404846,22.520725 606.690491,25.053450 609.223267,28.339149 610.866089,32.172462 611.345276,36.279587 611.413696,36.279587 611.413696,287.430145 610.866089,291.537292 609.223267,295.370605 606.690491,298.656281 603.404846,301.189026 599.571533,302.831879 595.464355,303.311035 20.535616,303.311035 16.428492,302.831879 12.595178,301.189026 9.309479,298.656281 6.776753,295.370605 5.133904,291.537292 4.654739,287.430145 4.654739,36.279587 5.133904,32.172462 6.776753,28.339149 9.309479,25.053450 12.595178,22.520725 16.428492,20.877874 20.535616,20.398710 24.642738,20.877874 28.476053,22.520725 28.681410,22.657629 303.721741,187.763977 307.623505,188.927658 312.483612,187.627075 587.318604,22.657629 587.523926,22.520725 591.357239,20.877874 595.464355,20.398710 "
     id="polygon53" />
  <polygon
     fill="rgb(176,176,176)"
     stroke="none"
     stroke-width="1.000000"
     points="106.442940,167.365265 109.933990,168.802750 110.139351,168.939667 149.704636,192.692520 149.773087,192.692520 152.784973,195.019897 155.112350,198.031784 156.549835,201.522842 157.029007,205.287704 156.549835,209.052567 155.112350,212.543610 152.784973,215.555511 149.773087,217.882874 146.282028,219.320374 142.517166,219.799530 102.678078,219.799530 98.913216,219.320374 95.422157,217.882874 92.410271,215.555511 90.082901,212.543610 88.645409,209.052567 88.166245,205.287704 88.166245,181.397934 88.645409,177.633072 90.082901,174.142014 92.410271,171.130127 95.422157,168.802750 98.913216,167.365265 102.678078,166.886093 "
     id="polygon55" />
  <polygon
     fill="rgb(176,176,176)"
     stroke="none"
     stroke-width="1.000000"
     points="517.086792,167.296814 520.577820,168.734299 523.589722,171.061676 525.917114,174.073563 527.354614,177.564621 527.833740,181.329483 527.902222,181.329483 527.902222,205.287704 527.354614,209.052567 525.917114,212.543610 523.589722,215.555511 520.577820,217.882874 517.086792,219.320374 513.321899,219.799530 473.345917,219.799530 469.581055,219.320374 466.089996,217.882874 463.078125,215.555511 460.750763,212.543610 459.313263,209.052567 458.834106,205.287704 459.313263,201.522842 460.750763,198.031784 463.078125,195.019897 466.089996,192.692520 466.158447,192.692520 505.860657,168.871201 506.066010,168.734299 509.557068,167.296814 513.321899,166.817642 "
     id="polygon57" />
  <polygon
     fill="rgb(176,176,176)"
     stroke="none"
     stroke-width="1.000000"
     points="554.393127,94.258476 377.581512,231.847092 539.881348,231.847092 539.881348,134.439819 377.581512,231.847092 554.393127,94.258476 554.393127,94.258476 76.187134,231.847092 238.350037,231.847092 76.187134,134.508286 76.187134,231.847092 554.393127,94.258476 558.158020,94.737640 561.649048,96.175133 564.660950,98.502502 566.988342,101.514389 568.425842,105.005447 568.904968,108.770309 568.973450,108.770309 568.973450,246.358932 568.562744,249.165466 568.425842,250.123795 566.988342,253.614853 564.660950,256.626740 561.649048,258.954102 558.158020,260.391602 554.393127,260.870758 61.606846,260.870758 57.841984,260.391602 54.350929,258.954102 51.339039,256.626740 49.011669,253.614853 47.574177,250.123795 47.095009,246.358932 47.095009,108.838760 47.574177,105.073898 49.011669,101.582840 51.339039,98.570953 54.350929,96.243584 57.841984,94.806091 61.606846,94.326927 65.371712,94.806091 68.862762,96.243584 69.068115,96.380486 283.117676,224.864990 290.647400,228.150681 298.245575,230.341156 316.316925,230.614960 324.394257,228.424484 332.950775,224.796539 546.931885,96.312035 547.137207,96.175133 550.628296,94.737640 554.393127,94.258476 "
     id="polygon59" />
  <polygon
     fill="rgb(176,176,176)"
     stroke="none"
     stroke-width="1.000000"
     points="595.464355,21.767752 325.968658,214.939438 325.763306,215.076340 322.272247,216.513840 322.135345,216.513840 311.388367,219.388824 311.251465,219.457275 307.486603,219.936432 303.721741,219.457275 303.447937,219.388824 293.385498,216.445389 290.168243,215.076340 289.962891,214.939438 35.115902,61.949104 35.115902,272.918335 580.952576,272.918335 580.952576,61.949104 325.968658,214.939438 595.464355,21.767752 599.229248,22.246916 602.720276,23.684410 605.732178,26.011780 608.059570,29.023670 609.497070,32.514725 609.976196,36.279587 610.044678,36.279587 610.044678,287.430145 609.497070,291.195007 608.059570,294.686066 605.732178,297.697968 602.720276,300.025330 599.229248,301.462830 595.464355,301.941986 20.535616,301.941986 16.770752,301.462830 13.279697,300.025330 10.267808,297.697968 7.940438,294.686066 6.502945,291.195007 6.023780,287.430145 6.023780,36.279587 6.502945,32.514725 7.940438,29.023670 10.267808,26.011780 13.279697,23.684410 16.770752,22.246916 20.535616,21.767752 24.300478,22.246916 27.791533,23.684410 27.996889,23.821314 303.242584,189.064560 307.691956,190.365158 312.757416,188.996109 588.003113,23.821314 588.208496,23.684410 591.699524,22.246916 595.464355,21.767752 "
     id="polygon61" />
  <polygon
     fill="rgb(190,190,190)"
     stroke="none"
     stroke-width="1.000000"
     points="106.032227,168.871201 109.181023,170.171799 109.317924,170.308701 148.746307,193.924652 149.020111,194.061569 151.484390,195.978226 151.689743,196.115128 153.743301,198.784760 153.880203,199.127014 155.043900,201.933548 155.454605,205.287704 155.043900,208.641846 153.743301,211.790649 151.689743,214.460266 149.020111,216.513840 145.871323,217.814423 142.517166,218.225143 102.678078,218.225143 99.323921,217.814423 96.175133,216.513840 93.505501,214.460266 91.520393,211.859100 91.451942,211.790649 90.151352,208.641846 89.740639,205.287704 89.740639,181.397934 90.151352,178.043777 91.451942,174.963440 91.451942,174.894989 93.505501,172.225357 93.573952,172.156906 96.175133,170.171799 99.323921,168.871201 102.678078,168.460495 "
     id="polygon63" />
  <polygon
     fill="rgb(190,190,190)"
     stroke="none"
     stroke-width="1.000000"
     points="516.676086,168.802750 519.824890,170.103348 522.494507,172.156906 524.548035,174.826538 525.848633,177.975327 526.259338,181.329483 526.327820,181.329483 526.327820,205.287704 525.848633,208.641846 524.548035,211.790649 522.494507,214.460266 519.824890,216.513840 516.676086,217.814423 513.321899,218.225143 473.345917,218.225143 469.991791,217.814423 466.842987,216.513840 464.173340,214.460266 462.188232,211.859100 462.119781,211.790649 460.819214,208.641846 460.408478,205.287704 460.819214,201.933548 461.982880,199.127014 462.119781,198.784760 464.173340,196.115128 464.378723,195.978226 466.842987,194.061569 467.116791,193.924652 506.682068,170.240250 506.818970,170.103348 509.967773,168.802750 513.321899,168.392044 "
     id="polygon65" />
  <polygon
     fill="rgb(190,190,190)"
     stroke="none"
     stroke-width="1.000000"
     points="554.393127,95.832870 371.831543,233.421494 541.455688,233.421494 541.455688,131.633286 371.831543,233.421494 554.393127,95.832870 554.393127,95.832870 74.612732,233.421494 244.100006,233.421494 74.612732,131.701752 74.612732,233.421494 554.393127,95.832870 557.747314,96.243584 560.896118,97.544174 563.565735,99.597733 565.619263,102.267365 566.919861,105.416161 567.330566,108.770309 567.399048,108.770309 567.399048,246.358932 566.919861,249.507721 566.919861,249.713074 565.619263,252.861877 563.565735,255.531509 560.896118,257.585052 557.747314,258.885651 554.393127,259.296356 61.606846,259.296356 58.252693,258.885651 55.103901,257.585052 52.434269,255.531509 50.380711,252.861877 49.080120,249.713074 48.669407,246.358932 48.669407,108.838760 49.080120,105.484612 50.380711,102.404266 50.380711,102.335815 52.434269,99.666183 52.502724,99.597733 55.103901,97.612625 58.252693,96.312035 61.606846,95.901321 64.960999,96.312035 68.109787,97.612625 68.246696,97.749527 282.159363,226.097122 290.099792,229.588181 298.040222,231.915543 316.385376,232.189362 325.010345,229.861984 333.840637,226.097122 547.753296,97.681076 547.890198,97.544174 551.039001,96.243584 554.393127,95.832870 "
     id="polygon67" />
  <polygon
     fill="rgb(190,190,190)"
     stroke="none"
     stroke-width="1.000000"
     points="595.464355,23.342150 325.352600,213.433487 325.010345,213.707306 321.861542,215.007889 310.840759,217.951324 307.486603,218.362045 304.132446,217.951324 303.858643,217.882874 293.796204,214.939438 290.921204,213.707306 290.578949,213.433487 33.541504,59.142570 33.541504,274.492706 582.526978,274.492706 582.526978,59.142570 325.352600,213.433487 595.464355,23.342150 598.818542,23.752861 601.967346,25.053450 604.636963,27.107012 606.690491,29.776642 606.690491,29.845095 607.991089,32.925438 608.401794,36.279587 608.470276,36.279587 608.470276,287.430145 607.991089,290.784302 606.690491,293.933105 604.636963,296.602722 601.967346,298.656281 598.818542,299.956879 595.464355,300.367584 20.535616,300.367584 17.181465,299.956879 14.032670,298.656281 11.363040,296.602722 9.309479,293.933105 8.008890,290.784302 7.598177,287.430145 7.598177,36.279587 8.008890,32.925438 9.309479,29.845095 9.309479,29.776642 11.363040,27.107012 14.032670,25.053450 17.181465,23.752861 20.535616,23.342150 23.889765,23.752861 27.038559,25.053450 27.175465,25.190355 302.489624,190.433609 307.691956,191.939545 313.578827,190.365158 588.824524,25.190355 588.961426,25.053450 592.110229,23.752861 595.464355,23.342150 "
     id="polygon69" />
  <polygon
     fill="rgb(208,208,208)"
     stroke="none"
     stroke-width="1.000000"
     points="105.484612,170.787872 108.154236,171.883102 108.291145,171.951553 148.130234,195.841309 148.198685,195.909775 150.252243,197.552612 152.031998,199.811539 153.127243,202.481171 153.469498,205.287704 153.127243,208.094238 152.031998,210.763870 150.252243,213.022781 147.993332,214.802536 145.323700,215.897766 142.517166,216.240021 102.678078,216.240021 99.871544,215.897766 97.201912,214.802536 94.942993,213.022781 93.163239,210.763870 92.068008,208.094238 91.725746,205.287704 91.725746,181.397934 92.068008,178.591400 93.163239,175.921768 94.942993,173.662857 97.201912,171.883102 99.871544,170.787872 102.678078,170.445602 "
     id="polygon71" />
  <polygon
     fill="rgb(208,208,208)"
     stroke="none"
     stroke-width="1.000000"
     points="516.128479,170.719406 518.798096,171.814651 521.057007,173.594406 522.836731,175.853317 523.932007,178.522949 524.274231,181.329483 524.342712,181.329483 524.342712,205.287704 523.932007,207.957321 523.932007,208.094238 522.836731,210.763870 521.057007,213.022781 518.798096,214.802536 516.128479,215.897766 513.321899,216.240021 473.345917,216.240021 470.539398,215.897766 467.869751,214.802536 465.610840,213.022781 463.831085,210.763870 462.735870,208.094238 462.393585,205.287704 462.735870,202.481171 463.831085,199.811539 465.610840,197.552612 467.664398,195.909775 467.732849,195.841309 507.708862,171.883102 507.845764,171.814651 510.515381,170.719406 513.321899,170.377151 "
     id="polygon73" />
  <polygon
     fill="rgb(208,208,208)"
     stroke="none"
     stroke-width="1.000000"
     points="554.393127,97.817978 364.780975,235.406601 543.440857,235.406601 543.440857,128.142242 364.780975,235.406601 554.393127,97.817978 554.393127,97.817978 72.627625,235.406601 251.150574,235.406601 72.627625,128.279144 72.627625,235.406601 554.393127,97.817978 557.199707,98.160240 559.869324,99.255470 562.128235,101.035225 563.908020,103.294144 565.003235,105.963776 565.345459,108.770309 565.413940,108.770309 565.413940,246.358932 565.140137,248.275589 565.003235,249.165466 563.908020,251.835098 562.128235,254.094009 559.869324,255.873764 557.199707,256.968994 554.393127,257.311249 61.606846,257.311249 58.800312,256.968994 56.130680,255.873764 53.871765,254.094009 52.092010,251.835098 50.996777,249.165466 50.654518,246.358932 50.654518,108.838760 50.996777,106.032227 52.092010,103.362595 53.871765,101.103676 56.130680,99.323921 58.800312,98.228691 61.606846,97.886429 64.413376,98.228691 67.083008,99.323921 67.219910,99.392380 281.406372,227.945328 289.620636,231.573288 297.766418,233.900650 316.659180,234.174469 325.694855,231.710190 334.388275,228.013779 548.780090,99.323921 548.916992,99.255470 551.586609,98.160240 554.393127,97.817978 "
     id="polygon75" />
  <polygon
     fill="rgb(208,208,208)"
     stroke="none"
     stroke-width="1.000000"
     points="595.464355,25.327259 324.120453,211.927551 323.983551,211.996002 321.313934,213.091232 310.293152,216.034668 307.486603,216.376938 304.680084,216.034668 304.406281,215.966217 294.343811,213.022781 291.947998,211.996002 291.811096,211.927551 31.556395,55.719971 31.556395,276.477844 584.512085,276.477844 584.512085,55.651516 324.120453,211.927551 595.464355,25.327259 598.270935,25.669519 600.940552,26.764751 603.199463,28.544504 604.979248,30.803423 606.074463,33.473053 606.416687,36.279587 606.485168,36.279587 606.485168,287.430145 606.074463,290.236694 604.979248,292.906311 603.199463,295.165253 600.940552,296.945007 598.270935,298.040222 595.464355,298.382477 20.535616,298.382477 17.729080,298.040222 15.059451,296.945007 12.800533,295.165253 11.020781,292.906311 9.925548,290.236694 9.583287,287.430145 9.583287,36.279587 9.925548,33.473053 11.020781,30.803423 12.800533,28.544504 15.059451,26.764751 17.729080,25.669519 20.535616,25.327259 23.342150,25.669519 26.011780,26.764751 26.148684,26.833204 301.873535,192.350266 307.623505,193.993103 314.126465,192.281815 589.851318,26.833204 589.988220,26.764751 592.657837,25.669519 595.464355,25.327259 "
     id="polygon77" />
  <polygon
     fill="rgb(228,228,228)"
     stroke="none"
     stroke-width="1.000000"
     points="102.678078,172.841431 111.303032,196.731186 111.508392,196.731186 111.303032,196.594284 111.303032,196.731186 102.678078,172.841431 104.868538,173.115234 106.990555,173.936661 107.059006,174.005112 146.692749,197.757980 146.829651,197.826431 147.240356,198.168686 148.609406,199.195465 149.978439,200.975220 150.799866,203.097229 151.073669,205.287704 150.799866,207.478165 149.978439,209.600174 148.609406,211.379929 146.829651,212.748978 144.707642,213.570404 142.517166,213.844208 102.678078,213.844208 100.487610,213.570404 98.365593,212.748978 96.585846,211.379929 96.106682,210.763870 95.216805,209.600174 94.395378,207.478165 94.121567,205.287704 94.121567,181.397934 94.395378,179.207474 95.216805,177.153900 95.216805,177.085449 96.585846,175.305695 96.654297,175.237244 98.365593,173.936661 100.487610,173.115234 102.678078,172.841431 "
     id="polygon79" />
  <polygon
     fill="rgb(228,228,228)"
     stroke="none"
     stroke-width="1.000000"
     points="513.321899,172.772980 504.354706,196.731186 504.765411,196.731186 504.765411,196.457382 504.354706,196.731186 513.321899,172.772980 515.512390,173.046783 517.634399,173.868210 519.414185,175.237244 520.783203,177.016998 521.604614,179.139023 521.878418,181.329483 521.946899,181.329483 521.946899,205.287704 521.604614,207.478165 520.783203,209.600174 519.414185,211.379929 517.634399,212.748978 515.512390,213.570404 513.321899,213.844208 473.345917,213.844208 471.155457,213.570404 469.033447,212.748978 467.253693,211.379929 466.774536,210.763870 465.884644,209.600174 465.063232,207.478165 464.789429,205.287704 465.063232,203.097229 465.884644,200.975220 467.253693,199.195465 468.622742,198.168686 469.033447,197.826431 469.170349,197.757980 508.940979,173.936661 509.009460,173.868210 511.131470,173.046783 513.321899,172.772980 "
     id="polygon81" />
  <polygon
     fill="rgb(228,228,228)"
     stroke="none"
     stroke-width="1.000000"
     points="554.393127,100.213799 356.156006,237.802429 545.836670,237.802429 545.836670,123.898209 356.156006,237.802429 554.393127,100.213799 554.393127,100.213799 70.231804,237.802429 259.775543,237.802429 70.231804,124.035118 70.231804,237.802429 554.393127,100.213799 556.583618,100.487610 558.705627,101.309036 560.485413,102.678078 561.854431,104.457832 562.675842,106.579842 562.949646,108.770309 563.018127,108.770309 563.018127,246.358932 562.744324,248.001785 562.675842,248.549393 561.854431,250.671402 560.485413,252.451157 558.705627,253.820206 556.583618,254.641632 554.393127,254.915436 61.606846,254.915436 59.416378,254.641632 57.294365,253.820206 55.514614,252.451157 54.145573,250.671402 53.324146,248.549393 53.050339,246.358932 53.050339,108.838760 53.324146,106.648293 54.145573,104.594734 54.145573,104.526283 55.514614,102.746529 55.583065,102.678078 57.294365,101.377487 59.416378,100.556061 61.606846,100.282257 63.797310,100.556061 65.919327,101.377487 65.987778,101.445938 280.311157,230.067337 289.072998,233.900650 297.287262,236.296478 317.001434,236.570282 326.379364,234.037567 335.483490,230.135788 550.012207,101.377487 550.080688,101.309036 552.202698,100.487610 554.393127,100.213799 "
     id="polygon83" />
  <polygon
     fill="rgb(228,228,228)"
     stroke="none"
     stroke-width="1.000000"
     points="595.464355,27.723080 322.956787,209.805527 322.819855,209.942444 320.697845,210.763870 309.677063,213.707306 307.486603,213.981110 305.296143,213.707306 305.227692,213.638855 295.028351,210.695404 293.111664,209.942444 292.974762,209.805527 29.160574,51.475941 29.160574,278.873657 586.907898,278.873657 586.907898,51.407490 322.956787,209.805527 595.464355,27.723080 597.654846,27.996889 599.776855,28.818314 601.556641,30.187355 602.925659,31.967108 602.925659,32.035561 603.747070,34.089123 604.020874,36.279587 604.089355,36.279587 604.089355,287.430145 603.747070,289.620636 602.925659,291.742645 601.556641,293.522400 599.776855,294.891418 597.654846,295.712860 595.464355,295.986664 20.535616,295.986664 18.345150,295.712860 16.223135,294.891418 14.443382,293.522400 13.074342,291.742645 12.252917,289.620636 11.979109,287.430145 11.979109,36.279587 12.252917,34.089123 13.074342,32.035561 13.074342,31.967108 14.443382,30.187355 16.223135,28.818314 18.345150,27.996889 20.535616,27.723080 22.726080,27.996889 24.848095,28.818314 24.916546,28.886765 301.052124,194.609177 307.555054,196.525833 315.016327,194.540726 591.083435,28.886765 591.151917,28.818314 593.273926,27.996889 595.464355,27.723080 "
     id="polygon85" />
  <polygon
     fill="rgb(253,253,253)"
     stroke="none"
     stroke-width="1.000000"
     points="102.678078,175.647964 108.496498,199.537720 121.776199,199.537720 108.496498,191.597290 108.496498,199.537720 102.678078,175.647964 104.115570,175.784866 105.553062,176.400940 105.621513,176.469391 145.255249,200.222244 145.392151,200.290695 146.624298,201.180573 147.514175,202.412720 148.130234,203.850204 148.267136,205.287704 148.130234,206.725189 147.514175,208.162689 146.624298,209.394821 145.392151,210.284698 143.954666,210.900772 142.517166,211.037674 102.678078,211.037674 101.240585,210.900772 99.803093,210.284698 98.570953,209.394821 97.681076,208.162689 97.065010,206.725189 96.928101,205.287704 96.928101,181.397934 97.065010,179.960434 97.681076,178.522949 98.570953,177.290817 99.803093,176.400940 101.240585,175.784866 102.678078,175.647964 "
     id="polygon87" />
  <polygon
     fill="rgb(253,253,253)"
     stroke="none"
     stroke-width="1.000000"
     points="513.321899,175.579514 494.086884,199.537720 507.571960,199.537720 507.571960,191.460388 494.086884,199.537720 513.321899,175.579514 514.759399,175.716415 516.196899,176.332489 517.429077,177.222351 518.318909,178.454498 518.934998,179.891983 519.071899,181.329483 519.140320,181.329483 519.140320,205.287704 518.934998,206.588287 518.934998,206.725189 518.318909,208.162689 517.429077,209.394821 516.196899,210.284698 514.759399,210.900772 513.321899,211.037674 473.345917,211.037674 471.908447,210.900772 470.470947,210.284698 469.238800,209.394821 468.348938,208.162689 467.732849,206.725189 467.595947,205.287704 467.732849,203.850204 468.348938,202.412720 469.238800,201.180573 470.470947,200.290695 470.607849,200.222244 510.378479,176.400940 510.446930,176.332489 511.884430,175.716415 513.321899,175.579514 "
     id="polygon89" />
  <polygon
     fill="rgb(253,253,253)"
     stroke="none"
     stroke-width="1.000000"
     points="554.393127,103.020332 345.888214,240.608963 548.643188,240.608963 548.643188,118.901215 345.888214,240.608963 554.393127,103.020332 554.393127,103.020332 67.425270,240.608963 270.043335,240.608963 67.425270,119.038116 67.425270,240.608963 554.393127,103.020332 555.830627,103.157242 557.268127,103.773308 558.500305,104.663185 559.390137,105.895325 560.006226,107.332817 560.143127,108.770309 560.211609,108.770309 560.211609,246.358932 560.006226,247.659515 560.006226,247.796417 559.390137,249.233917 558.500305,250.466049 557.268127,251.355927 555.830627,251.972000 554.393127,252.108902 61.606846,252.108902 60.169353,251.972000 58.731857,251.355927 57.499722,250.466049 56.609844,249.233917 55.993778,247.796417 55.856873,246.358932 55.856873,108.838760 55.993778,107.401268 56.609844,105.963776 57.499722,104.731636 58.731857,103.841759 60.169353,103.225693 61.606846,103.088791 63.044338,103.225693 64.481834,103.841759 64.550285,103.910210 278.805206,232.463165 287.909332,236.501831 296.876556,239.103012 317.206787,239.376816 327.200806,236.707184 337.400146,232.326263 551.449707,103.841759 551.518188,103.773308 552.955688,103.157242 554.393127,103.020332 "
     id="polygon91" />
  <polygon
     fill="rgb(253,253,253)"
     stroke="none"
     stroke-width="1.000000"
     points="595.464355,30.529613 321.587738,207.341263 321.382385,207.478165 319.944885,208.094238 308.924103,211.037674 307.486603,211.174576 306.049103,211.037674 305.706848,210.900772 296.123566,208.094238 295.986664,208.094238 294.549164,207.478165 294.480713,207.409714 26.354040,46.478943 26.354040,281.680176 589.714417,281.680176 589.714417,46.410492 321.587738,207.341263 595.464355,30.529613 596.901855,30.666519 598.339355,31.282587 599.571533,32.172462 600.461365,33.404602 601.077454,34.842094 601.214355,36.279587 601.282837,36.279587 601.282837,287.430145 601.077454,288.867645 600.461365,290.305145 599.571533,291.537292 598.339355,292.427155 596.901855,293.043213 595.464355,293.180145 20.535616,293.180145 19.098122,293.043213 17.660629,292.427155 16.428492,291.537292 15.538615,290.305145 14.922547,288.867645 14.785643,287.430145 14.785643,36.279587 14.922547,34.842094 15.538615,33.404602 16.428492,32.172462 17.660629,31.282587 19.098122,30.666519 20.535616,30.529613 21.973108,30.666519 23.410601,31.282587 23.479053,31.351040 299.683075,197.141907 307.486603,199.400818 316.385376,197.073456 592.520935,31.351040 592.589417,31.282587 594.026917,30.666519 595.464355,30.529613 "
     id="polygon93" />
</g>
<g
   inkscape:groupmode="layer"
   inkscape:label="layer2"
   id="layer2">
  <path
     id="line140"
     style="stroke:#00ffff;stroke-width:4;stroke-miterlimit:4;stroke-dasharray:none;stroke-dashoffset:0;fill:none"
     d="m 513.3219,181.32948 v 23.95822 h -39.97598 z m -410.64382,0.0685 39.83909,23.88977 h -39.83909 z m 183.24614,60.51162 10.06244,2.94343 22.11002,0.27381 11.02078,-2.94344 10.54163,-4.51784 214.73404,-128.8952 0,137.58862 H 61.606846 V 108.83876 L 276.27246,237.66551 Z M 318.50739,202.48117 595.46436,36.279587 V 287.43015 H 20.535616 V 36.279587 l 276.888544,166.201583 10.06244,2.94344 z"
     inkscape:connector-curvature="0"
     sodipodi:nodetypes="ccccccccccccccccccccccccccc"
     inkscape:export-xdpi="100"
     inkscape:export-ydpi="100" />
</g>
<g
   inkscape:groupmode="layer"
   inkscape:label="layer3"
   id="layer3"
   style="display:none">
  <polygon
     points="615.38391,31.761751 615.24701,30.940327 613.125,25.943327 609.90778,21.699301 605.80066,18.618958 600.66675,16.496944 595.46435,15.812424 590.26202,16.496944 589.09833,16.907656 588.7561,16.360041 615.65772,0.273808 616,0.479164 616,31.761751 "
     style="fill:#0080ff;stroke:none;stroke-width:1"
     id="polygon143" />
  <polygon
     points="25.806423,16.496944 20.535616,15.812424 15.33326,16.496944 10.199355,18.618958 5.955328,21.836205 2.874986,25.943327 0.752973,31.07723 0.616068,31.830204 0,31.830204 0,0.410712 0.34226,0.205356 27.312368,16.428492 26.970108,17.044561 "
     style="fill:#0080ff;stroke:none;stroke-width:1"
     id="polygon145" />
  <polygon
     points="66.466942,88.850761 66.466942,89.056114 61.606846,88.371597 56.404488,89.056114 51.270584,91.178131 47.095009,94.258476 46.958107,94.395378 43.946217,98.502502 41.824203,103.63641 41.687298,104.38937 41.071232,104.38937 41.071232,72.969887 41.41349,72.764526 68.246696,88.850761 67.904434,89.398376 "
     style="fill:#0080ff;stroke:none;stroke-width:1"
     id="polygon147" />
  <polygon
     points="574.38117,104.73164 574.17578,103.43105 572.05377,98.434052 568.83655,94.190018 564.72943,91.10968 559.59552,88.987663 554.39313,88.303146 549.1908,88.987663 547.95868,89.466827 547.61639,88.919212 574.65497,72.696075 574.99719,72.901436 574.99719,104.73164 "
     style="fill:#0080ff;stroke:none;stroke-width:1"
     id="polygon149" />
  <polygon
     points="107.81198,161.6153 102.67808,160.93077 97.475723,161.6153 92.341812,163.7373 88.166245,166.81764 88.029335,166.95454 85.017448,171.06168 82.895432,176.19557 82.75853,176.94855 82.142464,176.94855 82.142464,145.4606 82.484718,145.25525 110.13935,161.8891 109.79709,162.43672 "
     style="fill:#0080ff;stroke:none;stroke-width:1"
     id="polygon151" />
  <polygon
     points="533.30994,177.29082 533.10455,175.99022 530.98254,170.99322 527.76532,166.74919 523.6582,163.66885 518.52429,161.54684 513.3219,160.86232 508.11957,161.54684 506.54517,162.1629 506.20291,161.6153 533.58374,145.1868 533.92596,145.39215 533.92596,177.29082 "
     style="fill:#0080ff;stroke:none;stroke-width:1"
     id="polygon153" />
  <polygon
     points="146.41893,225.89177 146.41893,225.2757 147.71953,225.07034 152.85342,222.94833 157.09746,219.73108 160.1778,215.62396 162.2998,210.49005 162.98433,205.15079 162.2998,199.94844 160.1778,194.95145 156.8921,190.63896 157.23436,190.22824 215.89777,225.4126 215.76086,225.89177 "
     style="fill:#0080ff;stroke:none;stroke-width:1"
     id="polygon155" />
  <polygon
     points="455.34305,195.84131 453.56329,200.08534 452.87875,205.42461 453.56329,210.49005 455.6853,215.62396 458.76566,219.73108 463.00967,222.94833 468.14358,225.07034 469.44415,225.2757 469.44415,225.89177 400.17068,225.89177 400.03378,225.4126 458.49182,190.29671 458.83411,190.70741 455.6853,194.95145 "
     style="fill:#0080ff;stroke:none;stroke-width:1"
     id="polygon157" />
  <polygon
     points="517.22369,225.2757 518.52429,225.07034 523.6582,222.94833 527.90222,219.73108 530.98254,215.62396 533.10455,210.49005 533.30994,209.32637 533.92596,209.32637 533.92596,225.89177 517.22369,225.89177 "
     style="fill:#0080ff;stroke:none;stroke-width:1"
     id="polygon159" />
  <polygon
     points="88.097786,219.73108 92.341812,222.94833 97.475723,225.07034 98.776306,225.2757 98.776306,225.89177 82.142464,225.89177 82.142464,209.73708 82.75853,209.73708 82.895432,210.49005 85.017448,215.62396 "
     style="fill:#0080ff;stroke:none;stroke-width:1"
     id="polygon161" />
  <polygon
     points="46.958107,260.73386 47.026558,260.87076 51.270584,264.01956 54.350929,265.25171 56.404488,266.14157 57.705078,266.34692 57.705078,266.96298 41.071232,266.96298 41.071232,250.80832 41.687298,250.80832 41.824203,251.56128 43.946217,256.69519 "
     style="fill:#0080ff;stroke:none;stroke-width:1"
     id="polygon163" />
  <polygon
     points="558.29492,266.34692 559.59552,266.14157 564.72943,264.01956 568.97345,260.80231 572.05377,256.69519 574.17578,251.56128 574.38117,250.3976 574.99719,250.3976 574.99719,266.96298 558.29492,266.96298 "
     style="fill:#0080ff;stroke:none;stroke-width:1"
     id="polygon165" />
  <polygon
     points="599.91376,307.3497 600.66675,307.2128 605.80066,305.09079 610.04468,301.87354 613.125,297.76642 615.24701,292.63251 615.38391,291.948 616,291.948 616,307.96576 599.91376,307.96576 "
     style="fill:#0080ff;stroke:none;stroke-width:1"
     id="polygon167" />
  <polygon
     points="5.955328,301.87354 10.199355,305.09079 15.33326,307.2128 16.086231,307.3497 16.086231,307.96576 0,307.96576 0,291.87955 0.616068,291.87955 0.752973,292.63251 2.874986,297.76642 "
     style="fill:#0080ff;stroke:none;stroke-width:1"
     id="polygon169" />
</g>
<g
   inkscape:groupmode="layer"
   inkscape:label="layer4"
   id="layer4"
   style="display:none">
  <polygon
     points="585.3335,54.008667 590.1936,56.062229 595.46435,56.74675 600.73517,56.062229 601.96735,55.583065 602.24115,56.13068 575.33948,72.285362 574.99719,72.080009 574.99719,41.345039 575.54486,41.276585 577.73529,46.478943 580.88409,50.859875 "
     style="fill:#ffa500;stroke:none;stroke-width:1"
     id="polygon172" />
  <polygon
     points="40.72897,72.353821 13.69041,56.062229 13.964218,55.514614 15.264807,56.062229 20.535616,56.74675 25.806423,56.062229 30.803423,54.008667 35.115902,50.859875 38.264694,46.342037 40.318256,41.550396 40.386711,40.797421 41.071232,40.865875 41.071232,72.14846 "
     style="fill:#ffa500;stroke:none;stroke-width:1"
     id="polygon174" />
  <polygon
     points="544.26227,126.49939 549.12238,128.55295 554.39313,129.23747 559.66394,128.55295 560.89612,128.07379 561.16992,128.6214 534.26825,144.77609 533.92596,144.57072 533.92596,113.83576 534.47363,113.76731 536.66406,118.96967 539.81287,123.35059 "
     style="fill:#ffa500;stroke:none;stroke-width:1"
     id="polygon176" />
  <polygon
     points="81.800201,144.84454 54.761639,128.6214 55.03545,128.07379 56.336037,128.6214 61.606846,129.30592 66.877655,128.6214 71.874649,126.56784 76.187134,123.41904 79.33593,118.90121 81.389488,114.10957 81.457939,113.3566 82.142464,113.42505 82.142464,144.63917 "
     style="fill:#ffa500;stroke:none;stroke-width:1"
     id="polygon178" />
  <polygon
     points="307.4866,184.95744 306.80209,185.09435 306.80209,183.93066 307.69196,184.06757 308.85565,183.79376 308.85565,185.1628 307.76041,185.02589 "
     style="fill:#ffa500;stroke:none;stroke-width:1"
     id="polygon180" />
  <polygon
     points="498.74164,190.70741 496.89343,193.30859 498.74164,195.90977 503.19101,199.05856 508.05112,201.11212 513.3219,201.79665 518.59271,201.11212 519.82489,200.63297 520.09869,201.18057 488.26846,220.2787 487.85776,219.86798 491.07501,215.35014 493.12857,210.5585 493.81308,205.21925 493.26547,201.59129 492.85477,201.59129 492.85477,199.26392 491.00656,194.88298 487.92621,190.70741 483.40839,187.55862 478.34293,185.36815 478.41138,184.82054 508.25647,184.82054 508.32492,185.36815 503.12256,187.55862 "
     style="fill:#ffa500;stroke:none;stroke-width:1"
     id="polygon182" />
  <polygon
     points="127.93688,190.70741 124.78809,195.22525 123.21369,198.78476 123.21369,201.04367 122.66608,201.04367 122.05,205.35616 122.59763,209.60017 122.73453,210.5585 124.78809,215.55551 130.1958,221.10013 129.85355,221.57928 120.27026,215.89777 95.83287,201.18057 96.106682,200.63297 97.407265,201.18057 102.67808,201.8651 107.94888,201.18057 112.94589,199.12701 117.25836,195.97823 119.10657,193.30859 117.25836,190.70741 112.74052,187.55862 107.67507,185.36815 107.74353,184.82054 137.45172,184.82054 137.52017,185.36815 132.31781,187.55862 "
     style="fill:#ffa500;stroke:none;stroke-width:1"
     id="polygon184" />
  <polygon
     points="539.81287,231.77864 536.66406,236.29648 534.47363,241.36192 533.92596,241.29347 533.92596,225.89177 549.3277,225.89177 549.39618,226.43938 544.19379,228.62985 "
     style="fill:#ffa500;stroke:none;stroke-width:1"
     id="polygon186" />
  <polygon
     points="81.389488,241.01967 79.267471,235.95422 76.187134,231.77864 71.669296,228.62985 66.603844,226.43938 66.672295,225.89177 82.142464,225.89177 82.142464,241.84109 81.457939,241.90955 "
     style="fill:#ffa500;stroke:none;stroke-width:1"
     id="polygon188" />
  <polygon
     points="316.18002,225.89177 316.38538,226.30247 317.00143,225.89177 398.18558,225.89177 398.32248,226.43938 350.06378,255.32614 349.72153,255.46306 347.46262,256.48984 337.19479,260.93921 334.31982,261.89755 323.23059,264.90942 318.02823,265.59396 295.78131,265.32016 290.7843,264.63562 289.96289,264.36182 280.17426,261.48685 277.2308,260.3916 268.05823,256.35294 265.93622,255.32614 265.59396,255.12079 217.60907,226.37093 217.74597,225.89177 287.29324,225.89177 287.36169,226.50783 288.86764,225.89177 302.42117,225.89177 302.55807,225.34415 301.80508,225.00189 301.94199,224.45427 312.62051,224.59117 312.75742,225.89177 "
     style="fill:#ffa500;stroke:none;stroke-width:1"
     id="polygon190" />
  <polygon
     points="311.25146,226.02867 311.11456,225.4126 310.0878,225.61795 310.0878,226.43938 "
     style="fill:#ffffff;stroke:none;stroke-width:1"
     id="polygon192" />
  <polygon
     points="580.88409,272.84988 577.73529,277.36771 575.54486,282.43317 574.99719,282.36472 574.99719,266.96298 590.39893,266.96298 590.46741,267.51062 585.26501,269.70108 "
     style="fill:#ffa500;stroke:none;stroke-width:1"
     id="polygon194" />
  <polygon
     points="40.318256,282.09091 38.196243,277.02545 35.115902,272.84988 30.598066,269.70108 25.532616,267.51062 25.601067,266.96298 41.071232,266.96298 41.071232,282.91232 40.386711,282.98077 "
     style="fill:#ffa500;stroke:none;stroke-width:1"
     id="polygon196" />
  <polygon
     points="122.80298,199.81154 122.39226,199.81154 120.40716,195.0199 119.03812,193.30859 120.40716,191.59729 122.46072,186.66875 122.52917,185.91577 123.21369,185.98422 123.21369,198.71631 "
     style="fill:#ffa500;stroke:none;stroke-width:1"
     id="polygon198" />
  <polygon
     points="495.59283,195.22525 493.47082,199.94844 493.12857,199.94844 492.85477,199.19547 492.85477,186.39493 493.40237,186.32648 495.59283,191.52884 496.89343,193.30859 "
     style="fill:#ffa500;stroke:none;stroke-width:1"
     id="polygon200" />
</g>
</svg>
