<?xml version="1.0" encoding="UTF-8" standalone="no"?>
<!-- Created with Inkscape (http://www.inkscape.org/) -->

<svg
   xmlns:dc="http://purl.org/dc/elements/1.1/"
   xmlns:cc="http://creativecommons.org/ns#"
   xmlns:rdf="http://www.w3.org/1999/02/22-rdf-syntax-ns#"
   xmlns:svg="http://www.w3.org/2000/svg"
   xmlns="http://www.w3.org/2000/svg"
   xmlns:sodipodi="http://sodipodi.sourceforge.net/DTD/sodipodi-0.dtd"
   xmlns:inkscape="http://www.inkscape.org/namespaces/inkscape"
   width="210mm"
   height="297mm"
   viewBox="0 0 210 297"
   version="1.1"
   id="svg6964"
   inkscape:version="0.92.3 (2405546, 2018-03-11)"
   sodipodi:docname="most_obtuse_wedge.svg">
  <defs
     id="defs6958" />
  <sodipodi:namedview
     id="base"
     pagecolor="#ffffff"
     bordercolor="#666666"
     borderopacity="1.0"
     inkscape:pageopacity="0.0"
     inkscape:pageshadow="2"
     inkscape:zoom="0.98994949"
     inkscape:cx="661.22073"
     inkscape:cy="477.29692"
     inkscape:document-units="mm"
     inkscape:current-layer="layer1"
     showgrid="false"
     inkscape:window-width="1920"
     inkscape:window-height="1145"
     inkscape:window-x="1920"
     inkscape:window-y="27"
     inkscape:window-maximized="1">
    <inkscape:grid
       type="xygrid"
       id="grid7509" />
  </sodipodi:namedview>
  <metadata
     id="metadata6961">
    <rdf:RDF>
      <cc:Work
         rdf:about="">
        <dc:format>image/svg+xml</dc:format>
        <dc:type
           rdf:resource="http://purl.org/dc/dcmitype/StillImage" />
        <dc:title></dc:title>
      </cc:Work>
    </rdf:RDF>
  </metadata>
  <g
     inkscape:label="Layer 1"
     inkscape:groupmode="layer"
     id="layer1">
    <path
       id="path7713"
       style="fill:none;fill-rule:evenodd;stroke:#000000;stroke-width:34;stroke-linecap:round;stroke-linejoin:round;stroke-opacity:0.19704433;stroke-miterlimit:4;stroke-dasharray:none;stroke-dashoffset:0"
       d="m 177.80002,197.66864 -25.40003,14.66471 m 8.46671,-43.9941 -76.200034,43.9941" />
    <path
       id="path7804"
       style="fill:none;fill-rule:evenodd;stroke:#000000;stroke-width:30;stroke-linecap:round;stroke-linejoin:round;stroke-opacity:0.19704433;stroke-miterlimit:4;stroke-dasharray:none;stroke-dashoffset:0"
       d="m 145.16468,127.67146 13.9931,-0.009 12.29213,-13.9268 m -16.09013,-27.869117 -14.25841,10.521114 -11.65346,4.061503 -13.08115,10.97706 -13.45718,3.32008 -10.182105,12.90476 -18.943426,0.0367" />
    <path
       style="fill:none;fill-rule:evenodd;stroke:#ff0000;stroke-width:0.52916664px;stroke-linecap:butt;stroke-linejoin:miter;stroke-opacity:1"
       d="M 50.799998,127.66667 H 186.26666"
       id="path7511" />
    <path
       style="fill:#808080;fill-rule:evenodd;stroke:#808080;stroke-width:0.52916664px;stroke-linecap:butt;stroke-linejoin:miter;stroke-opacity:1"
       d="M 50.8,127.66667 168.11758,59.933341"
       id="path7515" />
    <path
       style="fill:none;fill-rule:evenodd;stroke:#b3b3b3;stroke-width:0.26458332px;stroke-linecap:butt;stroke-linejoin:miter;stroke-opacity:1"
       d="m 64.765911,109.82696 -5.49926,3.175 1.05834,1.83309 1.83308,-1.05833 -1.83308,1.05833 1.05834,1.8331 1.83308,-1.05833 -1.83308,1.05833 1.05832,1.83307 1.83309,-1.05834 -1.83309,1.05834 1.05834,1.83309 3.66616,-2.11666 -3.66616,2.11666 1.05834,1.8331 1.83308,-1.05833 -1.83308,1.05833 1.05833,1.83309 1.83309,-1.05834 -1.83309,1.05834 1.05833,1.83308 1.83309,-1.05834 -1.83309,1.05834 1.05834,1.83309"
       id="path7686" />
    <path
       id="path7676"
       style="fill:none;fill-rule:evenodd;stroke:#b3b3b3;stroke-width:0.26458332px;stroke-linecap:butt;stroke-linejoin:miter;stroke-opacity:1"
       d="m 90.165905,95.162281 -5.499241,3.175 1.058327,1.833079 1.833097,-1.058329 -1.833097,1.058329 1.05833,1.83309 1.833087,-1.05833 -1.833087,1.05833 1.058327,1.8331 1.833097,-1.05834 -1.833097,1.05834 1.05834,1.83308 3.666174,-2.11666 -3.666174,2.11666 1.058317,1.83308 1.833087,-1.05834 -1.833087,1.05834 1.05834,1.83308 1.833087,-1.05833 -1.833087,1.05833 1.058327,1.8331 1.833087,-1.05834 -1.833087,1.05834 1.05833,1.83307 m 5.499251,-3.175 -5.499251,3.175 1.058337,1.83309 1.833077,-1.05833 -1.833077,1.05833 1.05834,1.8331 1.833077,-1.05833 -1.833077,1.05833 1.058317,1.83307 1.833087,-1.05834 -1.833087,1.05834 1.05834,1.83309 3.666154,-2.11666 -3.666154,2.11666 1.058337,1.8331 1.833077,-1.05833 -1.833077,1.05833 1.05833,1.83309 1.833087,-1.05834 -1.833087,1.05834 1.058327,1.83308 1.83309,-1.05834 -1.83309,1.05834 1.05834,1.83309" />
    <path
       id="path7666"
       style="fill:none;fill-rule:evenodd;stroke:#b3b3b3;stroke-width:0.26458332px;stroke-linecap:butt;stroke-linejoin:miter;stroke-opacity:1"
       d="m 115.56589,80.497577 -5.49926,3.175001 1.05833,1.833087 1.83309,-1.058335 -1.83309,1.058335 1.05834,1.833088 1.83309,-1.058335 -1.83309,1.058335 1.05833,1.833085 1.83309,-1.058334 -1.83309,1.058334 1.05833,1.833085 3.66618,-2.116662 -3.66618,2.116662 1.05833,1.833088 1.8331,-1.058331 -1.8331,1.058331 1.05834,1.83309 1.83309,-1.05834 -1.83309,1.05834 1.05834,1.83308 1.83309,-1.05833 -1.83309,1.05833 1.05833,1.8331 m 5.49925,-3.175 -5.49925,3.175 1.05833,1.833079 1.8331,-1.058329 -1.8331,1.058329 1.05833,1.83309 1.83309,-1.05833 -1.83309,1.05833 1.05833,1.8331 1.8331,-1.05834 -1.8331,1.05834 1.05834,1.83308 3.66618,-2.11666 -3.66618,2.11666 1.05832,1.83308 1.83309,-1.05834 -1.83309,1.05834 1.05834,1.83308 1.83309,-1.05833 -1.83309,1.05833 1.05833,1.8331 1.83309,-1.05834 -1.83309,1.05834 1.05833,1.83307 m 5.49926,-3.175 -5.49926,3.175 1.05834,1.83309 1.83308,-1.05833 -1.83308,1.05833 1.05834,1.8331 1.83308,-1.05833 -1.83308,1.05833 1.05832,1.83307 1.83309,-1.05834 -1.83309,1.05834 1.05834,1.83309 3.66616,-2.11666 -3.66616,2.11666 1.05834,1.8331 1.83308,-1.05833 -1.83308,1.05833 1.05833,1.83309 1.83309,-1.05834 -1.83309,1.05834 1.05833,1.83308 1.83309,-1.05834 -1.83309,1.05834 1.05834,1.83309" />
    <path
       id="path7545"
       style="fill:none;fill-rule:evenodd;stroke:#b3b3b3;stroke-width:0.26458332px;stroke-linecap:butt;stroke-linejoin:miter;stroke-opacity:1"
       d="m 140.96593,65.83288 -5.49926,3.175001 1.05834,1.833086 1.83309,-1.058335 -1.83309,1.058335 1.05833,1.833088 1.83309,-1.058335 -1.83309,1.058335 1.05833,1.833087 1.83309,-1.058335 -1.83309,1.058335 1.05834,1.833088 3.66617,-2.116666 -3.66617,2.116666 1.05833,1.833087 1.83309,-1.058335 -1.83309,1.058335 1.05833,1.833086 1.83309,-1.058335 -1.83309,1.058335 1.05834,1.833089 1.83309,-1.058335 -1.83309,1.058335 1.05833,1.833086 m 5.49926,-3.175001 -5.49926,3.175001 1.05833,1.833087 1.83309,-1.058335 -1.83309,1.058335 1.05834,1.833088 1.83309,-1.058335 -1.83309,1.058335 1.05833,1.833085 1.83309,-1.058334 -1.83309,1.058334 1.05833,1.833085 3.66618,-2.116662 -3.66618,2.116662 1.05833,1.833088 1.8331,-1.058331 -1.8331,1.058331 1.05834,1.83309 1.83309,-1.05834 -1.83309,1.05834 1.05834,1.83308 1.83309,-1.05833 -1.83309,1.05833 1.05833,1.8331 m 5.49925,-3.175 -5.49925,3.175 1.05833,1.833079 1.8331,-1.058329 -1.8331,1.058329 1.05833,1.83309 1.83309,-1.05833 -1.83309,1.05833 1.05833,1.8331 1.8331,-1.05834 -1.8331,1.05834 1.05834,1.83308 3.66618,-2.11666 -3.66618,2.11666 1.05832,1.83308 1.83309,-1.05834 -1.83309,1.05834 1.05834,1.83308 1.83309,-1.05833 -1.83309,1.05833 1.05833,1.8331 1.83309,-1.05834 -1.83309,1.05834 1.05833,1.83307 m 5.49926,-3.175 -5.49926,3.175 1.05834,1.83309 1.83308,-1.05833 -1.83308,1.05833 1.05834,1.8331 1.83308,-1.05833 -1.83308,1.05833 1.05832,1.83307 1.83309,-1.05834 -1.83309,1.05834 1.05834,1.83309 3.66616,-2.11666 -3.66616,2.11666 1.05834,1.8331 1.83308,-1.05833 -1.83308,1.05833 1.05833,1.83309 1.83309,-1.05834 -1.83309,1.05834 1.05833,1.83308 1.83309,-1.05834 -1.83309,1.05834 1.05834,1.83309" />
    <path
       style="fill:none;fill-rule:evenodd;stroke:#000000;stroke-width:0.30923441px;stroke-linecap:butt;stroke-linejoin:miter;stroke-opacity:1"
       d="m 61.9506,129.78334 h 5.782733 5.782734"
       id="path7547"
       inkscape:connector-curvature="0" />
    <path
       style="fill:none;fill-rule:evenodd;stroke:#000000;stroke-width:0.28228697px;stroke-linecap:butt;stroke-linejoin:miter;stroke-opacity:1"
       d="m 125.82906,129.78334 h 9.63761 9.6376"
       id="path7549"
       inkscape:connector-curvature="0" />
    <path
       style="fill:none;fill-rule:evenodd;stroke:#000000;stroke-width:0.26780486px;stroke-linecap:butt;stroke-linejoin:miter;stroke-opacity:1"
       d="m 92.9259,129.78334 h 8.6741 8.6741"
       id="path7551"
       inkscape:connector-curvature="0" />
    <path
       style="fill:none;fill-rule:evenodd;stroke:#000000;stroke-width:0.28926229px;stroke-linecap:butt;stroke-linejoin:miter;stroke-opacity:1"
       d="m 159.21355,129.78334 h 10.11978 10.11979"
       id="path7553"
       inkscape:connector-curvature="0" />
    <path
       style="fill:none;fill-rule:evenodd;stroke:#ffff00;stroke-width:0.26458332px;stroke-linecap:butt;stroke-linejoin:miter;stroke-opacity:1"
       d="m 58.98318,109.82696 -5.49926,3.175 1.05834,1.83309 1.83308,-1.05833 -1.83308,1.05833 1.05834,1.8331 1.83308,-1.05833 -1.83308,1.05833 1.05832,1.83307 1.83309,-1.05834 -1.83309,1.05834 1.05834,1.83309 3.66616,-2.11666 -3.66616,2.11666 1.05834,1.8331 1.83308,-1.05833 -1.83308,1.05833 1.05833,1.83309 1.83309,-1.05834 -1.83309,1.05834 1.05833,1.83308 1.83309,-1.05834 -1.83309,1.05834 1.05834,1.83309"
       id="path7593" />
    <path
       style="fill:none;fill-rule:evenodd;stroke:#000000;stroke-width:0.32701635px;stroke-linecap:butt;stroke-linejoin:miter;stroke-opacity:1"
       d="m 89.059846,105.60176 -6.796895,3.9242 1.30807,2.26564 2.265624,-1.30806 -2.265624,1.30806 1.308074,2.26565 2.265623,-1.30806 -2.265623,1.30806 1.308045,2.26561 2.265636,-1.30807 -2.265636,1.30807 1.308074,2.26564 4.531247,-2.61612 -4.531247,2.61612 1.30807,2.26566 2.265623,-1.30807 -2.265623,1.30807 1.308061,2.26564 2.265636,-1.30808 -2.265636,1.30808 1.308058,2.26562 2.265636,-1.30807 -2.265636,1.30807 1.308074,2.26564"
       id="path7644"
       inkscape:connector-curvature="0" />
    <path
       id="path7634"
       style="fill:none;fill-rule:evenodd;stroke:#000000;stroke-width:0.29288542px;stroke-linecap:butt;stroke-linejoin:miter;stroke-opacity:1"
       d="m 113.08194,91.678253 -6.08749,3.514626 1.17153,2.029164 2.02919,-1.17154 -2.02919,1.17154 1.17154,2.029173 2.02918,-1.171538 -2.02918,1.171538 1.17154,2.029184 2.02918,-1.17155 -2.02918,1.17155 1.17155,2.02916 4.05835,-2.34307 -4.05835,2.34307 1.17153,2.02916 2.02917,-1.17155 -2.02917,1.17155 1.17155,2.02917 2.02917,-1.17154 -2.02917,1.17154 1.17153,2.02918 2.02918,-1.17155 -2.02918,1.17155 1.17154,2.02915 m 6.08751,-3.51462 -6.08751,3.51462 1.17155,2.02917 2.02916,-1.17153 -2.02916,1.17153 1.17155,2.02919 2.02916,-1.17154 -2.02916,1.17154 1.17153,2.02915 2.02917,-1.17155 -2.02917,1.17155 1.17155,2.02917 4.05832,-2.34307 -4.05832,2.34307 1.17155,2.02919 2.02916,-1.17154 -2.02916,1.17154 1.17153,2.02917 2.02918,-1.17155 -2.02918,1.17155 1.17154,2.02916 2.02917,-1.17155 -2.02917,1.17155 1.17155,2.02917"
       inkscape:connector-curvature="0" />
    <path
       id="path7624"
       style="fill:none;fill-rule:evenodd;stroke:#000000;stroke-width:0.28213149px;stroke-linecap:butt;stroke-linejoin:miter;stroke-opacity:1"
       d="m 137.93715,77.364759 -5.86399,3.385579 1.12852,1.954664 1.95467,-1.128528 -1.95467,1.128528 1.12853,1.954665 1.95467,-1.128528 -1.95467,1.128528 1.12852,1.954662 1.95467,-1.128527 -1.95467,1.128527 1.12853,1.954662 3.90933,-2.257047 -3.90933,2.257047 1.12852,1.954666 1.95468,-1.128524 -1.95468,1.128524 1.12853,1.954667 1.95467,-1.128533 -1.95467,1.128533 1.12853,1.954657 1.95467,-1.128523 -1.95467,1.128523 1.12853,1.954678 m 5.86398,-3.385578 -5.86398,3.385578 1.12852,1.954655 1.95468,-1.128521 -1.95468,1.128521 1.12852,1.954666 1.95467,-1.128521 -1.95467,1.128521 1.12852,1.95468 1.95468,-1.12853 -1.95468,1.12853 1.12854,1.95466 3.90933,-2.25705 -3.90933,2.25705 1.12851,1.95465 1.95467,-1.12853 -1.95467,1.12853 1.12853,1.95466 1.95467,-1.12852 -1.95467,1.12852 1.12852,1.95468 1.95467,-1.12853 -1.95467,1.12853 1.12853,1.95464 m 5.86399,-3.38557 -5.86399,3.38557 1.12853,1.95467 1.95466,-1.12852 -1.95466,1.12852 1.12853,1.95468 1.95466,-1.12852 -1.95466,1.12852 1.12851,1.95465 1.95467,-1.12854 -1.95467,1.12854 1.12854,1.95466 3.90931,-2.25704 -3.90931,2.25704 1.12853,1.95468 1.95466,-1.12852 -1.95466,1.12852 1.12852,1.95467 1.95467,-1.12853 -1.95467,1.12853 1.12853,1.95466 1.95466,-1.12854 -1.95466,1.12854 1.12853,1.95466"
       inkscape:connector-curvature="0" />
    <path
       style="fill:none;fill-rule:evenodd;stroke:#000000;stroke-width:0.18026364px;stroke-linecap:butt;stroke-linejoin:miter;stroke-opacity:1"
       d="m 71.762314,115.53335 -3.746708,2.16317 0.721059,1.2489 1.248898,-0.72105 -1.248898,0.72105 0.721059,1.24891 1.248898,-0.72105 -1.248898,0.72105 0.721045,1.24889 1.248905,-0.72105 -1.248905,0.72105 0.721059,1.24891 2.497797,-1.44211 -2.497797,1.44211 0.721059,1.24891 1.248899,-0.72105 -1.248899,0.72105 0.721053,1.24891 1.248905,-0.72106 -1.248905,0.72106 0.721052,1.24889 1.248905,-0.72105 -1.248905,0.72105 0.721059,1.24891"
       id="path7585"
       inkscape:connector-curvature="0" />
    <path
       id="path7616"
       style="fill:none;fill-rule:evenodd;stroke:#000000;stroke-width:0.23325287px;stroke-linecap:butt;stroke-linejoin:miter;stroke-opacity:1"
       d="m 100.29357,99.019095 -4.848039,2.799035 0.932997,1.61602 1.616032,-0.93301 -1.616032,0.93301 0.933009,1.61602 1.616023,-0.933 -1.616023,0.933 0.933006,1.61604 1.616032,-0.93302 -1.616032,0.93302 0.933017,1.61602 3.23204,-1.86602 -3.23204,1.86602 0.933,1.61601 1.61601,-0.93301 -1.61601,0.93301 0.93301,1.61602 1.61602,-0.93301 -1.61602,0.93301 0.933,1.61604 1.61603,-0.93302 -1.61603,0.93302 0.93301,1.616 m 4.84807,-2.79903 -4.84807,2.79903 0.93302,1.61603 1.61601,-0.93301 -1.61601,0.93301 0.93301,1.61603 1.61602,-0.933 -1.61602,0.933 0.933,1.61601 1.61603,-0.93301 -1.61603,0.93301 0.93302,1.61603 3.23203,-1.86602 -3.23203,1.86602 0.93302,1.61603 1.61601,-0.93301 -1.61601,0.93301 0.93301,1.61603 1.61601,-0.93302 -1.61601,0.93302 0.933,1.61602 1.61602,-0.93302 -1.61602,0.93302 0.93301,1.61602"
       inkscape:connector-curvature="0" />
    <path
       id="path7606"
       style="fill:none;fill-rule:evenodd;stroke:#000000;stroke-width:0.24557467px;stroke-linecap:butt;stroke-linejoin:miter;stroke-opacity:1"
       d="m 126.69369,83.891129 -5.10418,2.946897 0.9823,1.701391 1.70139,-0.9823 -1.70139,0.9823 0.9823,1.701392 1.7014,-0.9823 -1.7014,0.9823 0.9823,1.70139 1.70139,-0.9823 -1.70139,0.9823 0.9823,1.701389 3.40278,-1.964593 -3.40278,1.964593 0.98229,1.701392 1.7014,-0.982296 -1.7014,0.982296 0.98231,1.701394 1.70139,-0.982305 -1.70139,0.982305 0.9823,1.701385 1.70139,-0.982296 -1.70139,0.982296 0.9823,1.701401 m 5.10416,-2.946894 -5.10416,2.946894 0.98229,1.70139 1.70141,-0.9823 -1.70141,0.9823 0.9823,1.70139 1.70139,-0.98229 -1.70139,0.98229 0.98229,1.70141 1.70141,-0.98231 -1.70141,0.98231 0.98231,1.70138 3.40279,-1.96459 -3.40279,1.96459 0.98228,1.70139 1.7014,-0.98231 -1.7014,0.98231 0.98231,1.70138 1.70139,-0.9823 -1.70139,0.9823 0.9823,1.7014 1.70139,-0.9823 -1.70139,0.9823 0.98229,1.70138 m 5.10417,-2.9469 -5.10417,2.9469 0.98231,1.70139 1.70138,-0.98229 -1.70138,0.98229 0.9823,1.70141 1.70139,-0.9823 -1.70139,0.9823 0.98229,1.70137 1.70139,-0.9823 -1.70139,0.9823 0.9823,1.7014 3.40277,-1.9646 -3.40277,1.9646 0.98231,1.7014 1.70138,-0.9823 -1.70138,0.9823 0.98229,1.70139 1.7014,-0.9823 -1.7014,0.9823 0.9823,1.70139 1.70139,-0.98231 -1.70139,0.98231 0.9823,1.70139"
       inkscape:connector-curvature="0" />
    <path
       id="path7577"
       style="fill:none;fill-rule:evenodd;stroke:#000000;stroke-width:0.25140846px;stroke-linecap:butt;stroke-linejoin:miter;stroke-opacity:1"
       d="m 152.54013,68.91517 -5.22543,3.016902 1.00564,1.741808 1.74182,-1.005635 -1.74182,1.005635 1.00563,1.74181 1.74182,-1.005635 -1.74182,1.005635 1.00564,1.741809 1.74181,-1.005635 -1.74181,1.005635 1.00564,1.74181 3.48361,-2.011267 -3.48361,2.011267 1.00563,1.741809 1.74181,-1.005635 -1.74181,1.005635 1.00563,1.741808 1.74181,-1.005635 -1.74181,1.005635 1.00564,1.741811 1.74181,-1.005636 -1.74181,1.005636 1.00563,1.741808 m 5.22542,-3.016903 -5.22542,3.016903 1.00563,1.741809 1.74181,-1.005636 -1.74181,1.005636 1.00564,1.74181 1.74181,-1.005636 -1.74181,1.005636 1.00563,1.741807 1.74181,-1.005635 -1.74181,1.005635 1.00563,1.741807 3.48362,-2.011263 -3.48362,2.011263 1.00563,1.74181 1.74182,-1.005632 -1.74182,1.005632 1.00564,1.741812 1.74181,-1.005641 -1.74181,1.005641 1.00564,1.741802 1.74181,-1.005631 -1.74181,1.005631 1.00563,1.741821 m 5.22542,-3.016902 -5.22542,3.016902 1.00563,1.741797 1.74182,-1.00563 -1.74182,1.00563 1.00563,1.74182 1.74182,-1.00563 -1.74182,1.00563 1.00563,1.74182 1.74183,-1.00564 -1.74183,1.00564 1.00565,1.7418 3.48362,-2.01126 -3.48362,2.01126 1.00562,1.7418 1.74181,-1.00564 -1.74181,1.00564 1.00564,1.7418 1.74181,-1.00563 -1.74181,1.00563 1.00563,1.74183 1.74181,-1.00564 -1.74181,1.00564 1.00563,1.74179 m 5.22542,-3.0169 -5.22542,3.0169 1.00564,1.74181 1.7418,-1.00563 -1.7418,1.00563 1.00564,1.74182 1.7418,-1.00563 -1.7418,1.00563 1.00562,1.74179 1.74181,-1.00564 -1.74181,1.00564 1.00564,1.74182 3.4836,-2.01127 -3.4836,2.01127 1.00564,1.74182 1.7418,-1.00563 -1.7418,1.00563 1.00563,1.74181 1.74181,-1.00564 -1.74181,1.00564 1.00563,1.7418 1.74181,-1.00564 -1.74181,1.00564 1.00564,1.74181"
       inkscape:connector-curvature="0" />
    <path
       id="path7710"
       style="fill:none;fill-rule:evenodd;stroke:#000000;stroke-width:1;stroke-linecap:butt;stroke-linejoin:miter;stroke-opacity:1;stroke-miterlimit:4;stroke-dasharray:2,1;stroke-dashoffset:0"
       d="m 145.16468,127.67142 13.9931,-0.009 12.29213,-13.9268 m -61.07624,13.93888 15.36544,-0.0149 11.56717,-13.59932 12.82328,-2.03532 13.27529,-12.223931 m -8.04507,-13.934486 -14.25841,10.521114 -11.65346,4.061503 -13.08115,10.97706 -13.45718,3.32008 -10.182105,12.90476 -18.943426,0.0367" />
    <path
       id="path7741"
       d="M 50.799998,212.33335 H 186.26666"
       style="fill:none;fill-rule:evenodd;stroke:#ff0000;stroke-width:0.52916664px;stroke-linecap:butt;stroke-linejoin:miter;stroke-opacity:1"
       inkscape:connector-curvature="0" />
    <path
       id="path7743"
       d="M 50.8,212.33335 168.11758,144.60001"
       style="fill:#808080;fill-rule:evenodd;stroke:#000000;stroke-width:0.52916664px;stroke-linecap:butt;stroke-linejoin:miter;stroke-opacity:1"
       inkscape:connector-curvature="0" />
    <path
       id="path7745"
       d="m 81.699247,194.49364 -5.49926,3.175 1.05834,1.83309 1.83308,-1.05833 -1.83308,1.05833 1.05834,1.8331 1.83308,-1.05833 -1.83308,1.05833 1.05832,1.83307 1.83309,-1.05834 -1.83309,1.05834 1.05834,1.83309 3.66616,-2.11666 -3.66616,2.11666 1.05834,1.8331 1.83308,-1.05833 -1.83308,1.05833 1.05833,1.83309 1.83309,-1.05834 -1.83309,1.05834 1.05833,1.83308 1.83309,-1.05834 -1.83309,1.05834 1.05834,1.83309"
       style="fill:none;fill-rule:evenodd;stroke:#b3b3b3;stroke-width:0.26458332px;stroke-linecap:butt;stroke-linejoin:miter;stroke-opacity:1"
       inkscape:connector-curvature="0" />
    <path
       d="m 107.09925,179.82896 -5.49925,3.175 1.05833,1.83308 1.8331,-1.05833 -1.8331,1.05833 1.05833,1.83309 1.83309,-1.05833 -1.83309,1.05833 1.05833,1.8331 1.8331,-1.05834 -1.8331,1.05834 1.05834,1.83308 3.66618,-2.11666 -3.66618,2.11666 1.05832,1.83308 1.83309,-1.05834 -1.83309,1.05834 1.05834,1.83308 1.83309,-1.05833 -1.83309,1.05833 1.05833,1.8331 1.83309,-1.05834 -1.83309,1.05834 1.05833,1.83307 m 5.49926,-3.175 -5.49926,3.175 1.05834,1.83309 1.83308,-1.05833 -1.83308,1.05833 1.05834,1.8331 1.83308,-1.05833 -1.83308,1.05833 1.05832,1.83307 1.83309,-1.05834 -1.83309,1.05834 1.05834,1.83309 3.66616,-2.11666 -3.66616,2.11666 1.05834,1.8331 1.83308,-1.05833 -1.83308,1.05833 1.05833,1.83309 1.83309,-1.05834 -1.83309,1.05834 1.05833,1.83308 1.83309,-1.05834 -1.83309,1.05834 1.05834,1.83309"
       style="fill:none;fill-rule:evenodd;stroke:#b3b3b3;stroke-width:0.26458332px;stroke-linecap:butt;stroke-linejoin:miter;stroke-opacity:1"
       id="path7747"
       inkscape:connector-curvature="0" />
    <path
       d="m 132.49925,165.16425 -5.49926,3.175 1.05833,1.83309 1.83309,-1.05833 -1.83309,1.05833 1.05834,1.83309 1.83309,-1.05834 -1.83309,1.05834 1.05833,1.83308 1.83309,-1.05833 -1.83309,1.05833 1.05833,1.83309 3.66618,-2.11666 -3.66618,2.11666 1.05833,1.83309 1.8331,-1.05833 -1.8331,1.05833 1.05834,1.83309 1.83309,-1.05834 -1.83309,1.05834 1.05834,1.83308 1.83309,-1.05833 -1.83309,1.05833 1.05833,1.8331 m 5.49925,-3.175 -5.49925,3.175 1.05833,1.83308 1.8331,-1.05833 -1.8331,1.05833 1.05833,1.83309 1.83309,-1.05833 -1.83309,1.05833 1.05833,1.8331 1.8331,-1.05834 -1.8331,1.05834 1.05834,1.83308 3.66618,-2.11666 -3.66618,2.11666 1.05832,1.83308 1.83309,-1.05834 -1.83309,1.05834 1.05834,1.83308 1.83309,-1.05833 -1.83309,1.05833 1.05833,1.8331 1.83309,-1.05834 -1.83309,1.05834 1.05833,1.83307 m 5.49926,-3.175 -5.49926,3.175 1.05834,1.83309 1.83308,-1.05833 -1.83308,1.05833 1.05834,1.8331 1.83308,-1.05833 -1.83308,1.05833 1.05832,1.83307 1.83309,-1.05834 -1.83309,1.05834 1.05834,1.83309 3.66616,-2.11666 -3.66616,2.11666 1.05834,1.8331 1.83308,-1.05833 -1.83308,1.05833 1.05833,1.83309 1.83309,-1.05834 -1.83309,1.05834 1.05833,1.83308 1.83309,-1.05834 -1.83309,1.05834 1.05834,1.83309"
       style="fill:none;fill-rule:evenodd;stroke:#b3b3b3;stroke-width:0.26458332px;stroke-linecap:butt;stroke-linejoin:miter;stroke-opacity:1"
       id="path7749"
       inkscape:connector-curvature="0" />
    <path
       d="m 157.89929,150.49955 -5.49926,3.175 1.05834,1.83309 1.83309,-1.05833 -1.83309,1.05833 1.05833,1.83309 1.83309,-1.05834 -1.83309,1.05834 1.05833,1.83309 1.83309,-1.05834 -1.83309,1.05834 1.05834,1.83308 3.66617,-2.11666 -3.66617,2.11666 1.05833,1.83309 1.83309,-1.05833 -1.83309,1.05833 1.05833,1.83309 1.83309,-1.05834 -1.83309,1.05834 1.05834,1.83309 1.83309,-1.05834 -1.83309,1.05834 1.05833,1.83308 m 5.49926,-3.175 -5.49926,3.175 1.05833,1.83309 1.83309,-1.05833 -1.83309,1.05833 1.05834,1.83309 1.83309,-1.05834 -1.83309,1.05834 1.05833,1.83308 1.83309,-1.05833 -1.83309,1.05833 1.05833,1.83309 3.66618,-2.11666 -3.66618,2.11666 1.05833,1.83309 1.8331,-1.05833 -1.8331,1.05833 1.05834,1.83309 1.83309,-1.05834 -1.83309,1.05834 1.05834,1.83308 1.83309,-1.05833 -1.83309,1.05833 1.05833,1.8331 m 5.49925,-3.175 -5.49925,3.175 1.05833,1.83308 1.8331,-1.05833 -1.8331,1.05833 1.05833,1.83309 1.83309,-1.05833 -1.83309,1.05833 1.05833,1.8331 1.8331,-1.05834 -1.8331,1.05834 1.05834,1.83308 3.66618,-2.11666 -3.66618,2.11666 1.05832,1.83308 1.83309,-1.05834 -1.83309,1.05834 1.05834,1.83308 1.83309,-1.05833 -1.83309,1.05833 1.05833,1.8331 1.83309,-1.05834 -1.83309,1.05834 1.05833,1.83307 m 5.49926,-3.175 -5.49926,3.175 1.05834,1.83309 1.83308,-1.05833 -1.83308,1.05833 1.05834,1.8331 1.83308,-1.05833 -1.83308,1.05833 1.05832,1.83307 1.83309,-1.05834 -1.83309,1.05834 1.05834,1.83309 3.66616,-2.11666 -3.66616,2.11666 1.05834,1.8331 1.83308,-1.05833 -1.83308,1.05833 1.05833,1.83309 1.83309,-1.05834 -1.83309,1.05834 1.05833,1.83308 1.83309,-1.05834 -1.83309,1.05834 1.05834,1.83309"
       style="fill:none;fill-rule:evenodd;stroke:#b3b3b3;stroke-width:0.26458332px;stroke-linecap:butt;stroke-linejoin:miter;stroke-opacity:1"
       id="path7751"
       inkscape:connector-curvature="0" />
    <path
       id="path7781"
       style="fill:none;fill-rule:evenodd;stroke:#000000;stroke-width:1;stroke-linecap:butt;stroke-linejoin:miter;stroke-miterlimit:4;stroke-dasharray:2, 1;stroke-dashoffset:0;stroke-opacity:1"
       d="m 177.80002,197.66864 -25.40003,14.66471 m -33.86666,0 50.80004,-29.32939 m -8.46667,-14.66471 -76.200034,43.9941"
       inkscape:connector-curvature="0"
       sodipodi:nodetypes="cccccc" />
    <text
       xml:space="preserve"
       style="font-style:normal;font-variant:normal;font-weight:normal;font-stretch:normal;font-size:4.23333311px;line-height:125%;font-family:FreeSerif;-inkscape-font-specification:FreeSerif;text-align:start;letter-spacing:0px;word-spacing:0px;writing-mode:lr-tb;text-anchor:start;fill:#000000;fill-opacity:1;stroke:none;stroke-width:0.26458332px;stroke-linecap:butt;stroke-linejoin:miter;stroke-opacity:1"
       x="43.832203"
       y="127.55112"
       id="text7812"><tspan
         sodipodi:role="line"
         id="tspan7810"
         x="43.832203"
         y="127.55112"
         style="stroke-width:0.26458332px">30°</tspan></text>
    <text
       id="text7816"
       y="212.2178"
       x="43.832203"
       style="font-style:normal;font-variant:normal;font-weight:normal;font-stretch:normal;font-size:4.23333311px;line-height:125%;font-family:FreeSerif;-inkscape-font-specification:FreeSerif;text-align:start;letter-spacing:0px;word-spacing:0px;writing-mode:lr-tb;text-anchor:start;fill:#000000;fill-opacity:1;stroke:none;stroke-width:0.26458332px;stroke-linecap:butt;stroke-linejoin:miter;stroke-opacity:1"
       xml:space="preserve"><tspan
         style="stroke-width:0.26458332px"
         y="212.2178"
         x="43.832203"
         id="tspan7814"
         sodipodi:role="line">30°</tspan></text>
  </g>
</svg>
