<?xml version="1.0" encoding="UTF-8" standalone="no"?>
<!-- Created with Inkscape (http://www.inkscape.org/) -->

<svg
   xmlns:dc="http://purl.org/dc/elements/1.1/"
   xmlns:cc="http://creativecommons.org/ns#"
   xmlns:rdf="http://www.w3.org/1999/02/22-rdf-syntax-ns#"
   xmlns:svg="http://www.w3.org/2000/svg"
   xmlns="http://www.w3.org/2000/svg"
   xmlns:sodipodi="http://sodipodi.sourceforge.net/DTD/sodipodi-0.dtd"
   xmlns:inkscape="http://www.inkscape.org/namespaces/inkscape"
   width="237.52325mm"
   height="82.872597mm"
   viewBox="0 0 237.52325 82.872597"
   version="1.1"
   id="svg8"
   inkscape:version="0.92.3 (2405546, 2018-03-11)"
   sodipodi:docname="crossing_v2.svg">
  <defs
     id="defs2" />
  <sodipodi:namedview
     id="base"
     pagecolor="#ffffff"
     bordercolor="#666666"
     borderopacity="1.0"
     inkscape:pageopacity="0.0"
     inkscape:pageshadow="2"
     inkscape:zoom="1.4"
     inkscape:cx="480.31853"
     inkscape:cy="36.356361"
     inkscape:document-units="mm"
     inkscape:current-layer="layer1"
     showgrid="false"
     inkscape:window-width="1920"
     inkscape:window-height="1145"
     inkscape:window-x="1920"
     inkscape:window-y="27"
     inkscape:window-maximized="1"
     showborder="true"
     fit-margin-top="0"
     fit-margin-left="0"
     fit-margin-right="0"
     fit-margin-bottom="0">
    <inkscape:grid
       type="xygrid"
       id="grid815"
       originx="67.97247"
       originy="-211.43841" />
  </sodipodi:namedview>
  <metadata
     id="metadata5">
    <rdf:RDF>
      <cc:Work
         rdf:about="">
        <dc:format>image/svg+xml</dc:format>
        <dc:type
           rdf:resource="http://purl.org/dc/dcmitype/StillImage" />
        <dc:title></dc:title>
      </cc:Work>
    </rdf:RDF>
  </metadata>
  <g
     inkscape:label="Layer 1"
     inkscape:groupmode="layer"
     id="layer1"
     transform="translate(67.972473,-2.6889901)">
    <path
       sodipodi:nodetypes="sccsccss"
       inkscape:connector-curvature="0"
       id="path878"
       d="m -33.86667,17.599958 c -4.67601,0 -8.466667,3.790656 -8.466667,8.466667 l 5.3e-4,50.8 c 2.3e-5,4.66403 3.790442,8.444963 8.46615,8.444963 4.675709,0 8.466127,-3.780933 8.466151,-8.444963 l 5.29e-4,-50.8 c 0,-4.676011 -3.790656,-8.466667 -8.466666,-8.466667 z"
       style="opacity:1;fill:#000000;fill-opacity:0.28078841;stroke:#ffff00;stroke-width:0.5;stroke-linecap:round;stroke-linejoin:miter;stroke-miterlimit:4;stroke-dasharray:none;stroke-dashoffset:0;stroke-opacity:1" />
    <path
       style="opacity:1;fill:#000000;fill-opacity:0.28078841;stroke:#00ff00;stroke-width:0.5;stroke-linecap:round;stroke-linejoin:miter;stroke-miterlimit:4;stroke-dasharray:none;stroke-dashoffset:0;stroke-opacity:1"
       d="m -0.01084263,51.45576 c 0,-4.67601 -3.79065567,-8.466667 -8.46666667,-8.466667 l -50.7999997,5.3e-4 c -4.66403,2.3e-5 -8.444964,3.790442 -8.444964,8.46615 0,4.675709 3.780934,8.466127 8.444964,8.466151 l 50.7999997,5.29e-4 c 4.676011,0 8.46666667,-3.790656 8.46666667,-8.466666 z"
       id="path880"
       inkscape:connector-curvature="0"
       sodipodi:nodetypes="sccsccss" />
    <path
       id="path894"
       d="m 50.800007,17.64285 c -4.67571,0 -8.466127,3.780933 -8.466157,8.444963 l -5.1e-4,16.890958 c -1.692382,1.689864 -2.841046,3.847004 -3.29851,6.194454 -0.0083,0.03631 -0.01637,0.07265 -0.0243,0.109037 -0.05203,0.294128 -0.09306,0.590096 -0.123,0.887286 -0.01541,0.114001 -0.02918,0.228217 -0.0413,0.342614 -0.02697,0.317458 -0.04128,0.635865 -0.0429,0.954463 l 5.2e-4,0.0098 -5.2e-4,0.01137 c 0.0026,3.186302 1.272636,6.240684 3.53002,8.489405 l 5.1e-4,16.889407 c 3e-5,4.66403 3.790447,8.444963 8.466157,8.444963 4.6757,0 8.46612,-3.780933 8.46615,-8.444963 l 5.1e-4,-16.890958 c 1.692382,-1.689864 2.841046,-3.847004 3.29851,-6.194454 0.0083,-0.03631 0.01637,-0.07265 0.0243,-0.109037 0.05203,-0.294128 0.09305,-0.590096 0.12299,-0.887286 0.01541,-0.114001 0.02918,-0.228217 0.0413,-0.342614 0.02697,-0.317458 0.04128,-0.635865 0.0429,-0.954463 l -5.2e-4,-0.0098 5.2e-4,-0.01137 c -0.0026,-3.186302 -1.272636,-6.240684 -3.53002,-8.489405 l -5.1e-4,-16.889407 c -3e-5,-4.66403 -3.79045,-8.444963 -8.46615,-8.444963 z"
       style="opacity:1;fill:#000000;fill-opacity:0.28078841;stroke:#ffff00;stroke-width:0.5;stroke-linecap:round;stroke-linejoin:miter;stroke-miterlimit:4;stroke-dasharray:none;stroke-dashoffset:0;stroke-opacity:1"
       inkscape:connector-curvature="0"
       sodipodi:nodetypes="ccccccccccccsccccccccccccc" />
    <path
       inkscape:connector-curvature="0"
       style="opacity:1;fill:#000000;fill-opacity:0.28078841;stroke:#00ff00;stroke-width:0.5;stroke-linecap:round;stroke-linejoin:miter;stroke-miterlimit:4;stroke-dasharray:none;stroke-dashoffset:0;stroke-opacity:1"
       d="m 16.965401,51.477234 c 0,4.67571 3.780931,8.46613 8.444961,8.46615 l 16.890958,5.2e-4 c 1.689865,1.692382 3.847006,2.841046 6.194457,3.29851 0.03631,0.0083 0.07265,0.01637 0.10903,0.0243 0.294132,0.05203 0.590105,0.09305 0.8873,0.12299 0.113999,0.01541 0.228215,0.02918 0.34261,0.0413 0.317461,0.02697 0.63587,0.04128 0.95447,0.0429 l 0.01,-5.2e-4 0.0114,5.2e-4 c 3.1863,-0.0026 6.24068,-1.272637 8.4894,-3.53002 l 16.889404,-5.1e-4 c 4.66403,-3e-5 8.44496,-3.79045 8.44496,-8.46616 0,-4.675704 -3.78093,-8.466122 -8.44496,-8.466146 l -16.890954,-5.16e-4 c -1.689866,-1.692382 -3.847008,-2.841045 -6.19446,-3.298507 -0.03631,-0.0083 -0.07265,-0.01636 -0.10903,-0.02429 -0.294129,-0.05203 -0.590099,-0.09305 -0.88729,-0.122992 -0.113999,-0.01542 -0.228214,-0.0292 -0.34261,-0.04134 -0.317458,-0.02697 -0.635863,-0.04127 -0.95446,-0.04289 l -0.01,5.18e-4 -0.0114,-5.18e-4 c -3.186306,0.0026 -6.240693,1.272631 -8.489417,3.530017 l -16.889408,5.16e-4 c -4.66403,2.1e-5 -8.444961,3.790441 -8.444961,8.466148 z"
       id="path906"
       sodipodi:nodetypes="scccccccccccscccccccccccss" />
    <path
       id="path926"
       d="m 110.04457,43.010812 c -4.66403,2.1e-5 -8.44496,3.790442 -8.44496,8.466148 v 5.18e-4 c 0,4.675709 3.78093,8.46613 8.44496,8.466148 h 4.99142 c 4.66405,-2.9e-5 8.44497,-3.790955 8.44497,-8.466666 0,-4.675704 -3.78092,-8.466125 -8.44497,-8.466148 z"
       style="opacity:1;fill:#000000;fill-opacity:0.28078841;stroke:#00ff00;stroke-width:0.5;stroke-linecap:round;stroke-linejoin:miter;stroke-miterlimit:4;stroke-dasharray:none;stroke-dashoffset:0;stroke-opacity:1"
       inkscape:connector-curvature="0" />
    <path
       style="opacity:1;fill:#000000;fill-opacity:0.28078841;stroke:#00ff00;stroke-width:1.88976383;stroke-linecap:round;stroke-linejoin:miter;stroke-miterlimit:4;stroke-dasharray:none;stroke-dashoffset:0;stroke-opacity:1"
       d="m 589.09375,162.56055 c -17.62783,8e-5 -31.91797,14.32608 -31.91797,31.99804 v 0.002 c 0,17.67197 14.29014,31.99797 31.91797,31.99804 h 18.86523 c 17.62787,-1.1e-4 31.91797,-14.32802 31.91797,-32 0,-17.67195 -14.2901,-31.99795 -31.91797,-31.99804 z"
       transform="scale(0.26458333)"
       id="path923"
       inkscape:connector-curvature="0" />
    <path
       style="fill:none;fill-rule:evenodd;stroke:#000000;stroke-width:0.26458332px;stroke-linecap:butt;stroke-linejoin:miter;stroke-opacity:1"
       d="m -42.333334,85.333334 h 16.933333 v -25.4 H -1.6333333e-6 V 43.000001 H -25.400001 V 17.599999 h -16.933333 v 25.400002 h -25.400001 v 16.933333 h 25.400001 z"
       id="path826"
       inkscape:connector-curvature="0"
       sodipodi:nodetypes="ccccccccccccc" />
    <rect
       style="opacity:1;fill:#ff0000;fill-opacity:0.97536944;stroke:none;stroke-width:0.1;stroke-linecap:round;stroke-linejoin:miter;stroke-miterlimit:4;stroke-dasharray:none;stroke-dashoffset:0;stroke-opacity:1"
       id="rect944"
       width="16.933332"
       height="16.933332"
       x="-42.333332"
       y="43"
       ry="1.3681074e-06" />
    <path
       id="path823"
       style="fill:#000000;fill-rule:evenodd;stroke:#000000;stroke-width:1;stroke-linecap:butt;stroke-linejoin:miter;stroke-miterlimit:4;stroke-dasharray:2, 1;stroke-dashoffset:0;stroke-opacity:1"
       d="m -33.866668,76.866667 v -50.8 m -25.4,25.4 h 50.7999997"
       inkscape:connector-curvature="0"
       sodipodi:nodetypes="cccc" />
    <path
       id="path904"
       style="fill:none;fill-rule:evenodd;stroke:#ff0000;stroke-width:0.1;stroke-linecap:butt;stroke-linejoin:miter;stroke-miterlimit:4;stroke-dasharray:none;stroke-opacity:1"
       d="m 59.266677,51.466667 h -8.46667 m 8.46667,0 v -8.46667 m 16.933324,8.46667 H 59.266677 v 8.46667 m 25.399994,0 -8.46667,-8.46667 8.46667,-8.46667 m -33.866664,0 v 8.46667 m 0,-8.46667 H 42.33334 m 8.466667,-16.933329 v 16.933329 h 8.46667 m 0,-25.399996 -8.46667,8.466667 -8.466667,-8.466667 m 0,33.866666 h 8.466667 m -8.466667,0 v 8.46667 M 25.400002,51.466667 H 42.33334 v -8.466668 m -25.400009,0 8.466671,8.466668 -8.466671,8.46667 m 33.866676,-3e-6 v -8.466667 m 0,8.466667 h 8.46667 m -8.46667,16.933333 V 59.933334 H 42.33334 m 0,25.4 8.466667,-8.466667 8.46667,8.466667"
       inkscape:connector-curvature="0" />
    <text
       xml:space="preserve"
       style="font-style:normal;font-variant:normal;font-weight:normal;font-stretch:normal;font-size:8.46666622px;line-height:125%;font-family:FreeSerif;-inkscape-font-specification:FreeSerif;text-align:center;letter-spacing:0px;word-spacing:0px;writing-mode:lr-tb;text-anchor:middle;fill:#000000;fill-opacity:1;stroke:none;stroke-width:0.52916664px;stroke-linecap:butt;stroke-linejoin:miter;stroke-opacity:1"
       x="50.796963"
       y="9.1130714"
       id="text947"><tspan
         sodipodi:role="line"
         id="tspan945"
         x="50.796963"
         y="9.1130714"
         style="text-align:center;text-anchor:middle;stroke-width:0.52916664px">VQ solution</tspan></text>
    <text
       xml:space="preserve"
       style="font-style:normal;font-variant:normal;font-weight:normal;font-stretch:normal;font-size:8.46666622px;line-height:125%;font-family:FreeSerif;-inkscape-font-specification:FreeSerif;text-align:center;letter-spacing:0px;word-spacing:0px;writing-mode:lr-tb;text-anchor:middle;fill:#000000;fill-opacity:1;stroke:none;stroke-width:0.52916664px;stroke-linecap:butt;stroke-linejoin:miter;stroke-opacity:1"
       x="-33.823528"
       y="8.6812716"
       id="text959"><tspan
         sodipodi:role="line"
         id="tspan957"
         x="-33.823528"
         y="8.6812716"
         style="text-align:center;text-anchor:middle;stroke-width:0.52916664px">crossing toolpaths</tspan></text>
    <path
       sodipodi:nodetypes="ccccccccccccc"
       inkscape:connector-curvature="0"
       id="path907"
       d="m 42.333333,85.333334 h 16.933333 v -25.4 h 25.4 V 43.000001 h -25.4 V 17.599999 H 42.333333 V 43.000001 H 16.933332 v 16.933333 h 25.400001 z"
       style="fill:none;fill-rule:evenodd;stroke:#000000;stroke-width:0.26458332px;stroke-linecap:butt;stroke-linejoin:miter;stroke-opacity:1" />
    <path
       sodipodi:nodetypes="ccccccccccccsccccccccccccc"
       inkscape:connector-curvature="0"
       style="opacity:1;fill:#000000;fill-opacity:0.28078841;stroke:#ffff00;stroke-width:0.5;stroke-linecap:round;stroke-linejoin:miter;stroke-miterlimit:4;stroke-dasharray:none;stroke-dashoffset:0;stroke-opacity:1"
       d="m 135.46668,17.64285 c -4.67571,0 -8.46613,3.780933 -8.46616,8.444963 l -5.1e-4,16.890958 c -1.69238,1.689864 -2.84105,3.847004 -3.29851,6.194454 -0.008,0.03631 -0.0164,0.07265 -0.0243,0.109037 -0.052,0.294128 -0.0931,0.590096 -0.123,0.887286 -0.0154,0.114001 -0.0292,0.228217 -0.0413,0.342614 -0.027,0.317458 -0.0413,0.635865 -0.0429,0.954463 l 5.2e-4,0.0098 -5.2e-4,0.01137 c 0.003,3.186302 1.27264,6.240684 3.53002,8.489405 l 5.1e-4,16.889407 c 3e-5,4.66403 3.79045,8.444963 8.46616,8.444963 4.6757,0 8.46612,-3.780933 8.46615,-8.444963 l 5.1e-4,-16.890958 c 1.69238,-1.689864 2.84105,-3.847004 3.29851,-6.194454 0.008,-0.03631 0.0164,-0.07265 0.0243,-0.109037 0.052,-0.294128 0.0931,-0.590096 0.12299,-0.887286 0.0154,-0.114001 0.0292,-0.228217 0.0413,-0.342614 0.027,-0.317458 0.0413,-0.635865 0.0429,-0.954463 l -5.2e-4,-0.0098 5.2e-4,-0.01137 c -0.003,-3.186302 -1.27264,-6.240684 -3.53002,-8.489405 l -5.1e-4,-16.889407 c -3e-5,-4.66403 -3.79045,-8.444963 -8.46615,-8.444963 z"
       id="path909" />
    <path
       d="m 143.93335,51.466667 h -8.46667 m 8.46667,0 v -8.46667 m 16.93332,8.46667 h -16.93332 v 8.46667 m 25.4,0 -8.46668,-8.46667 8.46668,-8.46667 m -33.86667,0 v 8.46667 m 0,-8.46667 h -8.46667 m 8.46667,-16.933329 v 16.933329 h 8.46667 m 0,-25.399996 -8.46667,8.466667 -8.46667,-8.466667 m 0,33.866666 h 8.46667 m -8.46667,0 v 8.46667 m -16.93334,-8.46667 h 16.93334 v -8.466668 m -25.40001,0 8.46667,8.466668 -8.46667,8.46667 m 33.86668,-3e-6 v -8.466667 m 0,8.466667 h 8.46667 m -8.46667,16.933333 V 59.933334 h -8.46667 m 0,25.4 8.46667,-8.466667 8.46667,8.466667"
       style="fill:none;fill-rule:evenodd;stroke:#ff0000;stroke-width:0.1;stroke-linecap:butt;stroke-linejoin:miter;stroke-miterlimit:4;stroke-dasharray:none;stroke-opacity:1"
       id="path942"
       inkscape:connector-curvature="0" />
    <path
       style="fill:none;fill-rule:evenodd;stroke:#000000;stroke-width:0.26458332px;stroke-linecap:butt;stroke-linejoin:miter;stroke-opacity:1"
       d="m 127,85.333334 h 16.93334 v -25.4 h 25.4 V 43.000001 h -25.4 V 17.599999 H 127 V 43.000001 H 101.6 V 59.933334 H 127 Z"
       id="path921"
       inkscape:connector-curvature="0"
       sodipodi:nodetypes="ccccccccccccc" />
    <circle
       style="opacity:1;fill:#ff0000;fill-opacity:0.97536944;stroke:none;stroke-width:10;stroke-linecap:round;stroke-linejoin:miter;stroke-miterlimit:4;stroke-dasharray:none;stroke-dashoffset:0;stroke-opacity:1"
       id="path1483"
       cx="50.800007"
       cy="51.466667"
       r="12.040333" />
    <path
       sodipodi:nodetypes="cccc"
       inkscape:connector-curvature="0"
       d="m 50.799999,76.866667 v -50.8 m -25.4,25.4 h 50.8"
       style="fill:#000000;fill-rule:evenodd;stroke:#000000;stroke-width:1;stroke-linecap:butt;stroke-linejoin:miter;stroke-miterlimit:4;stroke-dasharray:2, 1;stroke-dashoffset:0;stroke-opacity:1"
       id="path928" />
    <path
       style="fill:#00ffff;fill-rule:evenodd;stroke:#00ffff;stroke-width:1;stroke-linecap:butt;stroke-linejoin:miter;stroke-miterlimit:4;stroke-dasharray:1.00000003, 1.00000003;stroke-dashoffset:0;stroke-opacity:1"
       d="m 114.25772,51.466667 h 42.03543"
       id="path934"
       inkscape:connector-curvature="0" />
    <path
       id="path930"
       style="fill:#000000;fill-rule:evenodd;stroke:#000000;stroke-width:1;stroke-linecap:butt;stroke-linejoin:miter;stroke-miterlimit:4;stroke-dasharray:2, 1;stroke-dashoffset:0;stroke-opacity:1"
       d="m 156.29315,51.466667 h 4.57352 m -50.8,0 h 4.19105 m 21.20895,25.4 v -50.8"
       inkscape:connector-curvature="0" />
    <text
       id="text1487"
       y="8.6812716"
       x="135.33968"
       style="font-style:normal;font-variant:normal;font-weight:normal;font-stretch:normal;font-size:8.46666622px;line-height:125%;font-family:FreeSerif;-inkscape-font-specification:FreeSerif;text-align:center;letter-spacing:0px;word-spacing:0px;writing-mode:lr-tb;text-anchor:middle;fill:#000000;fill-opacity:1;stroke:none;stroke-width:0.52916664px;stroke-linecap:butt;stroke-linejoin:miter;stroke-opacity:1;"
       xml:space="preserve"><tspan
         style="stroke-width:0.52916664px;text-anchor:middle;text-align:center;"
         y="8.6812716"
         x="121.47961"
         id="tspan1485"
         sodipodi:role="line">ghosting</tspan></text>
  </g>
</svg>
