<?xml version="1.0" encoding="UTF-8" standalone="no"?>
<!-- Created with Inkscape (http://www.inkscape.org/) -->

<svg
   xmlns:dc="http://purl.org/dc/elements/1.1/"
   xmlns:cc="http://creativecommons.org/ns#"
   xmlns:rdf="http://www.w3.org/1999/02/22-rdf-syntax-ns#"
   xmlns:svg="http://www.w3.org/2000/svg"
   xmlns="http://www.w3.org/2000/svg"
   xmlns:xlink="http://www.w3.org/1999/xlink"
   xmlns:sodipodi="http://sodipodi.sourceforge.net/DTD/sodipodi-0.dtd"
   xmlns:inkscape="http://www.inkscape.org/namespaces/inkscape"
   width="57.659927mm"
   height="38.518887mm"
   viewBox="0 0 57.659927 38.518887"
   version="1.1"
   id="svg17014"
   inkscape:version="0.92.3 (2405546, 2018-03-11)"
   sodipodi:docname="end_of_markings_v2.svg">
  <defs
     id="defs17008">
    <path
       sodipodi:nodetypes="cc"
       inkscape:connector-curvature="0"
       id="path1481"
       d="M -106.71813,24.868652 V 2.2589053"
       style="fill:none;fill-rule:evenodd;stroke:#b3b3b3;stroke-width:0.26458332px;stroke-linecap:butt;stroke-linejoin:miter;stroke-opacity:1" />
  </defs>
  <sodipodi:namedview
     id="base"
     pagecolor="#ffffff"
     bordercolor="#666666"
     borderopacity="1.0"
     inkscape:pageopacity="0.0"
     inkscape:pageshadow="2"
     inkscape:zoom="1.0000001"
     inkscape:cx="610.49744"
     inkscape:cy="-299.1102"
     inkscape:document-units="mm"
     inkscape:current-layer="layer1"
     showgrid="false"
     inkscape:window-width="1920"
     inkscape:window-height="1025"
     inkscape:window-x="0"
     inkscape:window-y="27"
     inkscape:window-maximized="1"
     fit-margin-top="0"
     fit-margin-left="0"
     fit-margin-right="0"
     fit-margin-bottom="0">
    <inkscape:grid
       type="xygrid"
       id="grid17731"
       originx="2.6255521"
       originy="-219.71881" />
  </sodipodi:namedview>
  <metadata
     id="metadata17011">
    <rdf:RDF>
      <cc:Work
         rdf:about="">
        <dc:format>image/svg+xml</dc:format>
        <dc:type
           rdf:resource="http://purl.org/dc/dcmitype/StillImage" />
        <dc:title />
      </cc:Work>
    </rdf:RDF>
  </metadata>
  <g
     inkscape:label="Layer 1"
     inkscape:groupmode="layer"
     id="layer1"
     transform="translate(2.6255522,-38.762314)">
    <g
       id="g19343"
       transform="translate(107.2452,-169.33349)">
      <path
         style="fill:none;fill-rule:evenodd;stroke:#000000;stroke-width:0.26458332px;stroke-linecap:butt;stroke-linejoin:miter;stroke-opacity:1"
         d="m 169.33334,203.86667 v 8.46666"
         id="path19330"
         inkscape:connector-curvature="0" />
      <path
         style="fill:none;fill-rule:evenodd;stroke:#000000;stroke-width:0.26458332px;stroke-linecap:butt;stroke-linejoin:miter;stroke-opacity:1"
         d="m 169.33334,229.26667 v 8.46666"
         id="path19332"
         inkscape:connector-curvature="0" />
      <path
         style="fill:none;fill-rule:evenodd;stroke:#ff0000;stroke-width:0.26458332px;stroke-linecap:butt;stroke-linejoin:miter;stroke-opacity:1"
         d="m 169.33334,220.8 h 4.88849"
         id="path19334"
         inkscape:connector-curvature="0"
         sodipodi:nodetypes="cc" />
      <path
         style="fill:none;fill-rule:evenodd;stroke:#ff00ff;stroke-width:0.26458332px;stroke-linecap:butt;stroke-linejoin:miter;stroke-opacity:1"
         d="m 174.22183,220.8 h 39.42922"
         id="path19336"
         inkscape:connector-curvature="0"
         sodipodi:nodetypes="cc" />
    </g>
    <path
       style="opacity:1;fill:none;fill-opacity:1;stroke:#000000;stroke-width:0.2;stroke-linecap:butt;stroke-linejoin:round;stroke-miterlimit:4;stroke-dasharray:none;stroke-dashoffset:0;stroke-opacity:1"
       id="path6435"
       sodipodi:type="arc"
       sodipodi:cx="36.558361"
       sodipodi:cy="54.406887"
       sodipodi:rx="3.5853274"
       sodipodi:ry="3.5853274"
       sodipodi:start="1.5707963"
       sodipodi:end="2.6179939"
       d="M 36.558361,57.992214 A 3.5853274,3.5853274 0 0 1 33.453376,56.199551"
       sodipodi:open="true" />
    <path
       sodipodi:nodetypes="cccc"
       inkscape:connector-curvature="0"
       d="m 16.933333,38.766666 0.0721,4.383244 m -4e-5,33.86671 38.02794,-0.149954"
       style="fill:none;fill-rule:evenodd;stroke:#000000;stroke-width:0.52916664px;stroke-linecap:butt;stroke-linejoin:miter;stroke-opacity:1"
       id="path9890-7" />
    <path
       style="fill:none;stroke:#ff0000;stroke-width:0.2;stroke-miterlimit:4;stroke-dasharray:none;stroke-opacity:0.98522171"
       d="m 16.990893,60.05698 c 6.89992,0.0301 13.638782,-2.21045 19.564004,-5.65887"
       id="path1485"
       inkscape:connector-curvature="0"
       sodipodi:nodetypes="cc" />
    <path
       inkscape:connector-curvature="0"
       style="fill:none;stroke:#ff00ff;stroke-width:0.2;stroke-miterlimit:4;stroke-dasharray:none;stroke-opacity:0.98522171"
       d="m 36.554897,54.39811 c 0.244999,-0.14259 0.488598,-0.28724 0.730769,-0.43388 4.955471,-2.98455 9.41556,-6.73195 13.49937,-10.81382"
       id="path1311"
       sodipodi:nodetypes="ccc" />
    <path
       sodipodi:nodetypes="cc"
       inkscape:connector-curvature="0"
       id="path17576"
       d="M 36.558355,77.01664 V 54.40689"
       style="fill:none;fill-rule:evenodd;stroke:#b3b3b3;stroke-width:0.26458332px;stroke-linecap:butt;stroke-linejoin:miter;stroke-opacity:1" />
    <path
       inkscape:connector-curvature="0"
       id="path1489"
       d="M 36.558355,54.40689 -2.5594064,76.99154"
       style="fill:none;fill-rule:evenodd;stroke:#000000;stroke-width:0.26458332px;stroke-linecap:butt;stroke-linejoin:miter;stroke-opacity:1"
       sodipodi:nodetypes="cc" />
    <text
       transform="translate(143.27649,52.14799)"
       id="text1976"
       y="41.694004"
       x="-37.196747"
       style="font-size:7.80614328px;stroke-width:0.65051198">
      <textPath
         id="textPath1974"
         dy="0.086057305"
         startOffset="50%"
         xlink:href="#path1481"
         style="font-style:normal;font-weight:normal;font-size:0.86057305px;text-align:center;text-anchor:start;fill:#000000;fill-opacity:1;stroke:none;stroke-width:0.65051198">2,67 mm</textPath>
    </text>
    <path
       style="opacity:1;fill:none;fill-opacity:0.65517243;stroke:#000000;stroke-width:0.2;stroke-linecap:round;stroke-linejoin:round;stroke-miterlimit:4;stroke-dasharray:none;stroke-dashoffset:0;stroke-opacity:0.88669948"
       id="path2463"
       sodipodi:type="arc"
       sodipodi:cx="-2.559407"
       sodipodi:cy="76.991554"
       sodipodi:rx="4.4143739"
       sodipodi:ry="4.4143739"
       sodipodi:start="5.7513798"
       sodipodi:end="0"
       d="m 1.2453106,74.753068 a 4.4143739,4.4143739 0 0 1 0.6096563,2.238486"
       sodipodi:open="true" />
    <text
       xml:space="preserve"
       style="font-style:normal;font-variant:normal;font-weight:normal;font-stretch:normal;font-size:2.59630728px;line-height:125%;font-family:FreeSerif;-inkscape-font-specification:FreeSerif;text-align:start;letter-spacing:0px;word-spacing:0px;writing-mode:lr-tb;text-anchor:start;fill:#000000;fill-opacity:1;stroke:none;stroke-width:0.1622692px;stroke-linecap:butt;stroke-linejoin:miter;stroke-opacity:1"
       x="2.7747452"
       y="76.178185"
       id="text2467"><tspan
         sodipodi:role="line"
         id="tspan2465"
         x="2.7747452"
         y="76.178185"
         style="stroke-width:0.1622692px">30째</tspan></text>
    <text
       xml:space="preserve"
       style="font-style:normal;font-variant:normal;font-weight:normal;font-stretch:normal;font-size:4.23333311px;line-height:125%;font-family:FreeSerif;-inkscape-font-specification:FreeSerif;text-align:start;letter-spacing:0px;word-spacing:0px;writing-mode:lr-tb;text-anchor:start;fill:#000000;fill-opacity:1;stroke:none;stroke-width:0.26458332px;stroke-linecap:butt;stroke-linejoin:miter;stroke-opacity:1"
       x="-103.36932"
       y="91.27829"
       id="text2477"><tspan
         sodipodi:role="line"
         id="tspan2475"
         x="-103.36932"
         y="91.27829"
         style="stroke-width:0.26458332px">perfect parabola for reuse</tspan><tspan
         sodipodi:role="line"
         x="-103.36932"
         y="96.569954"
         style="stroke-width:0.26458332px"
         id="tspan2746">red is sharp region</tspan><tspan
         sodipodi:role="line"
         x="-103.36932"
         y="101.86163"
         style="stroke-width:0.26458332px"
         id="tspan2748">pink is okay region, don't need dist rounding</tspan></text>
    <text
       xml:space="preserve"
       style="font-style:normal;font-variant:normal;font-weight:normal;font-stretch:normal;font-size:4.23333311px;line-height:125%;font-family:FreeSerif;-inkscape-font-specification:FreeSerif;text-align:start;letter-spacing:0px;word-spacing:0px;writing-mode:lr-tb;text-anchor:start;fill:#000000;fill-opacity:1;stroke:none;stroke-width:0.26458332px;stroke-linecap:butt;stroke-linejoin:miter;stroke-opacity:1"
       x="3.2653475"
       y="88.001427"
       id="text2512"><tspan
         sodipodi:role="line"
         id="tspan2510"
         x="3.2653475"
         y="88.001427"
         style="stroke-width:0.26458332px">For a parabola MAT segment generated by point $(0,d)$</tspan><tspan
         sodipodi:role="line"
         x="3.2653475"
         y="93.293091"
         style="stroke-width:0.26458332px"
         id="tspan2530">and an outline segment lying on the x-axis,</tspan><tspan
         sodipodi:role="line"
         x="3.2653475"
         y="98.584763"
         style="stroke-width:0.26458332px"
         id="tspan2532">the parabola is given by $y = \frac{1}{2d} x^2 + \frac12 d$.</tspan><tspan
         sodipodi:role="line"
         x="3.2653475"
         y="103.87643"
         style="stroke-width:0.26458332px"
         id="tspan2514">The angle between the outline segments is </tspan><tspan
         sodipodi:role="line"
         x="3.2653475"
         y="109.16809"
         style="stroke-width:0.26458332px"
         id="tspan2534">twice the angle between the MAT segment and an outline segment.</tspan><tspan
         sodipodi:role="line"
         x="3.2653475"
         y="114.45975"
         style="stroke-width:0.26458332px"
         id="tspan2516" /><tspan
         sodipodi:role="line"
         x="3.2653475"
         y="119.75143"
         style="stroke-width:0.26458332px"
         id="tspan1106">The derivative is given by dy/dx = x / d</tspan><tspan
         sodipodi:role="line"
         x="3.2653475"
         y="125.04309"
         style="stroke-width:0.26458332px"
         id="tspan1110">The transitioning angle a<tspan
   style="font-size:64.99999762%;baseline-shift:sub"
   id="tspan1112">T</tspan> =  2 tan<tspan
   style="font-size:64.99999762%;baseline-shift:super"
   id="tspan1212">-1</tspan>(dy/dx) = 2 tan<tspan
   style="font-size:64.99999762%;baseline-shift:super"
   id="tspan1208">-1</tspan>(x / d)</tspan><tspan
         sodipodi:role="line"
         x="3.2653475"
         y="130.77925"
         style="stroke-width:0.26458332px"
         id="tspan2542">tan<tspan
   style="font-size:64.99999762%;baseline-shift:super"
   id="tspan1210">-1</tspan>(x / d) = a<tspan
   style="font-size:64.99999762%;baseline-shift:sub"
   id="tspan1180">T</tspan> / 2</tspan><tspan
         sodipodi:role="line"
         x="3.2653475"
         y="136.51543"
         style="stroke-width:0.26458332px"
         id="tspan1168">x / d = tan(a<tspan
   style="font-size:64.99999762%;baseline-shift:sub"
   id="tspan1178">T</tspan>/2)</tspan><tspan
         sodipodi:role="line"
         x="3.2653475"
         y="142.25159"
         style="stroke-width:0.26458332px"
         id="tspan1172">x = d tan(a<tspan
   style="font-size:64.99999762%;baseline-shift:sub"
   id="tspan1176">T</tspan>/2)</tspan><tspan
         sodipodi:role="line"
         x="3.2653475"
         y="147.98776"
         style="stroke-width:0.26458332px"
         id="tspan1182" /><tspan
         sodipodi:role="line"
         x="3.2653475"
         y="153.27942"
         style="stroke-width:0.26458332px"
         id="tspan1184">x = d tan((180* - a<tspan
   style="font-size:64.99999762%;baseline-shift:sub"
   id="tspan1188">S</tspan>) / 2)</tspan><tspan
         sodipodi:role="line"
         x="3.2653475"
         y="159.01559"
         style="stroke-width:0.26458332px"
         id="tspan1190">x = d tan(90* - a<tspan
   style="font-size:64.99999762%;baseline-shift:sub"
   id="tspan1192">S</tspan> / 2)</tspan><tspan
         sodipodi:role="line"
         x="3.2653475"
         y="164.75175"
         style="stroke-width:0.26458332px"
         id="tspan1204" /><tspan
         sodipodi:role="line"
         x="3.2653475"
         y="170.04343"
         style="stroke-width:0.26458332px"
         id="tspan1206">x = d tan(90* - 60* / 2) = d sqrt(3) </tspan></text>
    <text
       id="text6439"
       y="60.088539"
       x="32.000679"
       style="font-style:normal;font-variant:normal;font-weight:normal;font-stretch:normal;font-size:2.59630728px;line-height:125%;font-family:FreeSerif;-inkscape-font-specification:FreeSerif;text-align:start;letter-spacing:0px;word-spacing:0px;writing-mode:lr-tb;text-anchor:start;fill:#000000;fill-opacity:1;stroke:none;stroke-width:0.1622692px;stroke-linecap:butt;stroke-linejoin:miter;stroke-opacity:1"
       xml:space="preserve"><tspan
         style="stroke-width:0.1622692px"
         y="60.088539"
         x="32.000679"
         id="tspan6437"
         sodipodi:role="line">60째</tspan></text>
    <path
       style="fill:none;fill-rule:evenodd;stroke:#cccccc;stroke-width:0.26458332px;stroke-linecap:butt;stroke-linejoin:miter;stroke-opacity:1"
       d="M 36.492207,54.29232 16.933333,43"
       id="path6441"
       inkscape:connector-curvature="0"
       sodipodi:nodetypes="cc" />
    <path
       sodipodi:open="true"
       d="m 32.674657,56.587378 a 4.4539533,4.4539533 0 0 1 0.05349,-4.453632"
       sodipodi:end="3.6772016"
       sodipodi:start="2.630004"
       sodipodi:ry="4.4539533"
       sodipodi:rx="4.4539533"
       sodipodi:cy="54.406887"
       sodipodi:cx="36.558361"
       sodipodi:type="arc"
       id="path6445"
       style="opacity:1;fill:none;fill-opacity:1;stroke:#000000;stroke-width:0.2;stroke-linecap:butt;stroke-linejoin:round;stroke-miterlimit:4;stroke-dasharray:none;stroke-dashoffset:0;stroke-opacity:1" />
    <text
       id="text6439-3"
       y="55.146931"
       x="27.857578"
       style="font-style:normal;font-variant:normal;font-weight:normal;font-stretch:normal;font-size:2.59630728px;line-height:125%;font-family:FreeSerif;-inkscape-font-specification:FreeSerif;text-align:start;letter-spacing:0px;word-spacing:0px;writing-mode:lr-tb;text-anchor:start;fill:#000000;fill-opacity:1;stroke:none;stroke-width:0.1622692px;stroke-linecap:butt;stroke-linejoin:miter;stroke-opacity:1"
       xml:space="preserve"><tspan
         style="stroke-width:0.1622692px"
         y="55.146931"
         x="27.857578"
         id="tspan6437-6"
         sodipodi:role="line">60째</tspan></text>
    <path
       style="fill:none;fill-rule:evenodd;stroke:#cccccc;stroke-width:0.26458332px;stroke-linecap:butt;stroke-linejoin:miter;stroke-opacity:1"
       d="M 36.558355,77.01664 -2.5594064,76.99154"
       id="path6465"
       inkscape:connector-curvature="0"
       sodipodi:nodetypes="cc" />
    <text
       xml:space="preserve"
       style="font-style:normal;font-variant:normal;font-weight:normal;font-stretch:normal;font-size:21.03227425px;line-height:125%;font-family:FreeSerif;-inkscape-font-specification:FreeSerif;text-align:start;letter-spacing:0px;word-spacing:0px;writing-mode:lr-tb;text-anchor:start;fill:#000000;fill-opacity:1;stroke:none;stroke-width:1.31451714px;stroke-linecap:butt;stroke-linejoin:miter;stroke-opacity:1"
       x="7.0762467"
       y="19.673277"
       id="text17725"><tspan
         sodipodi:role="line"
         id="tspan17723"
         x="7.0762467"
         y="19.673277"
         style="stroke-width:1.31451714px">point-line</tspan></text>
    <text
       id="text17729"
       y="23.101498"
       x="150.54446"
       style="font-style:normal;font-variant:normal;font-weight:normal;font-stretch:normal;font-size:21.03227425px;line-height:125%;font-family:FreeSerif;-inkscape-font-specification:FreeSerif;text-align:start;letter-spacing:0px;word-spacing:0px;writing-mode:lr-tb;text-anchor:start;fill:#000000;fill-opacity:1;stroke:none;stroke-width:1.31451714px;stroke-linecap:butt;stroke-linejoin:miter;stroke-opacity:1"
       xml:space="preserve"><tspan
         style="stroke-width:1.31451714px"
         y="23.101498"
         x="150.54446"
         id="tspan17727"
         sodipodi:role="line">point-point</tspan></text>
    <path
       style="fill:none;fill-rule:evenodd;stroke:#000000;stroke-width:0.26458332px;stroke-linecap:butt;stroke-linejoin:miter;stroke-opacity:1"
       d="m 191.91187,34.533184 v 8.46666"
       id="path17733"
       inkscape:connector-curvature="0" />
    <path
       style="fill:none;fill-rule:evenodd;stroke:#000000;stroke-width:0.26458332px;stroke-linecap:butt;stroke-linejoin:miter;stroke-opacity:1"
       d="M 191.91187,59.933184 V 68.39984"
       id="path17735"
       inkscape:connector-curvature="0" />
    <path
       style="fill:none;fill-rule:evenodd;stroke:#cccccc;stroke-width:0.26458332px;stroke-linecap:butt;stroke-linejoin:miter;stroke-opacity:1"
       d="m 191.91187,42.999844 4.88849,8.46667 -4.88849,8.46667"
       id="path17737"
       inkscape:connector-curvature="0"
       sodipodi:nodetypes="ccc" />
    <path
       style="fill:none;fill-rule:evenodd;stroke:#ff0000;stroke-width:0.26458332px;stroke-linecap:butt;stroke-linejoin:miter;stroke-opacity:1"
       d="m 191.91187,51.466514 h 4.88849"
       id="path17739"
       inkscape:connector-curvature="0"
       sodipodi:nodetypes="cc" />
    <path
       style="fill:none;fill-rule:evenodd;stroke:#ff00ff;stroke-width:0.26458332px;stroke-linecap:butt;stroke-linejoin:miter;stroke-opacity:1"
       d="m 196.80036,51.466514 20.51152,-10e-6"
       id="path17743"
       inkscape:connector-curvature="0"
       sodipodi:nodetypes="cc" />
    <text
       xml:space="preserve"
       style="font-style:normal;font-variant:normal;font-weight:normal;font-stretch:normal;font-size:4.23333311px;line-height:125%;font-family:FreeSerif;-inkscape-font-specification:FreeSerif;text-align:start;letter-spacing:0px;word-spacing:0px;writing-mode:lr-tb;text-anchor:start;fill:#000000;fill-opacity:1;stroke:none;stroke-width:0.26458332px;stroke-linecap:butt;stroke-linejoin:miter;stroke-opacity:1"
       x="160.25055"
       y="81.878548"
       id="text2512-7"><tspan
         sodipodi:role="line"
         x="160.25055"
         y="81.878548"
         style="stroke-width:0.26458332px"
         id="tspan883">transitioning angle a<tspan
   style="font-size:64.99999762%;baseline-shift:sub"
   id="tspan891">T </tspan>= 180* - a<tspan
   style="font-size:64.99999762%;baseline-shift:sub"
   id="tspan901">S</tspan></tspan><tspan
         sodipodi:role="line"
         x="160.25055"
         y="87.614716"
         style="stroke-width:0.26458332px"
         id="tspan893">support angle a<tspan
   style="font-size:64.99999762%;baseline-shift:sub"
   id="tspan889">S</tspan> = 180* - a<tspan
   style="font-size:64.99999762%;baseline-shift:sub"
   id="tspan887">T</tspan></tspan><tspan
         sodipodi:role="line"
         x="160.25055"
         y="93.350883"
         style="stroke-width:0.26458332px"
         id="tspan885" /><tspan
         sodipodi:role="line"
         x="160.25055"
         y="98.64254"
         style="stroke-width:0.26458332px"
         id="tspan879">tan(a<tspan
   style="font-size:64.99999762%;baseline-shift:sub"
   id="tspan907">S</tspan> / 2) = .5 d / x</tspan><tspan
         sodipodi:role="line"
         x="160.25055"
         y="104.37872"
         style="stroke-width:0.26458332px"
         id="tspan903">x = .5 d / tan(a<tspan
   style="font-size:64.99999762%;baseline-shift:sub"
   id="tspan905">S</tspan> / 2)</tspan><tspan
         sodipodi:role="line"
         x="160.25055"
         y="110.11488"
         style="stroke-width:0.26458332px"
         id="tspan1196">x = .5 d / tan(90 - a<tspan
   style="font-size:64.99999762%;baseline-shift:sub"
   id="tspan1202">T</tspan> / 2)</tspan><tspan
         sodipodi:role="line"
         x="160.25055"
         y="115.85105"
         style="stroke-width:0.26458332px"
         id="tspan1200" /><tspan
         sodipodi:role="line"
         x="160.25055"
         y="121.14271"
         style="stroke-width:0.26458332px"
         id="tspan1198" /><tspan
         sodipodi:role="line"
         x="160.25055"
         y="126.43438"
         style="stroke-width:0.26458332px"
         id="tspan911">for aT = 60* the bound is</tspan><tspan
         sodipodi:role="line"
         x="160.25055"
         y="131.72604"
         style="stroke-width:0.26458332px"
         id="tspan17922" /></text>
    <path
       style="opacity:1;fill:none;fill-opacity:1;stroke:#000000;stroke-width:0.2;stroke-linecap:butt;stroke-linejoin:round;stroke-miterlimit:4;stroke-dasharray:none;stroke-dashoffset:0;stroke-opacity:1"
       id="path17924"
       sodipodi:type="arc"
       sodipodi:cx="196.80035"
       sodipodi:cy="51.466515"
       sodipodi:rx="2.6925564"
       sodipodi:ry="2.6925564"
       sodipodi:start="2.0943951"
       sodipodi:end="4.1887902"
       sodipodi:open="true"
       d="m 195.45408,53.798337 a 2.6925564,2.6925564 0 0 1 -1.34628,-2.331822 2.6925564,2.6925564 0 0 1 1.34628,-2.331823" />
    <text
       id="text6439-6"
       y="54.703072"
       x="189.24664"
       style="font-style:normal;font-variant:normal;font-weight:normal;font-stretch:normal;font-size:2.59630728px;line-height:125%;font-family:FreeSerif;-inkscape-font-specification:FreeSerif;text-align:start;letter-spacing:0px;word-spacing:0px;writing-mode:lr-tb;text-anchor:start;fill:#000000;fill-opacity:1;stroke:none;stroke-width:0.1622692px;stroke-linecap:butt;stroke-linejoin:miter;stroke-opacity:1"
       xml:space="preserve"><tspan
         style="stroke-width:0.1622692px"
         y="54.703072"
         x="189.24664"
         id="tspan6437-1"
         sodipodi:role="line">120째</tspan></text>
    <path
       id="path18483"
       style="fill:none;fill-rule:evenodd;stroke:#000000;stroke-width:0.30000001;stroke-linecap:round;stroke-linejoin:round;stroke-miterlimit:4;stroke-dasharray:none;stroke-opacity:0.24630546"
       d="m 276.57852,59.933164 -1e-5,8.466656 m 1e-5,-33.866656 v 8.46667 m -14.11185,-8.46649 v 8.46714 a 14.112522,14.112522 0 0 0 2.69336,8.4629 14.112522,14.112522 0 0 0 -2.69336,8.47071 l -1e-5,8.466136 m 28.22267,-4e-5 v -8.466096 a 14.112522,14.112522 0 0 0 -2.69141,-8.46486 14.112522,14.112522 0 0 0 2.69141,-8.46875 v -8.46705 m -27.86914,-9e-5 v 8.46714 a 13.759708,13.759708 0 0 0 2.77539,8.45705 13.759708,13.759708 0 0 0 -2.77539,8.47656 l -1e-5,8.466136 m 27.51759,0 v -8.466136 a 13.759708,13.759708 0 0 0 -2.77735,-8.459 13.759708,13.759708 0 0 0 2.77735,-8.47461 v -8.46708 m -27.16406,-6e-5 v 8.46714 a 13.406896,13.406896 0 0 0 2.86914,8.4629 13.406896,13.406896 0 0 0 -2.86914,8.47071 l -1e-5,8.466136 m 26.81055,3e-5 v -8.466166 a 13.406896,13.406896 0 0 0 -2.87109,-8.4629 13.406896,13.406896 0 0 0 2.87109,-8.47071 v -8.46721 m -26.45898,7e-5 v 8.46714 a 13.054084,13.054084 0 0 0 2.97265,8.47657 13.054084,13.054084 0 0 0 -2.97265,8.45704 l -10e-6,8.466136 m 26.10548,-2.1e-4 v -8.465926 a 13.054084,13.054084 0 0 0 -2.97071,-8.47656 13.054084,13.054084 0 0 0 2.97071,-8.45705 v -8.46724 m -25.75196,10e-5 v 8.46714 a 12.70127,12.70127 0 0 0 3.09375,8.46875 12.70127,12.70127 0 0 0 -3.09375,8.46486 l -1e-5,8.466136 m 25.4004,-1.7e-4 v -8.465966 a 12.70127,12.70127 0 0 0 -3.09375,-8.46876 12.70127,12.70127 0 0 0 3.09375,-8.46485 v -8.46727 m -25.04882,1.3e-4 v 8.46714 a 12.348457,12.348457 0 0 0 3.21484,8.46095 12.348457,12.348457 0 0 0 -3.21484,8.47266 l -10e-6,8.466136 m 24.69531,-1.5e-4 10e-6,-8.465986 a 12.348457,12.348457 0 0 0 -3.2129,-8.4629 12.348457,12.348457 0 0 0 3.2129,-8.47071 v -8.46703 m -23.98829,-1.1e-4 v 8.46714 a 11.642831,11.642831 0 0 0 3.4922,8.47266 11.642831,11.642831 0 0 0 -3.4922,8.46095 v 8.466136 m 23.2832,0 v -8.466136 a 11.642831,11.642831 0 0 0 -3.49219,-8.47266 11.642831,11.642831 0 0 0 3.49219,-8.46095 v -8.4671 m -22.93164,-4e-5 v 8.46714 a 11.290018,11.290018 0 0 0 3.66211,8.46485 11.290018,11.290018 0 0 0 -3.66211,8.46876 v 8.466136 m 22.57813,-2.2e-4 v -8.465916 a 11.290018,11.290018 0 0 0 -3.66016,-8.46681 11.290018,11.290018 0 0 0 3.66016,-8.4668 v -8.4672 m -22.22461,6e-5 v 8.46714 a 10.937205,10.937205 0 0 0 3.83789,8.4629 10.937205,10.937205 0 0 0 -3.83789,8.47071 v 8.466136 m 21.87304,-1.8e-4 v -8.465956 a 10.937205,10.937205 0 0 0 -3.83789,-8.46486 10.937205,10.937205 0 0 0 3.83789,-8.46875 v -8.46723 m -21.51953,9e-5 v 8.46714 a 10.58439,10.58439 0 0 0 4.05274,8.46875 10.58439,10.58439 0 0 0 -4.05274,8.46486 v 8.466136 m 21.16603,-1.4e-4 -10e-6,-8.465996 a 10.58439,10.58439 0 0 0 -4.05469,-8.47071 10.58439,10.58439 0 0 0 4.05469,-8.4629 v -8.46703 m -20.81446,-1.1e-4 v 8.46714 a 10.231579,10.231579 0 0 0 4.29102,8.46095 10.231579,10.231579 0 0 0 -4.29102,8.47266 v 8.466136 m 20.46093,-6e-5 1e-5,-8.466076 a 10.231579,10.231579 0 0 0 -4.28906,-8.4629 10.231579,10.231579 0 0 0 4.28906,-8.47071 v -8.46706 m -20.10742,-8e-5 v 8.46714 a 9.8787658,9.8787658 0 0 0 4.58203,8.46875 9.8787658,9.8787658 0 0 0 -4.58203,8.46486 v 8.466136 m 19.75592,-3e-5 1e-5,-8.466106 a 9.8787658,9.8787658 0 0 0 -4.58203,-8.47071 9.8787658,9.8787658 0 0 0 4.58203,-8.4629 v -8.46709 m -19.40437,-5e-5 v 8.46714 a 9.5259519,9.5259519 0 0 0 4.91992,8.46485 9.5259519,9.5259519 0 0 0 -4.91992,8.46876 v 8.466136 m 19.05077,0 1e-5,-8.466136 a 9.5259519,9.5259519 0 0 0 -4.91992,-8.46486 9.5259519,9.5259519 0 0 0 4.91992,-8.46875 v -8.46718 m -18.69726,4e-5 v 8.46714 a 9.1731392,9.1731392 0 0 0 5.36523,8.4629 9.1731392,9.1731392 0 0 0 -5.36523,8.47071 v 8.466136 m 18.34374,-1.9e-4 10e-6,-8.465946 a 9.1731392,9.1731392 0 0 0 -5.36524,-8.46486 9.1731392,9.1731392 0 0 0 5.36524,-8.46875 v -8.4672 m -17.99024,6e-5 v 8.46714 a 8.8203264,8.8203264 0 0 0 5.97852,8.4629 8.8203264,8.8203264 0 0 0 -5.97852,8.47071 v 8.466136 m 17.63867,-1.5e-4 v -8.465986 a 8.8203264,8.8203264 0 0 0 -5.97851,-8.46486 8.8203264,8.8203264 0 0 0 5.97851,-8.46875 v -8.46723 m -17.2871,9e-5 v 8.46714 a 8.4675127,8.4675127 0 0 0 7.10156,8.4668 8.4675127,8.4675127 0 0 0 -7.10156,8.46681 v 8.466136 m 16.93359,-7e-5 v -8.466066 a 8.4675127,8.4675127 0 0 0 -7.09766,-8.46876 8.4675127,8.4675127 0 0 0 7.09766,-8.46485 v -8.46705 m -0.35156,33.866756 v -8.466096 a 8.1147001,8.1147001 0 1 0 -16.22852,0 v 8.466136 m 0,-33.866886 v 8.46714 a 8.1147001,8.1147001 0 1 0 16.22852,0 l 10e-6,-8.46707 m -0.35352,33.866796 v -8.466116 a 7.7618872,7.7618872 0 1 0 -15.52148,0 l -10e-6,8.466136 m 10e-6,-33.866886 v 8.46714 a 7.7618872,7.7618872 0 1 0 15.52148,0 v -8.46716 m -0.35351,33.866726 v -8.465956 a 7.4090741,7.4090741 0 1 0 -14.81641,0 l -1e-5,8.466136 m 1e-5,-33.866886 v 8.46714 a 7.4090741,7.4090741 0 1 0 14.81641,0 l -1e-5,-8.46718 m -0.35156,33.866766 v -8.465976 a 7.0562609,7.0562609 0 1 0 -14.11133,0 l -10e-6,8.466136 m 10e-6,-33.866886 v 8.46714 a 7.0562609,7.0562609 0 1 0 14.11133,0 v -8.4672 M 283.28113,68.4001 v -8.466006 a 6.7034481,6.7034481 0 1 0 -13.40625,0 l -1e-5,8.466136 m 1e-5,-33.866886 v 8.46714 a 6.7034481,6.7034481 0 1 0 13.40625,0 l -1e-5,-8.46705 m -0.35351,33.866736 v -8.466076 a 6.3506349,6.3506349 0 1 0 -12.69922,0 l -10e-6,8.466136 m 10e-6,-33.866886 v 8.46714 a 6.3506349,6.3506349 0 1 0 12.69922,0 v -8.46707 m -0.35156,33.866776 v -8.466096 a 5.997822,5.997822 0 1 0 -11.99414,0 l -10e-6,8.466136 m 10e-6,-33.866886 v 8.46714 a 5.997822,5.997822 0 1 0 11.99414,0 v -8.46709 m -0.35352,33.866866 v -8.466166 a 5.6450089,5.6450089 0 1 0 -11.28906,0 l -10e-6,8.466136 m 10e-6,-33.866886 v 8.46714 a 5.6450089,5.6450089 0 1 0 11.28906,0 v -8.46716 m -0.35156,33.866746 v -8.465976 a 5.2921955,5.2921955 0 1 0 -10.58398,0 l -10e-6,8.466136 m 10e-6,-33.866886 v 8.46714 a 5.2921955,5.2921955 0 1 0 10.58398,0 v -8.46718 m -0.35351,33.866786 v -8.465996 a 4.9393829,4.9393829 0 1 0 -9.87696,0 l -10e-6,8.466136 m 10e-6,-33.866886 v 8.46714 a 4.9393829,4.9393829 0 1 0 9.87696,0 l -1e-5,-8.46704 m -0.35351,33.866716 v -8.466066 a 4.5865698,4.5865698 0 1 0 -9.17187,0 l -1e-5,8.466136 m 1e-5,-33.866886 v 8.46714 a 4.5865698,4.5865698 0 1 0 9.17187,0 v -8.46705 m -0.35156,33.866746 v -8.466086 a 4.2337563,4.2337563 0 1 0 -8.4668,0 l -10e-6,8.466136 m 10e-6,-33.866886 v 8.46714 a 4.2337563,4.2337563 0 1 0 8.4668,0 v -8.46707 m -0.35352,33.866836 v -8.466156 a 3.8809437,3.8809437 0 1 0 -7.76172,0 l -10e-6,8.466136 m 10e-6,-33.866886 v 8.46714 a 3.8809437,3.8809437 0 1 0 7.76172,0 v -8.46715 m -0.35351,33.866926 v -8.466166 a 3.5281303,3.5281303 0 1 0 -7.05469,0 l -10e-6,8.466136 m 10e-6,-33.866886 v 8.46714 a 3.5281303,3.5281303 0 1 0 7.05469,0 v -8.46716 m -0.35157,33.866756 v -8.465986 a 3.1753175,3.1753175 0 1 0 -6.34961,0 l -1e-5,8.466136 m 1e-5,-33.866886 v 8.46714 a 3.1753175,3.1753175 0 1 0 6.34961,0 v -8.46718 m -0.35351,33.866846 v -8.466056 a 2.8225046,2.8225046 0 1 0 -5.64453,0 l -10e-6,8.466136 m 10e-6,-33.866886 v 8.46714 a 2.8225046,2.8225046 0 1 0 5.64453,0 v -8.46705 m -0.35156,33.866736 v -8.466076 a 2.46973,2.46973 0 1 0 -4.93946,0 l -10e-6,8.466136 m 10e-6,-33.866886 v 8.46714 a 2.46973,2.46973 0 1 0 4.93946,0 v -8.46707 m -0.35352,33.866776 v -8.466096 a 2.1168781,2.1168781 0 1 0 -4.23242,0 l -10e-6,8.466136 m 10e-6,-33.866886 v 8.46714 a 2.1168781,2.1168781 0 1 0 4.23242,0 v -8.46713 m -0.35352,33.866886 v -8.466146 a 1.7640651,1.7640651 0 1 0 -3.52734,0 l -10e-6,8.466136 m 10e-6,-33.866886 v 8.46714 a 1.7640651,1.7640651 0 1 0 3.52734,0 v -8.46714 m -0.35156,33.866916 v -8.466166 a 1.4112522,1.4112522 0 1 0 -2.82226,0 l -10e-6,8.466136 m 10e-6,-33.866886 v 8.46714 a 1.4112522,1.4112522 0 1 0 2.82226,0 l -1e-5,-8.46717 m -0.3535,33.866826 v -8.466046 a 1.058595,1.058595 0 1 0 -2.11719,0 l -10e-6,8.466136 m 10e-6,-33.866886 v 8.46714 a 1.058595,1.058595 0 1 0 2.11719,0 l -10e-6,-8.46723 m -0.35156,33.866906 v -8.466066 a 0.70605517,0.70605517 0 1 0 -1.41211,0 l -1e-5,8.466136 m 1e-5,-33.866886 v 8.46714 a 0.70605517,0.70605517 0 1 0 1.41211,0 v -8.46706 m -0.35351,33.866746 v -8.466076 a 0.35281306,0.35281306 0 1 0 -0.70508,0 l -1e-5,8.466136 m 1e-5,-33.866886 v 8.46714 a 0.35281306,0.35281306 0 1 0 0.70508,0 v -8.46707 m -12.34766,-7e-5 v 8.46714 a 11.995644,11.995644 0 0 0 3.3418,8.4629 11.995644,11.995644 0 0 0 -3.3418,8.47071 l -1e-5,8.466136 m 23.98829,-3e-5 v -8.466106 a 11.995644,11.995644 0 0 0 -3.33985,-8.4629 11.995644,11.995644 0 0 0 3.33985,-8.47071 v -8.46707 m -9.17188,33.866736 v -8.466066 a 2.8225046,2.8225046 0 1 0 -5.64452,0 l -10e-6,8.466136 m 10e-6,-33.866876 v 8.46714 a 2.8225046,2.8225046 0 1 0 5.64452,0 v -8.46705"
       inkscape:connector-curvature="0" />
    <g
       id="g897"
       transform="translate(-194.71884,0.0263239)">
      <path
         sodipodi:nodetypes="cc"
         inkscape:connector-curvature="0"
         d="m 135.46667,76.86666 33.86666,1.7e-5"
         style="fill:none;fill-rule:evenodd;stroke:#000000;stroke-width:0.52916664px;stroke-linecap:butt;stroke-linejoin:miter;stroke-opacity:1"
         id="path2469" />
      <path
         style="fill:none;stroke:#ff0000;stroke-width:0.2;stroke-miterlimit:4;stroke-dasharray:none;stroke-opacity:0.98522171"
         d="m 135.45217,59.90702 c 6.89992,0.0301 13.63878,-2.21045 19.564,-5.65887"
         id="path2471"
         inkscape:connector-curvature="0"
         sodipodi:nodetypes="cc" />
      <path
         style="fill:none;stroke:#ff00ff;stroke-width:0.2;stroke-miterlimit:4;stroke-dasharray:none;stroke-opacity:0.98522171"
         d="m 155.01617,54.24815 c 0.245,-0.14259 0.4886,-0.28724 0.73077,-0.43388 4.91583,-2.960676 9.34417,-6.672057 13.4013,-10.71594"
         id="path2473"
         inkscape:connector-curvature="0"
         sodipodi:nodetypes="ccc" />
      <path
         style="opacity:1;fill:#000000;fill-opacity:0.10344831;stroke:none;stroke-width:0.5;stroke-linecap:round;stroke-linejoin:round;stroke-miterlimit:4;stroke-dasharray:0.99999999, 0.99999999;stroke-dashoffset:0;stroke-opacity:0.24630546"
         d="m 135.46666,43.000011 c 4.23334,0 1e-5,4.233333 0,2e-6 z"
         id="rect890"
         inkscape:connector-curvature="0"
         sodipodi:nodetypes="ccc" />
    </g>
  </g>
</svg>
