<?xml version="1.0" encoding="UTF-8" standalone="no"?>
<svg
   xmlns:dc="http://purl.org/dc/elements/1.1/"
   xmlns:cc="http://creativecommons.org/ns#"
   xmlns:rdf="http://www.w3.org/1999/02/22-rdf-syntax-ns#"
   xmlns:svg="http://www.w3.org/2000/svg"
   xmlns="http://www.w3.org/2000/svg"
   xmlns:sodipodi="http://sodipodi.sourceforge.net/DTD/sodipodi-0.dtd"
   xmlns:inkscape="http://www.inkscape.org/namespaces/inkscape"
   height="414.14929"
   width="823"
   id="svg1860"
   version="1.1"
   sodipodi:docname="naive.svg"
   inkscape:version="0.92.3 (2405546, 2018-03-11)">
  <defs
     id="defs112" />
  <sodipodi:namedview
     pagecolor="#ffffff"
     bordercolor="#666666"
     borderopacity="1"
     objecttolerance="10"
     gridtolerance="10"
     guidetolerance="10"
     inkscape:pageopacity="0"
     inkscape:pageshadow="2"
     inkscape:window-width="755"
     inkscape:window-height="480"
     id="namedview110"
     showgrid="false"
     fit-margin-top="0"
     fit-margin-left="0"
     fit-margin-right="0"
     fit-margin-bottom="0"
     inkscape:zoom="0.16296602"
     inkscape:cx="560.63116"
     inkscape:cy="163.72761"
     inkscape:window-x="0"
     inkscape:window-y="27"
     inkscape:window-maximized="0"
     inkscape:current-layer="layer2" />
  <metadata
     id="metadata1866">
    <rdf:RDF>
      <cc:Work
         rdf:about="">
        <dc:format>image/svg+xml</dc:format>
        <dc:type
           rdf:resource="http://purl.org/dc/dcmitype/StillImage" />
        <dc:title></dc:title>
      </cc:Work>
    </rdf:RDF>
  </metadata>
  <g
     inkscape:groupmode="layer"
     inkscape:label="layer1"
     id="layer1"
     transform="translate(205.92536,-202.92535)">
    <polygon
       points="410,0 164,410 410,820 0,820 0,0 "
       style="fill:none;stroke:#000000;stroke-width:3"
       id="polygon3"
       transform="rotate(-90,205.57464,410)" />
  </g>
  <g
     inkscape:groupmode="layer"
     inkscape:label="layer2"
     id="layer2"
     transform="translate(205.92536,-202.92535)">
    <polygon
       points="192.01666,669.25665 192.28999,669.66669 192.28999,669.80335 195.02333,676.36334 195.84334,683.33331 195.02333,690.30335 192.28999,697 187.91667,702.60333 182.31334,706.97668 175.61667,709.71002 168.64667,710.53003 136.66667,710.53003 129.69667,709.71002 123,706.97668 117.39667,702.60333 113.02333,697 110.29,690.30335 109.47,683.33331 109.47,630.16998 110.29,623.20001 113.02333,616.64001 113.02333,616.50336 117.39667,610.90002 123,606.52667 129.69667,603.79333 136.66667,602.97333 143.63667,603.79333 150.33333,606.52667 155.93666,610.90002 160.03667,616.09332 "
       id="polygon6"
       transform="rotate(-90,205.57464,410)"
       style="fill:#000000;stroke:none;stroke-width:1" />
    <polygon
       points="192.28999,123.13666 195.02333,129.69667 195.84334,136.66667 195.02333,143.63667 192.28999,150.33333 192.01666,150.74333 160.03667,203.90666 155.93666,209.10001 150.33333,213.47333 143.63667,216.20666 136.66667,217.02667 129.69667,216.20666 123,213.47333 117.39667,209.10001 113.02333,203.49667 110.29,196.8 109.47,189.83 109.47,136.66667 110.29,129.69667 113.02333,123.13666 113.02333,123 117.39667,117.39667 123,113.02333 129.69667,110.29 136.66667,109.47 168.64667,109.47 175.61667,110.29 182.31334,113.02333 187.91667,117.39667 192.28999,123 "
       id="polygon8"
       transform="rotate(-90,205.57464,410)"
       style="fill:#000000;stroke:none;stroke-width:1" />
    <polygon
       points="109.33334,288.91333 217.02667,109.19666 109.33334,109.19666 54.666668,109.19666 54.666668,392.23334 113.29667,392.23334 110.83667,402.62 110.97334,403.44 113.98,390.45666 113.29667,392.23334 54.666668,392.23334 54.666668,424.76001 112.06667,424.76001 114.11667,430.91 114.25333,431.18332 111.93,424.07666 112.06667,424.76001 54.666668,424.76001 54.666668,710.80335 109.33334,710.80335 217.02667,710.80335 109.33334,531.08667 109.33334,710.80335 54.666668,710.80335 54.666668,765.46997 313.64999,765.46997 117.26,438.01666 118.08,439.79334 288.50333,724.06 288.77667,724.33331 288.77667,724.46997 291.51001,731.03003 292.32999,738 291.51001,744.96997 288.77667,751.66669 284.40332,757.27002 278.79999,761.64331 272.10333,764.37665 265.13333,765.19665 82,765.19665 75.029999,764.37665 68.333336,761.64331 62.73,757.27002 58.630001,751.94 58.356667,751.66669 55.623333,744.96997 54.803333,738 54.803333,82 55.623333,75.029999 58.356667,68.470001 58.356667,68.333336 62.73,62.73 68.333336,58.356667 75.029999,55.623333 82,54.803333 265.13333,54.803333 272.10333,55.623333 278.79999,58.356667 284.40332,62.73 288.77667,68.333336 288.77667,68.470001 291.51001,75.029999 292.32999,82 291.51001,88.970001 288.77667,95.666664 288.50333,95.940002 118.21667,379.79666 117.67,381.29999 313.64999,54.529999 54.666668,54.529999 361.75665,0.136667 368.72665,0.956667 375.42334,3.69 381.02667,8.063334 385.39999,13.666667 385.39999,13.803333 388.13333,20.363333 388.95334,27.333334 388.13333,34.303333 385.39999,41 385.12668,41.273335 166.18666,406.17334 165.09334,411.23001 165.50333,412.59668 385.12668,778.72668 385.39999,779 385.39999,779.13666 388.13333,785.69665 388.95334,792.66669 388.13333,799.63666 385.39999,806.33331 381.02667,811.93665 375.42334,816.31 368.72665,819.04333 361.75665,819.86334 27.333334,819.86334 20.363333,819.04333 13.666667,816.31 8.063334,811.93665 3.963333,806.60669 3.69,806.33331 0.956667,799.63666 0.136667,792.66669 0.136667,27.333334 0.956667,20.363333 3.69,13.803333 3.69,13.666667 8.063334,8.063334 13.666667,3.69 20.363333,0.956667 27.333334,0.136667 361.75665,0.136667 54.666668,54.529999 54.666668,109.19666 109.33334,109.19666 "
       id="polygon10"
       transform="rotate(-90,205.57464,410)"
       style="fill:#000000;stroke:none;stroke-width:1" />
    <polygon
       points="189.69333,670.76001 189.83,671.03332 189.83,671.16998 192.28999,677.04669 193.11,683.33331 192.28999,689.62 189.83,695.63336 186.00333,700.69 180.94667,704.51666 174.93333,706.97668 168.64667,707.79669 136.66667,707.79669 130.38001,706.97668 124.36667,704.51666 119.31,700.69 115.75667,695.90668 115.48333,695.63336 113.02333,689.62 112.20333,683.33331 112.20333,630.16998 113.02333,623.88336 115.48333,618.00665 115.48333,617.87 119.31,612.81335 124.36667,608.98669 130.38001,606.52667 136.66667,605.70667 142.95334,606.52667 148.96666,608.98669 154.02333,612.81335 157.71333,617.59668 "
       id="polygon12"
       transform="rotate(-90,205.57464,410)"
       style="fill:#4b4b4b;stroke:none;stroke-width:1" />
    <polygon
       points="189.83,124.50333 192.28999,130.38001 193.11,136.66667 192.28999,142.95334 189.83,148.96666 189.69333,149.24 157.71333,202.40334 154.02333,207.18666 148.96666,211.01334 142.95334,213.47333 136.66667,214.29334 130.38001,213.47333 124.36667,211.01334 119.31,207.18666 115.75667,202.40334 115.48333,202.13001 113.02333,196.11667 112.20333,189.83 112.20333,136.66667 113.02333,130.38001 115.48333,124.50333 115.48333,124.36667 119.31,119.31 124.36667,115.48333 130.38001,113.02333 136.66667,112.20333 168.64667,112.20333 174.93333,113.02333 180.94667,115.48333 186.00333,119.31 189.83,124.36667 "
       id="polygon14"
       transform="rotate(-90,205.57464,410)"
       style="fill:#4b4b4b;stroke:none;stroke-width:1" />
    <polygon
       points="106.6,106.46333 265.13333,57.536667 265.13333,57.536667 106.6,713.53668 221.81,713.53668 106.6,521.38336 106.6,713.53668 265.13333,57.536667 271.42001,58.356667 277.43332,60.816666 282.48999,64.643333 286.31668,69.699997 286.31668,69.83667 288.77667,75.713333 289.59668,82 288.77667,88.286667 286.31668,94.300003 286.17999,94.573334 116.03,378.29334 110.7,391.41333 108.10333,402.75665 109.33334,425.30667 111.24667,431.32001 115.62,441.02335 286.17999,725.4267 286.31668,725.70001 286.31668,725.83667 288.77667,731.71332 289.59668,738 288.77667,744.28668 286.31668,750.29999 282.48999,755.35669 277.43332,759.18335 271.42001,761.64331 265.13333,762.46332 82,762.46332 75.713333,761.64331 69.699997,759.18335 64.643333,755.35669 61.09,750.5733 60.816666,750.29999 58.356667,744.28668 57.536667,738 57.536667,82 58.356667,75.713333 60.816666,69.83667 60.816666,69.699997 64.643333,64.643333 69.699997,60.816666 75.713333,58.356667 82,57.536667 265.13333,57.536667 106.6,106.46333 106.6,298.61667 221.81,106.46333 "
       id="polygon16"
       transform="rotate(-90,205.57464,410)"
       style="fill:#4b4b4b;stroke:none;stroke-width:1" />
    <polygon
       points="119.58334,436.64999 119.44666,436.23999 117.39667,431.73001 113.57,420.25 113.16,418.88333 112.34,412.59668 112.47667,411.50333 112.88666,407.13 116.71333,390.45666 116.98666,389.63666 119.44666,383.62332 119.58334,383.48666 119.58334,383.35001 318.43332,51.796665 51.933334,51.796665 361.75665,2.87 368.04334,3.69 374.05667,6.15 379.11334,9.976666 382.94,15.033334 382.94,15.17 385.39999,21.046667 386.22,27.333334 385.39999,33.619999 382.94,39.633335 382.80334,39.906666 163.72667,405.21668 162.22333,411.50333 162.77,413.28 382.80334,780.09332 382.94,780.36664 382.94,780.50336 385.39999,786.38 386.22,792.66669 385.39999,798.95331 382.94,804.96668 379.11334,810.02332 374.05667,813.84998 368.04334,816.31 361.75665,817.13 27.333334,817.13 21.046667,816.31 15.033334,813.84998 9.976666,810.02332 6.423333,805.23999 6.15,804.96668 3.69,798.95331 2.87,792.66669 2.87,27.333334 3.69,21.046667 6.15,15.17 6.15,15.033334 9.976666,9.976666 15.033334,6.15 21.046667,3.69 27.333334,2.87 361.75665,2.87 51.933334,51.796665 51.933334,768.20331 318.43332,768.20331 "
       id="polygon18"
       transform="rotate(-90,205.57464,410)"
       style="fill:#4b4b4b;stroke:none;stroke-width:1" />
    <polygon
       points="157.44,618.28003 189.14667,671.03332 189.42,671.30664 189.42,671.44336 191.88001,677.18335 192.56334,683.33331 191.88001,689.48334 189.42,695.35999 185.59334,700.28003 180.67334,704.10669 174.79666,706.56665 168.64667,707.25 136.66667,707.25 130.51666,706.56665 124.64,704.10669 119.72,700.28003 116.16666,695.63336 115.89333,695.35999 113.43333,689.48334 112.75,683.33331 112.75,630.16998 113.43333,624.02002 115.89333,618.28003 115.89333,618.14331 119.72,613.22333 124.64,609.39667 130.51666,606.93665 136.66667,606.25336 142.81667,606.93665 148.69333,609.39667 153.61333,613.22333 157.44,618.14331 "
       id="polygon20"
       transform="rotate(-90,205.57464,410)"
       style="fill:#4f4f4f;stroke:none;stroke-width:1" />
    <polygon
       points="189.42,124.77666 191.88001,130.51666 192.56334,136.66667 191.88001,142.81667 189.42,148.69333 189.14667,148.96666 157.71333,201.31 157.44,201.85667 157.16667,202.13001 153.61333,206.77667 148.69333,210.60333 142.81667,213.06334 136.66667,213.74667 130.51666,213.06334 124.64,210.60333 119.72,206.77667 116.16666,202.13001 115.89333,201.85667 113.43333,195.98 112.75,189.83 112.75,136.66667 113.43333,130.51666 115.89333,124.77666 115.89333,124.64 119.72,119.72 124.64,115.89333 130.51666,113.43333 136.66667,112.75 168.64667,112.75 174.79666,113.43333 180.67334,115.89333 185.59334,119.72 189.42,124.64 "
       id="polygon22"
       transform="rotate(-90,205.57464,410)"
       style="fill:#4f4f4f;stroke:none;stroke-width:1" />
    <polygon
       points="106.05334,105.91666 265.13333,58.083332 265.13333,58.083332 106.05334,714.08331 222.90334,714.08331 106.05334,519.19665 106.05334,714.08331 265.13333,58.083332 271.28332,58.766666 277.16,61.226665 282.07999,65.053337 285.90668,69.973335 285.90668,70.110001 288.36667,75.849998 289.04999,82 288.36667,88.150002 285.90668,94.026665 285.63333,94.300003 115.48333,378.01999 110.29,391.00333 107.55666,402.62 108.78667,425.44333 110.83667,431.86667 114.93667,441.02335 285.63333,725.70001 285.90668,725.97333 285.90668,726.10999 288.36667,731.84998 289.04999,738 288.36667,744.15002 285.90668,750.02667 282.07999,754.94665 277.16,758.77332 271.28332,761.23334 265.13333,761.91669 82,761.91669 75.849998,761.23334 69.973335,758.77332 65.053337,754.94665 61.5,750.29999 61.226665,750.02667 58.766666,744.15002 58.083332,738 58.083332,82 58.766666,75.849998 61.226665,70.110001 61.226665,69.973335 65.053337,65.053337 69.973335,61.226665 75.849998,58.766666 82,58.083332 265.13333,58.083332 106.05334,105.91666 106.05334,300.80334 222.90334,105.91666 "
       id="polygon24"
       transform="rotate(-90,205.57464,410)"
       style="fill:#4f4f4f;stroke:none;stroke-width:1" />
    <polygon
       points="120.26667,436.64999 119.85667,436.10333 117.94334,431.59332 117.39667,430.22665 117.26,429.40668 114.11667,420.11334 113.57,418.74667 112.88666,412.59668 113.29667,409.04334 113.43333,407.26666 117.26,390.59332 117.39667,389.77335 119.85667,383.89667 120.26667,383.35001 319.52667,51.25 51.386665,51.25 361.75665,3.416667 367.90668,4.1 373.78332,6.56 378.70334,10.386666 382.53,15.306666 382.53,15.443334 384.98999,21.183332 385.67334,27.333334 384.98999,33.483334 382.53,39.360001 382.25665,39.633335 163.17999,404.80667 161.67667,411.50333 162.49667,413.96335 382.25665,780.36664 382.53,780.64001 382.53,780.77667 384.98999,786.51666 385.67334,792.66669 384.98999,798.81665 382.53,804.69336 378.70334,809.61334 373.78332,813.44 367.90668,815.90002 361.75665,816.58331 27.333334,816.58331 21.183332,815.90002 15.306666,813.44 10.386666,809.61334 6.833333,804.96668 6.56,804.69336 4.1,798.81665 3.416667,792.66669 3.416667,27.333334 4.1,21.183332 6.56,15.443334 6.56,15.306666 10.386666,10.386666 15.306666,6.56 21.183332,4.1 27.333334,3.416667 361.75665,3.416667 51.386665,51.25 51.386665,768.75 319.52667,768.75 "
       id="polygon26"
       transform="rotate(-90,205.57464,410)"
       style="fill:#4f4f4f;stroke:none;stroke-width:1" />
    <polygon
       points="188.60001,671.30664 188.87334,671.71668 191.19667,677.32001 191.88001,683.33331 191.19667,689.34668 188.87334,694.95001 185.04666,699.73334 180.26334,703.56 174.66,705.88336 168.64667,706.56665 136.66667,706.56665 130.65334,705.88336 125.05,703.56 120.26667,699.73334 116.44,694.95001 114.11667,689.34668 113.43333,683.33331 113.43333,630.16998 114.11667,624.15668 116.44,618.55335 120.26667,613.77002 125.05,609.94336 130.65334,607.62 136.66667,606.93665 142.67999,607.62 148.28334,609.94336 153.06667,613.77002 156.61999,618.14331 "
       id="polygon28"
       transform="rotate(-90,205.57464,410)"
       style="fill:#535353;stroke:none;stroke-width:1" />
    <polygon
       points="191.19667,130.65334 191.88001,136.66667 191.19667,142.67999 188.87334,148.28334 188.60001,148.69333 156.89333,201.31 156.89333,201.44667 153.06667,206.23 148.28334,210.05667 142.67999,212.38001 136.66667,213.06334 130.65334,212.38001 125.05,210.05667 120.26667,206.23 116.44,201.44667 114.11667,195.84334 113.43333,189.83 113.43333,136.66667 114.11667,130.65334 116.44,125.05 120.26667,120.26667 125.05,116.44 130.65334,114.11667 136.66667,113.43333 168.64667,113.43333 174.66,114.11667 180.26334,116.44 185.04666,120.26667 188.87334,125.05 "
       id="polygon30"
       transform="rotate(-90,205.57464,410)"
       style="fill:#535353;stroke:none;stroke-width:1" />
    <polygon
       points="105.37,105.23333 265.13333,58.766666 265.13333,58.766666 105.37,714.76666 224.13333,714.76666 105.37,516.73669 105.37,714.76666 265.13333,58.766666 271.14667,59.450001 276.75,61.773335 281.53332,65.599998 285.35998,70.383331 287.68332,75.986664 288.36667,82 287.68332,88.013336 285.35998,93.616669 285.08667,93.889999 114.8,377.74667 109.74333,390.32001 106.87334,402.48334 108.10333,425.17001 110.56333,432.82333 114.25333,441.29666 284.95001,725.83667 285.35998,726.38336 287.68332,731.98669 288.36667,738 287.68332,744.01331 285.35998,749.61664 281.53332,754.40002 276.75,758.22668 271.14667,760.54999 265.13333,761.23334 82,761.23334 75.986664,760.54999 70.383331,758.22668 65.599998,754.40002 61.773335,749.61664 59.450001,744.01331 58.766666,738 58.766666,82 59.450001,75.986664 61.773335,70.383331 65.599998,65.599998 70.383331,61.773335 75.986664,59.450001 82,58.766666 265.13333,58.766666 105.37,105.23333 105.37,303.26334 224.13333,105.23333 "
       id="polygon32"
       transform="rotate(-90,205.57464,410)"
       style="fill:#535353;stroke:none;stroke-width:1" />
    <polygon
       points="120.67667,435.96668 120.40334,435.69333 120.13,435.14667 118.49,431.45666 114.66333,419.97665 114.25333,418.60998 113.57,412.59668 113.57,412.04999 114.11667,407.40332 114.39,406.44666 114.39,406.31 117.94334,390.73001 118.08,389.91 120.40334,384.30667 120.81333,383.76001 320.75665,50.566666 50.703335,50.566666 361.75665,4.1 367.76999,4.783333 373.37332,7.106667 378.15668,10.933333 381.98334,15.716666 384.30667,21.32 384.98999,27.333334 384.30667,33.346668 381.98334,38.950001 381.70999,39.223331 162.49667,404.53332 160.99333,411.36667 162.08667,414.78332 381.57333,780.50336 381.98334,781.04999 384.30667,786.65332 384.98999,792.66669 384.30667,798.67999 381.98334,804.28332 378.15668,809.06665 373.37332,812.89331 367.76999,815.21668 361.75665,815.90002 27.333334,815.90002 21.32,815.21668 15.716666,812.89331 10.933333,809.06665 7.106667,804.28332 4.783333,798.67999 4.1,792.66669 4.1,27.333334 4.783333,21.32 7.106667,15.716666 10.933333,10.933333 15.716666,7.106667 21.32,4.783333 27.333334,4.1 361.75665,4.1 50.703335,50.566666 50.703335,769.43335 320.75665,769.43335 "
       id="polygon34"
       transform="rotate(-90,205.57464,410)"
       style="fill:#535353;stroke:none;stroke-width:1" />
    <polygon
       points="187.91667,671.71668 188.05333,672.12665 190.37666,677.59332 191.06,683.33331 190.37666,689.0733 188.05333,694.53998 184.5,699.18665 179.85333,702.73999 174.38667,705.06335 168.64667,705.74664 136.66667,705.74664 130.92667,705.06335 125.46,702.73999 120.81333,699.18665 117.26,694.53998 114.93667,689.0733 114.25333,683.33331 114.25333,630.16998 114.93667,624.42999 117.26,618.96332 120.81333,614.31665 125.46,610.76331 130.92667,608.44 136.66667,607.75665 142.40666,608.44 147.87334,610.76331 152.52,614.31665 155.93666,618.55335 "
       id="polygon36"
       transform="rotate(-90,205.57464,410)"
       style="fill:#595959;stroke:none;stroke-width:1" />
    <polygon
       points="190.37666,130.92667 191.06,136.66667 190.37666,142.40666 188.05333,147.87334 187.91667,148.28334 155.93666,201.44667 152.52,205.68333 147.87334,209.23666 142.40666,211.56 136.66667,212.24333 130.92667,211.56 125.46,209.23666 120.81333,205.68333 117.26,201.03667 114.93667,195.57001 114.25333,189.83 114.25333,136.66667 114.93667,130.92667 117.26,125.46 120.81333,120.81333 125.46,117.26 130.92667,114.93667 136.66667,114.25333 168.64667,114.25333 174.38667,114.93667 179.85333,117.26 184.5,120.81333 188.05333,125.46 "
       id="polygon38"
       transform="rotate(-90,205.57464,410)"
       style="fill:#595959;stroke:none;stroke-width:1" />
    <polygon
       points="104.55,104.41333 265.13333,59.586666 265.13333,59.586666 104.55,715.58667 225.5,715.58667 104.55,513.86664 104.55,715.58667 265.13333,59.586666 270.87332,60.27 276.34,62.593334 280.98666,66.146667 284.54001,70.793335 286.86334,76.260002 287.54666,82 286.86334,87.739998 284.54001,93.206665 284.40332,93.480003 114.11667,377.33667 108.65,391.00333 106.05334,402.34668 107.28333,425.44333 109.88,433.37 113.70667,441.98001 284.40332,726.52002 284.54001,726.79333 286.86334,732.26001 287.54666,738 286.86334,743.73999 284.54001,749.20667 280.98666,753.85333 276.34,757.40668 270.87332,759.72998 265.13333,760.41333 82,760.41333 76.260002,759.72998 70.793335,757.40668 66.146667,753.85333 62.593334,749.20667 60.27,743.73999 59.586666,738 59.586666,82 60.27,76.260002 62.593334,70.793335 66.146667,66.146667 70.793335,62.593334 76.260002,60.27 82,59.586666 265.13333,59.586666 104.55,104.41333 104.55,306.13333 225.5,104.41333 "
       id="polygon40"
       transform="rotate(-90,205.57464,410)"
       style="fill:#595959;stroke:none;stroke-width:1" />
    <polygon
       points="121.36,435.55667 121.22334,435.28332 120.81333,434.32666 119.31,431.18332 115.48333,419.70334 115.07333,418.33667 114.39,412.59668 115.07333,407.40332 118.76334,391.00333 118.9,390.18332 121.22334,384.71668 121.36,384.57999 121.36,384.44333 322.12332,49.746666 49.883335,49.746666 361.75665,4.92 367.49667,5.603333 372.96335,7.926667 377.60998,11.48 381.16333,16.126667 383.48666,21.593334 384.17001,27.333334 383.48666,33.073334 381.16333,38.540001 381.02667,38.813332 161.67667,404.39667 160.03667,411.36667 161.26666,414.78332 381.02667,781.18665 381.16333,781.46002 383.48666,786.9267 384.17001,792.66669 383.48666,798.40668 381.16333,803.87335 377.60998,808.52002 372.96335,812.0733 367.49667,814.39667 361.75665,815.08002 27.333334,815.08002 21.593334,814.39667 16.126667,812.0733 11.48,808.52002 7.926667,803.87335 5.603333,798.40668 4.92,792.66669 4.92,27.333334 5.603333,21.593334 7.926667,16.126667 11.48,11.48 16.126667,7.926667 21.593334,5.603333 27.333334,4.92 361.75665,4.92 49.883335,49.746666 49.883335,770.25336 322.12332,770.25336 "
       id="polygon42"
       transform="rotate(-90,205.57464,410)"
       style="fill:#595959;stroke:none;stroke-width:1" />
    <polygon
       points="187.09666,672.26331 187.23334,672.53668 187.23334,672.67334 189.42,677.86664 190.10333,683.33331 189.42,688.79999 187.23334,694.13 183.81667,698.50336 179.44333,701.91998 174.11333,704.10669 168.64667,704.78998 136.66667,704.78998 131.2,704.10669 125.87,701.91998 121.49667,698.50336 118.35333,694.40332 118.08,694.13 115.89333,688.79999 115.21,683.33331 115.21,630.16998 115.89333,624.70331 118.08,619.51001 118.08,619.37335 121.49667,615 125.87,611.58331 131.2,609.39667 136.66667,608.71332 142.13333,609.39667 147.46333,611.58331 151.83667,615 155.11667,619.09998 "
       id="polygon44"
       transform="rotate(-90,205.57464,410)"
       style="fill:#606060;stroke:none;stroke-width:1" />
    <polygon
       points="187.23334,126.00667 189.42,131.2 190.10333,136.66667 189.42,142.13333 187.23334,147.46333 187.09666,147.73666 155.11667,200.89999 151.83667,205 147.46333,208.41667 142.13333,210.60333 136.66667,211.28667 131.2,210.60333 125.87,208.41667 121.49667,205 118.35333,200.89999 118.08,200.62666 115.89333,195.29666 115.21,189.83 115.21,136.66667 115.89333,131.2 118.08,126.00667 118.08,125.87 121.49667,121.49667 125.87,118.08 131.2,115.89333 136.66667,115.21 168.64667,115.21 174.11333,115.89333 179.44333,118.08 183.81667,121.49667 187.23334,125.87 "
       id="polygon46"
       transform="rotate(-90,205.57464,410)"
       style="fill:#606060;stroke:none;stroke-width:1" />
    <polygon
       points="103.59333,103.45667 265.13333,60.543335 265.13333,60.543335 103.59333,716.54333 227.14,716.54333 103.59333,510.45001 103.59333,716.54333 265.13333,60.543335 270.60001,61.226665 275.92999,63.413334 280.30334,66.830002 283.72,71.203331 283.72,71.339996 285.90668,76.533333 286.59,82 285.90668,87.466667 283.72,92.796669 283.58334,93.07 112.88666,377.60998 107.83,390.32001 105.09666,402.20999 106.32667,425.98999 108.51334,432.54999 112.88666,442.39002 283.58334,726.92999 283.72,727.20331 283.72,727.34003 285.90668,732.53332 286.59,738 285.90668,743.46668 283.72,748.79669 280.30334,753.16998 275.92999,756.58667 270.60001,758.77332 265.13333,759.45667 82,759.45667 76.533333,758.77332 71.203331,756.58667 66.830002,753.16998 63.686668,749.07001 63.413334,748.79669 61.226665,743.46668 60.543335,738 60.543335,82 61.226665,76.533333 63.413334,71.339996 63.413334,71.203331 66.830002,66.830002 71.203331,63.413334 76.533333,61.226665 82,60.543335 265.13333,60.543335 103.59333,103.45667 103.59333,309.54999 227.14,103.45667 "
       id="polygon48"
       transform="rotate(-90,205.57464,410)"
       style="fill:#606060;stroke:none;stroke-width:1" />
    <polygon
       points="122.18,435.14667 122.04333,434.73666 120.26667,430.77335 116.03,418.06332 115.34666,412.59668 116.03,407.13 116.16666,406.72 119.72,391.14002 119.85667,390.45666 122.04333,385.12668 122.18,384.98999 122.18,384.85333 323.76334,48.790001 48.926666,48.790001 361.75665,5.876667 367.22333,6.56 372.55334,8.746667 376.92667,12.163333 380.34332,16.536667 380.34332,16.673334 382.53,21.866667 383.21335,27.333334 382.53,32.799999 380.34332,38.130001 380.20666,38.403332 160.72,404.26001 159.08,411.50333 160.03667,414.51001 380.20666,781.59668 380.34332,781.87 380.34332,782.00665 382.53,787.20001 383.21335,792.66669 382.53,798.13336 380.34332,803.46332 376.92667,807.83667 372.55334,811.25336 367.22333,813.44 361.75665,814.12335 27.333334,814.12335 21.866667,813.44 16.536667,811.25336 12.163333,807.83667 9.02,803.73669 8.746667,803.46332 6.56,798.13336 5.876667,792.66669 5.876667,27.333334 6.56,21.866667 8.746667,16.673334 8.746667,16.536667 12.163333,12.163333 16.536667,8.746667 21.866667,6.56 27.333334,5.876667 361.75665,5.876667 48.926666,48.790001 48.926666,771.21002 323.76334,771.21002 "
       id="polygon50"
       transform="rotate(-90,205.57464,410)"
       style="fill:#606060;stroke:none;stroke-width:1" />
    <polygon
       points="186.14,672.81 186.27667,673.08331 186.27667,673.21997 188.32666,678.14001 189.01,683.33331 188.32666,688.52667 186.27667,693.58331 183.13333,697.82001 178.89667,700.96332 173.84,703.01331 168.64667,703.69665 136.66667,703.69665 131.47333,703.01331 126.41666,700.96332 122.18,697.82001 119.03667,693.58331 116.98666,688.52667 116.30334,683.33331 116.30334,630.16998 116.98666,624.97668 119.03667,620.05664 119.03667,619.91998 122.18,615.68335 126.41666,612.53998 131.47333,610.48999 136.66667,609.80664 141.86,610.48999 146.91667,612.53998 151.15334,615.68335 154.16,619.64667 "
       id="polygon52"
       transform="rotate(-90,205.57464,410)"
       style="fill:#686868;stroke:none;stroke-width:1" />
    <polygon
       points="186.27667,126.55334 188.32666,131.47333 189.01,136.66667 188.32666,141.86 186.27667,146.91667 186.14,147.19 154.16,200.35333 151.15334,204.31667 146.91667,207.46001 141.86,209.51 136.66667,210.19333 131.47333,209.51 126.41666,207.46001 122.18,204.31667 119.03667,200.08 116.98666,195.02333 116.30334,189.83 116.30334,136.66667 116.98666,131.47333 119.03667,126.55334 119.03667,126.41666 122.18,122.18 126.41666,119.03667 131.47333,116.98666 136.66667,116.30334 168.64667,116.30334 173.84,116.98666 178.89667,119.03667 183.13333,122.18 186.27667,126.41666 "
       id="polygon54"
       transform="rotate(-90,205.57464,410)"
       style="fill:#686868;stroke:none;stroke-width:1" />
    <polygon
       points="102.5,102.36334 265.13333,61.636665 265.13333,61.636665 102.5,717.63666 229.05333,717.63666 102.5,506.48666 102.5,717.63666 265.13333,61.636665 270.32666,62.32 275.38333,64.370003 279.62,67.513336 282.76334,71.75 282.76334,71.886665 284.81332,76.806664 285.49667,82 284.81332,87.193336 282.76334,92.25 282.62668,92.523331 112.20333,376.79001 107.01,389.77335 104.00333,402.34668 105.23333,425.85333 108.10333,434.46335 111.65667,442.39002 282.62668,727.47668 282.76334,727.75 282.76334,727.88666 284.81332,732.80664 285.49667,738 284.81332,743.19336 282.76334,748.25 279.62,752.48669 275.38333,755.63 270.32666,757.67999 265.13333,758.36334 82,758.36334 76.806664,757.67999 71.75,755.63 67.513336,752.48669 64.370003,748.25 62.32,743.19336 61.636665,738 61.636665,82 62.32,76.806664 64.370003,71.886665 64.370003,71.75 67.513336,67.513336 71.75,64.370003 76.806664,62.32 82,61.636665 265.13333,61.636665 102.5,102.36334 102.5,313.51334 229.05333,102.36334 "
       id="polygon56"
       transform="rotate(-90,205.57464,410)"
       style="fill:#686868;stroke:none;stroke-width:1" />
    <polygon
       points="123.13666,434.60001 123,434.19 121.22334,430.5 117.39667,419.01999 117.12334,417.79001 116.44,412.59668 116.44,412.18668 116.85,408.08667 120.67667,391.41333 120.95,390.73001 123,385.67334 123.13666,385.39999 325.67667,47.696667 47.833332,47.696667 361.75665,6.97 366.95001,7.653333 372.00665,9.703333 376.24335,12.846666 379.38666,17.083334 379.38666,17.219999 381.43668,22.139999 382.12,27.333334 381.43668,32.526669 379.38666,37.583332 379.25,37.856667 159.89999,403.44 157.98666,411.64002 159.21666,415.32999 379.25,782.14331 379.38666,782.41669 379.38666,782.55335 381.43668,787.47333 382.12,792.66669 381.43668,797.85999 379.38666,802.91669 376.24335,807.15332 372.00665,810.29669 366.95001,812.34668 361.75665,813.03003 27.333334,813.03003 22.139999,812.34668 17.083334,810.29669 12.846666,807.15332 9.703333,802.91669 7.653333,797.85999 6.97,792.66669 6.97,27.333334 7.653333,22.139999 9.703333,17.219999 9.703333,17.083334 12.846666,12.846666 17.083334,9.703333 22.139999,7.653333 27.333334,6.97 361.75665,6.97 47.833332,47.696667 47.833332,772.30335 325.67667,772.30335 "
       id="polygon58"
       transform="rotate(-90,205.57464,410)"
       style="fill:#686868;stroke:none;stroke-width:1" />
    <polygon
       points="153.20334,620.73999 184.91,673.49335 185.18333,673.76666 185.18333,673.90332 187.09666,678.41333 187.64333,683.33331 187.09666,688.25336 185.18333,692.90002 182.03999,696.72668 178.21333,699.87 173.56667,701.78332 168.64667,702.33002 136.66667,702.33002 131.74667,701.78332 127.1,699.87 123.27333,696.72668 120.40334,693.17334 120.13,692.90002 118.21667,688.25336 117.67,683.33331 117.67,630.16998 118.21667,625.25 120.13,620.73999 120.13,620.60333 123.27333,616.77667 127.1,613.63336 131.74667,611.71997 136.66667,611.17334 141.58667,611.71997 146.23334,613.63336 150.06,616.77667 153.20334,620.60333 "
       id="polygon60"
       transform="rotate(-90,205.57464,410)"
       style="fill:#727272;stroke:none;stroke-width:1" />
    <polygon
       points="185.18333,127.23666 187.09666,131.74667 187.64333,136.66667 187.09666,141.58667 185.18333,146.23334 184.91,146.50667 153.47667,198.85001 153.20334,199.39667 152.92999,199.67 150.06,203.22333 146.23334,206.36667 141.58667,208.28 136.66667,208.82666 131.74667,208.28 127.1,206.36667 123.27333,203.22333 120.40334,199.67 120.13,199.39667 118.21667,194.75 117.67,189.83 117.67,136.66667 118.21667,131.74667 120.13,127.23666 120.13,127.1 123.27333,123.27333 127.1,120.13 131.74667,118.21667 136.66667,117.67 168.64667,117.67 173.56667,118.21667 178.21333,120.13 182.03999,123.27333 185.18333,127.1 "
       id="polygon62"
       transform="rotate(-90,205.57464,410)"
       style="fill:#727272;stroke:none;stroke-width:1" />
    <polygon
       points="101.13333,100.99667 265.13333,63.003334 265.13333,63.003334 101.13333,719.00336 231.37666,719.00336 101.13333,501.70334 101.13333,719.00336 265.13333,63.003334 270.05334,63.549999 274.70001,65.463333 278.52667,68.606667 281.67001,72.433334 281.67001,72.57 283.58334,77.080002 284.13,82 283.58334,86.919998 281.67001,91.566666 281.53332,91.839996 110.7,376.65332 105.78,388.67999 102.63666,402.20999 103.86667,426.26334 106.6,434.32666 110.15334,442.39002 281.53332,728.15997 281.67001,728.43335 281.67001,728.57001 283.58334,733.08002 284.13,738 283.58334,742.91998 281.67001,747.56665 278.52667,751.39331 274.70001,754.53668 270.05334,756.45001 265.13333,756.99664 82,756.99664 77.080002,756.45001 72.433334,754.53668 68.606667,751.39331 65.736664,747.84003 65.463333,747.56665 63.549999,742.91998 63.003334,738 63.003334,82 63.549999,77.080002 65.463333,72.57 65.463333,72.433334 68.606667,68.606667 72.433334,65.463333 77.080002,63.549999 82,63.003334 265.13333,63.003334 101.13333,100.99667 101.13333,318.29666 231.37666,100.99667 "
       id="polygon64"
       transform="rotate(-90,205.57464,410)"
       style="fill:#727272;stroke:none;stroke-width:1" />
    <polygon
       points="124.23,433.91666 124.09333,433.50665 123.41,431.86667 122.59,430.09 122.45333,429.54334 122.18,428.99667 122.18,428.85998 118.76334,418.60998 118.35333,417.51666 117.80666,412.59668 117.94334,410.82001 118.21667,408.35998 122.04333,391.68668 122.18,391.00333 124.09333,386.35666 124.23,386.22 124.23,386.08334 328,46.330002 46.466667,46.330002 361.75665,8.336667 366.67667,8.883333 371.32333,10.796667 375.14999,13.94 378.29334,17.766666 378.29334,17.903334 380.20666,22.413334 380.75333,27.333334 380.20666,32.253334 378.29334,36.900002 378.15668,37.173332 158.53334,403.16666 156.61999,411.77667 157.85001,415.60333 378.15668,782.82666 378.29334,783.09998 378.29334,783.23669 380.20666,787.74664 380.75333,792.66669 380.20666,797.58667 378.29334,802.23334 375.14999,806.06 371.32333,809.20331 366.67667,811.11664 361.75665,811.66333 27.333334,811.66333 22.413334,811.11664 17.766666,809.20331 13.94,806.06 11.07,802.50665 10.796667,802.23334 8.883333,797.58667 8.336667,792.66669 8.336667,27.333334 8.883333,22.413334 10.796667,17.903334 10.796667,17.766666 13.94,13.94 17.766666,10.796667 22.413334,8.883333 27.333334,8.336667 361.75665,8.336667 46.466667,46.330002 46.466667,773.66998 328,773.66998 "
       id="polygon66"
       transform="rotate(-90,205.57464,410)"
       style="fill:#727272;stroke:none;stroke-width:1" />
    <polygon
       points="183.54334,674.45001 183.67999,674.58667 183.67999,674.72333 185.45666,678.8233 186.00333,683.33331 185.45666,687.84332 183.67999,692.08002 180.94667,695.63336 177.39333,698.36664 173.15666,700.14331 168.64667,700.69 136.66667,700.69 132.15666,700.14331 127.92,698.36664 124.36667,695.63336 121.77,692.21668 121.63333,692.08002 119.85667,687.84332 119.31,683.33331 119.31,630.16998 119.85667,625.65997 121.63333,621.56 121.63333,621.42334 124.36667,617.87 127.92,615.13666 132.15666,613.35999 136.66667,612.81335 141.17667,613.35999 145.41333,615.13666 148.96666,617.87 151.56334,621.28668 "
       id="polygon68"
       transform="rotate(-90,205.57464,410)"
       style="fill:#7e7e7e;stroke:none;stroke-width:1" />
    <polygon
       points="183.67999,128.05667 185.45666,132.15666 186.00333,136.66667 185.45666,141.17667 183.67999,145.41333 183.54334,145.55 151.56334,198.71333 148.96666,202.13001 145.41333,204.86333 141.17667,206.64 136.66667,207.18666 132.15666,206.64 127.92,204.86333 124.36667,202.13001 121.77,198.71333 121.63333,198.57666 119.85667,194.34 119.31,189.83 119.31,136.66667 119.85667,132.15666 121.63333,128.05667 121.63333,127.92 124.36667,124.36667 127.92,121.63333 132.15666,119.85667 136.66667,119.31 168.64667,119.31 173.15666,119.85667 177.39333,121.63333 180.94667,124.36667 183.67999,127.92 "
       id="polygon70"
       transform="rotate(-90,205.57464,410)"
       style="fill:#7e7e7e;stroke:none;stroke-width:1" />
    <polygon
       points="99.493332,99.356667 265.13333,64.643333 265.13333,64.643333 99.493332,720.64331 234.52,720.64331 99.493332,495.55334 99.493332,720.64331 265.13333,64.643333 269.64334,65.190002 273.88,66.966667 277.43332,69.699997 280.16666,73.253334 280.16666,73.389999 281.94333,77.489998 282.48999,82 281.94333,86.510002 280.16666,90.746666 280.03,90.883331 109.33334,375.42334 104.00333,388.81668 100.99667,401.93668 102.22667,426.26334 105.23333,435.28332 109.33334,444.44 280.03,729.11664 280.16666,729.25336 280.16666,729.39001 281.94333,733.48999 282.48999,738 281.94333,742.51001 280.16666,746.74664 277.43332,750.29999 273.88,753.03332 269.64334,754.81 265.13333,755.35669 82,755.35669 77.489998,754.81 73.253334,753.03332 69.699997,750.29999 67.103333,746.88336 66.966667,746.74664 65.190002,742.51001 64.643333,738 64.643333,82 65.190002,77.489998 66.966667,73.389999 66.966667,73.253334 69.699997,69.699997 73.253334,66.966667 77.489998,65.190002 82,64.643333 265.13333,64.643333 99.493332,99.356667 99.493332,324.44666 234.52,99.356667 "
       id="polygon72"
       transform="rotate(-90,205.57464,410)"
       style="fill:#7e7e7e;stroke:none;stroke-width:1" />
    <polygon
       points="125.73333,432.95999 125.59666,432.68668 124.09333,429.54334 120.26667,418.06332 119.99333,417.10666 119.44666,412.59668 119.99333,408.08667 119.99333,407.95001 123.68333,392.09668 123.82,391.41333 125.59666,387.17667 125.87,386.90332 331.14334,44.689999 44.826668,44.689999 361.75665,9.976666 366.26666,10.523334 370.50333,12.3 374.05667,15.033334 376.79001,18.586666 376.79001,18.723333 378.56668,22.823334 379.11334,27.333334 378.56668,31.843334 376.79001,36.080002 376.65332,36.216667 157.03,402.34668 154.84334,411.64002 156.61999,417.10666 376.65332,783.78332 376.79001,783.91998 376.79001,784.05664 378.56668,788.15668 379.11334,792.66669 378.56668,797.1767 376.79001,801.41333 374.05667,804.96668 370.50333,807.70001 366.26666,809.47668 361.75665,810.02332 27.333334,810.02332 22.823334,809.47668 18.586666,807.70001 15.033334,804.96668 12.436666,801.54999 12.3,801.41333 10.523334,797.1767 9.976666,792.66669 9.976666,27.333334 10.523334,22.823334 12.3,18.723333 12.3,18.586666 15.033334,15.033334 18.586666,12.3 22.823334,10.523334 27.333334,9.976666 361.75665,9.976666 44.826668,44.689999 44.826668,775.31 331.14334,775.31 "
       id="polygon74"
       transform="rotate(-90,205.57464,410)"
       style="fill:#7e7e7e;stroke:none;stroke-width:1" />
    <polygon
       points="181.90334,675.40668 182.03999,675.54333 182.03999,675.67999 183.67999,679.37 184.09,683.33331 183.67999,687.29669 182.03999,691.12335 179.58,694.26666 176.43666,696.72668 172.61,698.36664 168.64667,698.77667 136.66667,698.77667 132.70334,698.36664 128.87666,696.72668 125.73333,694.26666 123.41,691.26001 123.27333,691.12335 121.63333,687.29669 121.22334,683.33331 121.22334,630.16998 121.63333,626.20667 123.27333,622.51666 123.27333,622.38 125.73333,619.23669 128.87666,616.77667 132.70334,615.13666 136.66667,614.72668 140.63001,615.13666 144.45666,616.77667 147.60001,619.23669 149.92334,622.24335 "
       id="polygon76"
       transform="rotate(-90,205.57464,410)"
       style="fill:#8c8c8c;stroke:none;stroke-width:1" />
    <polygon
       points="182.03999,129.01334 183.67999,132.70334 184.09,136.66667 183.67999,140.63001 182.03999,144.45666 181.90334,144.59334 149.92334,197.75667 147.60001,200.76334 144.45666,203.22333 140.63001,204.86333 136.66667,205.27333 132.70334,204.86333 128.87666,203.22333 125.73333,200.76334 123.41,197.75667 123.27333,197.61999 121.63333,193.79334 121.22334,189.83 121.22334,136.66667 121.63333,132.70334 123.27333,129.01334 123.27333,128.87666 125.73333,125.73333 128.87666,123.27333 132.70334,121.63333 136.66667,121.22334 168.64667,121.22334 172.61,121.63333 176.43666,123.27333 179.58,125.73333 182.03999,128.87666 "
       id="polygon78"
       transform="rotate(-90,205.57464,410)"
       style="fill:#8c8c8c;stroke:none;stroke-width:1" />
    <polygon
       points="97.580002,97.443336 265.13333,66.556664 265.13333,66.556664 97.580002,722.55664 237.8,722.55664 97.580002,488.58334 97.580002,722.55664 265.13333,66.556664 269.09668,66.966667 272.92334,68.606667 276.06668,71.066666 278.52667,74.209999 278.52667,74.346664 280.16666,78.036667 280.57666,82 280.16666,85.963333 278.52667,89.790001 278.39002,89.926666 107.69334,374.60333 102.36334,387.72333 99.083336,402.07333 100.31333,426.53665 103.73,436.78665 107.14667,444.44 278.39002,730.0733 278.52667,730.21002 278.52667,730.34668 280.16666,734.03668 280.57666,738 280.16666,741.96332 278.52667,745.78998 276.06668,748.93335 272.92334,751.39331 269.09668,753.03332 265.13333,753.44336 82,753.44336 78.036667,753.03332 74.209999,751.39331 71.066666,748.93335 68.743332,745.9267 68.606667,745.78998 66.966667,741.96332 66.556664,738 66.556664,82 66.966667,78.036667 68.606667,74.346664 68.606667,74.209999 71.066666,71.066666 74.209999,68.606667 78.036667,66.966667 82,66.556664 265.13333,66.556664 97.580002,97.443336 97.580002,331.41666 237.8,97.443336 "
       id="polygon80"
       transform="rotate(-90,205.57464,410)"
       style="fill:#8c8c8c;stroke:none;stroke-width:1" />
    <polygon
       points="127.37334,432.00333 125.87,428.99667 122.04333,417.51666 121.77,416.56 121.36,412.59668 121.63333,409.31668 121.63333,409.17999 125.46,392.50665 125.59666,391.95999 127.23666,388.13333 127.92,387.17667 334.42334,42.776669 42.913334,42.776669 361.75665,11.89 365.72,12.3 369.54666,13.94 372.69,16.4 375.14999,19.543333 375.14999,19.68 376.79001,23.370001 377.20001,27.333334 376.79001,31.296667 375.14999,35.123333 375.01334,35.259998 155.25333,401.52667 152.92999,411.77667 154.98,418.06332 375.01334,784.73999 375.14999,784.87665 375.14999,785.01331 376.79001,788.70331 377.20001,792.66669 376.79001,796.63 375.14999,800.45667 372.69,803.59998 369.54666,806.06 365.72,807.70001 361.75665,808.10999 27.333334,808.10999 23.370001,807.70001 19.543333,806.06 16.4,803.59998 14.076667,800.59332 13.94,800.45667 12.3,796.63 11.89,792.66669 11.89,27.333334 12.3,23.370001 13.94,19.68 13.94,19.543333 16.4,16.4 19.543333,13.94 23.370001,12.3 27.333334,11.89 361.75665,11.89 42.913334,42.776669 42.913334,777.22333 334.42334,777.22333 "
       id="polygon82"
       transform="rotate(-90,205.57464,410)"
       style="fill:#8c8c8c;stroke:none;stroke-width:1" />
    <polygon
       points="179.85333,676.63666 179.99,676.77332 179.99,676.90997 181.22,680.05335 181.63001,683.33331 181.22,686.61334 179.99,689.89331 177.80333,692.48999 175.20666,694.6767 171.92667,695.90668 168.64667,696.31665 136.66667,696.31665 133.38667,695.90668 130.10667,694.6767 127.51,692.48999 125.32333,689.89331 124.09333,686.61334 123.68333,683.33331 123.68333,630.16998 124.09333,626.89001 125.32333,623.74664 125.32333,623.60999 127.51,621.01331 130.10667,618.82666 133.38667,617.59668 136.66667,617.18665 139.94667,617.59668 143.22667,618.82666 145.82333,621.01331 147.87334,623.47333 "
       id="polygon84"
       transform="rotate(-90,205.57464,410)"
       style="fill:#9e9e9e;stroke:none;stroke-width:1" />
    <polygon
       points="179.99,130.24333 181.22,133.38667 181.63001,136.66667 181.22,139.94667 179.99,143.22667 179.85333,143.36333 147.87334,196.52667 145.82333,198.98666 143.22667,201.17334 139.94667,202.40334 136.66667,202.81334 133.38667,202.40334 130.10667,201.17334 127.51,198.98666 125.32333,196.39 124.09333,193.11 123.68333,189.83 123.68333,136.66667 124.09333,133.38667 125.32333,130.24333 125.32333,130.10667 127.51,127.51 130.10667,125.32333 133.38667,124.09333 136.66667,123.68333 168.64667,123.68333 171.92667,124.09333 175.20666,125.32333 177.80333,127.51 179.99,130.10667 "
       id="polygon86"
       transform="rotate(-90,205.57464,410)"
       style="fill:#9e9e9e;stroke:none;stroke-width:1" />
    <polygon
       points="95.120003,94.98333 265.13333,69.01667 265.13333,69.01667 95.120003,725.01666 242.17334,725.01666 95.120003,479.83667 95.120003,725.01666 265.13333,69.01667 268.41333,69.426666 271.69333,70.65667 274.29001,72.84333 276.47665,75.440002 276.47665,75.576668 277.70666,78.720001 278.11667,82 277.70666,85.279999 276.47665,88.559998 276.34,88.696663 105.50667,373.51001 99.903336,387.45001 96.623337,401.25333 97.853333,426.94666 101.27,437.06 104.96,445.53332 276.34,731.30335 276.47665,731.44 276.47665,731.57666 277.70666,734.71997 278.11667,738 277.70666,741.28003 276.47665,744.56 274.29001,747.15668 271.69333,749.34332 268.41333,750.5733 265.13333,750.98334 82,750.98334 78.720001,750.5733 75.440002,749.34332 72.84333,747.15668 70.65667,744.56 69.426666,741.28003 69.01667,738 69.01667,82 69.426666,78.720001 70.65667,75.576668 70.65667,75.440002 72.84333,72.84333 75.440002,70.65667 78.720001,69.426666 82,69.01667 265.13333,69.01667 95.120003,94.98333 95.120003,340.16333 242.17334,94.98333 "
       id="polygon88"
       transform="rotate(-90,205.57464,410)"
       style="fill:#9e9e9e;stroke:none;stroke-width:1" />
    <polygon
       points="129.42334,430.77335 129.28667,430.5 128.19333,428.17667 124.36667,416.69666 124.23,415.87668 123.82,412.59668 123.95667,411.09332 124.09333,409.72665 127.92,393.05334 128.05667,392.64334 129.28667,389.36334 129.42334,389.09 338.79666,40.316666 40.453335,40.316666 361.75665,14.35 365.03665,14.76 368.31668,15.99 370.91333,18.176666 373.10001,20.773333 373.10001,20.91 374.32999,24.053333 374.73999,27.333334 374.32999,30.613333 373.10001,33.893333 372.96335,34.029999 152.79334,400.98001 150.33333,411.77667 152.52,418.47333 372.96335,785.96997 373.10001,786.10669 373.10001,786.24335 374.32999,789.38666 374.73999,792.66669 374.32999,795.94665 373.10001,799.22668 370.91333,801.8233 368.31668,804.01001 365.03665,805.23999 361.75665,805.65002 27.333334,805.65002 24.053333,805.23999 20.773333,804.01001 18.176666,801.8233 15.99,799.22668 14.76,795.94665 14.35,792.66669 14.35,27.333334 14.76,24.053333 15.99,20.91 15.99,20.773333 18.176666,18.176666 20.773333,15.99 24.053333,14.76 27.333334,14.35 361.75665,14.35 40.453335,40.316666 40.453335,779.68335 338.79666,779.68335 "
       id="polygon90"
       transform="rotate(-90,205.57464,410)"
       style="fill:#9e9e9e;stroke:none;stroke-width:1" />
    <polygon
       points="147.05333,673.08331 136.66667,619.91998 139.26334,620.19336 141.86,621.28668 143.91,622.9267 145.55,624.84003 177.53,678.00336 177.53,678.27667 178.62334,680.73669 178.89667,683.33331 178.62334,685.92999 177.53,688.52667 175.89,690.57666 173.84,692.21668 171.24333,693.31 168.64667,693.58331 136.66667,693.58331 134.07001,693.31 131.47333,692.21668 129.42334,690.57666 127.92,688.66333 127.78333,688.52667 126.69,685.92999 126.41666,683.33331 126.41666,630.16998 126.69,627.5733 127.78333,625.11334 127.78333,624.97668 129.42334,622.9267 131.47333,621.28668 134.07001,620.19336 136.66667,619.91998 147.05333,673.08331 150.33333,673.08331 147.05333,667.47998 "
       id="polygon92"
       transform="rotate(-90,205.57464,410)"
       style="fill:#b2b2b2;stroke:none;stroke-width:1" />
    <polygon
       points="147.05333,146.91667 168.64667,126.41666 171.24333,126.69 173.84,127.78333 175.89,129.42334 177.53,131.47333 177.53,131.61 178.62334,134.07001 178.89667,136.66667 178.62334,139.26334 177.53,141.86 177.53,141.99667 145.55,195.16 143.91,197.07333 141.86,198.71333 139.26334,199.80667 136.66667,200.08 134.07001,199.80667 131.47333,198.71333 129.42334,197.07333 127.92,195.16 127.78333,195.02333 126.69,192.42667 126.41666,189.83 126.41666,136.66667 126.69,134.07001 127.78333,131.61 127.78333,131.47333 129.42334,129.42334 131.47333,127.78333 134.07001,126.69 136.66667,126.41666 168.64667,126.41666 147.05333,146.91667 147.05333,152.52 150.33333,146.91667 "
       id="polygon94"
       transform="rotate(-90,205.57464,410)"
       style="fill:#b2b2b2;stroke:none;stroke-width:1" />
    <polygon
       points="92.386665,92.25 265.13333,71.75 265.13333,71.75 92.386665,727.75 246.95666,727.75 92.386665,470.13333 92.386665,727.75 265.13333,71.75 267.73001,72.023331 270.32666,73.116669 272.37668,74.756668 274.01666,76.806664 274.01666,76.943336 275.10998,79.403336 275.38333,82 275.10998,84.596664 274.01666,87.193336 274.01666,87.330002 102.91,372.69 97.443336,386.08334 93.889999,401.79999 95.120003,427.22 98.673332,437.88 102.63666,446.89999 274.01666,732.66998 274.01666,732.94336 275.10998,735.40332 275.38333,738 275.10998,740.59668 274.01666,743.19336 272.37668,745.24335 270.32666,746.88336 267.73001,747.97668 265.13333,748.25 82,748.25 79.403336,747.97668 76.806664,746.88336 74.756668,745.24335 73.253334,743.33002 73.116669,743.19336 72.023331,740.59668 71.75,738 71.75,82 72.023331,79.403336 73.116669,76.943336 73.116669,76.806664 74.756668,74.756668 76.806664,73.116669 79.403336,72.023331 82,71.75 265.13333,71.75 92.386665,92.25 92.386665,349.86667 246.95666,92.25 "
       id="polygon96"
       transform="rotate(-90,205.57464,410)"
       style="fill:#b2b2b2;stroke:none;stroke-width:1" />
    <polygon
       points="131.74667,429.40668 131.74667,429.26999 130.78999,427.35666 126.96333,415.87668 126.82667,415.19333 126.55334,412.59668 126.69,410.68332 126.69,410.27335 130.51666,393.60001 130.65334,393.32666 131.74667,390.73001 131.74667,390.59332 343.57999,37.583332 37.720001,37.583332 361.75665,17.083334 364.35333,17.356667 366.95001,18.450001 369,20.09 370.64002,22.139999 370.64002,22.276667 371.73334,24.736666 372.00665,27.333334 371.73334,29.93 370.64002,32.526669 370.64002,32.663334 150.33333,399.75 147.60001,412.04999 150.06,419.56668 370.64002,787.33667 370.64002,787.60999 371.73334,790.07001 372.00665,792.66669 371.73334,795.26331 370.64002,797.85999 369,799.90997 366.95001,801.54999 364.35333,802.64331 361.75665,802.91669 27.333334,802.91669 24.736666,802.64331 22.139999,801.54999 20.09,799.90997 18.586666,797.99664 18.450001,797.85999 17.356667,795.26331 17.083334,792.66669 17.083334,27.333334 17.356667,24.736666 18.450001,22.276667 18.450001,22.139999 20.09,20.09 22.139999,18.450001 24.736666,17.356667 27.333334,17.083334 361.75665,17.083334 37.720001,37.583332 37.720001,782.41669 343.57999,782.41669 "
       id="polygon98"
       transform="rotate(-90,205.57464,410)"
       style="fill:#b2b2b2;stroke:none;stroke-width:1" />
    <polygon
       points="143.63667,676.5 136.66667,623.33667 138.44333,623.47333 140.08333,624.15668 141.58667,625.25 142.54334,626.61664 174.38667,679.50665 174.66,679.91669 175.34334,681.55664 175.48,683.33331 175.34334,685.10999 174.66,686.75 173.56667,688.25336 172.06334,689.34668 170.42334,690.03003 168.64667,690.16669 136.66667,690.16669 134.89,690.03003 133.25,689.34668 131.74667,688.25336 130.65334,686.75 129.97,685.10999 129.83333,683.33331 129.83333,630.16998 129.97,628.39331 130.65334,626.75336 131.74667,625.25 133.25,624.15668 134.89,623.47333 136.66667,623.33667 143.63667,676.5 156.48334,676.5 143.63667,655.04333 "
       id="polygon100"
       transform="rotate(-90,205.57464,410)"
       style="fill:#cbcbcb;stroke:none;stroke-width:1" />
    <polygon
       points="143.63667,143.5 168.64667,129.83333 170.42334,129.97 172.06334,130.65334 173.56667,131.74667 174.66,133.25 175.34334,134.89 175.48,136.66667 175.34334,138.44333 174.66,140.08333 174.52333,140.22 142.81667,192.97333 142.67999,193.24667 141.58667,194.75 140.08333,195.84334 138.44333,196.52667 136.66667,196.66333 134.89,196.52667 133.25,195.84334 131.74667,194.75 130.65334,193.24667 129.97,191.60667 129.83333,189.83 129.83333,136.66667 129.97,134.89 130.65334,133.25 131.74667,131.74667 133.25,130.65334 134.89,129.97 136.66667,129.83333 168.64667,129.83333 143.63667,143.5 143.63667,164.95666 156.48334,143.5 "
       id="polygon102"
       transform="rotate(-90,205.57464,410)"
       style="fill:#cbcbcb;stroke:none;stroke-width:1" />
    <polygon
       points="88.970001,88.833336 265.13333,75.166664 265.13333,75.166664 88.970001,731.16669 252.97,731.16669 88.970001,457.56 88.970001,731.16669 265.13333,75.166664 266.91,75.303337 268.54999,75.986664 270.05334,77.080002 271.14667,78.583336 271.82999,80.223335 271.96668,82 271.82999,83.776665 271.14667,85.416664 271.01001,85.553337 100.17667,370.36667 94.026665,385.53665 90.33667,401.11667 91.703331,428.04001 95.529999,439.38333 99.629997,448.67667 270.87332,734.17334 271.14667,734.58331 271.82999,736.22333 271.96668,738 271.82999,739.77667 271.14667,741.41669 270.05334,742.91998 268.54999,744.01331 266.91,744.69665 265.13333,744.83331 82,744.83331 80.223335,744.69665 78.583336,744.01331 77.080002,742.91998 75.986664,741.41669 75.303337,739.77667 75.166664,738 75.166664,82 75.303337,80.223335 75.986664,78.583336 77.080002,77.080002 78.583336,75.986664 80.223335,75.303337 82,75.166664 265.13333,75.166664 88.970001,88.833336 88.970001,362.44 252.97,88.833336 "
       id="polygon104"
       transform="rotate(-90,205.57464,410)"
       style="fill:#cbcbcb;stroke:none;stroke-width:1" />
    <polygon
       points="134.75333,427.63 134.61667,427.49335 134.07001,426.26334 130.10667,414.37332 129.97,412.59668 130.10667,410.82001 130.24333,410.41 133.93333,394.42001 133.93333,394.14667 134.61667,392.50665 134.89,392.09668 349.59332,34.166668 34.303333,34.166668 361.75665,20.5 363.53332,20.636667 365.17334,21.32 366.67667,22.413334 367.76999,23.916666 368.45334,25.556667 368.59,27.333334 368.45334,29.110001 367.76999,30.75 367.63333,30.886667 147.05333,398.51999 143.91,412.18668 147.05333,421.34332 367.49667,788.84003 367.76999,789.25 368.45334,790.89001 368.59,792.66669 368.45334,794.44336 367.76999,796.08331 366.67667,797.58667 365.17334,798.67999 363.53332,799.36334 361.75665,799.5 27.333334,799.5 25.556667,799.36334 23.916666,798.67999 22.413334,797.58667 21.32,796.08331 20.636667,794.44336 20.5,792.66669 20.5,27.333334 20.636667,25.556667 21.32,23.916666 22.413334,22.413334 23.916666,21.32 25.556667,20.636667 27.333334,20.5 361.75665,20.5 34.303333,34.166668 34.303333,785.83331 349.59332,785.83331 "
       id="polygon106"
       transform="rotate(-90,205.57464,410)"
       style="fill:#cbcbcb;stroke:none;stroke-width:1" />
  </g>
</svg>
