<?xml version="1.0" encoding="UTF-8" standalone="no"?>
<!-- Created with Inkscape (http://www.inkscape.org/) -->

<svg
   xmlns:dc="http://purl.org/dc/elements/1.1/"
   xmlns:cc="http://creativecommons.org/ns#"
   xmlns:rdf="http://www.w3.org/1999/02/22-rdf-syntax-ns#"
   xmlns:svg="http://www.w3.org/2000/svg"
   xmlns="http://www.w3.org/2000/svg"
   xmlns:sodipodi="http://sodipodi.sourceforge.net/DTD/sodipodi-0.dtd"
   xmlns:inkscape="http://www.inkscape.org/namespaces/inkscape"
   version="1.1"
   id="svg2"
   xml:space="preserve"
   width="793.70667"
   height="1058.2667"
   viewBox="0 0 793.70667 1058.2667"
   sodipodi:docname="Jin_repro_clean.svg"
   inkscape:version="0.92.3 (2405546, 2018-03-11)"><sodipodi:namedview
     pagecolor="#ffffff"
     bordercolor="#666666"
     borderopacity="1"
     objecttolerance="10"
     gridtolerance="10"
     guidetolerance="10"
     inkscape:pageopacity="0"
     inkscape:pageshadow="2"
     inkscape:window-width="1920"
     inkscape:window-height="1025"
     id="namedview4"
     showgrid="false"
     inkscape:zoom="0.63075669"
     inkscape:cx="853.18066"
     inkscape:cy="579.66304"
     inkscape:window-x="948"
     inkscape:window-y="1080"
     inkscape:window-maximized="1"
     inkscape:current-layer="g10" /><metadata
     id="metadata8"><rdf:RDF><cc:Work
         rdf:about=""><dc:format>image/svg+xml</dc:format><dc:type
           rdf:resource="http://purl.org/dc/dcmitype/StillImage" /><dc:title /></cc:Work></rdf:RDF></metadata><defs
     id="defs6" /><g
     id="g10"
     inkscape:groupmode="layer"
     inkscape:label="1-s2.0-S0278612517300924-main"
     transform="matrix(1.3333333,0,0,-1.3333333,-55.866667,1120.2667)"><path
       inkscape:connector-curvature="0"
       d="m 1239.9478,38.566027 9.1429,16.947077 7.5947,17.699747 6.3727,18.178184 5.3771,18.497175 4.5414,18.71988 3.8216,18.88187 3.1853,18.99895 2.6114,19.0875 2.0825,19.15146 1.5864,19.19885 1.1125,19.23186 0.6515,19.25403 0.195,19.26316 -0.265,19.26319 -0.7377,19.25093 -1.2329,19.22485 -1.7632,19.18368 -2.345,19.12013 -3.0011,19.0292 -3.765,18.8919 -4.6895,18.68222 -5.3825,17.79596 -6.1722,17.53803 -7.1652,17.15515 -8.4171,16.57458 -9.9694,15.68454 -11.7976,14.35399 -13.7266,12.51708 -15.4342,10.3397 -16.6597,8.23787 -17.3801,6.59921 -17.739,5.56782 -17.8679,5.45874 -17.7262,5.89946 -17.5255,6.47141 -17.2245,7.22964 -16.7526,8.25926 -15.9701,9.67884 -14.6169,11.60614 -12.3383,13.98742 -9.0791,16.28441 -9.09918,17.69635 -12.44885,15.48314 -16.39917,11.14299 -19.11085,5.36278 -19.87633,0.93834 -19.88691,-1.09593 -19.88222,-1.19587 -19.1901,-0.65917 -19.19689,-0.41274 -19.19132,0.4649 -18.98401,2.71606 -17.95853,6.66399 -16.17841,10.29639 -14.84564,12.16939 -11.88547,11.03756 -13.9808,7.78003 -16.16268,0.65849 -16.1495,-1.49828 -16.08719,-2.06366 -19.09982,-2.55633 -18.99456,-3.23208 -18.70023,-4.62771 -18.14638,-6.45642 -17.27089,-8.524 -16.05868,-10.63026 -14.57678,-12.58676 -12.94746,-14.26053 -11.30097,-15.59921 -9.73812,-16.62196 -8.31284,-17.38059 -7.04349,-17.93507 -5.92543,-18.33486 -4.94596,-18.62422 -4.08683,-18.83051 -3.33188,-18.97981 -2.66502,-19.08557 -2.07293,-19.15823 -1.54473,-19.20902 -1.07073,-19.24033 -0.64338,-19.26033 -0.25609,-19.26936 -0.0549,-19.49343 -0.007,-19.49325 0.0545,-19.49273 0.13243,-19.49189 0.23172,-19.49222 0.35875,-19.49007 0.52227,-19.4857 0.73453,-19.47827 1.01293,-19.4663 1.38219,-19.44216 1.87839,-19.40211 2.55129,-19.32262 3.46817,-19.17877 4.70106,-18.91284 6.28387,-18.44515 8.12105,-17.7107 9.93387,-16.76088 11.40132,-15.803776 12.38087,-15.05277 12.93006,-14.585829 13.17677,-14.364368 13.23272,-14.313574 13.63427,-13.786472 14.49978,-12.872874 15.23246,-11.9984642 15.85469,-11.1647508 16.38418,-10.369847 16.84004,-9.61317 17.2326,-8.889433 17.57397,-8.195575 17.87027,-7.526437 18.12982,-6.878814 18.35808,-6.248806 18.55627,-5.631779 18.72914,-5.024901 18.88002,-4.425094 19.01033,-3.829031 19.1208,-3.233564 19.21098,-2.635612 19.28487,-2.032806 19.3391,-1.421817 19.37535,-0.799995 19.39115,-0.164362 18.87903,0.69094 18.81348,1.71442 18.7005,2.678208 18.5448,3.598251 18.351,4.488661 18.1148,5.360164 17.837,6.223788 17.5106,7.087582 17.1324,7.960867 16.69,8.849109 16.1738,9.758569 15.5714,10.694243 14.864,11.656573 14.0327,12.6435098 13.0583,13.6491273 11.9163,14.6551449 10.5909,15.637161 v 0 m 226.5281,332.873643 -0.3085,-19.74316 -0.928,-19.72448 -1.5502,-19.68528 -2.174,-19.6261 -2.7984,-19.5473 -3.4221,-19.44743 -4.0439,-19.32683 -4.6633,-19.18716 -5.2787,-19.02678 -5.8897,-18.84703 -6.4951,-18.64754 -7.094,-18.42788 -7.6856,-18.18877 -8.2692,-17.93069 -8.8448,-17.65494 -9.4103,-17.359085 -9.9666,-17.046169 -10.5117,-16.71438 -11.0464,-16.365756 -11.5704,-16.000633 -12.0827,-15.618869 -12.5812,-15.218402 -13.0684,-14.803091 -13.5419,-14.371133 -14.0017,-13.923166 -14.4482,-13.460141 -14.879,-12.980882 -15.2964,-12.487693 -15.6978,-11.97927 -16.0827,-11.45616 -16.4521,-10.91959 -16.8036,-10.36886 -17.1391,-9.80589 -17.4554,-9.22969 -17.7537,-8.64184 -18.0344,-8.04332 -18.2934,-7.43329 -18.533,-6.81386 -18.7514,-6.18549 -18.95,-5.5497 -19.1257,-4.90678 -19.28151,-4.25876 -19.41346,-3.60604 -19.5237,-2.95042 -19.6116,-2.29317 -19.67734,-1.63568 -19.72244,-0.97943 -19.74392,-0.32566 -19.62678,0.32769 -19.60619,0.98313 -19.56078,1.63759 -19.49561,2.29035 -19.40826,2.94036 -19.29899,3.5867 -19.16942,4.2288 -19.01759,4.86542 -18.84523,5.49609 -18.65206,6.11996 -18.43884,6.73644 -18.20489,7.34454 -17.95161,7.94392 -17.67818,8.53347 -17.38692,9.11347 -17.0765,9.68249 -16.74746,10.23993 -16.40073,10.7854 -16.03793,11.31921 -15.65818,11.8399 -15.26093,12.34594 -14.84996,12.839362 -14.42306,13.317338 -13.98106,13.779292 -13.67908,14.39264 -13.19911,14.833649 -12.70602,15.258791 -12.19921,15.665999 -11.68097,16.056866 -11.15091,16.429702 -10.60977,16.784211 -10.05851,17.120612 -9.49714,17.437598 -8.92674,17.73564 -8.34811,18.01501 -7.76171,18.27546 -7.16808,18.51676 -6.56784,18.73916 -5.96063,18.93969 -5.34853,19.12277 -4.73072,19.28371 -4.10892,19.42666 -3.48295,19.54825 -2.85392,19.65103 -2.22193,19.73114 -1.58825,19.79283 -0.95326,19.83397 -0.31775,19.85473 0.31772,19.85399 0.95316,19.83268 1.58822,19.79313 2.22191,19.73142 2.85374,19.65028 3.48286,19.54815 4.10884,19.42662 4.73061,19.2836 5.34854,19.12312 5.96058,18.93975 6.56767,18.73889 7.1678,18.5163 7.76189,18.27608 8.34811,18.0152 8.92748,17.73719 9.49715,17.43766 10.05792,17.11967 10.60986,16.78443 11.15063,16.42938 11.68112,16.05716 12.19924,15.66611 12.70571,15.2585 13.19956,14.83421 13.67974,14.39336 13.98173,13.77992 14.42247,13.31678 14.849,12.83855 15.26167,12.34657 15.65801,11.83978 16.03872,11.31976 16.40206,10.78623 16.74809,10.24022 17.07538,9.68177 17.38623,9.11307 17.67847,8.53357 17.95166,7.94391 18.20375,7.34406 18.43843,6.73631 18.65075,6.11957 18.84491,5.49608 19.01848,4.86571 19.16923,4.2288 19.29983,3.5869 19.40858,2.94043 19.49521,2.29032 19.56169,1.63767 19.60463,0.98307 19.62818,0.32774 19.74384,-0.32565 19.72194,-0.9794 19.67809,-1.63574 19.61283,-2.29333 19.52323,-2.9504 19.41318,-3.60601 19.28126,-4.25874 19.1263,-4.90694 18.9498,-5.54968 18.7521,-6.18576 18.533,-6.81391 18.2935,-7.43341 18.0336,-8.04299 17.7536,-8.64184 17.4566,-9.23037 17.139,-9.80592 16.8042,-10.3693 16.4525,-10.92003 16.0825,-11.45611 15.6975,-11.9792 15.2959,-12.4874 14.8792,-12.98108 14.448,-13.46013 14.001,-13.92257 13.5418,-14.37106 13.0685,-14.80336 12.5816,-15.21895 12.0824,-15.61854 11.5707,-16.00132 11.0472,-16.36704 10.5115,-16.71434 9.9662,-17.04581 9.4107,-17.35999 8.8442,-17.65412 8.2695,-17.9316 7.6856,-18.1892 7.0938,-18.42785 6.4946,-18.64634 5.8895,-18.84662 5.2786,-19.02686 4.6631,-19.18707 4.0438,-19.32667 3.422,-19.44756 2.7982,-19.54634 2.1739,-19.6249 1.5502,-19.68535 0.9279,-19.72424 0.3085,-19.74263 v 0"
       style="fill:none;fill-rule:evenodd;stroke:#ff0000;stroke-width:4.20616007px;stroke-linecap:butt;stroke-linejoin:miter;stroke-opacity:1"
       id="path2810"
       sodipodi:nodetypes="cccccccccccccccccccccccccccccccccccccccccccccccccccccccccccccccccccccccccccccccccccccccccccccccccccccccccccccccccccccccccccccccccccccccccccccccccccccccccccccccccccccccccccccccccccccccccccccccccccccccccccccccccccccccccccccccccccccccccccccccccccccccccccccccccccccccccccccccccccccccccccccccccccccccccccccccccccccccccccccccccccccccccccccccccc" /></g></svg>