<?xml version="1.0" encoding="UTF-8" standalone="no"?>
<svg
   xmlns:dc="http://purl.org/dc/elements/1.1/"
   xmlns:cc="http://creativecommons.org/ns#"
   xmlns:rdf="http://www.w3.org/1999/02/22-rdf-syntax-ns#"
   xmlns:svg="http://www.w3.org/2000/svg"
   xmlns="http://www.w3.org/2000/svg"
   xmlns:sodipodi="http://sodipodi.sourceforge.net/DTD/sodipodi-0.dtd"
   xmlns:inkscape="http://www.inkscape.org/namespaces/inkscape"
   version="1.1"
   id="svg3493"
   sodipodi:docname="wedge_distributed_generated__no_transitions.svg"
   inkscape:version="0.92.3 (2405546, 2018-03-11)"
   width="617.06647"
   height="84.042213">
  <metadata
     id="metadata3499">
    <rdf:RDF>
      <cc:Work
         rdf:about="">
        <dc:format>image/svg+xml</dc:format>
        <dc:type
           rdf:resource="http://purl.org/dc/dcmitype/StillImage" />
        <dc:title></dc:title>
      </cc:Work>
    </rdf:RDF>
  </metadata>
  <defs
     id="defs3497" />
  <sodipodi:namedview
     pagecolor="#ffffff"
     bordercolor="#666666"
     borderopacity="1"
     objecttolerance="10"
     gridtolerance="10"
     guidetolerance="10"
     inkscape:pageopacity="0"
     inkscape:pageshadow="2"
     inkscape:window-width="1920"
     inkscape:window-height="1145"
     id="namedview3495"
     showgrid="false"
     inkscape:zoom="4.72"
     inkscape:cx="132.97335"
     inkscape:cy="69.178443"
     inkscape:window-x="0"
     inkscape:window-y="27"
     inkscape:window-maximized="1"
     inkscape:current-layer="svg3493"
     fit-margin-top="0"
     fit-margin-left="0"
     fit-margin-right="0"
     fit-margin-bottom="0" />
  <polygon
     points="250.97006,858.95514 252.5032,857.00384 253.43239,854.68091 253.7576,852.21857 253.80406,852.21857 253.43239,849.75623 252.5032,847.43329 250.97006,845.48199 248.97232,843.94885 246.69583,843.01971 244.83746,842.78742 244.83746,842.69446 214.17453,840.69672 214.17453,840.78967 213.57056,840.69672 211.10823,841.02197 208.83174,841.95111 206.834,843.48425 205.30086,845.43555 204.37167,847.75848 204.04646,850.22082 204.37167,852.68317 205.30086,854.95966 206.834,856.9574 208.78528,858.49054 211.10823,859.41974 212.96658,859.65204 212.96658,859.74493 243.62953,861.74268 243.62953,861.64972 244.23351,861.74268 246.69583,861.41748 248.97232,860.48828 "
     id="polygon3183"
     style="fill:#808080;stroke:#000000;stroke-width:1"
     transform="translate(-203,-838.95558)" />
  <polygon
     points="245.44144,880.60504 247.71793,879.67584 249.71567,878.1427 251.24881,876.19141 252.17799,873.86847 252.5032,871.40613 252.54967,871.40613 252.17799,868.94379 251.24881,866.62085 249.71567,864.66956 247.71793,863.13641 245.44144,862.20727 243.62953,861.97498 243.62953,861.83557 233.40855,861.13867 233.40855,861.27808 232.75813,861.18518 230.29579,861.51038 228.0193,862.43957 226.02158,863.97272 224.48842,865.92395 223.55925,868.24695 223.23402,870.70923 223.55925,873.17157 224.48842,875.44806 226.02158,877.4458 227.97286,878.97894 230.29579,879.90814 232.1077,880.14044 232.1077,880.27978 242.32869,880.97668 242.32869,880.83734 242.97911,880.93024 "
     id="polygon3185"
     style="fill:#808080;stroke:#000000;stroke-width:1"
     transform="translate(-203,-838.95558)" />
  <polygon
     points="246.78874,918.88727 249.06523,917.95807 251.06297,916.42493 252.59613,914.47363 253.5253,912.1507 253.85051,909.68835 253.89697,909.68835 253.5253,907.22601 252.59613,904.90308 251.06297,902.95178 249.06523,901.41864 246.78874,900.4895 244.32642,900.16425 243.72246,900.2572 243.72246,900.16425 212.96658,902.20844 212.96658,902.30139 211.10823,902.53369 208.83174,903.46283 206.834,904.99603 205.30086,906.94727 204.37167,909.2702 204.04646,911.73254 204.37167,914.19488 205.30086,916.47137 206.834,918.46912 208.78528,920.00226 211.10823,920.93146 213.57056,921.25665 214.17453,921.16376 214.17453,921.25665 244.93039,919.21246 244.93039,919.11957 "
     id="polygon3187"
     style="fill:#808080;stroke:#000000;stroke-width:1"
     transform="translate(-203,-838.95558)" />
  <polygon
     points="245.4879,899.74616 247.76439,898.81696 249.76213,897.28381 251.29527,895.33252 252.22446,893.00958 252.54967,890.54724 252.59613,890.54724 252.22446,888.0849 251.29527,885.76196 249.76213,883.81067 247.76439,882.27753 245.4879,881.34839 243.02557,881.02313 242.4216,881.11609 242.4216,880.97668 232.15416,881.67358 232.15416,881.81293 230.29579,882.04523 228.0193,882.97443 226.02158,884.50757 224.48842,886.45886 223.55925,888.7818 223.23402,891.24414 223.55925,893.70648 224.48842,895.98297 226.02158,897.98071 227.97286,899.51386 230.29579,900.44299 232.75813,900.76825 233.36209,900.67529 233.36209,900.8147 243.62953,900.1178 243.62953,899.97846 "
     id="polygon3189"
     style="fill:#808080;stroke:#000000;stroke-width:1"
     transform="translate(-203,-838.95558)" />
  <polygon
     points="337.80194,862.30017 339.10278,860.62762 339.93906,858.67639 340.17136,856.58569 340.2178,856.58569 339.93906,854.49506 339.10278,852.54376 337.80194,850.87128 336.12943,849.57043 334.17813,848.73413 332.45917,848.54828 332.45917,848.50183 244.69809,842.69446 244.69809,842.74091 244.23351,842.69446 241.77118,843.01971 241.0743,843.29846 244.23351,842.69446 247.8573,843.39136 250.97006,845.48199 253.06071,848.59479 253.80406,852.21857 253.06071,855.84235 250.97006,858.95514 247.8573,861.04578 244.23351,861.74268 241.0743,861.13867 241.77118,861.41748 243.76891,861.69623 243.76891,861.74268 331.71582,864.66956 331.71582,864.62311 332.08749,864.66956 334.17813,864.43732 336.12943,863.60101 "
     id="polygon3191"
     style="fill:#808080;stroke:#000000;stroke-width:1"
     transform="translate(-203,-838.95558)" />
  <polygon
     points="239.49469,843.94885 237.49695,845.48199 235.96379,847.43329 235.63858,848.26953 237.49695,845.48199 240.23802,843.67011 "
     id="polygon3193"
     style="fill:#808080;stroke:#000000;stroke-width:1"
     transform="translate(-203,-838.95558)" />
  <polygon
     points="235.03462,849.75623 234.70941,852.21857 235.03462,854.68091 235.31337,855.37781 234.70941,852.21857 235.31337,849.05933 "
     id="polygon3195"
     style="fill:#808080;stroke:#000000;stroke-width:1"
     transform="translate(-203,-838.95558)" />
  <polygon
     points="235.96379,856.9574 237.49695,858.95514 239.44823,860.48828 240.28448,860.81348 237.49695,858.95514 235.68504,856.21405 "
     id="polygon3197"
     style="fill:#808080;stroke:#000000;stroke-width:1"
     transform="translate(-203,-838.95558)" />
  <polygon
     points="333.10959,880.69794 335.06085,879.86169 336.7334,878.56085 338.03424,876.88831 338.87051,874.93701 339.10278,872.84637 339.14926,872.84637 338.87051,870.75574 338.03424,868.80444 336.7334,867.1319 335.06085,865.83105 333.10959,864.99481 331.11185,864.76251 331.11185,864.71606 243.11848,861.83557 243.11848,861.88202 242.97911,861.88202 240.51678,862.20727 239.8199,862.48602 242.97911,861.88202 246.6029,862.57892 249.71567,864.66956 251.80632,867.78235 252.54967,871.40613 251.80632,875.02997 249.71567,878.1427 246.6029,880.23334 242.97911,880.93024 239.8199,880.32629 240.51678,880.60504 242.83974,880.93024 242.83974,880.97668 330.92602,880.97668 330.92602,880.93024 331.01892,880.93024 "
     id="polygon3199"
     style="fill:#808080;stroke:#000000;stroke-width:1"
     transform="translate(-203,-838.95558)" />
  <polygon
     points="238.2403,863.13641 236.24255,864.66956 234.70941,866.62085 234.38419,867.45715 236.24255,864.66956 238.98363,862.85767 "
     id="polygon3201"
     style="fill:#808080;stroke:#000000;stroke-width:1"
     transform="translate(-203,-838.95558)" />
  <polygon
     points="233.78023,868.94379 233.45502,871.40613 233.78023,873.86847 234.05898,874.56537 233.45502,871.40613 234.05898,868.24695 "
     id="polygon3203"
     style="fill:#808080;stroke:#000000;stroke-width:1"
     transform="translate(-203,-838.95558)" />
  <polygon
     points="234.70941,876.14496 236.24255,878.1427 238.19383,879.67584 239.03009,880.00104 236.24255,878.1427 234.43065,875.40161 "
     id="polygon3205"
     style="fill:#808080;stroke:#000000;stroke-width:1"
     transform="translate(-203,-838.95558)" />
  <polygon
     points="211.10823,841.02197 210.41135,841.30072 213.57056,840.69672 216.72977,841.30072 216.03288,841.02197 213.57056,840.69672 "
     id="polygon3207"
     style="fill:#808080;stroke:#000000;stroke-width:1"
     transform="translate(-203,-838.95558)" />
  <polygon
     points="208.83174,841.95111 206.834,843.48425 205.30086,845.43555 204.97563,846.27179 206.834,843.48425 209.57509,841.67236 "
     id="polygon3209"
     style="fill:#808080;stroke:#000000;stroke-width:1"
     transform="translate(-203,-838.95558)" />
  <polygon
     points="218.30937,841.95111 217.56602,841.67236 220.30711,843.48425 222.16547,846.27179 221.84026,845.43555 220.30711,843.48425 "
     id="polygon3211"
     style="fill:#808080;stroke:#000000;stroke-width:1"
     transform="translate(-203,-838.95558)" />
  <polygon
     points="220.30711,887.71326 221.84026,885.76196 222.76944,883.43903 223.09465,880.97668 223.14111,880.97668 223.14111,850.22082 222.76944,847.75848 222.49069,847.06165 223.14111,850.22082 222.39777,853.8446 220.30711,856.9574 217.19435,859.04804 213.57056,859.74493 209.94675,859.04804 206.834,856.9574 204.74335,853.8446 204.04646,850.22082 204.65042,847.06165 204.37167,847.75848 204.04646,850.22082 204,850.22082 204,880.97668 204.04646,880.97668 204.37167,883.43903 205.30086,885.71551 206.834,887.71326 208.78528,889.2464 211.10823,890.1756 213.57056,890.50079 216.03288,890.1756 218.30937,889.2464 "
     id="polygon3213"
     style="fill:#808080;stroke:#000000;stroke-width:1"
     transform="translate(-203,-838.95558)" />
  <polygon
     points="230.29579,861.51038 229.59891,861.78912 232.75813,861.18518 235.91734,861.78912 235.22046,861.51038 232.75813,861.18518 "
     id="polygon3215"
     style="fill:#808080;stroke:#000000;stroke-width:1"
     transform="translate(-203,-838.95558)" />
  <polygon
     points="228.0193,862.43957 226.02158,863.97272 224.48842,865.92395 224.16321,866.76025 226.02158,863.97272 228.76265,862.16077 "
     id="polygon3217"
     style="fill:#808080;stroke:#000000;stroke-width:1"
     transform="translate(-203,-838.95558)" />
  <polygon
     points="237.49695,862.43957 236.7536,862.16077 239.49469,863.97272 241.35304,866.76025 241.02783,865.92395 239.49469,863.97272 "
     id="polygon3219"
     style="fill:#808080;stroke:#000000;stroke-width:1"
     transform="translate(-203,-838.95558)" />
  <polygon
     points="239.49469,887.71326 241.02783,885.76196 241.95702,883.43903 242.28223,880.97668 242.32869,880.97668 242.32869,870.70923 241.95702,868.24695 241.67825,867.55005 242.32869,870.70923 241.58534,874.33307 239.49469,877.4458 236.38193,879.53644 232.75813,880.23334 229.13432,879.53644 226.02158,877.4458 223.93091,874.33307 223.23402,870.70923 223.838,867.55005 223.55925,868.24695 223.23402,870.70923 223.18758,870.70923 223.18758,880.97668 223.23402,880.97668 223.55925,883.43903 224.48842,885.71551 226.02158,887.71326 227.97286,889.2464 230.29579,890.1756 232.75813,890.50079 235.22046,890.1756 237.49695,889.2464 "
     id="polygon3221"
     style="fill:#808080;stroke:#000000;stroke-width:1"
     transform="translate(-203,-838.95558)" />
  <polygon
     points="211.10823,871.77783 210.41135,872.05658 213.57056,871.45258 216.72977,872.05658 216.03288,871.77783 213.57056,871.45258 "
     id="polygon3223"
     style="fill:#808080;stroke:#000000;stroke-width:1"
     transform="translate(-203,-838.95558)" />
  <polygon
     points="208.83174,872.70697 206.834,874.24011 205.30086,876.19141 204.97563,877.02765 206.834,874.24011 209.57509,872.42822 "
     id="polygon3225"
     style="fill:#808080;stroke:#000000;stroke-width:1"
     transform="translate(-203,-838.95558)" />
  <polygon
     points="218.30937,872.70697 217.56602,872.42822 220.30711,874.24011 222.16547,877.02765 221.84026,876.19141 220.30711,874.24011 "
     id="polygon3227"
     style="fill:#808080;stroke:#000000;stroke-width:1"
     transform="translate(-203,-838.95558)" />
  <polygon
     points="223.14111,880.97668 222.39777,884.60052 220.30711,887.71326 217.19435,889.80389 213.57056,890.50079 209.94675,889.80389 206.834,887.71326 204.74335,884.60052 204.04646,880.97668 204.65042,877.8175 204.37167,878.51434 204.04646,880.97668 204,880.97668 204,911.73254 204.04646,911.73254 204.74335,908.10876 206.834,904.99603 209.94675,902.90533 213.57056,902.20844 217.19435,902.90533 220.30711,904.99603 222.39777,908.10876 223.14111,911.73254 223.14111,880.97668 222.76944,878.51434 222.49069,877.8175 "
     id="polygon3229"
     style="fill:#808080;stroke:#000000;stroke-width:1"
     transform="translate(-203,-838.95558)" />
  <polygon
     points="204.65042,914.89179 204.04646,911.73254 204.37167,914.19488 "
     id="polygon3231"
     style="fill:#808080;stroke:#000000;stroke-width:1"
     transform="translate(-203,-838.95558)" />
  <polygon
     points="222.49069,914.89179 222.76944,914.19488 223.00174,912.383 "
     id="polygon3233"
     style="fill:#808080;stroke:#000000;stroke-width:1"
     transform="translate(-203,-838.95558)" />
  <polygon
     points="221.84026,916.51782 222.16547,915.68158 220.30711,918.46912 217.56602,920.28101 218.30937,920.00226 220.30711,918.46912 "
     id="polygon3235"
     style="fill:#808080;stroke:#000000;stroke-width:1"
     transform="translate(-203,-838.95558)" />
  <polygon
     points="205.30086,916.47137 206.834,918.46912 208.78528,920.00226 209.62154,920.32745 206.834,918.46912 205.0221,915.72803 "
     id="polygon3237"
     style="fill:#808080;stroke:#000000;stroke-width:1"
     transform="translate(-203,-838.95558)" />
  <polygon
     points="213.57056,921.25665 210.41135,920.65271 211.10823,920.93146 "
     id="polygon3239"
     style="fill:#808080;stroke:#000000;stroke-width:1"
     transform="translate(-203,-838.95558)" />
  <polygon
     points="213.57056,921.25665 216.03288,920.93146 216.72977,920.65271 "
     id="polygon3241"
     style="fill:#808080;stroke:#000000;stroke-width:1"
     transform="translate(-203,-838.95558)" />
  <polygon
     points="230.29579,871.77783 229.59891,872.05658 232.75813,871.45258 235.91734,872.05658 235.22046,871.77783 232.75813,871.45258 "
     id="polygon3243"
     style="fill:#808080;stroke:#000000;stroke-width:1"
     transform="translate(-203,-838.95558)" />
  <polygon
     points="228.0193,872.70697 226.02158,874.24011 224.48842,876.19141 224.16321,877.02765 226.02158,874.24011 228.76265,872.42822 "
     id="polygon3245"
     style="fill:#808080;stroke:#000000;stroke-width:1"
     transform="translate(-203,-838.95558)" />
  <polygon
     points="237.49695,872.70697 236.7536,872.42822 239.49469,874.24011 241.35304,877.02765 241.02783,876.19141 239.49469,874.24011 "
     id="polygon3247"
     style="fill:#808080;stroke:#000000;stroke-width:1"
     transform="translate(-203,-838.95558)" />
  <polygon
     points="223.93091,884.60052 223.23402,880.97668 223.838,877.8175 223.55925,878.51434 223.23402,880.97668 223.18758,880.97668 223.18758,891.24414 223.23402,891.24414 223.93091,887.62036 224.95302,886.08716 "
     id="polygon3249"
     style="fill:#808080;stroke:#000000;stroke-width:1"
     transform="translate(-203,-838.95558)" />
  <polygon
     points="241.67825,877.8175 242.32869,880.97668 241.58534,884.60052 240.56325,886.08716 241.58534,887.62036 242.32869,891.24414 242.32869,880.97668 241.95702,878.51434 "
     id="polygon3251"
     style="fill:#808080;stroke:#000000;stroke-width:1"
     transform="translate(-203,-838.95558)" />
  <polygon
     points="240.56325,886.08716 239.49469,884.50757 236.38193,882.41693 232.75813,881.72003 229.13432,882.41693 226.02158,884.50757 224.95302,886.08716 226.02158,887.71326 229.13432,889.80389 232.75813,890.50079 236.38193,889.80389 239.49469,887.71326 "
     id="polygon3253"
     style="fill:#808080;stroke:#000000;stroke-width:1"
     transform="translate(-203,-838.95558)" />
  <polygon
     points="223.838,894.40332 223.23402,891.24414 223.55925,893.70648 "
     id="polygon3255"
     style="fill:#808080;stroke:#000000;stroke-width:1"
     transform="translate(-203,-838.95558)" />
  <polygon
     points="241.67825,894.40332 241.95702,893.70648 242.1893,891.89459 "
     id="polygon3257"
     style="fill:#808080;stroke:#000000;stroke-width:1"
     transform="translate(-203,-838.95558)" />
  <polygon
     points="241.02783,896.02942 241.35304,895.19318 239.49469,897.98071 236.7536,899.7926 237.49695,899.51386 239.49469,897.98071 "
     id="polygon3259"
     style="fill:#808080;stroke:#000000;stroke-width:1"
     transform="translate(-203,-838.95558)" />
  <polygon
     points="224.48842,895.98297 226.02158,897.98071 227.97286,899.51386 228.80911,899.83905 226.02158,897.98071 224.20967,895.23962 "
     id="polygon3261"
     style="fill:#808080;stroke:#000000;stroke-width:1"
     transform="translate(-203,-838.95558)" />
  <polygon
     points="232.75813,900.76825 229.59891,900.16425 230.29579,900.44299 "
     id="polygon3263"
     style="fill:#808080;stroke:#000000;stroke-width:1"
     transform="translate(-203,-838.95558)" />
  <polygon
     points="232.75813,900.76825 235.22046,900.44299 235.91734,900.16425 "
     id="polygon3265"
     style="fill:#808080;stroke:#000000;stroke-width:1"
     transform="translate(-203,-838.95558)" />
  <polygon
     points="334.22461,913.12634 336.17587,912.29004 337.84842,910.9892 339.14926,909.31671 339.9855,907.36542 340.2178,905.27478 340.26428,905.27478 339.9855,903.18408 339.14926,901.23285 337.84842,899.5603 336.17587,898.25946 334.22461,897.42316 332.13394,897.19092 331.76227,897.23737 331.76227,897.19092 243.86183,900.16425 243.86183,900.21075 241.86409,900.4895 241.16721,900.76825 244.32642,900.16425 247.95023,900.86114 251.06297,902.95178 253.15363,906.06457 253.89697,909.68835 253.15363,913.31219 251.06297,916.42493 247.95023,918.51556 244.32642,919.21246 244.79102,919.16602 244.79102,919.21246 332.50561,913.35864 332.50561,913.31219 "
     id="polygon3267"
     style="fill:#808080;stroke:#000000;stroke-width:1"
     transform="translate(-203,-838.95558)" />
  <polygon
     points="239.5876,901.41864 237.58986,902.95178 236.05672,904.90308 235.73151,905.73932 237.58986,902.95178 240.33095,901.13989 "
     id="polygon3269"
     style="fill:#808080;stroke:#000000;stroke-width:1"
     transform="translate(-203,-838.95558)" />
  <polygon
     points="235.12753,907.22601 234.80232,909.68835 235.12753,912.1507 235.4063,912.84759 234.80232,909.68835 235.4063,906.52918 "
     id="polygon3271"
     style="fill:#808080;stroke:#000000;stroke-width:1"
     transform="translate(-203,-838.95558)" />
  <polygon
     points="236.05672,914.42719 237.58986,916.42493 239.54114,917.95807 240.37741,918.28326 237.58986,916.42493 235.77797,913.68384 "
     id="polygon3273"
     style="fill:#808080;stroke:#000000;stroke-width:1"
     transform="translate(-203,-838.95558)" />
  <polygon
     points="244.32642,919.21246 241.16721,918.60852 241.86409,918.88727 "
     id="polygon3275"
     style="fill:#808080;stroke:#000000;stroke-width:1"
     transform="translate(-203,-838.95558)" />
  <polygon
     points="333.10959,896.95862 335.06085,896.12231 336.7334,894.82147 338.03424,893.14893 338.87051,891.19769 339.10278,889.10699 339.14926,889.10699 338.87051,887.01636 338.03424,885.06506 336.7334,883.39258 335.06085,882.09174 333.10959,881.25543 331.01892,881.02313 330.92602,881.02313 330.92602,880.97668 242.88619,880.97668 242.88619,881.02313 240.56325,881.34839 239.86635,881.62714 243.02557,881.02313 246.64937,881.72003 249.76213,883.81067 251.85278,886.92346 252.59613,890.54724 251.85278,894.17108 249.76213,897.28381 246.64937,899.37445 243.02557,900.07135 239.86635,899.46741 240.56325,899.74616 243.02557,900.07135 243.16495,900.07135 243.16495,900.1178 331.11185,897.23737 331.11185,897.19092 "
     id="polygon3277"
     style="fill:#808080;stroke:#000000;stroke-width:1"
     transform="translate(-203,-838.95558)" />
  <polygon
     points="238.28674,882.27753 236.28902,883.81067 234.75586,885.76196 234.43065,886.59821 236.28902,883.81067 239.03009,881.99878 "
     id="polygon3279"
     style="fill:#808080;stroke:#000000;stroke-width:1"
     transform="translate(-203,-838.95558)" />
  <polygon
     points="233.82669,888.0849 233.50146,890.54724 233.82669,893.00958 234.10544,893.70648 233.50146,890.54724 234.10544,887.38806 "
     id="polygon3281"
     style="fill:#808080;stroke:#000000;stroke-width:1"
     transform="translate(-203,-838.95558)" />
  <polygon
     points="234.75586,895.28607 236.28902,897.28381 238.2403,898.81696 239.07655,899.14215 236.28902,897.28381 234.47711,894.54273 "
     id="polygon3283"
     style="fill:#808080;stroke:#000000;stroke-width:1"
     transform="translate(-203,-838.95558)" />
  <polygon
     points="339.52094,866.8996 341.2399,864.66956 342.35492,862.06787 342.58722,860.02368 342.72659,860.02368 342.58722,859.88428 342.68014,859.28033 342.72659,859.28033 342.35492,856.4928 341.2399,853.89111 339.52094,851.66107 337.29089,849.94208 334.68918,848.82709 334.27106,848.78058 334.17813,848.73413 332.08749,848.50183 335.15378,849.10583 337.80194,850.87128 339.56738,853.51941 340.2178,856.58569 339.56738,859.65204 337.80194,862.30017 335.15378,864.06561 332.08749,864.66956 329.02118,864.06561 326.37302,862.30017 324.60757,859.65204 324.00363,856.58569 324.60757,853.51941 326.37302,850.87128 329.02118,849.10583 332.08749,848.50183 331.90164,848.50183 329.1141,848.82709 326.51242,849.94208 324.28238,851.66107 322.56338,853.89111 321.44836,856.4928 321.21606,858.39764 321.07669,858.53699 321.21606,858.53699 321.12317,859.28033 321.44836,862.06787 322.56338,864.66956 324.28238,866.8996 326.51242,868.61859 329.1141,869.73364 331.90164,870.05884 334.68918,869.73364 337.29089,868.61859 "
     id="polygon3285"
     style="fill:#808080;stroke:#000000;stroke-width:1"
     transform="translate(-203,-838.95558)" />
  <polygon
     points="328.92828,864.99481 328.13846,865.32001 331.01892,864.76251 333.89938,865.32001 333.10959,864.99481 331.01892,864.76251 "
     id="polygon3287"
     style="fill:#808080;stroke:#000000;stroke-width:1"
     transform="translate(-203,-838.95558)" />
  <polygon
     points="326.97699,865.83105 325.30447,867.1319 324.00363,868.80444 323.67841,869.59424 325.30447,867.1319 327.76679,865.50586 "
     id="polygon3289"
     style="fill:#808080;stroke:#000000;stroke-width:1"
     transform="translate(-203,-838.95558)" />
  <polygon
     points="335.06085,865.83105 334.27106,865.50586 336.7334,867.1319 338.35947,869.59424 338.03424,868.80444 336.7334,867.1319 "
     id="polygon3291"
     style="fill:#808080;stroke:#000000;stroke-width:1"
     transform="translate(-203,-838.95558)" />
  <polygon
     points="338.12717,888.59595 339.84613,886.36597 340.96115,883.76422 341.19345,881.62714 341.33283,881.62714 341.2399,881.30188 341.28638,880.97668 341.33283,880.97668 340.96115,878.18915 339.84613,875.58746 339.66031,875.35516 339.14926,873.35742 339.05633,873.35742 338.49884,875.91266 336.7334,878.56085 334.08524,880.32629 331.01892,880.93024 327.95264,880.32629 325.30447,878.56085 323.53903,875.91266 322.93506,872.84637 323.49258,869.96588 323.16736,870.75574 322.98154,872.33533 322.88861,872.33533 322.05234,874.47241 321.16962,875.58746 320.0546,878.18915 319.86877,879.90814 319.68292,880.32629 319.8223,880.32629 319.7294,880.97668 320.0546,883.76422 321.16962,886.36597 322.88861,888.59595 325.11862,890.31494 327.72034,891.42999 330.50787,891.75519 333.29541,891.42999 335.89713,890.31494 "
     id="polygon3293"
     style="fill:#808080;stroke:#000000;stroke-width:1"
     transform="translate(-203,-838.95558)" />
  <polygon
     points="339.14926,872.84637 338.87051,870.75574 338.54529,870.01239 "
     id="polygon3295"
     style="fill:#808080;stroke:#000000;stroke-width:1"
     transform="translate(-203,-838.95558)" />
  <polygon
     points="476.85376,870.94153 478.06171,869.31549 478.8515,867.45715 479.0838,865.45941 479.13025,865.45941 478.8515,863.46167 478.06171,861.60327 476.85376,859.97723 475.22769,858.76929 473.36932,857.97949 471.69681,857.79364 471.69681,857.74719 332.36624,848.50183 332.36624,848.54828 331.90164,848.50183 329.1141,848.82709 328.23138,849.19873 331.90164,848.50183 336.0365,849.29163 339.52094,851.66107 341.89035,855.14551 342.72659,859.28033 341.89035,863.41516 339.52094,866.8996 336.0365,869.26904 331.90164,870.05884 328.23138,869.36194 329.1141,869.73364 331.43707,870.01239 331.43707,870.05884 471.04639,873.17157 471.04639,873.12512 471.37158,873.17157 473.36932,872.93927 475.22769,872.14948 "
     id="polygon3297"
     style="fill:#808080;stroke:#000000;stroke-width:1"
     transform="translate(-203,-838.95558)" />
  <polygon
     points="326.51242,849.94208 324.28238,851.66107 322.56338,853.89111 322.23819,854.68091 324.28238,851.66107 327.30222,849.61688 "
     id="polygon3299"
     style="fill:#808080;stroke:#000000;stroke-width:1"
     transform="translate(-203,-838.95558)" />
  <polygon
     points="321.44836,856.4928 321.12317,859.28033 321.44836,862.06787 321.82004,862.95062 321.12317,859.28033 321.82004,855.61005 "
     id="polygon3301"
     style="fill:#808080;stroke:#000000;stroke-width:1"
     transform="translate(-203,-838.95558)" />
  <polygon
     points="322.56338,864.66956 324.28238,866.8996 326.51242,868.61859 327.30222,868.94379 324.28238,866.8996 322.23819,863.87976 "
     id="polygon3303"
     style="fill:#808080;stroke:#000000;stroke-width:1"
     transform="translate(-203,-838.95558)" />
  <polygon
     points="334.73566,913.03339 337.33734,911.9184 339.56738,910.1994 341.28638,907.96936 342.4014,905.36768 342.72659,902.58014 342.77307,902.58014 342.68014,901.92969 342.77307,901.83679 342.68014,901.83679 342.4014,899.7926 341.28638,897.19092 339.56738,894.96088 337.33734,893.24188 334.73566,892.12683 331.94812,891.80164 329.16058,892.12683 326.55887,893.24188 324.32883,894.96088 322.60986,897.19092 321.49484,899.7926 321.16962,902.58014 321.26254,903.32349 321.12317,903.32349 321.26254,903.46283 321.49484,905.36768 322.60986,907.96936 324.32883,910.1994 326.55887,911.9184 329.16058,913.03339 331.94812,913.35864 332.13394,913.35864 334.22461,913.12634 334.31754,913.07989 "
     id="polygon3305"
     style="fill:#808080;stroke:#000000;stroke-width:1"
     transform="translate(-203,-838.95558)" />
  <polygon
     points="324.65405,908.34106 324.05008,905.27478 324.65405,902.20844 326.41949,899.5603 329.06766,897.79486 332.13394,897.19092 335.20026,897.79486 337.84842,899.5603 339.61386,902.20844 340.26428,905.27478 339.61386,908.34106 337.84842,910.9892 335.20026,912.75464 332.13394,913.35864 329.06766,912.75464 326.41949,910.9892 "
     id="polygon3307"
     style="fill:#808080;stroke:#000000;stroke-width:1"
     transform="translate(-203,-838.95558)" />
  <polygon
     points="473.36932,903.88098 475.22769,903.09119 476.85376,901.88324 478.06171,900.2572 478.8515,898.3988 479.0838,896.40106 479.13025,896.40106 478.8515,894.40332 478.06171,892.54498 476.85376,890.91895 475.22769,889.711 473.36932,888.9212 471.37158,888.6889 471.04639,888.73535 471.04639,888.6889 331.48352,891.80164 331.48352,891.84808 329.16058,892.12683 328.27786,892.49853 331.94812,891.80164 336.08298,892.59143 339.56738,894.96088 341.9368,898.44531 342.77307,902.58014 341.9368,906.71497 339.56738,910.1994 336.08298,912.56885 331.94812,913.35864 332.41269,913.31219 332.41269,913.35864 471.69681,904.11328 471.69681,904.06683 "
     id="polygon3309"
     style="fill:#808080;stroke:#000000;stroke-width:1"
     transform="translate(-203,-838.95558)" />
  <polygon
     points="326.55887,893.24188 324.32883,894.96088 322.60986,897.19092 322.28464,897.98071 324.32883,894.96088 327.34866,892.91669 "
     id="polygon3311"
     style="fill:#808080;stroke:#000000;stroke-width:1"
     transform="translate(-203,-838.95558)" />
  <polygon
     points="321.49484,899.7926 321.16962,902.58014 321.49484,905.36768 321.86652,906.25037 321.16962,902.58014 321.86652,898.90985 "
     id="polygon3313"
     style="fill:#808080;stroke:#000000;stroke-width:1"
     transform="translate(-203,-838.95558)" />
  <polygon
     points="322.60986,907.96936 324.32883,910.1994 326.55887,911.9184 327.34866,912.24359 324.32883,910.1994 322.28464,907.17957 "
     id="polygon3315"
     style="fill:#808080;stroke:#000000;stroke-width:1"
     transform="translate(-203,-838.95558)" />
  <polygon
     points="331.94812,913.35864 328.27786,912.66174 329.16058,913.03339 "
     id="polygon3317"
     style="fill:#808080;stroke:#000000;stroke-width:1"
     transform="translate(-203,-838.95558)" />
  <polygon
     points="472.34723,888.4566 474.2056,887.66681 475.83166,886.45886 477.03958,884.83276 477.82941,882.97443 478.06171,880.97668 478.10815,880.97668 477.82941,878.97894 477.03958,877.1206 475.83166,875.49451 474.2056,874.28662 472.34723,873.49676 470.34949,873.26453 470.34949,873.21802 330.50787,870.15173 330.50787,870.19818 327.72034,870.52344 326.83762,870.89508 330.50787,870.19818 334.64273,870.98804 338.12717,873.35742 340.49658,876.84186 341.33283,880.97668 340.49658,885.11157 338.12717,888.59595 334.64273,890.96539 330.50787,891.75519 326.83762,891.05829 327.72034,891.42999 330.50787,891.75519 330.50787,891.80164 470.34949,888.73535 470.34949,888.6889 "
     id="polygon3319"
     style="fill:#808080;stroke:#000000;stroke-width:1"
     transform="translate(-203,-838.95558)" />
  <polygon
     points="325.11862,871.63843 322.88861,873.35742 321.16962,875.58746 320.84442,876.37726 322.88861,873.35742 325.90845,871.31323 "
     id="polygon3321"
     style="fill:#808080;stroke:#000000;stroke-width:1"
     transform="translate(-203,-838.95558)" />
  <polygon
     points="320.0546,878.18915 319.7294,880.97668 320.0546,883.76422 320.42627,884.64697 319.7294,880.97668 320.42627,877.30646 "
     id="polygon3323"
     style="fill:#808080;stroke:#000000;stroke-width:1"
     transform="translate(-203,-838.95558)" />
  <polygon
     points="321.16962,886.36597 322.88861,888.59595 325.11862,890.31494 325.90845,890.6402 322.88861,888.59595 320.84442,885.57611 "
     id="polygon3325"
     style="fill:#808080;stroke:#000000;stroke-width:1"
     transform="translate(-203,-838.95558)" />
  <polygon
     points="612.46759,894.58917 614.14014,893.89227 615.62683,892.82373 616.69537,891.38348 617.39227,889.66455 617.62457,887.89911 617.67102,887.89911 617.39227,886.13367 616.69537,884.41467 615.62683,882.97443 614.14014,881.90588 612.46759,881.20898 610.70215,880.97668 610.51636,881.02313 610.51636,880.97668 471.13931,880.93024 470.76764,880.93024 470.76764,880.97668 468.16592,881.30188 465.33194,882.46338 462.91605,884.32172 461.05771,886.73761 459.89621,889.57159 459.52454,892.54498 459.89621,895.51837 461.05771,898.35236 462.91605,900.76825 465.33194,902.62659 468.16592,903.78809 471.13931,904.15973 471.51099,904.11328 471.51099,904.15973 610.888,894.82147 610.888,894.77502 "
     id="polygon3327"
     style="fill:#808080;stroke:#000000;stroke-width:1"
     transform="translate(-203,-838.95558)" />
  <polygon
     points="468.16592,881.30188 467.14383,881.72003 471.13931,880.93024 475.13477,881.72003 474.11267,881.30188 471.13931,880.93024 "
     id="polygon3329"
     style="fill:#808080;stroke:#000000;stroke-width:1"
     transform="translate(-203,-838.95558)" />
  <polygon
     points="465.33194,882.46338 462.91605,884.32172 461.05771,886.73761 460.63956,887.71326 462.91605,884.32172 466.30756,882.04523 "
     id="polygon3331"
     style="fill:#808080;stroke:#000000;stroke-width:1"
     transform="translate(-203,-838.95558)" />
  <polygon
     points="476.94669,882.46338 475.97104,882.04523 479.36255,884.32172 481.63904,887.71326 481.22092,886.73761 479.36255,884.32172 "
     id="polygon3333"
     style="fill:#808080;stroke:#000000;stroke-width:1"
     transform="translate(-203,-838.95558)" />
  <polygon
     points="474.34497,903.50934 474.29852,903.55579 471.37158,904.11328 474.34497,903.50934 476.85376,901.88324 478.52628,899.328 479.13025,896.40106 478.52628,893.47418 476.85376,890.91895 474.29852,889.2464 471.37158,888.6889 468.44467,889.2464 465.88943,890.91895 464.21692,893.47418 463.65939,896.40106 464.21692,899.328 465.88943,901.88324 468.44467,903.55579 471.37158,904.11328 471.13931,904.15973 474.11267,903.78809 475.13477,903.36993 "
     id="polygon3335"
     style="fill:#808080;stroke:#000000;stroke-width:1"
     transform="translate(-203,-838.95558)" />
  <polygon
     points="459.89621,889.57159 459.52454,892.54498 459.61746,893.24188 459.47809,893.24188 459.61746,893.38123 459.89621,895.51837 460.31436,896.54047 459.52454,892.54498 460.26788,888.6889 "
     id="polygon3337"
     style="fill:#808080;stroke:#000000;stroke-width:1"
     transform="translate(-203,-838.95558)" />
  <polygon
     points="482.70758,891.84808 482.38238,889.57159 482.01071,888.6889 482.80051,892.54498 482.70758,891.94104 482.80051,891.84808 "
     id="polygon3339"
     style="fill:#808080;stroke:#000000;stroke-width:1"
     transform="translate(-203,-838.95558)" />
  <polygon
     points="481.96426,896.54047 482.38238,895.51837 482.66113,893.24188 "
     id="polygon3341"
     style="fill:#808080;stroke:#000000;stroke-width:1"
     transform="translate(-203,-838.95558)" />
  <polygon
     points="461.05771,898.35236 462.91605,900.76825 465.33194,902.62659 466.30756,903.04474 462.91605,900.76825 460.63956,897.37671 "
     id="polygon3343"
     style="fill:#808080;stroke:#000000;stroke-width:1"
     transform="translate(-203,-838.95558)" />
  <polygon
     points="481.22092,898.35236 481.63904,897.37671 479.36255,900.76825 475.97104,903.04474 476.94669,902.62659 479.36255,900.76825 "
     id="polygon3345"
     style="fill:#808080;stroke:#000000;stroke-width:1"
     transform="translate(-203,-838.95558)" />
  <polygon
     points="471.13931,904.15973 467.14383,903.36993 468.16592,903.78809 "
     id="polygon3347"
     style="fill:#808080;stroke:#000000;stroke-width:1"
     transform="translate(-203,-838.95558)" />
  <polygon
     points="610.6557,880.88379 612.42114,880.65149 614.09369,879.95459 615.58038,878.88605 616.64893,877.4458 617.34582,875.72681 617.57812,873.96137 617.62457,873.96137 617.34582,872.19592 616.64893,870.47693 615.58038,869.03674 614.09369,867.9682 612.42114,867.2713 610.84155,867.08545 610.84155,867.039 471.46451,857.74719 471.46451,857.79364 471.09283,857.74719 468.11948,858.11883 465.28546,859.28033 462.8696,861.13867 461.01123,863.55457 459.84976,866.38855 459.47809,869.36194 459.84976,872.33533 461.01123,875.16931 462.8696,877.5852 465.28546,879.44354 468.11948,880.60504 470.72116,880.93024 470.72116,880.97668 471.09283,880.97668 610.46985,880.88379 610.46985,880.83734 "
     id="polygon3349"
     style="fill:#808080;stroke:#000000;stroke-width:1"
     transform="translate(-203,-838.95558)" />
  <polygon
     points="478.52628,868.38629 479.13025,865.45941 478.52628,862.53247 476.85376,859.97723 474.48434,858.39764 471.23221,857.79364 471.37158,857.74719 471.09283,857.74719 468.11948,858.11883 467.09738,858.53699 471.09283,857.74719 471.23221,857.79364 468.44467,858.30469 465.88943,859.97723 464.21692,862.53247 463.65939,865.45941 464.21692,868.38629 465.88943,870.94153 468.44467,872.61407 471.37158,873.17157 474.29852,872.61407 476.85376,870.94153 "
     id="polygon3351"
     style="fill:#808080;stroke:#000000;stroke-width:1"
     transform="translate(-203,-838.95558)" />
  <polygon
     points="473.36932,857.97949 471.37158,857.74719 474.29852,858.30469 474.48434,858.39764 475.08832,858.53699 474.06622,858.11883 473.55518,858.07239 "
     id="polygon3353"
     style="fill:#808080;stroke:#000000;stroke-width:1"
     transform="translate(-203,-838.95558)" />
  <polygon
     points="465.28546,859.28033 462.8696,861.13867 461.01123,863.55457 460.59311,864.53021 462.8696,861.13867 466.26111,858.86218 "
     id="polygon3355"
     style="fill:#808080;stroke:#000000;stroke-width:1"
     transform="translate(-203,-838.95558)" />
  <polygon
     points="476.90021,859.28033 475.92459,858.86218 479.3161,861.13867 481.59259,864.53021 481.17444,863.55457 479.3161,861.13867 "
     id="polygon3357"
     style="fill:#808080;stroke:#000000;stroke-width:1"
     transform="translate(-203,-838.95558)" />
  <polygon
     points="459.84976,866.38855 459.61746,868.43274 459.43164,868.57214 459.57101,868.57214 459.47809,869.36194 459.84976,872.33533 460.26788,873.35742 459.47809,869.36194 460.26788,865.36645 "
     id="polygon3359"
     style="fill:#808080;stroke:#000000;stroke-width:1"
     transform="translate(-203,-838.95558)" />
  <polygon
     points="482.75406,869.36194 482.33594,866.38855 481.96426,865.45941 "
     id="polygon3361"
     style="fill:#808080;stroke:#000000;stroke-width:1"
     transform="translate(-203,-838.95558)" />
  <polygon
     points="482.75406,870.15173 482.61469,870.01239 481.91779,873.35742 482.33594,872.33533 482.61469,870.15173 "
     id="polygon3363"
     style="fill:#808080;stroke:#000000;stroke-width:1"
     transform="translate(-203,-838.95558)" />
  <polygon
     points="461.01123,875.16931 462.8696,877.5852 465.28546,879.44354 466.26111,879.86169 462.8696,877.5852 460.59311,874.19367 "
     id="polygon3365"
     style="fill:#808080;stroke:#000000;stroke-width:1"
     transform="translate(-203,-838.95558)" />
  <polygon
     points="481.17444,875.16931 481.59259,874.19367 479.3161,877.5852 475.92459,879.86169 476.90021,879.44354 479.3161,877.5852 "
     id="polygon3367"
     style="fill:#808080;stroke:#000000;stroke-width:1"
     transform="translate(-203,-838.95558)" />
  <polygon
     points="471.09283,880.97668 467.09738,880.18689 468.11948,880.60504 "
     id="polygon3369"
     style="fill:#808080;stroke:#000000;stroke-width:1"
     transform="translate(-203,-838.95558)" />
  <polygon
     points="471.09283,880.97668 474.06622,880.60504 475.08832,880.18689 "
     id="polygon3371"
     style="fill:#808080;stroke:#000000;stroke-width:1"
     transform="translate(-203,-838.95558)" />
  <polygon
     points="620.08691,890.82599 622.3169,887.94556 623.71069,884.55402 624.08234,881.76648 624.22174,881.76648 624.08234,881.62714 624.17529,880.97668 624.22174,880.97668 623.71069,877.39935 622.3169,874.00787 620.08691,871.12738 617.20642,868.89734 613.81494,867.5036 612.60699,867.3642 612.42114,867.2713 610.6557,867.039 613.30389,867.55005 615.58038,869.03674 617.06708,871.31323 617.62457,873.96137 617.06708,876.60956 615.58038,878.88605 613.30389,880.37274 610.6557,880.88379 608.00757,880.37274 605.73108,878.88605 604.24438,876.60956 603.73334,873.96137 604.24438,871.31323 605.73108,869.03674 608.00757,867.55005 610.4234,867.08545 610.23755,867.039 606.66022,867.5036 603.26874,868.89734 600.38824,871.12738 598.1582,874.00787 596.76446,877.39935 596.43927,880.04749 596.25342,880.18689 596.39276,880.18689 596.29987,880.97668 596.76446,884.55402 598.1582,887.94556 600.38824,890.82599 603.26874,893.05603 606.66022,894.44983 610.23755,894.91437 613.81494,894.44983 617.20642,893.05603 "
     id="polygon3373"
     style="fill:#808080;stroke:#000000;stroke-width:1"
     transform="translate(-203,-838.95558)" />
  <polygon
     points="751.28711,885.48321 752.40216,885.01862 753.37781,884.27527 754.12116,883.29962 754.58569,882.18463 754.7251,880.97668 754.77154,880.97668 754.58569,879.76874 754.12116,878.65375 753.37781,877.6781 752.40216,876.93475 751.28711,876.47015 750.07916,876.33081 750.07916,876.28436 610.23755,866.99255 610.23755,867.039 606.66022,867.5036 605.63812,867.92169 610.23755,867.039 615.58038,868.0611 620.08691,871.12738 623.1532,875.63391 624.22174,880.97668 623.1532,886.31946 620.08691,890.82599 615.58038,893.89227 610.23755,894.91437 605.63812,894.03168 606.66022,894.44983 610.23755,894.91437 610.23755,894.96088 750.07916,885.66907 750.07916,885.62262 "
     id="polygon3375"
     style="fill:#808080;stroke:#000000;stroke-width:1"
     transform="translate(-203,-838.95558)" />
  <polygon
     points="603.26874,868.89734 600.38824,871.12738 598.1582,874.00787 597.74011,875.02997 600.38824,871.12738 604.29083,868.47925 "
     id="polygon3377"
     style="fill:#808080;stroke:#000000;stroke-width:1"
     transform="translate(-203,-838.95558)" />
  <polygon
     points="596.76446,877.39935 596.29987,880.97668 596.76446,884.55402 597.18262,885.62262 596.29987,880.97668 597.18262,876.37726 "
     id="polygon3379"
     style="fill:#808080;stroke:#000000;stroke-width:1"
     transform="translate(-203,-838.95558)" />
  <polygon
     points="598.1582,887.94556 600.38824,890.82599 603.26874,893.05603 604.29083,893.47418 600.38824,890.82599 597.74011,886.92346 "
     id="polygon3381"
     style="fill:#808080;stroke:#000000;stroke-width:1"
     transform="translate(-203,-838.95558)" />
  <line
     x1="1"
     y1="83.044418"
     x2="617"
     y2="42.021107"
     style="stroke:#ff0000;stroke-width:2"
     id="line3383" />
  <line
     x1="617"
     y1="42.021107"
     x2="1"
     y2="0.9977898"
     style="stroke:#ff0000;stroke-width:2"
     id="line3385" />
  <line
     x1="1"
     y1="0.9977898"
     x2="1"
     y2="83.044418"
     style="stroke:#ff0000;stroke-width:2"
     id="line3387" />
  <line
     x1="41.233505"
     y1="13.262987"
     x2="10.570557"
     y2="11.265245"
     style="stroke:#0000ff;stroke-width:2"
     id="line3389" />
  <line
     x1="10.570557"
     y1="11.265245"
     x2="41.233505"
     y2="13.262987"
     style="stroke:#0000ff;stroke-width:2"
     id="line3391" />
  <line
     x1="39.979111"
     y1="32.45055"
     x2="29.758133"
     y2="31.753649"
     style="stroke:#0000ff;stroke-width:2"
     id="line3393" />
  <line
     x1="29.758133"
     y1="31.753649"
     x2="39.979111"
     y2="32.45055"
     style="stroke:#0000ff;stroke-width:2"
     id="line3395" />
  <line
     x1="10.570557"
     y1="72.776962"
     x2="41.326416"
     y2="70.732773"
     style="stroke:#0000ff;stroke-width:2"
     id="line3397" />
  <line
     x1="41.326416"
     y1="70.732773"
     x2="10.570557"
     y2="72.776962"
     style="stroke:#0000ff;stroke-width:2"
     id="line3399" />
  <line
     x1="29.758133"
     y1="52.288563"
     x2="40.025574"
     y2="51.591663"
     style="stroke:#0000ff;stroke-width:2"
     id="line3401" />
  <line
     x1="40.025574"
     y1="51.591663"
     x2="29.758133"
     y2="52.288563"
     style="stroke:#0000ff;stroke-width:2"
     id="line3403" />
  <line
     x1="129.08749"
     y1="17.630114"
     x2="41.233505"
     y2="13.262987"
     style="stroke:#0000ff;stroke-width:2"
     id="line3405" />
  <line
     x1="41.233505"
     y1="13.262987"
     x2="129.08749"
     y2="17.630114"
     style="stroke:#0000ff;stroke-width:2"
     id="line3407" />
  <line
     x1="128.01892"
     y1="33.890797"
     x2="39.979111"
     y2="32.45055"
     style="stroke:#0000ff;stroke-width:2"
     id="line3409" />
  <line
     x1="10.570557"
     y1="11.265245"
     x2="10.570557"
     y2="42.021107"
     style="stroke:#0000ff;stroke-width:2"
     id="line3413" />
  <line
     x1="10.570557"
     y1="42.021107"
     x2="10.570557"
     y2="11.265245"
     style="stroke:#0000ff;stroke-width:2"
     id="line3415" />
  <line
     x1="29.758133"
     y1="31.753649"
     x2="29.758133"
     y2="42.021107"
     style="stroke:#0000ff;stroke-width:2"
     id="line3417" />
  <line
     x1="29.758133"
     y1="42.021107"
     x2="29.758133"
     y2="31.753649"
     style="stroke:#0000ff;stroke-width:2"
     id="line3419" />
  <line
     x1="10.570557"
     y1="42.021107"
     x2="10.570557"
     y2="72.776962"
     style="stroke:#0000ff;stroke-width:2"
     id="line3421" />
  <line
     x1="10.570557"
     y1="72.776962"
     x2="10.570557"
     y2="42.021107"
     style="stroke:#0000ff;stroke-width:2"
     id="line3423" />
  <line
     x1="29.758133"
     y1="42.021107"
     x2="29.758133"
     y2="52.288563"
     style="stroke:#0000ff;stroke-width:2"
     id="line3425" />
  <line
     x1="29.758133"
     y1="52.288563"
     x2="29.758133"
     y2="42.021107"
     style="stroke:#0000ff;stroke-width:2"
     id="line3427" />
  <line
     x1="41.326416"
     y1="70.732773"
     x2="129.13394"
     y2="66.319199"
     style="stroke:#0000ff;stroke-width:2"
     id="line3429" />
  <line
     x1="129.13394"
     y1="66.319199"
     x2="41.326416"
     y2="70.732773"
     style="stroke:#0000ff;stroke-width:2"
     id="line3431" />
  <line
     x1="40.025574"
     y1="51.591663"
     x2="128.01892"
     y2="50.151417"
     style="stroke:#0000ff;stroke-width:2"
     id="line3433" />
  <line
     x1="128.01892"
     y1="50.151417"
     x2="40.025574"
     y2="51.591663"
     style="stroke:#0000ff;stroke-width:2"
     id="line3435" />
  <line
     x1="268.37158"
     y1="26.503832"
     x2="128.90164"
     y2="20.324755"
     style="stroke:#0000ff;stroke-width:2"
     id="line3445" />
  <line
     x1="128.94812"
     y1="63.624561"
     x2="268.37158"
     y2="57.445484"
     style="stroke:#0000ff;stroke-width:2"
     id="line3453" />
  <line
     x1="268.37158"
     y1="57.445484"
     x2="128.94812"
     y2="63.624561"
     style="stroke:#0000ff;stroke-width:2"
     id="line3455" />
  <line
     x1="127.50787"
     y1="42.021107"
     x2="267.34949"
     y2="42.021107"
     style="stroke:#0000ff;stroke-width:2"
     id="line3457" />
  <line
     x1="267.34949"
     y1="42.021107"
     x2="127.50787"
     y2="42.021107"
     style="stroke:#0000ff;stroke-width:2"
     id="line3459" />
  <line
     x1="268.13931"
     y1="53.589405"
     x2="407.70215"
     y2="48.943531"
     style="stroke:#0000ff;stroke-width:2"
     id="line3461" />
  <line
     x1="407.70215"
     y1="48.943531"
     x2="268.13931"
     y2="53.589405"
     style="stroke:#0000ff;stroke-width:2"
     id="line3463" />
  <line
     x1="407.6557"
     y1="35.005787"
     x2="268.09283"
     y2="30.406359"
     style="stroke:#0000ff;stroke-width:2"
     id="line3469" />
  <line
     x1="268.09283"
     y1="30.406359"
     x2="407.6557"
     y2="35.005787"
     style="stroke:#0000ff;stroke-width:2"
     id="line3471" />
  <line
     x1="407.23755"
     y1="42.021107"
     x2="547.07916"
     y2="42.021107"
     style="stroke:#0000ff;stroke-width:2"
     id="line3481" />
  <line
     x1="547.07916"
     y1="42.021107"
     x2="407.23755"
     y2="42.021107"
     style="stroke:#0000ff;stroke-width:2"
     id="line3483" />
  <line
     x1="547.07916"
     y1="42.021107"
     x2="547.07916"
     y2="42.021107"
     style="stroke:#0000ff;stroke-width:2"
     id="line3485" />
  <line
     x1="547.07916"
     y1="42.021107"
     x2="547.07916"
     y2="42.021107"
     style="stroke:#0000ff;stroke-width:2"
     id="line3487" />
  <line
     x1="547.07916"
     y1="42.021107"
     x2="547.07916"
     y2="42.021107"
     style="stroke:#0000ff;stroke-width:2"
     id="line3489" />
  <line
     x1="547.07916"
     y1="42.021107"
     x2="547.07916"
     y2="42.021107"
     style="stroke:#0000ff;stroke-width:2"
     id="line3491" />
</svg>
