<?xml version="1.0" encoding="UTF-8" standalone="no"?>
<svg
   xmlns:dc="http://purl.org/dc/elements/1.1/"
   xmlns:cc="http://creativecommons.org/ns#"
   xmlns:rdf="http://www.w3.org/1999/02/22-rdf-syntax-ns#"
   xmlns:svg="http://www.w3.org/2000/svg"
   xmlns="http://www.w3.org/2000/svg"
   xmlns:sodipodi="http://sodipodi.sourceforge.net/DTD/sodipodi-0.dtd"
   xmlns:inkscape="http://www.inkscape.org/namespaces/inkscape"
   version="1.1"
   id="svg2134"
   sodipodi:docname="wedge_distributed_generated.svg"
   width="617.06647"
   height="84.042213"
   inkscape:version="0.92.3 (2405546, 2018-03-11)">
  <metadata
     id="metadata2140">
    <rdf:RDF>
      <cc:Work
         rdf:about="">
        <dc:format>image/svg+xml</dc:format>
        <dc:type
           rdf:resource="http://purl.org/dc/dcmitype/StillImage" />
        <dc:title></dc:title>
      </cc:Work>
    </rdf:RDF>
  </metadata>
  <defs
     id="defs2138" />
  <sodipodi:namedview
     pagecolor="#ffffff"
     bordercolor="#666666"
     borderopacity="1"
     objecttolerance="10"
     gridtolerance="10"
     guidetolerance="10"
     inkscape:pageopacity="0"
     inkscape:pageshadow="2"
     inkscape:window-width="1920"
     inkscape:window-height="1145"
     id="namedview2136"
     showgrid="false"
     fit-margin-top="0"
     fit-margin-left="0"
     fit-margin-right="0"
     fit-margin-bottom="0"
     inkscape:zoom="1.668772"
     inkscape:cx="360.05503"
     inkscape:cy="-65.444667"
     inkscape:window-x="0"
     inkscape:window-y="27"
     inkscape:window-maximized="1"
     inkscape:current-layer="svg2134" />
  <polygon
     points="250.97006,858.95514 252.5032,857.00384 253.43239,854.68091 253.7576,852.21857 253.80406,852.21857 253.43239,849.75623 252.5032,847.43329 250.97006,845.48199 248.97232,843.94885 246.69583,843.01971 244.83746,842.78742 244.83746,842.69446 214.17453,840.69672 214.17453,840.78967 213.57056,840.69672 211.10823,841.02197 208.83174,841.95111 206.834,843.48425 205.30086,845.43555 204.37167,847.75848 204.04646,850.22082 204.37167,852.68317 205.30086,854.95966 206.834,856.9574 208.78528,858.49054 211.10823,859.41974 212.96658,859.65204 212.96658,859.74493 243.62953,861.74268 243.62953,861.64972 244.23351,861.74268 246.69583,861.41748 248.97232,860.48828 "
     id="polygon1746"
     style="fill:#808080;stroke:#000000;stroke-width:1"
     transform="translate(-203,-838.95558)" />
  <polygon
     points="245.44144,880.60504 247.71793,879.67584 249.71567,878.1427 251.24881,876.19141 252.17799,873.86847 252.5032,871.40613 252.54967,871.40613 252.17799,868.94379 251.24881,866.62085 249.71567,864.66956 247.71793,863.13641 245.44144,862.20727 243.62953,861.97498 243.62953,861.83557 233.40855,861.13867 233.40855,861.27808 232.75813,861.18518 230.29579,861.51038 228.0193,862.43957 226.02158,863.97272 224.48842,865.92395 223.55925,868.24695 223.23402,870.70923 223.55925,873.17157 224.48842,875.44806 226.02158,877.4458 227.97286,878.97894 230.29579,879.90814 232.1077,880.14044 232.1077,880.27978 242.32869,880.97668 242.32869,880.83734 242.97911,880.93024 "
     id="polygon1748"
     style="fill:#808080;stroke:#000000;stroke-width:1"
     transform="translate(-203,-838.95558)" />
  <polygon
     points="246.78874,918.88727 249.06523,917.95807 251.06297,916.42493 252.59613,914.47363 253.5253,912.1507 253.85051,909.68835 253.89697,909.68835 253.5253,907.22601 252.59613,904.90308 251.06297,902.95178 249.06523,901.41864 246.78874,900.4895 244.32642,900.16425 243.72246,900.2572 243.72246,900.16425 212.96658,902.20844 212.96658,902.30139 211.10823,902.53369 208.83174,903.46283 206.834,904.99603 205.30086,906.94727 204.37167,909.2702 204.04646,911.73254 204.37167,914.19488 205.30086,916.47137 206.834,918.46912 208.78528,920.00226 211.10823,920.93146 213.57056,921.25665 214.17453,921.16376 214.17453,921.25665 244.93039,919.21246 244.93039,919.11957 "
     id="polygon1750"
     style="fill:#808080;stroke:#000000;stroke-width:1"
     transform="translate(-203,-838.95558)" />
  <polygon
     points="245.4879,899.74616 247.76439,898.81696 249.76213,897.28381 251.29527,895.33252 252.22446,893.00958 252.54967,890.54724 252.59613,890.54724 252.22446,888.0849 251.29527,885.76196 249.76213,883.81067 247.76439,882.27753 245.4879,881.34839 243.02557,881.02313 242.4216,881.11609 242.4216,880.97668 232.15416,881.67358 232.15416,881.81293 230.29579,882.04523 228.0193,882.97443 226.02158,884.50757 224.48842,886.45886 223.55925,888.7818 223.23402,891.24414 223.55925,893.70648 224.48842,895.98297 226.02158,897.98071 227.97286,899.51386 230.29579,900.44299 232.75813,900.76825 233.36209,900.67529 233.36209,900.8147 243.62953,900.1178 243.62953,899.97846 "
     id="polygon1752"
     style="fill:#808080;stroke:#000000;stroke-width:1"
     transform="translate(-203,-838.95558)" />
  <polygon
     points="328.64954,861.88202 329.99683,860.20953 330.78662,858.21179 331.0654,856.07465 331.11185,856.07465 330.78662,853.93756 329.99683,851.93982 328.64954,850.26727 326.93054,848.91998 324.97925,848.13019 323.21381,847.89789 323.21381,847.85144 244.69809,842.69446 244.69809,842.74091 244.23351,842.69446 241.77118,843.01971 241.0743,843.29846 244.23351,842.69446 247.8573,843.39136 250.97006,845.48199 253.06071,848.59479 253.80406,852.21857 253.06071,855.84235 250.97006,858.95514 247.8573,861.04578 244.23351,861.74268 241.0743,861.13867 241.77118,861.41748 243.76891,861.69623 243.76891,861.74268 322.47046,864.29791 322.47046,864.25147 322.84213,864.29791 324.97925,864.01917 326.93054,863.22937 "
     id="polygon1754"
     style="fill:#808080;stroke:#000000;stroke-width:1"
     transform="translate(-203,-838.95558)" />
  <polygon
     points="239.49469,843.94885 237.49695,845.48199 235.96379,847.43329 235.63858,848.26953 237.49695,845.48199 240.23802,843.67011 "
     id="polygon1756"
     style="fill:#808080;stroke:#000000;stroke-width:1"
     transform="translate(-203,-838.95558)" />
  <polygon
     points="235.03462,849.75623 234.70941,852.21857 235.03462,854.68091 235.31337,855.37781 234.70941,852.21857 235.31337,849.05933 "
     id="polygon1758"
     style="fill:#808080;stroke:#000000;stroke-width:1"
     transform="translate(-203,-838.95558)" />
  <polygon
     points="235.96379,856.9574 237.49695,858.95514 239.44823,860.48828 240.28448,860.81348 237.49695,858.95514 235.68504,856.21405 "
     id="polygon1760"
     style="fill:#808080;stroke:#000000;stroke-width:1"
     transform="translate(-203,-838.95558)" />
  <polygon
     points="323.86426,880.65149 325.81552,879.86169 327.53451,878.51434 328.8818,876.84186 329.67163,874.84412 329.95038,872.70697 329.99683,872.70697 329.67163,870.56988 328.8818,868.57214 327.53451,866.8996 325.81552,865.55231 323.86426,864.76251 321.82004,864.48376 321.82004,864.43732 243.11848,861.83557 243.11848,861.88202 242.97911,861.88202 240.51678,862.20727 239.8199,862.48602 242.97911,861.88202 246.6029,862.57892 249.71567,864.66956 251.80632,867.78235 252.54967,871.40613 251.80632,875.02997 249.71567,878.1427 246.6029,880.23334 242.97911,880.93024 239.8199,880.32629 240.51678,880.60504 242.83974,880.93024 242.83974,880.97668 321.63422,880.97668 321.63422,880.93024 321.72714,880.93024 "
     id="polygon1762"
     style="fill:#808080;stroke:#000000;stroke-width:1"
     transform="translate(-203,-838.95558)" />
  <polygon
     points="238.2403,863.13641 236.24255,864.66956 234.70941,866.62085 234.38419,867.45715 236.24255,864.66956 238.98363,862.85767 "
     id="polygon1764"
     style="fill:#808080;stroke:#000000;stroke-width:1"
     transform="translate(-203,-838.95558)" />
  <polygon
     points="233.78023,868.94379 233.45502,871.40613 233.78023,873.86847 234.05898,874.56537 233.45502,871.40613 234.05898,868.24695 "
     id="polygon1766"
     style="fill:#808080;stroke:#000000;stroke-width:1"
     transform="translate(-203,-838.95558)" />
  <polygon
     points="234.70941,876.14496 236.24255,878.1427 238.19383,879.67584 239.03009,880.00104 236.24255,878.1427 234.43065,875.40161 "
     id="polygon1768"
     style="fill:#808080;stroke:#000000;stroke-width:1"
     transform="translate(-203,-838.95558)" />
  <polygon
     points="211.10823,841.02197 210.41135,841.30072 213.57056,840.69672 216.72977,841.30072 216.03288,841.02197 213.57056,840.69672 "
     id="polygon1770"
     style="fill:#808080;stroke:#000000;stroke-width:1"
     transform="translate(-203,-838.95558)" />
  <polygon
     points="208.83174,841.95111 206.834,843.48425 205.30086,845.43555 204.97563,846.27179 206.834,843.48425 209.57509,841.67236 "
     id="polygon1772"
     style="fill:#808080;stroke:#000000;stroke-width:1"
     transform="translate(-203,-838.95558)" />
  <polygon
     points="218.30937,841.95111 217.56602,841.67236 220.30711,843.48425 222.16547,846.27179 221.84026,845.43555 220.30711,843.48425 "
     id="polygon1774"
     style="fill:#808080;stroke:#000000;stroke-width:1"
     transform="translate(-203,-838.95558)" />
  <polygon
     points="220.30711,887.71326 221.84026,885.76196 222.76944,883.43903 223.09465,880.97668 223.14111,880.97668 223.14111,850.22082 222.76944,847.75848 222.49069,847.06165 223.14111,850.22082 222.39777,853.8446 220.30711,856.9574 217.19435,859.04804 213.57056,859.74493 209.94675,859.04804 206.834,856.9574 204.74335,853.8446 204.04646,850.22082 204.65042,847.06165 204.37167,847.75848 204.04646,850.22082 204,850.22082 204,880.97668 204.04646,880.97668 204.37167,883.43903 205.30086,885.71551 206.834,887.71326 208.78528,889.2464 211.10823,890.1756 213.57056,890.50079 216.03288,890.1756 218.30937,889.2464 "
     id="polygon1776"
     style="fill:#808080;stroke:#000000;stroke-width:1"
     transform="translate(-203,-838.95558)" />
  <polygon
     points="230.29579,861.51038 229.59891,861.78912 232.75813,861.18518 235.91734,861.78912 235.22046,861.51038 232.75813,861.18518 "
     id="polygon1778"
     style="fill:#808080;stroke:#000000;stroke-width:1"
     transform="translate(-203,-838.95558)" />
  <polygon
     points="228.0193,862.43957 226.02158,863.97272 224.48842,865.92395 224.16321,866.76025 226.02158,863.97272 228.76265,862.16077 "
     id="polygon1780"
     style="fill:#808080;stroke:#000000;stroke-width:1"
     transform="translate(-203,-838.95558)" />
  <polygon
     points="237.49695,862.43957 236.7536,862.16077 239.49469,863.97272 241.35304,866.76025 241.02783,865.92395 239.49469,863.97272 "
     id="polygon1782"
     style="fill:#808080;stroke:#000000;stroke-width:1"
     transform="translate(-203,-838.95558)" />
  <polygon
     points="239.49469,887.71326 241.02783,885.76196 241.95702,883.43903 242.28223,880.97668 242.32869,880.97668 242.32869,870.70923 241.95702,868.24695 241.67825,867.55005 242.32869,870.70923 241.58534,874.33307 239.49469,877.4458 236.38193,879.53644 232.75813,880.23334 229.13432,879.53644 226.02158,877.4458 223.93091,874.33307 223.23402,870.70923 223.838,867.55005 223.55925,868.24695 223.23402,870.70923 223.18758,870.70923 223.18758,880.97668 223.23402,880.97668 223.55925,883.43903 224.48842,885.71551 226.02158,887.71326 227.97286,889.2464 230.29579,890.1756 232.75813,890.50079 235.22046,890.1756 237.49695,889.2464 "
     id="polygon1784"
     style="fill:#808080;stroke:#000000;stroke-width:1"
     transform="translate(-203,-838.95558)" />
  <polygon
     points="211.10823,871.77783 210.41135,872.05658 213.57056,871.45258 216.72977,872.05658 216.03288,871.77783 213.57056,871.45258 "
     id="polygon1786"
     style="fill:#808080;stroke:#000000;stroke-width:1"
     transform="translate(-203,-838.95558)" />
  <polygon
     points="208.83174,872.70697 206.834,874.24011 205.30086,876.19141 204.97563,877.02765 206.834,874.24011 209.57509,872.42822 "
     id="polygon1788"
     style="fill:#808080;stroke:#000000;stroke-width:1"
     transform="translate(-203,-838.95558)" />
  <polygon
     points="218.30937,872.70697 217.56602,872.42822 220.30711,874.24011 222.16547,877.02765 221.84026,876.19141 220.30711,874.24011 "
     id="polygon1790"
     style="fill:#808080;stroke:#000000;stroke-width:1"
     transform="translate(-203,-838.95558)" />
  <polygon
     points="223.14111,880.97668 222.39777,884.60052 220.30711,887.71326 217.19435,889.80389 213.57056,890.50079 209.94675,889.80389 206.834,887.71326 204.74335,884.60052 204.04646,880.97668 204.65042,877.8175 204.37167,878.51434 204.04646,880.97668 204,880.97668 204,911.73254 204.04646,911.73254 204.74335,908.10876 206.834,904.99603 209.94675,902.90533 213.57056,902.20844 217.19435,902.90533 220.30711,904.99603 222.39777,908.10876 223.14111,911.73254 223.14111,880.97668 222.76944,878.51434 222.49069,877.8175 "
     id="polygon1792"
     style="fill:#808080;stroke:#000000;stroke-width:1"
     transform="translate(-203,-838.95558)" />
  <polygon
     points="204.65042,914.89179 204.04646,911.73254 204.37167,914.19488 "
     id="polygon1794"
     style="fill:#808080;stroke:#000000;stroke-width:1"
     transform="translate(-203,-838.95558)" />
  <polygon
     points="222.49069,914.89179 222.76944,914.19488 223.00174,912.383 "
     id="polygon1796"
     style="fill:#808080;stroke:#000000;stroke-width:1"
     transform="translate(-203,-838.95558)" />
  <polygon
     points="221.84026,916.51782 222.16547,915.68158 220.30711,918.46912 217.56602,920.28101 218.30937,920.00226 220.30711,918.46912 "
     id="polygon1798"
     style="fill:#808080;stroke:#000000;stroke-width:1"
     transform="translate(-203,-838.95558)" />
  <polygon
     points="205.30086,916.47137 206.834,918.46912 208.78528,920.00226 209.62154,920.32745 206.834,918.46912 205.0221,915.72803 "
     id="polygon1800"
     style="fill:#808080;stroke:#000000;stroke-width:1"
     transform="translate(-203,-838.95558)" />
  <polygon
     points="213.57056,921.25665 210.41135,920.65271 211.10823,920.93146 "
     id="polygon1802"
     style="fill:#808080;stroke:#000000;stroke-width:1"
     transform="translate(-203,-838.95558)" />
  <polygon
     points="213.57056,921.25665 216.03288,920.93146 216.72977,920.65271 "
     id="polygon1804"
     style="fill:#808080;stroke:#000000;stroke-width:1"
     transform="translate(-203,-838.95558)" />
  <polygon
     points="230.29579,871.77783 229.59891,872.05658 232.75813,871.45258 235.91734,872.05658 235.22046,871.77783 232.75813,871.45258 "
     id="polygon1806"
     style="fill:#808080;stroke:#000000;stroke-width:1"
     transform="translate(-203,-838.95558)" />
  <polygon
     points="228.0193,872.70697 226.02158,874.24011 224.48842,876.19141 224.16321,877.02765 226.02158,874.24011 228.76265,872.42822 "
     id="polygon1808"
     style="fill:#808080;stroke:#000000;stroke-width:1"
     transform="translate(-203,-838.95558)" />
  <polygon
     points="237.49695,872.70697 236.7536,872.42822 239.49469,874.24011 241.35304,877.02765 241.02783,876.19141 239.49469,874.24011 "
     id="polygon1810"
     style="fill:#808080;stroke:#000000;stroke-width:1"
     transform="translate(-203,-838.95558)" />
  <polygon
     points="223.93091,884.60052 223.23402,880.97668 223.838,877.8175 223.55925,878.51434 223.23402,880.97668 223.18758,880.97668 223.18758,891.24414 223.23402,891.24414 223.93091,887.62036 224.95302,886.08716 "
     id="polygon1812"
     style="fill:#808080;stroke:#000000;stroke-width:1"
     transform="translate(-203,-838.95558)" />
  <polygon
     points="241.67825,877.8175 242.32869,880.97668 241.58534,884.60052 240.56325,886.08716 241.58534,887.62036 242.32869,891.24414 242.32869,880.97668 241.95702,878.51434 "
     id="polygon1814"
     style="fill:#808080;stroke:#000000;stroke-width:1"
     transform="translate(-203,-838.95558)" />
  <polygon
     points="240.56325,886.08716 239.49469,884.50757 236.38193,882.41693 232.75813,881.72003 229.13432,882.41693 226.02158,884.50757 224.95302,886.08716 226.02158,887.71326 229.13432,889.80389 232.75813,890.50079 236.38193,889.80389 239.49469,887.71326 "
     id="polygon1816"
     style="fill:#808080;stroke:#000000;stroke-width:1"
     transform="translate(-203,-838.95558)" />
  <polygon
     points="223.838,894.40332 223.23402,891.24414 223.55925,893.70648 "
     id="polygon1818"
     style="fill:#808080;stroke:#000000;stroke-width:1"
     transform="translate(-203,-838.95558)" />
  <polygon
     points="241.67825,894.40332 241.95702,893.70648 242.1893,891.89459 "
     id="polygon1820"
     style="fill:#808080;stroke:#000000;stroke-width:1"
     transform="translate(-203,-838.95558)" />
  <polygon
     points="241.02783,896.02942 241.35304,895.19318 239.49469,897.98071 236.7536,899.7926 237.49695,899.51386 239.49469,897.98071 "
     id="polygon1822"
     style="fill:#808080;stroke:#000000;stroke-width:1"
     transform="translate(-203,-838.95558)" />
  <polygon
     points="224.48842,895.98297 226.02158,897.98071 227.97286,899.51386 228.80911,899.83905 226.02158,897.98071 224.20967,895.23962 "
     id="polygon1824"
     style="fill:#808080;stroke:#000000;stroke-width:1"
     transform="translate(-203,-838.95558)" />
  <polygon
     points="232.75813,900.76825 229.59891,900.16425 230.29579,900.44299 "
     id="polygon1826"
     style="fill:#808080;stroke:#000000;stroke-width:1"
     transform="translate(-203,-838.95558)" />
  <polygon
     points="232.75813,900.76825 235.22046,900.44299 235.91734,900.16425 "
     id="polygon1828"
     style="fill:#808080;stroke:#000000;stroke-width:1"
     transform="translate(-203,-838.95558)" />
  <polygon
     points="325.02573,913.68384 326.97699,912.89404 328.69598,911.54675 330.0433,909.87421 330.8331,907.87647 331.11185,905.73932 331.1583,905.73932 330.8331,903.60223 330.0433,901.60449 328.69598,899.93195 326.97699,898.58466 325.02573,897.79486 322.88861,897.51611 322.51694,897.56256 322.51694,897.51611 243.86183,900.16425 243.86183,900.21075 241.86409,900.4895 241.16721,900.76825 244.32642,900.16425 247.95023,900.86114 251.06297,902.95178 253.15363,906.06457 253.89697,909.68835 253.15363,913.31219 251.06297,916.42493 247.95023,918.51556 244.32642,919.21246 244.79102,919.16602 244.79102,919.21246 323.26028,913.96258 323.26028,913.91614 "
     id="polygon1830"
     style="fill:#808080;stroke:#000000;stroke-width:1"
     transform="translate(-203,-838.95558)" />
  <polygon
     points="239.5876,901.41864 237.58986,902.95178 236.05672,904.90308 235.73151,905.73932 237.58986,902.95178 240.33095,901.13989 "
     id="polygon1832"
     style="fill:#808080;stroke:#000000;stroke-width:1"
     transform="translate(-203,-838.95558)" />
  <polygon
     points="235.12753,907.22601 234.80232,909.68835 235.12753,912.1507 235.4063,912.84759 234.80232,909.68835 235.4063,906.52918 "
     id="polygon1834"
     style="fill:#808080;stroke:#000000;stroke-width:1"
     transform="translate(-203,-838.95558)" />
  <polygon
     points="236.05672,914.42719 237.58986,916.42493 239.54114,917.95807 240.37741,918.28326 237.58986,916.42493 235.77797,913.68384 "
     id="polygon1836"
     style="fill:#808080;stroke:#000000;stroke-width:1"
     transform="translate(-203,-838.95558)" />
  <polygon
     points="244.32642,919.21246 241.16721,918.60852 241.86409,918.88727 "
     id="polygon1838"
     style="fill:#808080;stroke:#000000;stroke-width:1"
     transform="translate(-203,-838.95558)" />
  <polygon
     points="323.91071,897.14441 325.86197,896.35461 327.58096,895.00732 328.92828,893.33478 329.71808,891.33704 329.99683,889.19995 330.0433,889.19995 329.71808,887.06281 328.92828,885.06506 327.58096,883.39258 325.86197,882.04523 323.91071,881.25543 321.77359,880.97668 321.63422,880.97668 321.63422,880.93024 242.88619,880.97668 242.88619,881.02313 240.56325,881.34839 239.86635,881.62714 243.02557,881.02313 246.64937,881.72003 249.76213,883.81067 251.85278,886.92346 252.59613,890.54724 251.85278,894.17108 249.76213,897.28381 246.64937,899.37445 243.02557,900.07135 239.86635,899.46741 240.56325,899.74616 243.02557,900.07135 243.16495,900.07135 243.16495,900.1178 321.91296,897.46967 321.91296,897.42316 "
     id="polygon1840"
     style="fill:#808080;stroke:#000000;stroke-width:1"
     transform="translate(-203,-838.95558)" />
  <polygon
     points="238.28674,882.27753 236.28902,883.81067 234.75586,885.76196 234.43065,886.59821 236.28902,883.81067 239.03009,881.99878 "
     id="polygon1842"
     style="fill:#808080;stroke:#000000;stroke-width:1"
     transform="translate(-203,-838.95558)" />
  <polygon
     points="233.82669,888.0849 233.50146,890.54724 233.82669,893.00958 234.10544,893.70648 233.50146,890.54724 234.10544,887.38806 "
     id="polygon1844"
     style="fill:#808080;stroke:#000000;stroke-width:1"
     transform="translate(-203,-838.95558)" />
  <polygon
     points="234.75586,895.28607 236.28902,897.28381 238.2403,898.81696 239.07655,899.14215 236.28902,897.28381 234.47711,894.54273 "
     id="polygon1846"
     style="fill:#808080;stroke:#000000;stroke-width:1"
     transform="translate(-203,-838.95558)" />
  <polygon
     points="348.67334,867.17835 350.39233,864.99481 351.46091,862.43957 351.7861,859.69849 351.83258,859.69849 351.46091,856.9574 350.39233,854.40216 348.67334,852.21857 346.48978,850.49957 343.93454,849.43103 343.23764,849.33813 343.23764,849.24518 341.2399,849.10583 341.19345,849.10583 324.42175,847.99078 324.42175,848.03723 322.84213,847.85144 320.70502,848.13019 320.10107,848.36249 322.84213,847.85144 326.00134,848.45538 328.64954,850.26727 330.46143,852.91547 331.11185,856.07465 330.46143,859.23389 328.64954,861.88202 326.00134,863.69397 322.84213,864.29791 320.0546,863.78687 320.70502,864.01917 321.26254,864.11206 321.26254,864.15851 337.89487,869.73364 338.45236,869.96588 338.68466,870.01239 339.14926,870.15173 339.14926,870.05884 341.19345,870.29114 343.93454,869.96588 346.48978,868.89734 "
     id="polygon1848"
     style="fill:#808080;stroke:#000000;stroke-width:1"
     transform="translate(-203,-838.95558)" />
  <polygon
     points="318.75375,848.91998 317.03476,850.26727 315.68747,851.93982 315.40869,852.63672 317.03476,850.26727 319.35773,848.68768 "
     id="polygon1850"
     style="fill:#808080;stroke:#000000;stroke-width:1"
     transform="translate(-203,-838.95558)" />
  <polygon
     points="314.89764,853.93756 314.6189,856.07465 314.89764,858.21179 315.12994,858.81574 314.6189,856.07465 315.12994,853.28711 "
     id="polygon1852"
     style="fill:#808080;stroke:#000000;stroke-width:1"
     transform="translate(-203,-838.95558)" />
  <polygon
     points="315.68747,860.16309 317.03476,861.88202 318.70731,863.22937 319.40418,863.50812 317.03476,861.88202 315.45517,859.55908 "
     id="polygon1854"
     style="fill:#808080;stroke:#000000;stroke-width:1"
     transform="translate(-203,-838.95558)" />
  <polygon
     points="319.59003,864.76251 318.98605,864.99481 321.72714,864.48376 324.4682,864.99481 323.86426,864.76251 321.72714,864.48376 "
     id="polygon1856"
     style="fill:#808080;stroke:#000000;stroke-width:1"
     transform="translate(-203,-838.95558)" />
  <polygon
     points="347.27957,888.4566 348.99857,886.27301 350.06714,883.71777 350.39233,880.97668 350.43878,880.97668 350.06714,878.2356 348.99857,875.68036 347.27957,873.49676 345.09601,871.77783 344.16684,871.40613 344.21329,871.31323 343.23764,870.98804 342.54077,870.70923 342.21555,870.66278 325.1651,865.1806 325.11862,865.27356 327.53451,866.8996 329.34641,869.54779 329.99683,872.70697 329.34641,875.86621 327.53451,878.51434 324.88635,880.32629 321.72714,880.93024 318.5679,880.32629 318.33563,880.14044 318.28915,880.23334 334.08524,889.85034 334.50336,890.1756 334.87503,890.31494 335.38608,890.6402 335.43253,890.54724 337.05859,891.24414 339.79968,891.56934 342.54077,891.24414 345.09601,890.1756 "
     id="polygon1858"
     style="fill:#808080;stroke:#000000;stroke-width:1"
     transform="translate(-203,-838.95558)" />
  <polygon
     points="317.63873,865.55231 315.91974,866.8996 314.57245,868.57214 314.2937,869.26904 315.91974,866.8996 318.24271,865.32001 "
     id="polygon1860"
     style="fill:#808080;stroke:#000000;stroke-width:1"
     transform="translate(-203,-838.95558)" />
  <polygon
     points="313.78262,870.56988 313.50388,872.70697 313.78262,874.84412 314.01492,875.44806 313.50388,872.70697 314.01492,869.91943 "
     id="polygon1862"
     style="fill:#808080;stroke:#000000;stroke-width:1"
     transform="translate(-203,-838.95558)" />
  <polygon
     points="314.57245,876.79541 315.91974,878.51434 317.59229,879.86169 318.24271,880.09399 315.91974,878.51434 314.34015,876.19141 "
     id="polygon1864"
     style="fill:#808080;stroke:#000000;stroke-width:1"
     transform="translate(-203,-838.95558)" />
  <polygon
     points="341.147,912.75464 341.3793,912.75464 343.19119,912.61529 343.19119,912.52234 343.93454,912.42944 346.48978,911.3609 348.67334,909.64191 350.39233,907.45831 351.46091,904.90308 351.7861,902.16199 351.83258,902.16199 351.46091,899.4209 350.39233,896.86566 348.67334,894.68213 346.48978,892.96313 343.93454,891.89459 341.19345,891.56934 339.19571,891.80164 339.19571,891.70874 338.73114,891.84808 338.45236,891.89459 337.75549,892.17334 321.30899,897.65546 321.30899,897.70196 320.75149,897.79486 320.14752,898.02716 322.88861,897.51611 326.04782,898.12006 328.69598,899.93195 330.50787,902.58014 331.1583,905.73932 330.50787,908.89856 328.69598,911.54675 326.04782,913.35864 322.88861,913.96258 324.4682,913.77673 324.4682,913.82324 "
     id="polygon1866"
     style="fill:#808080;stroke:#000000;stroke-width:1"
     transform="translate(-203,-838.95558)" />
  <polygon
     points="318.8002,898.58466 317.08124,899.93195 315.73392,901.60449 315.45517,902.30139 317.08124,899.93195 319.40418,898.35236 "
     id="polygon1868"
     style="fill:#808080;stroke:#000000;stroke-width:1"
     transform="translate(-203,-838.95558)" />
  <polygon
     points="314.94412,903.60223 314.66534,905.73932 314.94412,907.87647 315.17642,908.48041 314.66534,905.73932 315.17642,902.95178 "
     id="polygon1870"
     style="fill:#808080;stroke:#000000;stroke-width:1"
     transform="translate(-203,-838.95558)" />
  <polygon
     points="315.73392,909.82776 317.08124,911.54675 318.75375,912.89404 319.45062,913.17279 317.08124,911.54675 315.50162,909.22375 "
     id="polygon1872"
     style="fill:#808080;stroke:#000000;stroke-width:1"
     transform="translate(-203,-838.95558)" />
  <polygon
     points="322.88861,913.96258 320.10107,913.45154 320.75149,913.68384 "
     id="polygon1874"
     style="fill:#808080;stroke:#000000;stroke-width:1"
     transform="translate(-203,-838.95558)" />
  <polygon
     points="337.05859,870.70923 336.17587,871.08093 339.79968,870.38403 343.46994,871.12738 342.54077,870.70923 339.79968,870.38403 "
     id="polygon1876"
     style="fill:#808080;stroke:#000000;stroke-width:1"
     transform="translate(-203,-838.95558)" />
  <polygon
     points="343.23764,890.96539 343.74869,890.77954 339.79968,891.56934 335.75775,890.77954 332.31979,888.4566 329.99683,885.01862 329.20703,880.97668 329.99683,876.93475 332.31979,873.49676 335.43253,871.40613 335.38608,871.31323 334.87503,871.63843 334.50336,871.77783 334.08524,872.10303 318.38208,881.67358 318.42853,881.72003 318.61438,881.58069 321.77359,880.97668 324.9328,881.58069 327.58096,883.39258 329.39285,886.04071 330.0433,889.19995 329.39285,892.35913 327.58096,895.00732 325.11862,896.67987 325.1651,896.72632 342.21555,891.29059 342.54077,891.24414 "
     id="polygon1878"
     style="fill:#808080;stroke:#000000;stroke-width:1"
     transform="translate(-203,-838.95558)" />
  <polygon
     points="345.09601,871.77783 344.16684,871.35968 347.27957,873.49676 349.41669,876.60956 348.99857,875.68036 347.27957,873.49676 "
     id="polygon1880"
     style="fill:#808080;stroke:#000000;stroke-width:1"
     transform="translate(-203,-838.95558)" />
  <polygon
     points="350.43878,880.97668 350.06714,878.2356 349.69547,877.30646 "
     id="polygon1882"
     style="fill:#808080;stroke:#000000;stroke-width:1"
     transform="translate(-203,-838.95558)" />
  <polygon
     points="349.69547,884.64697 350.06714,883.71777 350.29941,881.67358 "
     id="polygon1884"
     style="fill:#808080;stroke:#000000;stroke-width:1"
     transform="translate(-203,-838.95558)" />
  <polygon
     points="317.68518,882.04523 315.96622,883.39258 314.6189,885.06506 314.34015,885.76196 315.96622,883.39258 318.24271,881.85944 "
     id="polygon1886"
     style="fill:#808080;stroke:#000000;stroke-width:1"
     transform="translate(-203,-838.95558)" />
  <polygon
     points="345.09601,890.1756 347.27957,888.4566 348.99857,886.27301 349.41669,885.34387 347.27957,888.4566 343.88806,890.73309 344.21329,890.6402 344.16684,890.54724 "
     id="polygon1888"
     style="fill:#808080;stroke:#000000;stroke-width:1"
     transform="translate(-203,-838.95558)" />
  <polygon
     points="313.8291,887.06281 313.55035,889.19995 313.8291,891.33704 314.0614,891.94104 313.55035,889.19995 314.0614,886.41242 "
     id="polygon1890"
     style="fill:#808080;stroke:#000000;stroke-width:1"
     transform="translate(-203,-838.95558)" />
  <polygon
     points="314.6189,893.28833 315.96622,895.00732 317.63873,896.35461 318.33563,896.63336 315.96622,895.00732 314.3866,892.68439 "
     id="polygon1892"
     style="fill:#808080;stroke:#000000;stroke-width:1"
     transform="translate(-203,-838.95558)" />
  <polygon
     points="321.77359,897.42316 318.98605,896.91211 319.63648,897.14441 "
     id="polygon1894"
     style="fill:#808080;stroke:#000000;stroke-width:1"
     transform="translate(-203,-838.95558)" />
  <polygon
     points="321.77359,897.42316 323.91071,897.14441 324.4682,896.91211 "
     id="polygon1896"
     style="fill:#808080;stroke:#000000;stroke-width:1"
     transform="translate(-203,-838.95558)" />
  <polygon
     points="464.17044,904.48492 466.07526,903.64868 467.7478,902.39429 469.0022,900.76825 469.83844,898.81696 470.07074,896.77277 470.11722,896.77277 469.83844,894.72858 469.0022,892.77728 467.7478,891.15125 466.07526,889.89685 464.17044,889.06055 462.12625,888.82825 461.80106,888.87476 461.80106,888.82825 340.72885,891.56934 340.72885,891.61578 338.45236,891.89459 337.52319,892.31268 341.19345,891.56934 345.23538,892.35913 348.67334,894.68213 350.99631,898.12006 351.83258,902.16199 350.99631,906.20392 348.67334,909.64191 345.23538,911.96484 341.19345,912.75464 341.65805,912.70819 341.65805,912.75464 462.45148,904.71722 462.45148,904.67078 "
     id="polygon1898"
     style="fill:#808080;stroke:#000000;stroke-width:1"
     transform="translate(-203,-838.95558)" />
  <polygon
     points="335.89713,892.96313 333.71356,894.68213 331.99457,896.86566 331.57645,897.79486 333.71356,894.68213 336.82629,892.54498 "
     id="polygon1900"
     style="fill:#808080;stroke:#000000;stroke-width:1"
     transform="translate(-203,-838.95558)" />
  <polygon
     points="330.92602,899.4209 330.6008,902.16199 330.92602,904.90308 331.34415,905.83227 330.6008,902.16199 331.34415,898.49176 "
     id="polygon1902"
     style="fill:#808080;stroke:#000000;stroke-width:1"
     transform="translate(-203,-838.95558)" />
  <polygon
     points="331.99457,907.45831 333.71356,909.64191 335.89713,911.3609 336.82629,911.77899 333.71356,909.64191 331.57645,906.52918 "
     id="polygon1904"
     style="fill:#808080;stroke:#000000;stroke-width:1"
     transform="translate(-203,-838.95558)" />
  <polygon
     points="341.19345,912.75464 337.52319,912.01129 338.45236,912.42944 "
     id="polygon1906"
     style="fill:#808080;stroke:#000000;stroke-width:1"
     transform="translate(-203,-838.95558)" />
  <polygon
     points="463.1019,888.6889 465.00671,887.8526 466.67923,886.59821 467.93362,884.97217 468.7699,883.02087 469.0022,880.97668 469.04865,880.97668 468.7699,878.9325 467.93362,876.9812 466.67923,875.35516 465.00671,874.10077 463.1019,873.26453 461.05771,873.03223 461.05771,872.98572 339.79968,870.33758 339.79968,870.38403 337.05859,870.70923 336.12943,871.12738 339.79968,870.38403 343.84161,871.17383 347.27957,873.49676 349.60254,876.93475 350.43878,880.97668 349.60254,885.01862 347.27957,888.4566 343.84161,890.77954 339.79968,891.56934 336.12943,890.82599 337.05859,891.24414 339.79968,891.56934 339.79968,891.61578 461.05771,888.96765 461.05771,888.9212 "
     id="polygon1908"
     style="fill:#808080;stroke:#000000;stroke-width:1"
     transform="translate(-203,-838.95558)" />
  <polygon
     points="334.50336,871.77783 332.31979,873.49676 330.6008,875.68036 330.18268,876.60956 332.31979,873.49676 335.43253,871.35968 "
     id="polygon1910"
     style="fill:#808080;stroke:#000000;stroke-width:1"
     transform="translate(-203,-838.95558)" />
  <polygon
     points="329.53226,878.2356 329.20703,880.97668 329.53226,883.71777 329.95038,884.64697 329.20703,880.97668 329.95038,877.30646 "
     id="polygon1912"
     style="fill:#808080;stroke:#000000;stroke-width:1"
     transform="translate(-203,-838.95558)" />
  <polygon
     points="330.6008,886.27301 332.31979,888.4566 334.50336,890.1756 335.43253,890.59369 332.31979,888.4566 330.18268,885.34387 "
     id="polygon1914"
     style="fill:#808080;stroke:#000000;stroke-width:1"
     transform="translate(-203,-838.95558)" />
  <polygon
     points="467.70132,870.66278 468.95572,869.03674 469.79199,867.08545 470.02429,865.04126 470.07074,865.04126 469.79199,862.99707 468.95572,861.04578 467.70132,859.41974 466.02881,858.16534 464.12399,857.32904 462.405,857.14325 462.405,857.09674 341.65805,849.10583 341.65805,849.15228 341.19345,849.10583 338.45236,849.43103 337.52319,849.84918 341.19345,849.10583 345.23538,849.89563 348.67334,852.21857 350.99631,855.65656 351.83258,859.69849 350.99631,863.74042 348.67334,867.17835 345.23538,869.50134 341.19345,870.29114 337.52319,869.54779 338.45236,869.96588 340.72885,870.24469 340.72885,870.29114 461.75458,872.98572 461.75458,872.93927 462.0798,872.98572 464.12399,872.75348 466.02881,871.91718 "
     id="polygon1916"
     style="fill:#808080;stroke:#000000;stroke-width:1"
     transform="translate(-203,-838.95558)" />
  <polygon
     points="335.89713,850.49957 333.71356,852.21857 331.99457,854.40216 331.57645,855.3313 333.71356,852.21857 336.82629,850.08148 "
     id="polygon1918"
     style="fill:#808080;stroke:#000000;stroke-width:1"
     transform="translate(-203,-838.95558)" />
  <polygon
     points="330.92602,856.9574 330.6008,859.69849 330.92602,862.43957 331.34415,863.36871 330.6008,859.69849 331.34415,856.0282 "
     id="polygon1920"
     style="fill:#808080;stroke:#000000;stroke-width:1"
     transform="translate(-203,-838.95558)" />
  <polygon
     points="331.99457,864.99481 333.71356,867.17835 335.89713,868.89734 336.82629,869.31549 333.71356,867.17835 331.57645,864.06561 "
     id="polygon1922"
     style="fill:#808080;stroke:#000000;stroke-width:1"
     transform="translate(-203,-838.95558)" />
  <polygon
     points="479.68774,903.41638 480.38464,903.50934 482.75406,903.23059 483.12573,903.18408 483.31155,903.13763 486.00619,902.02264 488.37558,900.21075 490.1875,897.88776 491.30252,895.14667 491.67419,892.21979 491.72064,892.21979 491.30252,889.29285 490.1875,886.55176 488.37558,884.22882 486.00619,882.41693 483.31155,881.30188 480.38464,880.93024 477.64355,881.25543 477.55066,881.30188 477.45773,881.30188 474.76309,882.41693 474.34497,882.74213 460.26788,889.06055 460.08206,889.06055 459.33871,889.3858 462.12625,888.82825 465.14609,889.43225 467.7478,891.15125 469.46677,893.75293 470.11722,896.77277 469.46677,899.7926 467.7478,902.39429 465.14609,904.11328 462.12625,904.71722 464.17044,904.48492 464.21692,904.48492 "
     id="polygon1924"
     style="fill:#808080;stroke:#000000;stroke-width:1"
     transform="translate(-203,-838.95558)" />
  <polygon
     points="458.17725,889.89685 456.5047,891.15125 455.25034,892.77728 454.92511,893.56708 456.5047,891.15125 458.82767,889.61804 "
     id="polygon1926"
     style="fill:#808080;stroke:#000000;stroke-width:1"
     transform="translate(-203,-838.95558)" />
  <polygon
     points="454.41406,894.72858 454.18176,896.77277 454.41406,898.81696 454.73926,899.5603 454.18176,896.77277 454.73926,893.93878 "
     id="polygon1928"
     style="fill:#808080;stroke:#000000;stroke-width:1"
     transform="translate(-203,-838.95558)" />
  <polygon
     points="455.25034,900.7218 456.5047,902.39429 458.13077,903.64868 458.92059,903.97388 456.5047,902.39429 454.97156,900.07135 "
     id="polygon1930"
     style="fill:#808080;stroke:#000000;stroke-width:1"
     transform="translate(-203,-838.95558)" />
  <polygon
     points="462.12625,904.71722 459.29227,904.15973 460.08206,904.48492 "
     id="polygon1932"
     style="fill:#808080;stroke:#000000;stroke-width:1"
     transform="translate(-203,-838.95558)" />
  <polygon
     points="488.37558,877.63165 490.1875,875.30872 491.30252,872.56763 491.67419,869.64069 491.72064,869.64069 491.30252,866.71381 490.1875,863.97272 488.37558,861.64972 486.00619,859.83783 483.31155,858.72284 483.12573,858.67639 482.70758,858.62988 480.38464,858.35113 479.73422,858.44409 464.17044,857.32904 464.12399,857.32904 462.0798,857.09674 460.03558,857.32904 459.29227,857.6543 462.0798,857.09674 465.09964,857.70074 467.70132,859.41974 469.42032,862.02142 470.07074,865.04126 469.42032,868.0611 467.70132,870.66278 465.09964,872.38177 462.0798,872.98572 459.24579,872.42822 460.03558,872.75348 460.22144,872.75348 474.25205,879.0719 474.71664,879.44354 477.45773,880.55859 477.55066,880.55859 477.64355,880.60504 480.38464,880.93024 483.31155,880.55859 486.00619,879.44354 "
     id="polygon1934"
     style="fill:#808080;stroke:#000000;stroke-width:1"
     transform="translate(-203,-838.95558)" />
  <polygon
     points="458.13077,858.16534 456.45825,859.41974 455.20386,861.04578 454.87866,861.83557 456.45825,859.41974 458.78122,857.8866 "
     id="polygon1936"
     style="fill:#808080;stroke:#000000;stroke-width:1"
     transform="translate(-203,-838.95558)" />
  <polygon
     points="454.36758,862.99707 454.13531,865.04126 454.36758,867.08545 454.69281,867.8288 454.13531,865.04126 454.69281,862.20727 "
     id="polygon1938"
     style="fill:#808080;stroke:#000000;stroke-width:1"
     transform="translate(-203,-838.95558)" />
  <polygon
     points="455.20386,868.99029 456.45825,870.66278 458.08432,871.91718 458.87412,872.24243 456.45825,870.66278 454.92511,868.33984 "
     id="polygon1940"
     style="fill:#808080;stroke:#000000;stroke-width:1"
     transform="translate(-203,-838.95558)" />
  <polygon
     points="603.26874,895.19318 605.03418,894.44983 606.56732,893.33478 607.68231,891.80164 608.42566,890.03619 608.65796,888.17786 608.70441,888.17786 608.42566,886.31946 607.68231,884.55402 606.56732,883.02087 605.03418,881.90588 603.26874,881.16254 601.41034,880.93024 601.17804,880.97668 601.17804,880.93024 480.38464,880.93024 484.70532,881.76648 488.37558,884.22882 490.83792,887.89911 491.72064,892.21979 490.83792,896.54047 488.37558,900.21075 484.70532,902.67304 480.38464,903.50934 480.75632,903.46283 480.75632,903.50934 601.64264,895.42548 601.64264,895.37897 "
     id="polygon1942"
     style="fill:#808080;stroke:#000000;stroke-width:1"
     transform="translate(-203,-838.95558)" />
  <polygon
     points="480.01297,880.97668 477.45773,881.30188 476.57501,881.67358 480.38464,880.93024 480.01297,880.93024 "
     id="polygon1944"
     style="fill:#808080;stroke:#000000;stroke-width:1"
     transform="translate(-203,-838.95558)" />
  <polygon
     points="474.76309,882.41693 472.39371,884.22882 470.58179,886.55176 470.21011,887.52741 472.39371,884.22882 475.64581,882.04523 "
     id="polygon1946"
     style="fill:#808080;stroke:#000000;stroke-width:1"
     transform="translate(-203,-838.95558)" />
  <polygon
     points="469.46677,889.29285 469.09509,892.21979 469.46677,895.14667 469.83844,896.02942 469.09509,892.21979 469.83844,888.36365 "
     id="polygon1948"
     style="fill:#808080;stroke:#000000;stroke-width:1"
     transform="translate(-203,-838.95558)" />
  <polygon
     points="470.58179,897.84131 472.39371,900.21075 474.71664,902.02264 475.69229,902.39429 472.39371,900.21075 470.21011,896.95862 "
     id="polygon1950"
     style="fill:#808080;stroke:#000000;stroke-width:1"
     transform="translate(-203,-838.95558)" />
  <polygon
     points="480.38464,903.50934 476.52853,902.76599 477.45773,903.13763 "
     id="polygon1952"
     style="fill:#808080;stroke:#000000;stroke-width:1"
     transform="translate(-203,-838.95558)" />
  <polygon
     points="601.41034,880.88379 603.26874,880.65149 605.03418,879.90814 606.56732,878.79315 607.68231,877.25995 608.42566,875.49451 608.65796,873.63617 608.70441,873.63617 608.42566,871.77783 607.68231,870.01239 606.56732,868.47925 605.03418,867.3642 603.26874,866.62085 601.64264,866.435 601.64264,866.38855 480.75632,858.35113 480.75632,858.39764 480.38464,858.35113 477.45773,858.72284 476.57501,859.09448 480.38464,858.35113 484.70532,859.18744 488.37558,861.64972 490.83792,865.32001 491.72064,869.64069 490.83792,873.96137 488.37558,877.63165 484.70532,880.09399 480.38464,880.93024 476.52853,880.18689 477.45773,880.55859 480.01297,880.88379 480.01297,880.93024 480.38464,880.93024 601.17804,880.88379 601.17804,880.83734 "
     id="polygon1954"
     style="fill:#808080;stroke:#000000;stroke-width:1"
     transform="translate(-203,-838.95558)" />
  <polygon
     points="474.76309,859.83783 472.39371,861.64972 470.58179,863.97272 470.21011,864.94836 472.39371,861.64972 475.64581,859.46619 "
     id="polygon1956"
     style="fill:#808080;stroke:#000000;stroke-width:1"
     transform="translate(-203,-838.95558)" />
  <polygon
     points="469.46677,866.71381 469.09509,869.64069 469.46677,872.56763 469.83844,873.45032 469.09509,869.64069 469.83844,865.78461 "
     id="polygon1958"
     style="fill:#808080;stroke:#000000;stroke-width:1"
     transform="translate(-203,-838.95558)" />
  <polygon
     points="470.58179,875.26221 472.39371,877.63165 474.71664,879.44354 475.69229,879.81525 472.39371,877.63165 470.21011,874.37952 "
     id="polygon1960"
     style="fill:#808080;stroke:#000000;stroke-width:1"
     transform="translate(-203,-838.95558)" />
  <polygon
     points="622.96735,893.89227 623.98944,893.47418 624.45404,893.42773 624.40759,893.28833 626.17304,892.54498 628.96057,890.4079 631.09766,887.66681 632.44501,884.41467 632.8631,880.97668 632.90955,880.97668 632.44501,877.53876 631.09766,874.28662 628.96057,871.54553 626.17304,869.40839 622.96735,868.0611 619.52936,867.64294 616.09143,868.0611 614.65118,868.66504 614.60474,868.5257 614.18658,868.85089 612.88574,869.40839 610.09821,871.54553 608.75092,873.26453 598.71576,881.39484 598.71576,881.44128 601.41034,880.93024 604.19788,881.44128 606.56732,883.02087 608.14691,885.39032 608.70441,888.17786 608.14691,890.96539 606.56732,893.33478 604.19788,894.91437 604.10498,894.91437 604.10498,894.96088 616.92767,893.98523 619.52936,894.31043 "
     id="polygon1962"
     style="fill:#808080;stroke:#000000;stroke-width:1"
     transform="translate(-203,-838.95558)" />
  <polygon
     points="597.78656,881.90588 596.25342,883.02087 595.13837,884.55402 594.99902,884.92572 596.25342,883.02087 598.1582,881.72003 "
     id="polygon1964"
     style="fill:#808080;stroke:#000000;stroke-width:1"
     transform="translate(-203,-838.95558)" />
  <polygon
     points="594.39508,886.31946 594.16278,888.17786 594.39508,890.03619 594.58087,890.50079 594.16278,888.17786 594.58087,885.85492 "
     id="polygon1966"
     style="fill:#808080;stroke:#000000;stroke-width:1"
     transform="translate(-203,-838.95558)" />
  <polygon
     points="595.13837,891.80164 596.25342,893.33478 597.78656,894.44983 598.1582,894.58917 596.25342,893.33478 594.99902,891.42999 "
     id="polygon1968"
     style="fill:#808080;stroke:#000000;stroke-width:1"
     transform="translate(-203,-838.95558)" />
  <polygon
     points="601.41034,895.42548 599.0874,895.00732 599.552,895.19318 "
     id="polygon1970"
     style="fill:#808080;stroke:#000000;stroke-width:1"
     transform="translate(-203,-838.95558)" />
  <polygon
     points="601.41034,895.42548 603.26874,895.19318 603.73334,895.00732 "
     id="polygon1972"
     style="fill:#808080;stroke:#000000;stroke-width:1"
     transform="translate(-203,-838.95558)" />
  <polygon
     points="599.552,866.62085 599.0874,866.8067 601.41034,866.38855 603.68683,866.8067 603.26874,866.62085 601.41034,866.38855 "
     id="polygon1974"
     style="fill:#808080;stroke:#000000;stroke-width:1"
     transform="translate(-203,-838.95558)" />
  <polygon
     points="606.19562,880.97668 606.61377,878.7002 608.14691,876.42371 608.70441,873.63617 610.09821,871.54553 614.41888,868.61859 619.52936,867.64294 624.03589,868.47925 622.96735,868.0611 619.52936,867.64294 616.97412,867.9682 604.19788,866.8996 606.56732,868.47925 608.14691,870.84863 608.70441,873.63617 607.17126,875.86621 606.61377,878.7002 606.56732,878.79315 604.19788,880.37274 601.41034,880.88379 598.66931,880.37274 608.75092,888.64246 610.09821,890.4079 612.83929,892.54498 613.95429,893.00958 610.09821,890.4079 607.17126,886.08716 "
     id="polygon1976"
     style="fill:#808080;stroke:#000000;stroke-width:1"
     transform="translate(-203,-838.95558)" />
  <polygon
     points="597.78656,867.3642 596.25342,868.47925 595.13837,870.01239 594.99902,870.38403 596.25342,868.47925 598.1582,867.22485 "
     id="polygon1978"
     style="fill:#808080;stroke:#000000;stroke-width:1"
     transform="translate(-203,-838.95558)" />
  <polygon
     points="624.54694,868.61859 624.54694,868.57214 624.22174,868.5257 "
     id="polygon1980"
     style="fill:#808080;stroke:#000000;stroke-width:1"
     transform="translate(-203,-838.95558)" />
  <polygon
     points="626.17304,869.40839 625.19739,868.99029 628.96057,871.54553 631.51581,875.35516 631.09766,874.28662 628.96057,871.54553 "
     id="polygon1982"
     style="fill:#808080;stroke:#000000;stroke-width:1"
     transform="translate(-203,-838.95558)" />
  <polygon
     points="594.39508,871.77783 594.16278,873.63617 594.39508,875.49451 594.58087,875.95911 594.16278,873.63617 594.58087,871.31323 "
     id="polygon1984"
     style="fill:#808080;stroke:#000000;stroke-width:1"
     transform="translate(-203,-838.95558)" />
  <polygon
     points="632.90955,880.97668 632.44501,877.53876 632.02685,876.5166 "
     id="polygon1986"
     style="fill:#808080;stroke:#000000;stroke-width:1"
     transform="translate(-203,-838.95558)" />
  <polygon
     points="595.13837,877.25995 596.25342,878.79315 597.78656,879.90814 598.1582,880.04749 596.25342,878.79315 594.99902,876.88831 "
     id="polygon1988"
     style="fill:#808080;stroke:#000000;stroke-width:1"
     transform="translate(-203,-838.95558)" />
  <polygon
     points="632.02685,885.43677 632.44501,884.41467 632.7702,881.58069 "
     id="polygon1990"
     style="fill:#808080;stroke:#000000;stroke-width:1"
     transform="translate(-203,-838.95558)" />
  <polygon
     points="631.09766,887.66681 631.51581,886.59821 628.96057,890.4079 625.19739,892.96313 626.17304,892.54498 628.96057,890.4079 "
     id="polygon1992"
     style="fill:#808080;stroke:#000000;stroke-width:1"
     transform="translate(-203,-838.95558)" />
  <polygon
     points="614.51178,893.38123 614.51178,893.33478 614.46533,893.33478 "
     id="polygon1994"
     style="fill:#808080;stroke:#000000;stroke-width:1"
     transform="translate(-203,-838.95558)" />
  <polygon
     points="619.52936,894.31043 615.06934,893.47418 616.09143,893.89227 "
     id="polygon1996"
     style="fill:#808080;stroke:#000000;stroke-width:1"
     transform="translate(-203,-838.95558)" />
  <polygon
     points="619.52936,894.31043 622.96735,893.89227 623.98944,893.47418 "
     id="polygon1998"
     style="fill:#808080;stroke:#000000;stroke-width:1"
     transform="translate(-203,-838.95558)" />
  <polygon
     points="751.28711,885.48321 752.40216,885.01862 753.37781,884.27527 754.12116,883.29962 754.58569,882.18463 754.7251,880.97668 754.77154,880.97668 754.58569,879.76874 754.12116,878.65375 753.37781,877.6781 752.40216,876.93475 751.28711,876.47015 750.07916,876.33081 750.07916,876.28436 619.52936,867.5965 619.52936,867.64294 616.09143,868.0611 615.06934,868.47925 619.52936,867.64294 624.63989,868.61859 628.96057,871.54553 631.88745,875.86621 632.90955,880.97668 631.88745,886.08716 628.96057,890.4079 624.63989,893.33478 619.52936,894.31043 615.02283,893.42773 616.09143,893.89227 619.52936,894.31043 619.52936,894.35687 750.07916,885.66907 750.07916,885.62262 "
     id="polygon2000"
     style="fill:#808080;stroke:#000000;stroke-width:1"
     transform="translate(-203,-838.95558)" />
  <polygon
     points="612.88574,869.40839 610.09821,871.54553 607.96106,874.28662 607.54297,875.35516 610.09821,871.54553 613.86139,868.99029 "
     id="polygon2002"
     style="fill:#808080;stroke:#000000;stroke-width:1"
     transform="translate(-203,-838.95558)" />
  <polygon
     points="606.61377,877.53876 606.19562,880.97668 606.61377,884.41467 607.07837,885.48321 606.19562,880.97668 607.07837,876.47015 "
     id="polygon2004"
     style="fill:#808080;stroke:#000000;stroke-width:1"
     transform="translate(-203,-838.95558)" />
  <polygon
     points="607.96106,887.62036 610.09821,890.4079 612.83929,892.54498 613.90784,892.96313 610.09821,890.4079 607.54297,886.64471 "
     id="polygon2006"
     style="fill:#808080;stroke:#000000;stroke-width:1"
     transform="translate(-203,-838.95558)" />
  <line
     x1="1"
     y1="83.044418"
     x2="617"
     y2="42.021107"
     style="stroke:#ff0000;stroke-width:2"
     id="line2008" />
  <line
     x1="617"
     y1="42.021107"
     x2="1"
     y2="0.9977898"
     style="stroke:#ff0000;stroke-width:2"
     id="line2010" />
  <line
     x1="1"
     y1="0.9977898"
     x2="1"
     y2="83.044418"
     style="stroke:#ff0000;stroke-width:2"
     id="line2012" />
  <line
     x1="41.233505"
     y1="13.262987"
     x2="10.570557"
     y2="11.265245"
     style="stroke:#0000ff;stroke-width:2"
     id="line2014" />
  <line
     x1="10.570557"
     y1="11.265245"
     x2="41.233505"
     y2="13.262987"
     style="stroke:#0000ff;stroke-width:2"
     id="line2016" />
  <line
     x1="39.979111"
     y1="32.45055"
     x2="29.758133"
     y2="31.753649"
     style="stroke:#0000ff;stroke-width:2"
     id="line2018" />
  <line
     x1="29.758133"
     y1="31.753649"
     x2="39.979111"
     y2="32.45055"
     style="stroke:#0000ff;stroke-width:2"
     id="line2020" />
  <line
     x1="10.570557"
     y1="72.776962"
     x2="41.326416"
     y2="70.732773"
     style="stroke:#0000ff;stroke-width:2"
     id="line2022" />
  <line
     x1="41.326416"
     y1="70.732773"
     x2="10.570557"
     y2="72.776962"
     style="stroke:#0000ff;stroke-width:2"
     id="line2024" />
  <line
     x1="29.758133"
     y1="52.288563"
     x2="40.025574"
     y2="51.591663"
     style="stroke:#0000ff;stroke-width:2"
     id="line2026" />
  <line
     x1="40.025574"
     y1="51.591663"
     x2="29.758133"
     y2="52.288563"
     style="stroke:#0000ff;stroke-width:2"
     id="line2028" />
  <line
     x1="119.84213"
     y1="17.119066"
     x2="41.233505"
     y2="13.262987"
     style="stroke:#0000ff;stroke-width:2"
     id="line2030" />
  <line
     x1="41.233505"
     y1="13.262987"
     x2="119.84213"
     y2="17.119066"
     style="stroke:#0000ff;stroke-width:2"
     id="line2032" />
  <line
     x1="118.72714"
     y1="33.751392"
     x2="39.979111"
     y2="32.45055"
     style="stroke:#0000ff;stroke-width:2"
     id="line2034" />
  <line
     x1="39.979111"
     y1="32.45055"
     x2="118.72714"
     y2="33.751392"
     style="stroke:#0000ff;stroke-width:2"
     id="line2036" />
  <line
     x1="10.570557"
     y1="11.265245"
     x2="10.570557"
     y2="42.021107"
     style="stroke:#0000ff;stroke-width:2"
     id="line2038" />
  <line
     x1="10.570557"
     y1="42.021107"
     x2="10.570557"
     y2="11.265245"
     style="stroke:#0000ff;stroke-width:2"
     id="line2040" />
  <line
     x1="29.758133"
     y1="31.753649"
     x2="29.758133"
     y2="42.021107"
     style="stroke:#0000ff;stroke-width:2"
     id="line2042" />
  <line
     x1="29.758133"
     y1="42.021107"
     x2="29.758133"
     y2="31.753649"
     style="stroke:#0000ff;stroke-width:2"
     id="line2044" />
  <line
     x1="10.570557"
     y1="42.021107"
     x2="10.570557"
     y2="72.776962"
     style="stroke:#0000ff;stroke-width:2"
     id="line2046" />
  <line
     x1="10.570557"
     y1="72.776962"
     x2="10.570557"
     y2="42.021107"
     style="stroke:#0000ff;stroke-width:2"
     id="line2048" />
  <line
     x1="29.758133"
     y1="42.021107"
     x2="29.758133"
     y2="52.288563"
     style="stroke:#0000ff;stroke-width:2"
     id="line2050" />
  <line
     x1="29.758133"
     y1="52.288563"
     x2="29.758133"
     y2="42.021107"
     style="stroke:#0000ff;stroke-width:2"
     id="line2052" />
  <line
     x1="41.326416"
     y1="70.732773"
     x2="119.88861"
     y2="66.783737"
     style="stroke:#0000ff;stroke-width:2"
     id="line2054" />
  <line
     x1="119.88861"
     y1="66.783737"
     x2="41.326416"
     y2="70.732773"
     style="stroke:#0000ff;stroke-width:2"
     id="line2056" />
  <line
     x1="40.025574"
     y1="51.591663"
     x2="118.77359"
     y2="50.244373"
     style="stroke:#0000ff;stroke-width:2"
     id="line2058" />
  <line
     x1="118.77359"
     y1="50.244373"
     x2="40.025574"
     y2="51.591663"
     style="stroke:#0000ff;stroke-width:2"
     id="line2060" />
  <line
     x1="138.19345"
     y1="20.742907"
     x2="119.84213"
     y2="17.119066"
     style="stroke:#0000ff;stroke-width:2"
     id="line2062" />
  <line
     x1="119.84213"
     y1="17.119066"
     x2="138.19345"
     y2="20.742907"
     style="stroke:#0000ff;stroke-width:2"
     id="line2064" />
  <line
     x1="136.79968"
     y1="42.021107"
     x2="118.72714"
     y2="33.751392"
     style="stroke:#0000ff;stroke-width:2"
     id="line2066" />
  <line
     x1="118.72714"
     y1="33.751392"
     x2="136.79968"
     y2="42.021107"
     style="stroke:#0000ff;stroke-width:2"
     id="line2068" />
  <line
     x1="119.88861"
     y1="66.783737"
     x2="138.19345"
     y2="63.206409"
     style="stroke:#0000ff;stroke-width:2"
     id="line2070" />
  <line
     x1="138.19345"
     y1="63.206409"
     x2="119.88861"
     y2="66.783737"
     style="stroke:#0000ff;stroke-width:2"
     id="line2072" />
  <line
     x1="118.77359"
     y1="50.244373"
     x2="136.79968"
     y2="42.021107"
     style="stroke:#0000ff;stroke-width:2"
     id="line2074" />
  <line
     x1="136.79968"
     y1="42.021107"
     x2="118.77359"
     y2="50.244373"
     style="stroke:#0000ff;stroke-width:2"
     id="line2076" />
  <line
     x1="138.19345"
     y1="63.206409"
     x2="259.12625"
     y2="57.817188"
     style="stroke:#0000ff;stroke-width:2"
     id="line2078" />
  <line
     x1="259.12625"
     y1="57.817188"
     x2="138.19345"
     y2="63.206409"
     style="stroke:#0000ff;stroke-width:2"
     id="line2080" />
  <line
     x1="136.79968"
     y1="42.021107"
     x2="258.05771"
     y2="42.021107"
     style="stroke:#0000ff;stroke-width:2"
     id="line2082" />
  <line
     x1="258.05771"
     y1="42.021107"
     x2="136.79968"
     y2="42.021107"
     style="stroke:#0000ff;stroke-width:2"
     id="line2084" />
  <line
     x1="259.0798"
     y1="26.08568"
     x2="138.19345"
     y2="20.742907"
     style="stroke:#0000ff;stroke-width:2"
     id="line2086" />
  <line
     x1="138.19345"
     y1="20.742907"
     x2="259.0798"
     y2="26.08568"
     style="stroke:#0000ff;stroke-width:2"
     id="line2088" />
  <line
     x1="259.12625"
     y1="57.817188"
     x2="277.38464"
     y2="53.26421"
     style="stroke:#0000ff;stroke-width:2"
     id="line2090" />
  <line
     x1="277.38464"
     y1="53.26421"
     x2="259.12625"
     y2="57.817188"
     style="stroke:#0000ff;stroke-width:2"
     id="line2092" />
  <line
     x1="258.05771"
     y1="42.021107"
     x2="258.05771"
     y2="42.021107"
     style="stroke:#0000ff;stroke-width:2"
     id="line2094" />
  <line
     x1="258.05771"
     y1="42.021107"
     x2="258.05771"
     y2="42.021107"
     style="stroke:#0000ff;stroke-width:2"
     id="line2096" />
  <line
     x1="277.38464"
     y1="30.685106"
     x2="259.0798"
     y2="26.08568"
     style="stroke:#0000ff;stroke-width:2"
     id="line2098" />
  <line
     x1="259.0798"
     y1="26.08568"
     x2="277.38464"
     y2="30.685106"
     style="stroke:#0000ff;stroke-width:2"
     id="line2100" />
  <line
     x1="258.05771"
     y1="42.021107"
     x2="258.05771"
     y2="42.021107"
     style="stroke:#0000ff;stroke-width:2"
     id="line2102" />
  <line
     x1="258.05771"
     y1="42.021107"
     x2="258.05771"
     y2="42.021107"
     style="stroke:#0000ff;stroke-width:2"
     id="line2104" />
  <line
     x1="277.38464"
     y1="53.26421"
     x2="398.41034"
     y2="49.222279"
     style="stroke:#0000ff;stroke-width:2"
     id="line2106" />
  <line
     x1="398.41034"
     y1="49.222279"
     x2="277.38464"
     y2="53.26421"
     style="stroke:#0000ff;stroke-width:2"
     id="line2108" />
  <line
     x1="398.41034"
     y1="34.680592"
     x2="277.38464"
     y2="30.685106"
     style="stroke:#0000ff;stroke-width:2"
     id="line2110" />
  <line
     x1="277.38464"
     y1="30.685106"
     x2="398.41034"
     y2="34.680592"
     style="stroke:#0000ff;stroke-width:2"
     id="line2112" />
  <line
     x1="398.41034"
     y1="49.222279"
     x2="416.52936"
     y2="42.021107"
     style="stroke:#0000ff;stroke-width:2"
     id="line2114" />
  <line
     x1="416.52936"
     y1="42.021107"
     x2="398.41034"
     y2="49.222279"
     style="stroke:#0000ff;stroke-width:2"
     id="line2116" />
  <line
     x1="416.52936"
     y1="42.021107"
     x2="398.41034"
     y2="34.680592"
     style="stroke:#0000ff;stroke-width:2"
     id="line2118" />
  <line
     x1="398.41034"
     y1="34.680592"
     x2="416.52936"
     y2="42.021107"
     style="stroke:#0000ff;stroke-width:2"
     id="line2120" />
  <line
     x1="416.52936"
     y1="42.021107"
     x2="547.07916"
     y2="42.021107"
     style="stroke:#0000ff;stroke-width:2"
     id="line2122" />
  <line
     x1="547.07916"
     y1="42.021107"
     x2="416.52936"
     y2="42.021107"
     style="stroke:#0000ff;stroke-width:2"
     id="line2124" />
  <line
     x1="547.07916"
     y1="42.021107"
     x2="547.07916"
     y2="42.021107"
     style="stroke:#0000ff;stroke-width:2"
     id="line2126" />
  <line
     x1="547.07916"
     y1="42.021107"
     x2="547.07916"
     y2="42.021107"
     style="stroke:#0000ff;stroke-width:2"
     id="line2128" />
  <line
     x1="547.07916"
     y1="42.021107"
     x2="547.07916"
     y2="42.021107"
     style="stroke:#0000ff;stroke-width:2"
     id="line2130" />
  <line
     x1="547.07916"
     y1="42.021107"
     x2="547.07916"
     y2="42.021107"
     style="stroke:#0000ff;stroke-width:2"
     id="line2132" />
</svg>
