<?xml version="1.0" encoding="UTF-8" standalone="no"?>
<svg
   xmlns:dc="http://purl.org/dc/elements/1.1/"
   xmlns:cc="http://creativecommons.org/ns#"
   xmlns:rdf="http://www.w3.org/1999/02/22-rdf-syntax-ns#"
   xmlns:svg="http://www.w3.org/2000/svg"
   xmlns="http://www.w3.org/2000/svg"
   xmlns:sodipodi="http://sodipodi.sourceforge.net/DTD/sodipodi-0.dtd"
   xmlns:inkscape="http://www.inkscape.org/namespaces/inkscape"
   height="80.592926"
   width="550.64606"
   id="svg1860"
   version="1.1"
   sodipodi:docname="wedge_no_transitioning.svg"
   inkscape:version="0.92.3 (2405546, 2018-03-11)"
   inkscape:export-filename="/home/t.kuipers/Documents/PhD/Variable_Width_project/paper/paper_private_git/sources/method/wedge_no_transitioning.png"
   inkscape:export-xdpi="100"
   inkscape:export-ydpi="100">
  <defs
     id="defs1263" />
  <sodipodi:namedview
     pagecolor="#ffffff"
     bordercolor="#666666"
     borderopacity="1"
     objecttolerance="10"
     gridtolerance="10"
     guidetolerance="10"
     inkscape:pageopacity="0"
     inkscape:pageshadow="2"
     inkscape:window-width="1920"
     inkscape:window-height="1025"
     id="namedview1261"
     showgrid="false"
     inkscape:zoom="2.6074563"
     inkscape:cx="139.2194"
     inkscape:cy="18.927953"
     inkscape:window-x="948"
     inkscape:window-y="1080"
     inkscape:window-maximized="1"
     inkscape:current-layer="layer2"
     fit-margin-top="0"
     fit-margin-left="0"
     fit-margin-right="0"
     fit-margin-bottom="0" />
  <metadata
     id="metadata1866">
    <rdf:RDF>
      <cc:Work
         rdf:about="">
        <dc:format>image/svg+xml</dc:format>
        <dc:type
           rdf:resource="http://purl.org/dc/dcmitype/StillImage" />
        <dc:title></dc:title>
      </cc:Work>
    </rdf:RDF>
  </metadata>
  <g
     inkscape:groupmode="layer"
     inkscape:label="layer1"
     id="layer1"
     style="display:inline"
     transform="translate(-0.030973,-0.712389)">
    <polygon
       points="39.646019,60.119469 39.584072,60.119469 29.393805,60.800884 28.774336,60.800884 26.327435,60.49115 24.004425,59.530975 22.022123,58.013275 20.504425,56.030975 19.544249,53.707966 19.234512,51.261063 19.234512,30.756638 19.544249,28.309734 20.504425,25.986725 22.022123,24.004425 24.004425,22.486725 26.327435,21.526548 28.774336,21.216814 29.393805,21.216814 39.615044,21.89823 39.676991,21.89823 118.44247,24.530973 118.41151,24.469027 39.986725,21.836283 39.676991,21.836283 19.141592,20.473452 19.141592,30.41593 134.64159,30.41593 256.18143,33.110619 256.15045,33.0177 134.61063,30.323009 134.64159,30.41593 19.141592,30.41593 19.141592,40.977875 38.345131,40.977875 38.345131,41.039822 115.68584,41.039822 115.68584,41.00885 38.995575,40.977875 38.345131,40.977875 19.141592,40.977875 19.141592,41.039822 274.02213,41.039822 392.3407,41.070797 392.3407,40.977875 274.02213,41.039822 19.141592,41.039822 19.141592,51.601768 134.64159,51.601768 134.61063,51.725662 256.11948,49.061947 256.18143,48.907078 134.64159,51.601768 19.141592,51.601768 19.141592,61.544247 10.190266,0.712389 40.915928,2.756637 128.60178,8.61062 128.66371,8.61062 267.3938,17.871681 267.8584,17.871681 406.65045,27.132744 407.11505,27.132744 546.3717,36.424778 547.2699,36.579647 548.38495,37.013275 549.34515,37.756638 550.0885,38.716816 550.5221,39.83186 550.677,41.00885 550.5221,42.185841 550.0885,43.300884 549.34515,44.261063 548.38495,45.004425 547.2699,45.438053 546.3717,45.592922 407.11505,54.884956 407.08408,54.884956 267.82742,64.207962 267.36282,64.207962 128.88052,73.407082 128.5708,73.469025 40.853981,79.292038 10.190266,81.305313 9.570796,81.305313 7.123894,80.995575 4.800885,80.0354 2.818584,78.5177 1.300885,76.5354 0.340708,74.212387 0.030973,71.765488 0.030973,10.252213 0.340708,7.80531 1.300885,5.482301 2.818584,3.5 4.800885,1.982301 7.123894,1.022124 9.570796,0.712389 10.190266,0.712389 19.141592,61.544247 39.615044,60.212391 39.924778,60.212391 118.38053,57.610619 118.44247,57.486725 "
       id="polygon1132"
       style="fill:#7d7d7d;stroke:none;stroke-width:1" />
    <polygon
       points="118.78319,57.300884 39.676991,59.902657 39.584072,59.902657 29.393805,60.584072 28.774336,60.584072 26.358408,60.274338 24.097345,59.345131 22.176991,57.858406 21.89823,57.486725 20.690266,55.938053 19.761063,53.676991 19.451328,51.261063 19.451328,30.756638 19.761063,28.340708 20.690266,26.110619 20.690266,26.079645 22.176991,24.159292 23.230089,23.353983 24.097345,22.672565 26.358408,21.743362 28.774336,21.433628 29.393805,21.433628 39.615044,22.115044 39.707966,22.115044 118.78319,24.747787 118.72124,24.685841 118.56637,24.283186 39.986725,21.619469 39.676991,21.619469 18.924778,20.225664 18.924778,30.632744 134.5177,30.632744 256.52213,33.265488 256.36725,32.862831 134.30089,30.106195 134.5177,30.632744 18.924778,30.632744 18.924778,41.00885 273.86725,41.00885 273.83627,41.287609 392.68143,41.225662 392.65045,41.00885 392.68143,40.823009 273.83627,40.792034 273.86725,41.00885 18.924778,41.00885 18.924778,41.256638 38.128319,41.256638 38.964603,41.256638 115.93363,41.225662 115.90266,41.00885 115.93363,40.823009 38.995575,40.761063 38.376106,40.761063 38.128319,40.730087 38.128319,41.256638 18.924778,41.256638 18.924778,51.384956 134.54868,51.384956 134.30089,51.942478 256.33627,49.216816 256.52213,48.752213 134.54868,51.384956 18.924778,51.384956 18.924778,61.792034 10.190266,0.929204 40.915928,2.973451 128.5708,8.79646 128.9115,8.858407 267.8584,18.057522 268.4469,18.150442 407.11505,27.318584 408.35397,27.535398 546.3717,36.5177 547.23895,36.641594 548.354,37.106194 549.2832,37.818584 549.9956,38.778763 550.4602,39.862831 550.58404,41.00885 550.4602,42.154869 549.9956,43.269913 549.2832,44.199116 548.354,44.911503 547.23895,45.376106 546.3717,45.5 408.47787,54.4823 408.38495,54.513275 407.08408,54.730087 268.41592,63.929203 267.82742,64.022125 129.19026,73.190262 128.53983,73.283188 40.823009,79.075218 10.159292,81.088493 9.570796,81.088493 7.154867,80.778763 4.893806,79.849556 2.973451,78.362831 2.570796,77.836281 1.486726,76.442474 0.557522,74.181419 0.247788,71.765488 0.247788,10.252213 0.557522,7.836283 0.650442,7.619469 1.486726,5.575221 2.973451,3.654867 3.469027,3.283186 4.893806,2.168142 7.154867,1.238938 9.570796,0.929204 10.190266,0.929204 18.924778,61.792034 39.646019,60.429203 39.924778,60.429203 118.5354,57.796459 118.72124,57.362831 "
       id="polygon1134"
       style="fill:#818181;stroke:none;stroke-width:1" />
    <polygon
       points="119.37168,57.053097 39.615044,59.654869 39.553097,59.654869 29.362831,60.336285 28.774336,60.336285 26.420355,60.02655 24.221239,59.128319 22.362831,57.672565 21.495575,56.557522 20.90708,55.814159 20.00885,53.615044 19.699116,51.261063 19.699116,30.756638 20.00885,28.402655 20.256638,27.783186 20.90708,26.203539 22.362831,24.345133 23.353983,23.570797 24.221239,22.889381 26.420355,21.99115 28.774336,21.681416 29.362831,21.681416 39.584072,22.362831 39.646019,22.362831 119.34071,24.995575 119,24.530973 118.81416,24.066372 39.986725,21.371681 39.707966,21.371681 18.676991,19.977877 18.676991,30.911505 134.42477,30.911505 256.95575,33.513275 256.58408,32.646019 133.9292,29.796461 134.42477,30.911505 18.676991,30.911505 18.676991,41.00885 273.65045,41.00885 273.5885,41.597343 393.0531,41.411503 392.99115,41.00885 393.02213,40.637169 273.5885,40.4823 273.65045,41.00885 18.676991,41.00885 18.676991,41.535397 37.880531,41.535397 38.376106,41.504425 38.964603,41.504425 116.27434,41.442478 116.21239,41.00885 116.27434,40.606194 38.995575,40.513275 38.407078,40.513275 37.880531,40.4823 37.880531,41.535397 18.676991,41.535397 18.676991,51.106194 134.42477,51.106194 133.9292,52.252213 256.58408,49.433628 256.92477,48.504425 134.42477,51.106194 18.676991,51.106194 18.676991,62.039822 10.159292,1.176991 40.884956,3.221239 128.5708,9.013274 129.80974,9.230088 267.82742,18.274336 269.2522,18.522123 407.08408,27.473452 408.38495,27.690266 409.0354,27.90708 546.3407,36.641594 547.20795,36.765488 548.29205,37.230087 549.19025,37.911503 549.8717,38.84071 550.3363,39.893806 550.4602,41.00885 550.3363,42.123894 549.8717,43.207966 549.19025,44.106194 548.29205,44.787609 547.20795,45.252213 546.3407,45.376106 409.1593,54.110619 409.06638,54.141594 408.35397,54.358406 407.0531,54.575222 269.22125,63.557522 267.79645,63.805309 130.02655,72.818581 128.53983,73.066368 40.823009,78.827431 10.159292,80.840706 9.570796,80.840706 7.216814,80.530975 5.017699,79.632744 3.159292,78.176994 2.725664,77.619469 1.70354,76.318581 0.80531,74.119469 0.495575,71.765488 0.495575,10.252213 0.80531,7.89823 1.70354,5.730089 1.70354,5.699115 3.159292,3.840708 3.964602,3.221239 5.017699,2.384956 7.216814,1.486726 9.570796,1.176991 10.159292,1.176991 18.676991,62.039822 39.646019,60.676991 39.955753,60.676991 118.81416,58.013275 119,57.5177 "
       id="polygon1136"
       style="fill:#858585;stroke:none;stroke-width:1" />
    <polygon
       points="120.02213,56.774338 39.584072,59.345131 39.522125,59.345131 29.331858,60.02655 28.774336,60.02655 26.513275,59.747787 24.376106,58.849556 22.579645,57.455753 22.053097,56.774338 21.185841,55.65929 20.287611,53.522125 20.00885,51.261063 20.00885,30.756638 20.287611,28.495575 20.628319,27.721239 21.185841,26.358408 22.579645,24.561947 23.137169,24.128319 24.376106,23.168142 26.513275,22.269911 28.774336,21.99115 29.331858,21.99115 39.553097,22.672565 39.615044,22.672565 120.02213,25.274336 119.30974,24.345133 119.09292,23.818584 40.0177,21.061947 39.738937,21.061947 18.367256,19.637169 18.367256,31.004425 134.17699,31.004425 134.20796,31.097345 134.23894,31.252213 257.45132,33.761063 256.8938,32.398232 133.52655,29.455751 134.17699,31.004425 18.367256,31.004425 18.367256,41.00885 273.40265,41.00885 273.27875,41.969025 393.54868,41.65929 393.45575,41.00885 393.54868,40.389381 273.30972,40.110619 273.40265,41.00885 18.367256,41.00885 18.367256,41.876106 37.570797,41.876106 38.407078,41.814159 38.964603,41.814159 116.64602,41.690266 116.5531,41.00885 116.64602,40.327435 38.995575,40.203541 38.438053,40.203541 37.570797,40.141594 37.570797,41.876106 18.367256,41.876106 18.367256,50.765488 134.26991,50.765488 134.17699,51.044247 133.52655,52.623894 256.86282,49.681416 257.45132,48.256638 134.26991,50.765488 18.367256,50.765488 18.367256,62.380531 10.128319,1.486726 40.853981,3.530973 128.53983,9.261062 129.99558,9.508849 130.21239,9.601769 267.79645,18.522123 269.19028,18.738937 269.65488,18.924778 407.08408,27.721239 408.323,27.938053 409.5,28.371681 409.56195,28.402655 546.3407,36.796459 547.177,36.920353 548.1991,37.353981 549.06634,38.035397 549.7478,38.902657 550.1814,39.924778 550.3053,41.00885 550.1814,42.092922 549.7478,43.115044 549.06634,43.9823 548.1991,44.663715 547.177,45.097343 546.3407,45.221237 409.6239,53.615044 409.5,53.676991 408.38495,54.079647 408.29202,54.110619 407.0531,54.327435 269.6239,63.154869 269.1593,63.34071 267.76547,63.557522 130.27434,72.446899 129.9646,72.570793 128.50885,72.818581 40.792034,78.5177 10.128319,80.530975 9.570796,80.530975 7.309734,80.252213 5.172566,79.353981 3.376106,77.960175 1.982301,76.163719 1.084071,74.02655 0.80531,71.765488 0.80531,10.252213 1.084071,7.99115 1.982301,5.884956 1.982301,5.853982 3.376106,4.057522 4.057522,3.530973 5.172566,2.663717 7.309734,1.765487 9.570796,1.486726 10.128319,1.486726 18.367256,62.380531 39.676991,60.986725 39.955753,60.986725 119.06195,58.261063 119.30974,57.703541 "
       id="polygon1138"
       style="fill:#8b8b8b;stroke:none;stroke-width:1" />
    <polygon
       points="120.76549,56.433628 39.584072,58.97345 39.522125,58.97345 29.331858,59.654869 28.774336,59.654869 26.606195,59.376106 24.561947,58.539822 22.827435,57.207966 22.300884,56.52655 21.495575,55.47345 20.659292,53.429203 20.380531,51.261063 20.380531,30.756638 20.659292,28.588495 20.90708,27.969027 21.495575,26.544249 22.827435,24.809734 24.561947,23.477877 26.606195,22.641592 28.774336,22.362831 29.331858,22.362831 39.553097,23.044249 39.615044,23.044249 120.76549,25.58407 119.65044,24.159292 119.37168,23.50885 40.0177,20.690266 39.738937,20.690266 17.995575,19.234512 17.995575,29.362831 133.18584,29.362831 133.89822,31.097345 133.9292,31.283186 134.02212,31.654867 258.0708,34.070797 257.26547,32.119469 132.93805,29.022123 133.18584,29.362831 17.995575,29.362831 17.995575,41.00885 273.1239,41.00885 272.93805,42.402657 394.1062,41.938053 393.9823,41.00885 394.1062,40.110619 272.96902,39.676991 273.1239,41.00885 17.995575,41.00885 17.995575,42.278763 37.199116,42.278763 38.407078,42.185841 38.964603,42.185841 117.07964,42.030975 116.95575,41.00885 117.07964,40.0177 38.995575,39.83186 38.438053,39.83186 37.199116,39.738937 37.199116,42.278763 17.995575,42.278763 17.995575,50.362831 134.02212,50.362831 133.9292,50.765488 133.89822,50.951328 133.18584,52.685841 132.93805,53.02655 257.23453,49.960178 258.0708,47.977875 258.0708,47.946903 134.02212,50.362831 17.995575,50.362831 17.995575,62.783184 10.128319,1.858407 40.853981,3.902655 40.884956,3.902655 128.50885,9.570796 129.90265,9.787611 130.4292,10.004425 267.79645,18.800884 269.09735,19.017698 270.05753,19.420355 407.0531,27.969027 408.26105,28.154867 409.7478,28.774336 410.05753,28.960176 546.30975,36.951328 547.146,37.075222 548.13715,37.477875 548.97345,38.128319 549.6239,38.995575 550.02655,39.955753 550.15045,41.00885 550.02655,42.061947 549.6239,43.053097 548.97345,43.889381 548.13715,44.539822 547.146,44.942478 546.30975,45.066372 410.05753,53.057522 409.87167,53.181416 409.71683,53.274338 408.2301,53.893806 407.02213,54.079647 270.02655,62.65929 269.06638,63.061947 267.76547,63.278763 130.49115,72.04425 129.87169,72.292038 128.47788,72.50885 40.761063,78.146019 10.097345,80.159294 9.570796,80.159294 7.402655,79.880531 5.358407,79.04425 3.623894,77.712387 3.097345,77.030975 2.292035,75.977875 1.455752,73.933632 1.176991,71.765488 1.176991,10.252213 1.455752,8.084071 2.292035,6.070796 2.292035,6.039823 3.623894,4.30531 4.150443,3.902655 5.358407,2.973451 7.402655,2.137168 9.570796,1.858407 10.128319,1.858407 17.995575,62.783184 39.707966,61.358406 39.955753,61.358406 119.37168,58.570797 119.65044,57.889381 "
       id="polygon1140"
       style="fill:#929292;stroke:none;stroke-width:1" />
    <polygon
       points="121.50885,56.278763 121.81858,56.030975 39.553097,58.539822 39.49115,58.539822 29.300884,59.221237 28.774336,59.221237 26.730089,58.97345 24.778761,58.16814 23.137169,56.898232 22.610619,56.216816 21.867256,55.256638 21.061947,53.305309 20.814159,51.261063 20.814159,30.756638 21.061947,28.712389 21.216814,28.309734 21.867256,26.761063 23.137169,25.119469 23.911505,24.530973 24.778761,23.849558 26.730089,23.044249 28.774336,22.796461 29.300884,22.796461 39.522125,23.477877 39.584072,23.477877 121.81858,26.017698 121.50885,25.769911 120.64159,24.623894 120.08407,23.911505 119.77434,23.168142 40.0177,20.256638 39.769913,20.256638 17.561947,18.769911 17.561947,29.548672 132.84514,29.548672 133.52655,31.190266 133.5885,31.469027 133.74336,32.119469 258.84512,34.442478 258.72125,34.287609 257.76105,31.964602 257.7301,31.747787 132.03983,28.526548 132.84514,29.548672 17.561947,29.548672 17.561947,39.367256 272.5354,39.367256 272.7522,41.00885 272.5354,42.650444 272.4115,42.929203 394.7876,42.278763 394.63275,41.00885 394.7876,39.769913 272.44247,39.150444 272.5354,39.367256 17.561947,39.367256 17.561947,42.743362 36.765488,42.743362 38.438053,42.619469 38.964603,42.619469 117.60619,42.402657 117.45132,41.00885 117.60619,39.646019 38.995575,39.398232 38.469025,39.398232 36.765488,39.274338 36.765488,42.743362 17.561947,42.743362 17.561947,49.898232 133.74336,49.898232 133.5885,50.579647 133.52655,50.858406 132.84514,52.5 132.03983,53.522125 257.69913,50.33186 257.7301,50.115044 258.69028,47.792034 258.8761,47.575222 133.74336,49.898232 17.561947,49.898232 17.561947,63.247787 10.097345,2.292035 40.823009,4.336283 40.853981,4.336283 128.47788,9.942478 129.80974,10.159292 130.67699,10.530973 267.76547,19.172565 269.00443,19.389381 270.46017,19.946903 407.02213,28.309734 408.16815,28.495575 409.56195,29.08407 410.11948,29.455751 410.33627,29.610619 546.27875,37.16814 547.08404,37.292034 548.01324,37.663715 548.8186,38.283184 549.43805,39.088497 549.80975,40.0177 549.93366,41.00885 549.80975,42 549.43805,42.929203 548.8186,43.734512 548.01324,44.353981 547.08404,44.725662 546.27875,44.849556 410.36725,52.407078 410.11948,52.592922 409.53098,52.964603 408.13718,53.553097 406.99115,53.738937 270.4292,62.132744 268.97345,62.690266 267.73453,62.907078 130.70796,71.5177 129.77876,71.920357 128.4469,72.137169 40.730087,77.712387 10.066372,79.725662 9.570796,79.725662 7.526549,79.477875 5.575221,78.672569 3.933628,77.402657 2.663717,75.761063 1.858407,73.809738 1.610619,71.765488 1.610619,10.252213 1.858407,8.207965 2.663717,6.287611 2.663717,6.256637 3.933628,4.615044 4.30531,4.336283 5.575221,3.345133 7.526549,2.539823 9.570796,2.292035 10.097345,2.292035 17.561947,63.247787 39.738937,61.792034 39.955753,61.792034 119.74336,58.911503 120.08407,58.137169 "
       id="polygon1142"
       style="fill:#9a9a9a;stroke:none;stroke-width:1" />
    <polygon
       points="120.61062,58.446903 121.94247,56.712391 122.22124,56.495575 123.49115,55.504425 39.522125,58.013275 39.460178,58.013275 29.269911,58.694691 28.774336,58.694691 26.853983,58.446903 25.057522,57.703541 23.50885,56.52655 22.331858,54.977875 21.588495,53.181416 21.340708,51.261063 21.340708,30.756638 21.588495,28.836283 22.331858,27.039824 23.50885,25.49115 25.057522,24.314159 26.853983,23.570797 28.774336,23.323009 29.269911,23.323009 39.49115,24.004425 39.553097,24.004425 123.49115,26.513275 121.94247,25.336283 121.16814,24.314159 120.61062,23.60177 120.23894,22.703539 40.048672,19.730089 39.83186,19.730089 17.035398,18.212389 17.035398,28.464602 131.45132,28.464602 132.44247,29.765488 133.09293,31.314159 133.15486,31.685841 133.37169,32.738937 260.0531,34.907078 259.74338,34.535397 259.30972,33.977875 258.38052,31.778761 258.31857,31.314159 130.67699,27.876106 131.45132,28.464602 17.035398,28.464602 17.035398,39.460178 272.13275,39.460178 272.31857,41.00885 272.13275,42.557522 271.7301,43.579647 395.6239,42.681416 395.40707,41.00885 395.59293,39.367256 271.7301,38.5 272.13275,39.460178 17.035398,39.460178 17.035398,43.300884 36.238937,43.300884 38.469025,43.146019 38.964603,43.146019 118.31858,42.867256 118.07079,41.00885 118.31858,39.181416 38.995575,38.871681 38.5,38.871681 36.238937,38.716816 36.238937,43.300884 17.035398,43.300884 17.035398,49.278763 133.40265,49.278763 133.18584,50.362831 133.09293,50.703541 133.09293,50.734512 132.44247,52.283184 131.45132,53.584072 130.67699,54.172565 258.2876,50.765488 258.34955,50.300884 258.90707,49 259.27875,48.101768 260.0531,47.110619 133.40265,49.278763 17.035398,49.278763 17.035398,63.805309 10.035398,2.818584 40.761063,4.862832 128.4469,10.40708 129.68584,10.59292 131.04868,11.150442 267.70355,19.606195 268.9115,19.792036 270.36725,20.380531 270.677,20.628319 406.99115,28.681416 408.07523,28.836283 409.3761,29.393805 410.3053,30.075222 410.677,30.41593 546.27875,37.446903 547.0221,37.539822 547.8894,37.911503 548.63275,38.469025 549.19025,39.243362 549.56195,40.079647 549.65485,41.00885 549.56195,41.938053 549.19025,42.805309 548.63275,43.548672 547.8894,44.106194 547.0221,44.477875 546.27875,44.570797 410.64603,51.601768 410.27432,51.97345 409.3761,52.623894 409.34512,52.654869 408.04425,53.212391 406.96017,53.367256 270.64603,61.451328 270.33627,61.699116 268.88052,62.287609 267.67258,62.47345 131.07965,70.898232 129.65486,71.486725 128.41592,71.672569 40.699116,77.185844 10.035398,79.199112 9.570796,79.199112 7.650443,78.951324 5.853982,78.207962 4.30531,77.030975 3.128319,75.4823 2.384956,73.685844 2.137168,71.765488 2.137168,10.252213 2.384956,8.331859 3.128319,6.535398 4.30531,4.986726 5.853982,3.809735 7.650443,3.066372 9.570796,2.818584 10.035398,2.818584 17.035398,63.805309 39.769913,62.318584 39.986725,62.318584 120.23894,59.376106 120.26991,59.283184 "
       id="polygon1144"
       style="fill:#a4a4a4;stroke:none;stroke-width:1" />
    <polygon
       points="122.43805,57.207966 124.04868,56 125.90708,55.225662 127.67257,54.977875 259.03098,51.230087 259.1239,50.486725 259.9292,48.504425 261.26105,46.800884 261.5708,46.553097 132.96902,48.597343 132.69026,50.115044 132.59735,50.455753 132.56638,50.610619 131.97788,52.004425 131.07965,53.212391 129.87169,54.110619 128.47788,54.699116 127.14602,54.884956 39.460178,57.362831 39.398232,57.362831 29.207964,58.044247 28.774336,58.044247 27.039824,57.827435 25.367256,57.146019 23.973452,56.061947 22.889381,54.66814 22.207964,52.995575 21.99115,51.261063 21.99115,30.756638 22.207964,29.022123 22.269911,28.836283 22.889381,27.349558 23.973452,25.955751 25.367256,24.871681 27.039824,24.190266 28.774336,23.973452 29.207964,23.973452 39.429203,24.654867 39.49115,24.654867 127.14602,27.163717 128.47788,27.349558 129.87169,27.938053 131.07965,28.836283 131.97788,30.044249 132.56638,31.438053 132.69026,31.933628 132.93805,33.420353 261.50885,35.464603 261.29202,35.278763 259.96017,33.575222 259.15488,31.59292 259.06195,30.818584 127.67257,27.070797 125.90708,26.823009 124.04868,26.048672 122.43805,24.840708 121.23009,23.230089 120.79646,22.176991 40.048672,19.079645 39.862831,19.079645 16.384956,17.530973 16.384956,38.283184 271.11063,38.283184 271.63718,39.584072 271.823,41.00885 271.63718,42.433628 271.11063,43.765488 270.64603,44.353981 396.58408,43.146019 396.33627,41.00885 396.58408,38.902657 270.677,37.725662 271.11063,38.283184 16.384956,38.283184 16.384956,43.9823 35.588497,43.9823 38.530975,43.796459 38.933628,43.796459 119.15487,43.393806 119.12389,43.300884 119.03097,42.99115 118.78319,41.00885 119.03097,39.02655 119.03097,38.995575 119.12389,38.685841 119.12389,38.654869 38.964603,38.221237 38.561947,38.221237 35.588497,38.035397 35.588497,43.9823 16.384956,43.9823 16.384956,64.5177 10.004425,3.469027 40.730087,5.513274 40.761063,5.513274 128.41592,10.933628 129.56195,11.119469 130.95575,11.707965 131.17256,11.893806 267.67258,20.10177 268.7876,20.287611 270.11948,20.814159 270.86282,21.402655 406.96017,29.146017 407.95132,29.300884 409.1593,29.796461 410.18143,30.570797 410.36725,30.787611 410.83185,31.314159 546.2478,37.756638 546.9292,37.849556 547.7345,38.190266 548.38495,38.716816 548.9115,39.398232 549.2522,40.172565 549.34515,41.00885 549.2522,41.845131 548.9115,42.650444 548.38495,43.300884 547.7345,43.827435 546.9292,44.16814 546.2478,44.261063 410.83185,50.703541 410.33627,51.261063 410.15045,51.477875 409.12833,52.252213 407.92035,52.747787 406.9292,52.902657 270.83185,60.676991 270.0885,61.265488 268.75662,61.792034 267.6416,61.977875 131.20354,70.154869 130.92477,70.371681 129.53098,70.960175 128.38495,71.146019 40.699116,76.5354 40.66814,76.5354 10.004425,78.548676 9.570796,78.548676 7.836283,78.331856 6.163717,77.650444 4.769911,76.566368 4.057522,75.637169 3.685841,75.172569 3.004425,73.5 2.787611,71.765488 2.787611,10.252213 3.004425,8.517699 3.685841,6.845133 4.769911,5.451327 6.163717,4.367257 7.836283,3.685841 9.570796,3.469027 10.004425,3.469027 16.384956,64.5177 39.800884,62.969025 39.986725,62.969025 120.79646,59.902657 121.23009,58.818584 "
       id="polygon1146"
       style="fill:#b0b0b0;stroke:none;stroke-width:1" />
    <polygon
       points="123.05753,57.827435 124.4823,56.743362 126.12389,56.061947 127.70354,55.845131 259.86725,51.849556 260.02213,50.734512 260.73453,48.969025 261.9115,47.451328 263.4292,46.274338 264.3584,45.902657 132.38052,47.730087 132.0708,49.867256 131.9469,50.424778 131.42035,51.694691 130.61505,52.747787 129.56195,53.553097 128.29204,54.079647 127.11504,54.234512 39.429203,56.619469 39.367256,56.619469 29.176991,57.300884 28.774336,57.300884 27.225664,57.115044 25.738937,56.495575 24.5,55.535397 23.973452,54.853981 23.539824,54.296459 22.920355,52.809734 22.734512,51.261063 22.734512,30.756638 22.920355,29.207964 23.261063,28.402655 23.539824,27.721239 24.5,26.482302 25.150442,25.986725 25.738937,25.522123 27.225664,24.902655 28.774336,24.716814 29.176991,24.716814 39.398232,25.39823 39.460178,25.39823 127.11504,27.814159 128.29204,27.969027 129.56195,28.495575 130.24336,29.022123 130.61505,29.300884 131.42035,30.353983 131.91592,31.530973 131.9469,31.623894 132.0708,32.181416 132.38052,34.287609 264.23453,36.115044 263.46017,35.805309 261.94247,34.628319 260.76547,33.110619 260.0531,31.345133 259.89822,30.230089 127.70354,26.203539 126.12389,25.986725 124.4823,25.305309 123.05753,24.221239 121.97345,22.796461 121.4469,21.557522 40.079647,18.336283 39.893806,18.336283 15.641593,16.725664 15.641593,37.570797 269.77875,37.570797 270.5531,38.592922 271.04868,39.769913 271.20355,41.00885 271.04868,42.247787 270.5531,43.455753 269.77875,44.446903 268.7876,45.221237 268.60178,45.283184 397.88495,43.703541 397.69913,43.269913 397.42035,41.00885 397.69913,38.747787 397.88495,38.345131 268.7876,36.796459 269.77875,37.570797 15.641593,37.570797 15.641593,44.787609 34.845131,44.787609 38.561947,44.539822 38.933628,44.539822 120.23894,44.044247 119.89823,42.867256 119.86726,42.774338 119.65044,41.00885 119.86726,39.243362 119.89823,39.150444 120.23894,38.004425 38.964603,37.477875 38.592922,37.477875 34.845131,37.230087 34.845131,44.787609 15.641593,44.787609 15.641593,65.292038 9.973452,4.212389 40.699116,6.256637 40.730087,6.256637 128.38495,11.584071 129.3761,11.738938 130.64601,12.265487 131.29646,12.761062 267.6416,20.721239 268.60178,20.876106 269.80972,21.371681 270.80087,22.146017 270.95575,22.331858 406.89822,29.703539 407.79645,29.827435 408.88052,30.292036 409.77875,30.973452 410.24338,31.530973 410.86282,32.398232 546.18585,38.097343 546.8363,38.190266 547.54864,38.469025 548.16815,38.933628 548.63275,39.553097 548.9115,40.265488 549.0044,41.00885 548.9115,41.752213 548.63275,42.464603 548.16815,43.084072 547.54864,43.548672 546.8363,43.827435 546.18585,43.920353 410.86282,49.619469 410.2124,50.5177 409.8407,50.951328 409.7478,51.075222 408.84955,51.756638 407.76547,52.221237 406.86725,52.345131 270.92477,59.747787 270.7699,59.933628 269.77875,60.707966 268.5708,61.203541 267.61063,61.358406 131.29646,69.287613 130.61505,69.814156 129.34514,70.340706 128.32301,70.495575 40.637169,75.792038 40.606194,75.792038 9.942478,77.805313 9.570796,77.805313 8.022124,77.619469 6.535398,77 5.29646,76.039825 4.49115,74.986725 4.336283,74.800888 3.716814,73.314156 3.530973,71.765488 3.530973,10.252213 3.716814,8.70354 4.336283,7.247787 4.336283,7.216814 5.29646,5.977876 6.535398,5.017699 8.022124,4.39823 9.570796,4.212389 9.973452,4.212389 15.641593,65.292038 39.862831,63.712391 40.0177,63.712391 121.4469,60.522125 121.97345,59.252213 "
       id="polygon1148"
       style="fill:#bebebe;stroke:none;stroke-width:1" />
    <polygon
       points="120.67257,41.00885 120.82743,39.615044 121.4469,37.230087 38.964603,36.548672 38.654869,36.548672 33.915928,36.238937 33.915928,45.778763 29.115044,25.646017 39.336285,26.327435 39.367256,26.327435 127.08407,28.588495 128.1062,28.712389 129.15929,29.146017 130.05753,29.858408 130.76991,30.756638 131.20354,31.809734 131.32744,32.429203 131.63716,35.278763 266.37167,36.889381 267.3938,37.013275 268.41592,37.415928 269.2522,38.097343 269.93362,38.964603 270.33627,39.955753 270.46017,41.00885 270.33627,42.061947 269.93362,43.084072 269.2522,43.920353 268.41592,44.601768 267.3938,45.004425 266.37167,45.128319 131.63716,46.738937 131.32744,49.619469 131.20354,50.176991 131.20354,50.238937 130.76991,51.292034 130.05753,52.190266 129.15929,52.902657 128.1062,53.336285 127.08407,53.460178 39.336285,55.690266 39.305309,55.690266 29.115044,56.371681 28.774336,56.371681 27.473452,56.216816 26.203539,55.690266 25.150442,54.884956 24.345133,53.83186 23.818584,52.561947 23.663717,51.261063 23.663717,30.756638 23.818584,29.455751 24.345133,28.216814 24.345133,28.185841 25.150442,27.132744 25.305309,27.00885 26.203539,26.327435 27.473452,25.800884 28.774336,25.646017 29.115044,25.646017 33.915928,45.778763 38.623894,45.469025 38.933628,45.469025 121.4469,44.818584 120.82743,42.402657 "
       id="polygon1150"
       style="fill:#d0d0d0;stroke:none;stroke-width:1" />
    <polygon
       points="122.34513,61.048672 122.87168,59.747787 123.80089,58.570797 124.51327,58.013275 124.97787,57.641594 126.40266,57.053097 127.70354,56.867256 260.88937,52.592922 261.07523,51.013275 261.6947,49.52655 262.68585,48.225662 263.98672,47.234512 265.47345,46.615044 266.99115,46.429203 399.5885,44.384956 399,42.929203 398.7522,41.00885 399,39.088497 399.5885,37.694691 267.02213,35.650444 265.50443,35.464603 264.0177,34.845131 262.71683,33.853981 261.72568,32.553097 261.1062,31.066372 260.92035,29.486725 127.70354,25.181416 126.40266,24.995575 124.97787,24.40708 123.80089,23.477877 123.76991,23.446903 122.87168,22.300884 122.28319,20.876106 122.28319,20.783186 40.110619,17.40708 39.955753,17.40708 14.712389,15.734513 14.712389,66.283188 9.911505,5.141593 40.637169,7.185841 40.66814,7.185841 128.32301,12.358407 129.19026,12.482301 130.24336,12.915929 131.14159,13.628319 131.26549,13.783186 267.57965,21.464602 268.41592,21.588495 269.43805,21.99115 269.80972,22.300884 270.27432,22.672565 270.8938,23.446903 406.86725,30.353983 407.6416,30.477877 408.53983,30.849558 409.31415,31.438053 409.90265,32.212391 409.93362,32.274338 410.70798,33.699116 546.15485,38.561947 546.7124,38.623894 547.33185,38.871681 547.82745,39.274338 548.2301,39.800884 548.4779,40.389381 548.5398,41.00885 548.4779,41.628319 548.2301,42.247787 547.82745,42.743362 547.33185,43.146019 546.7124,43.393806 546.15485,43.455753 410.70798,48.318584 409.90265,49.774338 409.87167,49.836285 409.28317,50.610619 408.50885,51.199116 407.61063,51.570797 406.83627,51.694691 270.86282,58.632744 270.24338,59.407078 269.40707,60.088497 268.38495,60.49115 267.54868,60.615044 131.23451,68.265488 131.11063,68.451324 130.21239,69.163719 129.15929,69.597343 128.29204,69.721237 40.575222,74.862831 40.544247,74.862831 9.880531,76.876106 9.570796,76.876106 8.269912,76.721237 7,76.194687 5.946903,75.389381 5.141593,74.336281 4.615044,73.066368 4.460177,71.765488 4.460177,10.252213 4.615044,8.951327 5.141593,7.712389 5.141593,7.681416 5.946903,6.628319 7,5.823009 8.269912,5.29646 9.570796,5.141593 9.911505,5.141593 14.712389,66.283188 39.924778,64.641594 40.048672,64.641594 122.28319,61.265488 122.28319,61.172565 "
       id="polygon1152"
       style="fill:#d0d0d0;stroke:none;stroke-width:1" />
    <polygon
       points="121.91151,41.00885 121.97345,40.513275 122.00442,40.079647 122.80974,36.300884 38.964603,35.433628 38.747787,35.433628 32.800884,35.030975 32.800884,46.986725 29.022123,26.761063 39.243362,27.442478 39.274338,27.442478 127.0531,29.517698 127.85841,29.610619 128.69469,29.951328 129.40707,30.50885 129.9646,31.221239 130.30531,32.057522 130.39822,32.676991 130.70796,36.486725 266.3407,37.787609 267.177,37.880531 267.95132,38.221237 268.63275,38.716816 269.12833,39.398232 269.46902,40.172565 269.56195,41.00885 269.46902,41.845131 269.12833,42.619469 268.63275,43.300884 267.95132,43.796459 267.177,44.137169 266.3407,44.230087 130.70796,45.530975 130.39822,49.371681 130.36726,49.557522 130.30531,49.99115 129.9646,50.827435 129.40707,51.539822 128.69469,52.097343 127.85841,52.438053 127.0531,52.530975 39.243362,54.575222 39.212391,54.575222 29.022123,55.256638 28.774336,55.256638 27.752213,55.132744 26.761063,54.730087 25.955751,54.079647 25.924778,54.048672 25.305309,53.274338 24.902655,52.283184 24.778761,51.261063 24.778761,30.756638 24.902655,29.734512 25.026548,29.424778 25.305309,28.743362 25.955751,27.938053 26.761063,27.287611 27.752213,26.884956 28.774336,26.761063 29.022123,26.761063 32.800884,46.986725 38.716816,46.584072 38.933628,46.584072 122.80974,45.747787 122.00442,41.938053 "
       id="polygon1154"
       style="fill:#e4e4e4;stroke:none;stroke-width:1" />
    <polygon
       points="123.92478,60.398232 123.92478,60.367256 124.66814,59.438053 124.85398,59.283184 125.59734,58.694691 126.71239,58.261063 127.73451,58.106194 262.31415,53.429203 262.22125,52.623894 262.3761,51.384956 262.87167,50.176991 263.64603,49.185841 263.73895,49.123894 264.63718,48.411503 265.84512,47.915928 266.99115,47.761063 401.81857,45.15929 401.19913,44.044247 401.13718,43.951328 400.54868,42.52655 400.36282,41.00885 400.54868,39.49115 400.61063,39.336285 401.07523,38.190266 401.7876,36.889381 267.0531,34.318584 265.8761,34.163715 264.66815,33.66814 263.677,32.893806 263.18143,32.243362 262.90265,31.902655 262.40707,30.694691 262.2522,29.455751 262.34512,28.619469 127.73451,23.942478 126.71239,23.787611 125.59734,23.353983 124.66814,22.610619 124.4823,22.362831 123.92478,21.681416 123.49115,20.566372 123.39823,19.91593 40.141594,16.292036 40.048672,16.292036 13.597345,14.526548 13.597345,67.49115 9.818584,6.256637 40.544247,8.300885 40.575222,8.300885 128.26106,13.287611 128.94247,13.380531 129.77876,13.721239 130.49115,14.278761 131.04868,14.991151 267.5177,22.362831 268.19913,22.455751 268.97345,22.796461 269.65488,23.292036 270.15045,23.973452 270.36725,24.40708 270.49115,24.747787 406.8053,31.159292 407.42477,31.252213 408.13718,31.530973 408.75662,31.995575 409.22125,32.615044 409.40707,33.0177 410.27432,35.278763 546.1239,39.088497 546.5885,39.150444 547.0531,39.336285 547.45575,39.646019 547.7655,40.048672 547.95136,40.513275 548.01324,41.00885 547.95136,41.504425 547.7655,41.969025 547.45575,42.371681 547.0531,42.681416 546.5885,42.867256 546.1239,42.929203 410.27432,46.738937 409.3761,49.030975 409.2522,49.278763 409.19028,49.433628 408.72568,50.053097 408.1062,50.5177 407.3938,50.796459 406.77432,50.889381 270.46017,57.33186 270.33627,57.672565 270.11948,58.106194 269.6239,58.787609 268.94247,59.283184 268.16815,59.623894 267.48672,59.716816 131.0177,67.057526 131.0177,67.088493 130.46017,67.800888 129.74779,68.358406 128.9115,68.699112 128.23009,68.792038 40.513275,73.747787 40.4823,73.747787 9.818584,75.761063 9.570796,75.761063 8.548673,75.637169 7.557522,75.234512 6.752213,74.584068 6.10177,73.778763 5.699115,72.787613 5.575221,71.765488 5.575221,10.252213 5.699115,9.230088 6.039823,8.424779 6.10177,8.238938 6.752213,7.433628 7.557522,6.783186 8.548673,6.380531 9.570796,6.256637 9.818584,6.256637 13.597345,67.49115 39.986725,65.756638 40.079647,65.756638 123.39823,62.163715 123.49115,61.4823 "
       id="polygon1156"
       style="fill:#e4e4e4;stroke:none;stroke-width:1" />
    <polygon
       points="123.42921,41.00885 123.46018,40.699116 123.46018,40.544247 124.32743,35.154869 38.964603,34.132744 38.84071,34.132744 31.5,33.637169 31.5,48.380531 28.929203,28.061947 39.150444,28.743362 39.181416,28.743362 127.02213,30.663717 127.57964,30.725664 128.13716,30.942478 128.32301,31.097345 128.60178,31.314159 128.97345,31.778761 128.97345,31.809734 129.19026,32.336285 129.25221,32.862831 129.40707,38.004425 266.3407,38.84071 266.89822,38.902657 267.42477,39.119469 267.88937,39.460178 268.2301,39.924778 268.4469,40.451328 268.50885,41.00885 268.4469,41.566372 268.2301,42.092922 267.88937,42.557522 267.42477,42.898232 266.89822,43.115044 266.3407,43.176991 129.40707,44.013275 129.25221,49.123894 129.19026,49.712391 128.97345,50.269913 128.60178,50.734512 128.13716,51.106194 127.57964,51.323009 127.02213,51.384956 39.150444,53.274338 39.119469,53.274338 28.929203,53.955753 28.774336,53.955753 28.09292,53.893806 27.411505,53.615044 26.853983,53.181416 26.668142,52.933628 26.420355,52.623894 26.141592,51.942478 26.079645,51.261063 26.079645,30.756638 26.141592,30.075222 26.420355,29.393805 26.853983,28.836283 27.00885,28.712389 27.411505,28.402655 28.09292,28.123894 28.774336,28.061947 28.929203,28.061947 31.5,48.380531 38.809734,47.884956 38.933628,47.884956 124.32743,46.893806 123.46018,41.47345 "
       id="polygon1158"
       style="fill:#fdfdfd;stroke:none;stroke-width:1" />
    <polygon
       points="124.9469,61.884956 125.25664,61.141594 125.72124,60.49115 126.37168,60.02655 127.11504,59.716816 127.79646,59.623894 264.23453,54.451328 263.98672,53.769913 263.8938,53.460178 263.80087,52.623894 263.8938,51.787609 264.23453,50.9823 264.76105,50.300884 265.44247,49.774338 266.2478,49.433628 267.02213,49.34071 403.86282,46.088497 402.5,42.34071 402.40707,42.030975 402.28317,41.00885 402.40707,39.986725 402.53098,39.676991 402.53098,39.646019 403.8938,35.960178 267.0531,32.738937 266.27875,32.646019 265.47345,32.305309 264.79202,31.778761 264.26547,31.097345 263.92477,30.292036 263.83185,29.455751 263.92477,28.619469 264.0177,28.309734 264.26547,27.628319 127.79646,22.424778 127.11504,22.331858 126.37168,22.022123 125.72124,21.557522 125.25664,20.90708 124.9469,20.163717 124.85398,19.389381 124.91593,18.831858 40.203541,14.991151 40.141594,14.991151 12.29646,13.132744 12.29646,68.884956 9.725664,7.557522 40.451328,9.601769 40.4823,9.601769 128.19911,14.433628 128.66371,14.495575 129.22124,14.712389 129.56195,14.991151 129.68584,15.084071 130.05753,15.548673 130.05753,15.579646 130.27434,16.106195 130.30531,16.199116 130.36726,16.477877 267.45575,23.41593 267.92035,23.477877 268.4469,23.694691 268.9115,24.035398 269.2522,24.5 269.46902,25.026548 269.5,25.088495 269.77875,26.265488 406.74338,32.119469 407.177,32.181416 407.67258,32.367256 407.95132,32.584072 408.07523,32.676991 408.38495,33.079647 408.38495,33.110619 408.5708,33.575222 408.60178,33.637169 409.3761,37.137169 546.0929,39.738937 546.40265,39.769913 546.74335,39.893806 546.99115,40.110619 547.20795,40.389381 547.33185,40.699116 547.36285,41.00885 547.33185,41.318584 547.20795,41.65929 546.99115,41.907078 546.74335,42.123894 546.40265,42.247787 546.0929,42.278763 409.3761,44.880531 408.5708,48.411503 408.53983,48.47345 408.35397,48.969025 408.04425,49.371681 407.6416,49.681416 407.14603,49.867256 406.7124,49.929203 269.7478,55.783184 269.46902,56.99115 269.43805,57.053097 269.22125,57.579647 268.88052,58.044247 268.41592,58.384956 267.88937,58.601768 267.42477,58.663715 130.33629,65.570793 130.27434,65.880531 130.24336,65.97345 130.02655,66.530975 129.65486,66.995575 129.19026,67.367256 128.63274,67.584068 128.16814,67.646019 40.420353,72.446899 40.389381,72.446899 9.725664,74.460175 9.570796,74.460175 8.88938,74.398232 8.207965,74.119469 7.650443,73.685844 7.216814,73.128319 6.938053,72.446899 6.876106,71.765488 6.876106,10.252213 6.938053,9.570796 7.216814,8.920354 7.216814,8.88938 7.650443,8.331859 8.207965,7.89823 8.88938,7.619469 9.570796,7.557522 9.725664,7.557522 12.29646,68.884956 40.079647,67.057526 40.141594,67.057526 124.91593,63.247787 124.85398,62.65929 "
       id="polygon1160"
       style="fill:#fdfdfd;stroke:none;stroke-width:1" />
  </g>
  <g
     inkscape:groupmode="layer"
     inkscape:label="layer2"
     id="layer2"
     transform="translate(-0.030973,-0.712389)">
    <path
       id="line1217"
       style="fill:none;stroke:#000000;stroke-width:2;stroke-miterlimit:4;stroke-dasharray:4, 2;stroke-dashoffset:0"
       d="M 28.774336,51.261063 V 41.00885 30.756638 l 10.221239,0.681415 87.995575,1.486725 -0.52655,8.084072 0.52655,8.115044 -88.026547,1.455753 z M 126.4646,41.00885 Z m 139.8761,0 H 126.4646 m 1.42478,-21.619469 139.47344,6.194689 -0.24777,3.871681 139.56638,4.615046 -0.4646,6.938053 H 546.0929 m -418.01767,-24.314159 -0.18585,2.69469 M 40.296459,12.29646 128.07523,16.694691 M 9.570796,10.252213 40.296459,12.29646 M 9.570796,41.00885 V 10.252213 m 0,61.513275 V 41.00885 M 40.234512,69.752213 9.570796,71.765488 M 128.04425,65.384956 40.234512,69.752213 m 87.654868,-7.092923 0.15487,2.725666 m 139.2876,-8.889381 -139.44247,6.163715 m 139.1947,-10.035396 0.24777,3.871681 m 139.3186,-8.5177 -139.56637,4.646019 m 139.13275,-11.615044 0.43362,6.969025 m -0.43362,-6.969025 v 0"
       inkscape:connector-curvature="0"
       sodipodi:nodetypes="ccccccccccccccccccccccccccccccccccccccccccccc" />
  </g>
  <g
     inkscape:groupmode="layer"
     inkscape:label="layer3"
     id="layer3"
     style="display:none"
     transform="translate(-0.030973,-0.712389)">
    <polygon
       points="2.787611,3.530973 1.331858,5.451327 0.340708,7.836283 0.278761,8.176991 0,8.176991 0,0.030973 8.455752,0.557522 8.455752,0.836283 7.154867,1.022124 4.769911,2.013274 "
       style="fill:#0000ff;stroke:none;stroke-width:1"
       id="polygon1220" />
    <polygon
       points="21.99115,24.035398 20.535398,25.955751 19.544249,28.340708 19.420355,29.176991 19.141592,29.176991 19.141592,20.504425 27.814159,21.061947 27.814159,21.340708 26.358408,21.526548 23.973452,22.517698 "
       style="fill:#0000ff;stroke:none;stroke-width:1"
       id="polygon1222" />
    <polygon
       points="548.4469,44.97345 549.4071,44.261063 550.0575,43.362831 550.5531,42.154869 550.70795,40.946903 550.5531,39.800884 550.0575,38.685841 549.34515,37.694691 548.4469,37.044247 547.67255,36.703541 547.7345,36.455753 613.95575,40.853981 613.95575,41.163715 547.7345,45.561947 547.67255,45.314159 "
       style="fill:#0000ff;stroke:none;stroke-width:1"
       id="polygon1224" />
    <polygon
       points="26.358408,60.49115 27.876106,60.707966 27.876106,60.986725 19.141592,61.513275 19.141592,52.871681 19.420355,52.871681 19.544249,53.676991 20.535398,56.061947 21.99115,57.9823 23.973452,59.5 "
       style="fill:#0000ff;stroke:none;stroke-width:1"
       id="polygon1226" />
    <polygon
       points="7.154867,80.995575 8.455752,81.181419 8.455752,81.460175 0,81.986725 0,73.840706 0.278761,73.840706 0.340708,74.181419 1.331858,76.566368 2.787611,78.486725 4.769911,80.004425 "
       style="fill:#0000ff;stroke:none;stroke-width:1"
       id="polygon1228" />
  </g>
  <g
     inkscape:groupmode="layer"
     inkscape:label="layer4"
     id="layer4"
     style="display:none"
     transform="translate(-0.030973,-0.712389)">
    <polygon
       points="12.017699,19.482302 14.309734,18.522123 16.384956,17.004425 17.840708,14.991151 18.800884,12.699115 18.831858,12.358407 19.141592,12.38938 19.141592,20.504425 10.809734,19.884956 10.809734,19.637169 "
       style="fill:#ff0000;stroke:none;stroke-width:1"
       id="polygon1231" />
    <polygon
       points="41.411503,41.349556 41.597343,41.442478 41.504425,41.721237 41.101768,41.628319 41.132744,41.349556 "
       style="fill:#ff0000;stroke:none;stroke-width:1"
       id="polygon1233" />
    <polygon
       points="38.345131,49.061947 38.066372,49.092922 38.004425,48.814159 37.075222,46.522125 36.765488,46.150444 35.52655,44.477875 33.513275,42.99115 31.221239,42.030975 29.858408,41.876106 29.858408,41.628319 36.424778,41.163715 36.424778,40.853981 30.013275,40.389381 30.013275,40.141594 31.221239,39.986725 33.389381,39.119469 33.544247,38.995575 35.588497,37.50885 37.044247,35.495575 38.004425,33.203541 38.066372,32.769913 38.345131,32.769913 38.345131,40.915928 38.314159,40.915928 38.128319,42.278763 38.345131,42.309734 "
       style="fill:#ff0000;stroke:none;stroke-width:1"
       id="polygon1235" />
    <polygon
       points="415.53983,30.756638 416.0354,31.128319 418.23453,34.039822 418.88495,35.619469 419.6593,37.384956 420.1239,40.946903 419.6593,44.570797 418.23453,48.00885 416.87167,49.805309 416.09735,50.827435 413.21683,53.02655 409.77875,54.451328 408.66373,54.606194 406.5885,54.884956 406.5885,54.915928 406.18585,54.915928 402.65488,54.451328 399.21683,53.02655 396.33627,50.827435 395.56195,49.805309 394.19913,48.00885 392.77432,44.570797 392.30972,41.070797 392.77432,37.446903 393.54868,35.619469 394.19913,34.00885 396.33627,31.190266 396.8938,30.756638 399.21683,28.99115 402.65488,27.566372 406.2478,27.10177 406.4646,27.10177 407.73453,27.287611 407.73453,27.225664 409.77875,27.566372 413.21683,28.99115 "
       style="fill:#ff0000;stroke:none;stroke-width:1"
       id="polygon1237" />
    <polygon
       points="259.89822,23.570797 259.65045,25.615044 259.89822,27.566372 260.67258,29.424778 261.84955,31.035398 263.49115,32.274338 266.09293,33.0177 266.06195,33.296459 266.52655,33.296459 268.29202,33.544247 270.24338,34.349556 271.76105,35.52655 273,37.137169 273.8053,38.995575 274.0531,40.977875 273.8053,42.99115 273.7124,43.207966 273.03098,44.880531 271.823,46.429203 270.24338,47.66814 268.29202,48.47345 266.4646,48.721237 265.13275,48.783184 265.1947,49.092922 263.46017,49.805309 261.81857,51.044247 260.6416,52.654869 259.86725,54.4823 259.61948,56.52655 259.86725,58.477875 260.6416,60.336285 261.81857,61.946903 263.49115,63.185841 264.54425,63.619469 264.45132,63.867256 264.11063,63.836285 261.26105,62.628319 258.84512,60.800884 257.07965,58.446903 255.87169,55.597343 255.5,52.685841 255.87169,49.650444 256.18143,48.938053 257.07965,46.800884 258.84512,44.446903 261.26105,42.619469 264.11063,41.411503 265.96902,41.163715 265.96902,40.915928 264.1416,40.66814 261.29202,39.460178 258.8761,37.632744 257.11063,35.278763 256.0885,32.862831 255.90265,32.429203 255.53098,29.517698 255.90265,26.482302 257.11063,23.632744 258.8761,21.278761 261.29202,19.451328 264.1416,18.243362 264.45132,18.212389 264.54425,18.460176 263.49115,18.893805 261.84955,20.132744 260.67258,21.743362 "
       style="fill:#ff0000;stroke:none;stroke-width:1"
       id="polygon1239" />
    <polygon
       points="16.384956,65.013275 14.309734,63.495575 12.017699,62.535397 10.654867,62.380531 10.654867,62.132744 19.141592,61.513275 19.141592,69.5354 18.862831,69.566368 18.800884,69.318581 17.871681,67.02655 "
       style="fill:#ff0000;stroke:none;stroke-width:1"
       id="polygon1241" />
    <polygon
       points="119.99115,16.725664 120.23894,18.769911 121.07522,20.721239 122.31416,22.455751 124.0177,23.694691 126.71239,24.5 126.65044,24.840708 127.02213,24.840708 129.00442,25.088495 131.07965,25.955751 132.69026,27.163717 133.96017,28.867256 134.67256,30.446903 134.64159,30.50885 134.76549,30.694691 136.15929,35.588497 135.88052,35.743362 136.71681,37.694691 136.84071,38.066372 136.93362,38.190266 137.27434,40.946903 136.93362,43.765488 135.88052,46.274338 136.19026,46.367256 134.85841,51.075222 134.67256,51.50885 133.99115,53.181416 132.75221,54.823009 131.07965,56.092922 129.0354,56.960178 127.20796,57.207966 125.75221,57.269913 125.81416,57.610619 124.0177,58.384956 122.28319,59.623894 121.04425,61.389381 120.20796,63.278763 119.96018,65.415932 120.20796,67.460175 121.04425,69.411507 122.28319,71.146019 123.98673,72.353981 123.83186,72.601768 122.43805,72.013275 120.20796,70.278763 118.5354,68.079643 117.42036,65.415932 117.07964,62.721237 117.42036,59.902657 118.38053,57.610619 118.50442,57.610619 118.50442,57.269913 120.20796,55.039822 122.46903,53.305309 125.13274,52.190266 126.15487,52.035397 126.15487,51.787609 123.70796,51.477875 121.04425,50.362831 119.09292,48.845131 118.90708,48.938053 118.90708,49.061947 119.27876,50.920353 119,51.013275 116.5531,45.283184 115.99558,43.765488 115.65487,41.070797 115.99558,38.221237 116.05753,38.066372 116.52213,36.734512 118.78319,31.438053 119.06195,31.5 118.90708,32.924778 118.90708,33.079647 119.06195,33.172565 121.04425,31.654867 123.70796,30.539824 126,30.230089 126,29.982302 125.13274,29.858408 122.43805,28.743362 120.82743,27.504425 120.20796,27.00885 118.50442,24.747787 118.50442,24.469027 118.41151,24.469027 117.42036,22.146017 117.07964,19.451328 117.42036,16.632744 118.5354,13.938053 120.20796,11.769912 122.46903,10.035398 123.92478,9.415929 124.07964,9.663717 122.31416,10.933628 121.07522,12.699115 120.23894,14.588495 "
       style="fill:#ff0000;stroke:none;stroke-width:1"
       id="polygon1243" />
    <polygon
       points="128.72566,51.539822 128.72566,51.818584 129.28319,51.818584 129.28319,51.446903 "
       style="fill:#ffffff;stroke:none;stroke-width:1"
       id="polygon1245" />
    <polygon
       points="124.42036,72.50885 125.93805,72.97345 125.87611,73.221237 125.13274,73.128319 124.32743,72.756638 "
       style="fill:#ff0000;stroke:none;stroke-width:1"
       id="polygon1247" />
    <polygon
       points="409.53098,27.504425 409.80972,27.566372 410.0885,27.690266 409.99557,27.969027 409.43805,27.783186 "
       style="fill:#ffa500;stroke:none;stroke-width:1"
       id="polygon1249" />
    <polygon
       points="128.81859,30.50885 129.19026,30.539824 129.6239,30.694691 129.53098,30.973452 128.75664,30.756638 "
       style="fill:#ffa500;stroke:none;stroke-width:1"
       id="polygon1251" />
    <polygon
       points="269.19028,41.318584 270.05753,41.411503 270.83185,41.783184 270.73895,42.030975 269.12833,41.566372 "
       style="fill:#ffa500;stroke:none;stroke-width:1"
       id="polygon1253" />
    <polygon
       points="122.93363,39.924778 125.96903,40.761063 125.93805,41.00885 124.85398,41.00885 124.88496,41.287609 122.9646,42.123894 121.23009,43.362831 119.99115,45.128319 119.15487,47.0177 118.93805,48.535397 118.75221,48.566372 117.11062,46.460178 115.99558,43.765488 115.65487,41.132744 115.68584,41.039822 115.65487,40.946903 115.99558,38.283184 116.08849,38.066372 117.11062,35.557522 118.75221,33.451328 118.93805,33.4823 119.15487,35 119.99115,36.951328 121.23009,38.685841 "
       style="fill:#ffa500;stroke:none;stroke-width:1"
       id="polygon1255" />
    <polygon
       points="399.96017,32.243362 399.74338,34.101768 399.96017,35.867256 400.67258,37.50885 401.72568,39.02655 403.24338,40.079647 404.79202,40.761063 404.7301,41.101768 404.76105,41.287609 403.2124,41.969025 401.6947,43.022125 400.6416,44.539822 399.9292,46.150444 399.7124,48.00885 399.9292,49.774338 400.6416,51.415928 401.6947,52.933628 403.18143,53.986725 404.07965,54.358406 403.98672,54.606194 402.65488,54.451328 399.2478,53.02655 396.33627,50.827435 395.56195,49.805309 394.19913,47.977875 392.77432,44.570797 392.30972,41.101768 392.3407,41.00885 392.30972,40.915928 392.77432,37.446903 393.54868,35.619469 394.19913,34.039822 396.33627,31.190266 396.8938,30.756638 399.2478,28.99115 402.65488,27.566372 404.1416,27.380531 404.23453,27.628319 403.24338,28.061947 401.72568,29.115044 400.67258,30.632744 "
       style="fill:#ffa500;stroke:none;stroke-width:1"
       id="polygon1257" />
  </g>
</svg>
