<?xml version="1.0" encoding="UTF-8" standalone="no"?>
<svg
   xmlns:dc="http://purl.org/dc/elements/1.1/"
   xmlns:cc="http://creativecommons.org/ns#"
   xmlns:rdf="http://www.w3.org/1999/02/22-rdf-syntax-ns#"
   xmlns:svg="http://www.w3.org/2000/svg"
   xmlns="http://www.w3.org/2000/svg"
   xmlns:sodipodi="http://sodipodi.sourceforge.net/DTD/sodipodi-0.dtd"
   xmlns:inkscape="http://www.inkscape.org/namespaces/inkscape"
   height="80.592926"
   width="550.52216"
   id="svg1860"
   version="1.1"
   sodipodi:docname="wedge_transitioning.svg"
   inkscape:version="0.92.3 (2405546, 2018-03-11)"
   inkscape:export-filename="/home/t.kuipers/Documents/PhD/Variable_Width_project/paper/paper_private_git/sources/method/wedge_transitioning.png"
   inkscape:export-xdpi="100"
   inkscape:export-ydpi="100">
  <defs
     id="defs148" />
  <sodipodi:namedview
     pagecolor="#ffffff"
     bordercolor="#666666"
     borderopacity="1"
     objecttolerance="10"
     gridtolerance="10"
     guidetolerance="10"
     inkscape:pageopacity="0"
     inkscape:pageshadow="2"
     inkscape:window-width="1920"
     inkscape:window-height="1025"
     id="namedview146"
     showgrid="false"
     fit-margin-top="0"
     fit-margin-left="0"
     fit-margin-right="0"
     fit-margin-bottom="0"
     inkscape:zoom="0.921875"
     inkscape:cx="262.89326"
     inkscape:cy="194.47077"
     inkscape:window-x="948"
     inkscape:window-y="1080"
     inkscape:window-maximized="1"
     inkscape:current-layer="layer2" />
  <metadata
     id="metadata1866">
    <rdf:RDF>
      <cc:Work
         rdf:about="">
        <dc:format>image/svg+xml</dc:format>
        <dc:type
           rdf:resource="http://purl.org/dc/dcmitype/StillImage" />
        <dc:title></dc:title>
      </cc:Work>
    </rdf:RDF>
  </metadata>
  <g
     inkscape:groupmode="layer"
     inkscape:label="layer1"
     id="layer1"
     transform="translate(-0.030973,-0.712389)"
     style="display:inline">
    <polygon
       points="39.646019,60.119469 39.584072,60.119469 29.393805,60.800884 28.774336,60.800884 26.327435,60.49115 24.004425,59.530975 22.022123,58.013275 20.504425,56.030975 19.544249,53.707966 19.234512,51.261063 19.234512,30.756638 19.544249,28.309734 20.504425,25.986725 22.022123,24.004425 24.004425,22.486725 26.327435,21.526548 28.774336,21.216814 29.393805,21.216814 39.615044,21.89823 39.676991,21.89823 117.54425,24.530973 117.38938,24.469027 39.986725,21.836283 39.676991,21.836283 19.141592,20.473452 19.141592,30.446903 137.5531,30.446903 253.5177,33.0177 137.46017,30.41593 137.5531,30.446903 19.141592,30.446903 19.141592,37.075222 263.8938,37.075222 264.69913,38.964603 264.9469,41.00885 264.69913,43.053097 263.8938,44.97345 263.18143,45.933628 271.69913,42.030975 273.4646,41.411503 276.3761,41.039822 273.4646,40.66814 271.7301,40.048672 263.27432,36.238937 263.8938,37.075222 19.141592,37.075222 19.141592,40.977875 38.345131,40.977875 38.345131,41.039822 115.37611,41.039822 115.40708,41.00885 38.995575,40.977875 38.345131,40.977875 19.141592,40.977875 19.141592,51.570797 137.5531,51.570797 137.27434,51.663715 256.3053,49.061947 256.61505,48.907078 137.5531,51.570797 19.141592,51.570797 19.141592,61.544247 10.190266,0.712389 40.915928,2.756637 119.37168,8.022124 137.86284,9.230088 258.62833,17.314159 258.6593,17.314159 277.0885,18.49115 277.11948,18.49115 397.88495,26.544249 416.34512,27.721239 416.3761,27.721239 546.2168,36.393806 547.11505,36.548672 548.26105,37.013275 549.22125,37.725662 549.93366,38.716816 550.39825,39.83186 550.5531,41.00885 550.39825,42.185841 549.93366,43.33186 549.22125,44.292034 548.26105,45.004425 547.11505,45.469025 546.2168,45.623894 416.3761,54.296459 397.88495,55.535397 277.11948,63.588497 258.62833,64.827431 258.59735,64.827431 137.8938,72.849556 137.86284,72.849556 119.34071,74.088493 40.853981,79.292038 10.190266,81.305313 9.570796,81.305313 7.123894,80.995575 4.800885,80.0354 2.818584,78.5177 1.300885,76.5354 0.340708,74.212387 0.030973,71.765488 0.030973,10.252213 0.340708,7.80531 1.300885,5.482301 2.818584,3.5 4.800885,1.982301 7.123894,1.022124 9.570796,0.712389 10.190266,0.712389 19.141592,61.544247 39.615044,60.212391 39.924778,60.212391 117.32743,57.641594 117.73009,57.5177 "
       id="polygon3"
       style="fill:#7d7d7d;stroke:none;stroke-width:1" />
    <polygon
       points="117.9469,57.362831 39.676991,59.902657 39.584072,59.902657 29.393805,60.584072 28.774336,60.584072 26.358408,60.274338 24.097345,59.345131 22.176991,57.858406 21.650442,57.176991 20.690266,55.938053 19.761063,53.676991 19.451328,51.261063 19.451328,30.756638 19.761063,28.340708 19.91593,28 20.690266,26.079645 22.176991,24.159292 23.230089,23.353983 24.097345,22.672565 26.358408,21.743362 28.774336,21.433628 29.393805,21.433628 39.615044,22.115044 39.707966,22.115044 117.97787,24.685841 118.90708,24.809734 117.35841,24.314159 39.986725,21.619469 39.676991,21.619469 18.924778,20.225664 18.924778,30.663717 137.52212,30.663717 257.11063,33.265488 256.33627,32.924778 136.9646,30.199116 135.41592,29.982302 137.52212,30.663717 18.924778,30.663717 18.924778,37.137169 263.7699,37.137169 264.54425,39.02655 264.79202,41.00885 264.54425,42.99115 263.7699,44.880531 262.59293,46.429203 271.85397,42.247787 273.52655,41.65929 276.3761,41.287609 394.84955,41.194691 395.0354,41.039822 394.84955,40.884956 276.3761,40.792034 273.52655,40.420353 271.88495,39.83186 262.71683,35.743362 263.7699,37.137169 18.924778,37.137169 18.924778,41.256638 38.128319,41.256638 38.964603,41.256638 115.40708,41.194691 115.71681,41.00885 115.43805,40.853981 38.995575,40.761063 38.376106,40.761063 38.128319,40.730087 38.128319,41.256638 18.924778,41.256638 18.924778,48.752213 257.20355,48.752213 137.52212,51.353981 135.13716,52.128319 136.93362,51.880531 256.33627,49.216816 257.4823,48.721237 257.20355,48.752213 18.924778,48.752213 18.924778,61.792034 10.190266,0.929204 40.915928,2.973451 119.37168,8.176991 119.40266,8.176991 137.8938,9.446902 137.92477,9.446902 258.59735,17.469027 258.62833,17.469027 277.11948,18.738937 277.15045,18.738937 397.88495,26.699116 397.91592,26.699116 416.00443,28 416.34512,28 546.2168,36.486725 547.11505,36.641594 548.1991,37.075222 549.1283,37.818584 549.8717,38.747787 550.3053,39.83186 550.4602,41.00885 550.3053,42.185841 549.8717,43.269913 549.1283,44.199116 548.1991,44.942478 547.11505,45.376106 546.2168,45.530975 416.34512,54.0177 416.06638,54.0177 397.9469,55.380531 397.88495,55.380531 277.18143,63.34071 277.15045,63.34071 258.62833,64.672569 258.59735,64.672569 137.8938,72.632744 137.86284,72.632744 119.37168,73.933632 119.34071,73.933632 40.823009,79.075218 10.159292,81.088493 9.570796,81.088493 7.154867,80.778763 4.893806,79.849556 2.973451,78.362831 2.570796,77.836281 1.486726,76.442474 0.557522,74.181419 0.247788,71.765488 0.247788,10.252213 0.557522,7.836283 0.650442,7.619469 1.486726,5.575221 2.973451,3.654867 3.469027,3.283186 4.893806,2.168142 7.154867,1.238938 9.570796,0.929204 10.190266,0.929204 18.924778,61.792034 39.646019,60.429203 39.924778,60.429203 117.42036,57.796459 119.30974,57.176991 "
       id="polygon5"
       style="fill:#818181;stroke:none;stroke-width:1" />
    <polygon
       points="264.32742,42.960178 263.58408,44.787609 262.3761,46.336285 261.04425,47.389381 272.00885,42.495575 273.5885,41.907078 276.3761,41.566372 394.97345,41.380531 395.3761,41.039822 394.97345,40.699116 276.3761,40.513275 273.5885,40.172565 272.03983,39.615044 261.38495,34.907078 262.3761,35.681416 98.185844,35.681416 137.46017,51.075222 120.11504,56.743362 119.71239,56.867256 117.9469,57.115044 39.615044,59.654869 39.553097,59.654869 29.362831,60.336285 28.774336,60.336285 26.420355,60.02655 24.221239,59.128319 22.362831,57.672565 21.836283,56.99115 20.90708,55.814159 20.00885,53.615044 19.699116,51.261063 19.699116,30.756638 20.00885,28.402655 20.504425,27.225664 20.90708,26.203539 22.362831,24.345133 22.672565,24.097345 24.221239,22.889381 26.420355,21.99115 28.774336,21.681416 29.362831,21.681416 39.584072,22.362831 39.646019,22.362831 117.97787,24.933628 119.74336,25.181416 120.14602,25.305309 137.46017,30.942478 257.20355,33.4823 258.59735,33.66814 256.39822,32.707966 136.9646,29.920355 134.57965,29.579645 134.08408,29.455751 117.45132,24.066372 39.986725,21.371681 39.707966,21.371681 18.676991,19.977877 18.676991,41.535397 37.880531,41.535397 38.376106,41.504425 38.964603,41.504425 115.5,41.442478 116.21239,41.00885 115.5,40.606194 38.995575,40.513275 38.407078,40.513275 37.880531,40.4823 37.880531,41.535397 18.676991,41.535397 18.676991,62.039822 39.646019,60.676991 39.924778,60.676991 117.42036,58.044247 134.02212,52.623894 134.54868,52.5 136.93362,52.15929 256.4292,49.433628 259,48.287609 257.20355,48.535397 137.46017,51.075222 10.159292,1.176991 40.884956,3.221239 119.34071,8.424779 119.40266,8.424779 137.8938,9.725664 137.92477,9.725664 258.59735,17.685841 258.62833,17.685841 277.15045,19.017698 277.2124,19.017698 397.85397,26.884956 397.9469,26.884956 416.12833,28.371681 416.28317,28.371681 546.2168,36.610619 547.08404,36.734512 548.13715,37.199116 549.06634,37.880531 549.7478,38.809734 550.2124,39.862831 550.3363,41.00885 550.2124,42.154869 549.7478,43.207966 549.06634,44.137169 548.13715,44.818584 547.08404,45.283184 546.2168,45.407078 416.28317,53.646019 416.1593,53.646019 397.97787,55.194691 397.85397,55.194691 277.24338,63.061947 277.18143,63.061947 258.6593,64.45575 258.56638,64.45575 137.8938,72.353981 137.86284,72.353981 119.37168,73.685844 119.30974,73.685844 40.823009,78.827431 10.159292,80.840706 9.570796,80.840706 7.216814,80.530975 5.017699,79.632744 3.159292,78.176994 2.725664,77.619469 1.70354,76.318581 0.80531,74.119469 0.495575,71.765488 0.495575,10.252213 0.80531,7.89823 1.70354,5.730089 1.70354,5.699115 3.159292,3.840708 3.964602,3.221239 5.017699,2.384956 7.216814,1.486726 9.570796,1.176991 10.159292,1.176991 98.185844,35.681416 262.3761,35.681416 263.58408,37.261063 264.32742,39.057522 264.57523,41.00885 "
       id="polygon7"
       style="fill:#858585;stroke:none;stroke-width:1" />
    <polygon
       points="115.59292,40.358406 38.995575,40.203541 38.438053,40.203541 37.570797,40.141594 37.570797,41.876106 29.331858,21.99115 39.553097,22.672565 39.615044,22.672565 117.9469,25.181416 119.68142,25.429203 120.11504,25.553097 137.52212,31.283186 257.17258,33.730087 258.93805,33.977875 260.70355,34.690266 262.19028,35.867256 263.36725,37.384956 264.07965,39.119469 264.32742,41.00885 264.07965,42.898232 263.36725,44.663715 262.19028,46.150444 260.70355,47.327435 258.93805,48.039822 257.17258,48.287609 137.4292,50.734512 120.08407,56.495575 119.65044,56.619469 117.91593,56.867256 39.584072,59.345131 39.522125,59.345131 29.331858,60.02655 28.774336,60.02655 26.513275,59.747787 24.376106,58.849556 22.579645,57.455753 22.176991,56.929203 21.185841,55.65929 20.287611,53.522125 20.00885,51.261063 20.00885,30.756638 20.287611,28.495575 20.783186,27.349558 21.185841,26.358408 22.579645,24.561947 23.50885,23.849558 24.376106,23.168142 26.513275,22.269911 28.774336,21.99115 29.331858,21.99115 37.570797,41.876106 38.407078,41.814159 38.964603,41.814159 115.56195,41.690266 116.67699,41.00885 "
       id="polygon9"
       style="fill:#8b8b8b;stroke:none;stroke-width:1" />
    <polygon
       points="134.64159,52.809734 136.93362,52.5 256.46017,49.681416 272.22568,42.805309 273.7124,42.278763 276.3761,41.938053 395.06638,41.628319 395.80972,41.039822 395.06638,40.451328 276.3761,40.141594 273.7124,39.800884 272.25662,39.305309 256.49115,32.460178 136.9646,29.579645 134.67256,29.269911 134.23894,29.146017 117.51327,23.818584 39.986725,21.061947 39.738937,21.061947 18.367256,19.637169 18.367256,62.380531 10.128319,1.486726 40.853981,3.530973 119.34071,8.672566 119.40266,8.672566 137.8938,10.066372 137.95575,10.066372 258.56638,17.933628 258.6593,17.933628 276.80972,19.389381 277.02655,19.389381 397.823,27.132744 398.00885,27.132744 416.2522,28.774336 546.18585,36.765488 547.0221,36.889381 548.0752,37.323009 548.9425,38.004425 549.6239,38.902657 550.0575,39.924778 550.1814,41.00885 550.0575,42.092922 549.6239,43.146019 548.9425,44.013275 548.0752,44.694691 547.0221,45.128319 546.18585,45.252213 416.3761,53.243362 398.03983,54.946903 397.823,54.946903 277.02655,62.690266 276.8407,62.690266 258.69028,64.207962 258.56638,64.207962 137.95575,72.013275 137.8938,72.013275 119.37168,73.438049 119.27876,73.438049 40.792034,78.5177 10.128319,80.530975 9.570796,80.530975 7.309734,80.252213 5.172566,79.353981 3.376106,77.960175 1.982301,76.163719 1.084071,74.02655 0.80531,71.765488 0.80531,10.252213 1.084071,7.99115 1.982301,5.884956 1.982301,5.853982 3.376106,4.057522 4.057522,3.530973 5.172566,2.663717 7.309734,1.765487 9.570796,1.486726 10.128319,1.486726 18.367256,62.380531 39.676991,60.986725 39.955753,60.986725 117.45132,58.292034 134.17699,52.964603 "
       id="polygon11"
       style="fill:#8b8b8b;stroke:none;stroke-width:1" />
    <polygon
       points="115.71681,40.048672 38.995575,39.83186 38.438053,39.83186 37.199116,39.738937 37.199116,42.278763 29.331858,22.362831 39.553097,23.044249 39.615044,23.044249 117.9469,25.49115 119.61947,25.738937 120.0531,25.862831 137.4292,31.716814 257.17258,34.039822 258.84512,34.256638 260.54868,34.969025 261.97345,36.084072 263.0885,37.539822 263.80087,39.212391 264.0177,41.00885 263.80087,42.805309 263.0885,44.50885 261.97345,45.933628 260.54868,47.048672 258.84512,47.761063 257.17258,47.977875 137.4292,50.300884 120.02213,56.185841 119.58849,56.309734 117.91593,56.557522 39.584072,58.97345 39.522125,58.97345 29.331858,59.654869 28.774336,59.654869 26.606195,59.376106 24.561947,58.539822 22.827435,57.207966 21.650442,55.65929 21.495575,55.47345 20.659292,53.429203 20.380531,51.261063 20.380531,30.756638 20.659292,28.588495 21.495575,26.544249 22.827435,24.809734 22.858408,24.778761 24.561947,23.477877 26.606195,22.641592 28.774336,22.362831 29.331858,22.362831 37.199116,42.278763 38.407078,42.185841 38.964603,42.185841 115.68584,42 117.35841,41.00885 "
       id="polygon13"
       style="fill:#929292;stroke:none;stroke-width:1" />
    <polygon
       points="134.73451,53.243362 136.93362,52.933628 256.5531,49.99115 272.44247,43.176991 273.8053,42.681416 276.34512,42.371681 395.22125,41.907078 396.36725,41.039822 395.22125,40.172565 276.34512,39.707966 273.8053,39.398232 272.47345,38.933628 256.61505,32.150444 136.9646,29.146017 134.76549,28.836283 134.42477,28.743362 117.54425,23.50885 40.0177,20.690266 39.738937,20.690266 17.995575,19.234512 17.995575,62.783184 10.128319,1.858407 40.853981,3.902655 40.884956,3.902655 119.30974,8.982301 119.43363,8.982301 137.92477,10.5 138.0177,10.5 258.5354,18.243362 258.69028,18.243362 276.8407,19.823009 276.99557,19.823009 397.79202,27.411505 397.9469,27.442478 398.0708,27.442478 416.65488,29.331858 546.15485,36.951328 546.99115,37.075222 547.9823,37.477875 548.8186,38.128319 549.46906,38.995575 549.8717,39.955753 549.9956,41.00885 549.8717,42.061947 549.46906,43.053097 548.8186,43.889381 547.9823,44.539822 546.99115,44.942478 546.15485,45.066372 416.19028,52.716816 416.12833,52.716816 398.0708,54.637169 397.9469,54.637169 397.79202,54.66814 276.99557,62.256638 276.90265,62.256638 258.72125,63.898232 258.5354,63.898232 137.73894,71.579643 137.5531,71.579643 119.40266,73.128319 119.27876,73.128319 40.761063,78.146019 10.097345,80.159294 9.570796,80.159294 7.402655,79.880531 5.358407,79.04425 3.623894,77.712387 3.097345,77.030975 2.292035,75.977875 1.455752,73.933632 1.176991,71.765488 1.176991,10.252213 1.455752,8.084071 2.292035,6.070796 2.292035,6.039823 3.623894,4.30531 4.150443,3.902655 5.358407,2.973451 7.402655,2.137168 9.570796,1.858407 10.128319,1.858407 17.995575,62.783184 39.707966,61.358406 39.955753,61.358406 117.51327,58.601768 134.36284,53.336285 "
       id="polygon15"
       style="fill:#929292;stroke:none;stroke-width:1" />
    <polygon
       points="115.84071,39.646019 38.995575,39.398232 38.469025,39.398232 36.765488,39.274338 36.765488,42.743362 29.300884,22.796461 39.522125,23.477877 39.584072,23.477877 117.91593,25.893805 119.49558,26.110619 119.96018,26.234512 137.33629,32.181416 257.1416,34.411503 258.7522,34.628319 260.36282,35.278763 261.72568,36.33186 262.77875,37.725662 263.4292,39.305309 263.64603,41.00885 263.4292,42.712391 262.77875,44.323009 261.72568,45.685841 260.36282,46.738937 258.7522,47.389381 257.1416,47.606194 137.36726,49.836285 119.92921,55.783184 119.4646,55.938053 117.88496,56.154869 39.553097,58.539822 39.49115,58.539822 29.300884,59.221237 28.774336,59.221237 26.730089,58.97345 24.778761,58.16814 23.137169,56.898232 22.610619,56.216816 21.867256,55.256638 21.061947,53.305309 20.814159,51.261063 20.814159,30.756638 21.061947,28.712389 21.402655,27.90708 21.867256,26.761063 23.137169,25.119469 23.911505,24.530973 24.778761,23.849558 26.730089,23.044249 28.774336,22.796461 29.300884,22.796461 36.765488,42.743362 38.438053,42.619469 38.964603,42.619469 115.80974,42.402657 118.19469,41.00885 "
       id="polygon17"
       style="fill:#9a9a9a;stroke:none;stroke-width:1" />
    <polygon
       points="134.85841,53.676991 136.93362,53.398232 256.677,50.362831 272.7522,43.610619 273.96017,43.207966 275.88052,42.960178 276.34512,42.898232 395.3761,42.247787 397.0177,41.039822 395.40707,39.83186 276.34512,39.181416 273.96017,38.871681 272.78317,38.469025 256.677,31.778761 136.9646,28.681416 134.88937,28.402655 134.57965,28.309734 117.63717,23.106195 40.0177,20.256638 39.769913,20.256638 17.561947,18.769911 17.561947,63.247787 10.097345,2.292035 40.823009,4.336283 40.853981,4.336283 119.27876,9.384955 119.43363,9.384955 137.58408,10.964602 137.73894,10.964602 258.50443,18.615044 258.72125,18.615044 276.93362,20.349558 397.76105,27.752213 397.91592,27.783186 398.10178,27.783186 416.3761,29.951328 546.1239,37.137169 546.9292,37.261063 547.8894,37.632744 548.6947,38.252213 549.31415,39.088497 549.68585,40.0177 549.80975,41.00885 549.68585,42 549.31415,42.960178 548.6947,43.765488 547.8894,44.384956 546.9292,44.756638 546.1239,44.880531 416.53098,52.066372 398.13275,54.296459 397.88495,54.296459 397.76105,54.327435 276.99557,61.730087 258.72125,63.495575 258.69028,63.495575 258.50443,63.52655 137.67699,71.115044 137.58408,71.115044 119.40266,72.725662 119.24779,72.725662 40.730087,77.712387 10.066372,79.725662 9.570796,79.725662 7.526549,79.477875 5.575221,78.672569 3.933628,77.402657 2.663717,75.761063 1.858407,73.809738 1.610619,71.765488 1.610619,10.252213 1.858407,8.207965 2.663717,6.287611 2.663717,6.256637 3.933628,4.615044 4.30531,4.336283 5.575221,3.345133 7.526549,2.539823 9.570796,2.292035 10.097345,2.292035 17.561947,63.247787 39.738937,61.792034 39.955753,61.792034 117.57522,59.004425 134.54868,53.769913 "
       id="polygon19"
       style="fill:#9a9a9a;stroke:none;stroke-width:1" />
    <polygon
       points="115.9646,39.181416 38.995575,38.871681 38.5,38.871681 36.238937,38.716816 36.238937,43.300884 29.269911,23.323009 39.49115,24.004425 39.553097,24.004425 117.91593,26.358408 119.37168,26.575222 119.83628,26.699116 137.30531,32.769913 257.1416,34.845131 258.62833,35.030975 260.14603,35.650444 261.41592,36.641594 262.40707,37.942478 263.02655,39.429203 263.2124,41.00885 263.02655,42.588497 262.40707,44.106194 261.41592,45.376106 260.14603,46.367256 258.62833,46.986725 257.1416,47.172565 137.21239,49.247787 119.80531,55.349556 119.34071,55.47345 117.88496,55.690266 39.522125,58.013275 39.460178,58.013275 29.269911,58.694691 28.774336,58.694691 26.853983,58.446903 25.057522,57.703541 23.50885,56.52655 22.331858,54.977875 21.588495,53.181416 21.340708,51.261063 21.340708,30.756638 21.588495,28.836283 22.331858,27.039824 23.50885,25.49115 25.057522,24.314159 26.853983,23.570797 28.774336,23.323009 29.269911,23.323009 36.238937,43.300884 38.469025,43.146019 38.964603,43.146019 115.93363,42.867256 119.18584,41.00885 "
       id="polygon21"
       style="fill:#a4a4a4;stroke:none;stroke-width:1" />
    <polygon
       points="135.01327,54.265488 136.93362,53.986725 256.7699,50.796459 273.06195,44.16814 274.11505,43.796459 275.1062,43.672565 276.31415,43.5177 395.53098,42.650444 397.823,41.00885 395.59293,39.429203 276.31415,38.561947 274.11505,38.283184 273.09293,37.942478 256.7699,31.345133 136.9646,28.09292 135.04425,27.814159 134.82744,27.752213 117.73009,22.641592 40.0177,19.730089 39.83186,19.730089 17.035398,18.212389 17.035398,63.805309 10.035398,2.818584 40.761063,4.862832 119.24779,9.849558 119.43363,9.849558 137.58408,11.553098 137.67699,11.553098 258.47345,19.048672 258.6593,19.079645 258.72125,19.079645 277.11948,20.969027 397.7301,28.154867 397.823,28.185841 398.16373,28.185841 416.34512,30.694691 546.1239,37.415928 546.86725,37.50885 547.7345,37.880531 548.4779,38.469025 549.06634,39.212391 549.43805,40.079647 549.53094,41.00885 549.43805,41.938053 549.06634,42.805309 548.4779,43.548672 547.7345,44.137169 546.86725,44.50885 546.1239,44.601768 416.40707,51.323009 398.1947,53.893806 397.823,53.893806 397.7301,53.924778 277.18143,61.079647 258.7522,63.061947 258.62833,63.061947 258.47345,63.092922 137.64601,70.52655 137.61505,70.52655 119.40266,72.261063 119.18584,72.261063 40.699116,77.185844 10.035398,79.199112 9.570796,79.199112 7.650443,78.951324 5.853982,78.207962 4.30531,77.030975 3.128319,75.4823 2.384956,73.685844 2.137168,71.765488 2.137168,10.252213 2.384956,8.331859 3.128319,6.535398 4.30531,4.986726 5.853982,3.809735 7.650443,3.066372 9.570796,2.818584 10.035398,2.818584 17.035398,63.805309 39.769913,62.318584 39.986725,62.318584 117.69911,59.469025 134.76549,54.327435 "
       id="polygon23"
       style="fill:#a4a4a4;stroke:none;stroke-width:1" />
    <polygon
       points="116.15044,38.654869 38.964603,38.221237 38.561947,38.221237 35.588497,38.035397 35.588497,43.9823 29.207964,23.973452 39.429203,24.654867 39.49115,24.654867 117.88496,26.884956 119.24779,27.070797 119.71239,27.225664 137.15044,33.4823 257.11063,35.371681 258.50443,35.557522 259.86725,36.115044 261.04425,37.013275 261.94247,38.190266 262.5,39.553097 262.68585,41.00885 262.5,42.464603 261.94247,43.827435 261.04425,45.004425 259.86725,45.902657 258.50443,46.460178 257.11063,46.646019 137.15044,48.535397 119.68142,54.823009 119.21681,54.977875 117.85398,55.163715 39.460178,57.362831 39.398232,57.362831 29.207964,58.044247 28.774336,58.044247 27.039824,57.827435 25.367256,57.146019 23.973452,56.061947 23.694691,55.690266 22.889381,54.66814 22.207964,52.995575 21.99115,51.261063 21.99115,30.756638 22.207964,29.022123 22.300884,28.774336 22.889381,27.349558 23.973452,25.955751 24.5,25.553097 25.367256,24.871681 27.039824,24.190266 28.774336,23.973452 29.207964,23.973452 35.588497,43.9823 38.530975,43.796459 38.933628,43.796459 116.11947,43.393806 120.36283,41.00885 "
       id="polygon25"
       style="fill:#b0b0b0;stroke:none;stroke-width:1" />
    <polygon
       points="135.19911,54.946903 136.9646,54.699116 256.8938,51.323009 273.43362,44.849556 274.30087,44.539822 276.31415,44.292034 395.7478,43.146019 398.78317,41.039822 395.7478,38.933628 276.31415,37.787609 274.30087,37.539822 273.4646,37.261063 256.92477,30.818584 136.9646,27.380531 135.23009,27.132744 135.07523,27.10177 117.85398,22.115044 40.048672,19.079645 39.862831,19.079645 16.384956,17.530973 16.384956,64.5177 10.004425,3.469027 40.730087,5.513274 40.761063,5.513274 119.18584,10.376106 119.43363,10.376106 137.61505,12.265487 258.44247,19.575222 258.56638,19.606195 258.7522,19.606195 277.27432,21.774336 397.69913,28.619469 398.00885,28.650442 398.22568,28.681416 416.56195,31.561947 546.0929,37.725662 546.77435,37.818584 547.57965,38.15929 548.26105,38.685841 548.7876,39.367256 549.1283,40.172565 549.22125,41.00885 549.1283,41.845131 548.7876,42.650444 548.26105,43.33186 547.57965,43.858406 546.77435,44.199116 546.0929,44.292034 416.6239,50.455753 398.22568,53.398232 398.00885,53.429203 397.69913,53.460178 277.3053,60.305309 258.7522,62.535397 258.5354,62.535397 258.4115,62.566372 137.67699,69.814156 119.40266,71.703537 119.34071,71.703537 119.15487,71.734512 40.699116,76.5354 40.66814,76.5354 10.004425,78.548676 9.570796,78.548676 7.836283,78.331856 6.163717,77.650444 4.769911,76.566368 4.057522,75.637169 3.685841,75.172569 3.004425,73.5 2.787611,71.765488 2.787611,10.252213 3.004425,8.517699 3.685841,6.845133 4.769911,5.451327 6.163717,4.367257 7.836283,3.685841 9.570796,3.469027 10.004425,3.469027 16.384956,64.5177 39.800884,62.969025 39.986725,62.969025 117.82301,59.995575 135.04425,54.977875 "
       id="polygon27"
       style="fill:#b0b0b0;stroke:none;stroke-width:1" />
    <polygon
       points="116.39823,37.97345 38.964603,37.477875 38.592922,37.477875 34.845131,37.230087 34.845131,44.787609 29.176991,24.716814 39.398232,25.39823 39.460178,25.39823 117.85398,27.566372 119.06195,27.721239 119.52655,27.876106 137.02655,34.349556 257.11063,36.022125 258.31857,36.176991 259.55753,36.672565 260.57965,37.477875 261.38495,38.530975 261.88052,39.738937 262.0354,41.00885 261.88052,42.278763 261.38495,43.5177 260.57965,44.539822 259.55753,45.345131 258.31857,45.84071 257.11063,45.995575 137.02655,47.66814 119.49558,54.172565 119.03097,54.327435 117.82301,54.4823 39.429203,56.619469 39.367256,56.619469 29.176991,57.300884 28.774336,57.300884 27.225664,57.115044 25.738937,56.495575 24.5,55.535397 23.694691,54.4823 23.539824,54.296459 22.920355,52.809734 22.734512,51.261063 22.734512,30.756638 22.920355,29.207964 23.539824,27.752213 23.539824,27.721239 24.5,26.482302 24.871681,26.203539 25.738937,25.522123 27.225664,24.902655 28.774336,24.716814 29.176991,24.716814 34.845131,44.787609 38.561947,44.539822 38.933628,44.539822 116.36726,44.075222 121.91151,41.00885 "
       id="polygon29"
       style="fill:#bebebe;stroke:none;stroke-width:1" />
    <polygon
       points="135.41592,55.783184 136.9646,55.566372 257.07965,51.97345 273.86725,45.623894 274.54868,45.407078 276.31415,45.190266 396.02655,43.734512 400.14603,41.039822 396.02655,38.345131 276.31415,36.889381 274.54868,36.672565 273.89822,36.455753 257.11063,30.168142 136.99558,26.513275 135.4469,26.296461 135.38495,26.296461 118.03982,21.433628 40.079647,18.336283 39.893806,18.336283 15.641593,16.725664 15.641593,65.292038 9.973452,4.212389 40.699116,6.256637 40.730087,6.256637 119.15487,11.057522 119.34071,11.088495 119.40266,11.088495 137.73894,13.132744 258.38052,20.225664 258.50443,20.256638 258.7522,20.256638 277.3053,22.672565 397.66815,29.207964 397.88495,29.238937 398.22568,29.269911 416.5,32.646019 546.03094,38.097343 546.6814,38.190266 547.3938,38.469025 548.01324,38.933628 548.4779,39.553097 548.75665,40.265488 548.84955,41.00885 548.75665,41.752213 548.4779,42.464603 548.01324,43.084072 547.3938,43.548672 546.6814,43.827435 546.03094,43.920353 416.56195,49.371681 398.25662,52.809734 397.85397,52.84071 397.66815,52.871681 276.90265,59.438053 258.7522,61.884956 258.50443,61.884956 258.38052,61.915928 137.73894,68.946899 119.40266,71.022125 119.27876,71.022125 119.12389,71.053101 40.637169,75.792038 40.606194,75.792038 9.942478,77.805313 9.570796,77.805313 8.022124,77.619469 6.535398,77 5.29646,76.039825 4.49115,74.986725 4.336283,74.800888 3.716814,73.314156 3.530973,71.765488 3.530973,10.252213 3.716814,8.70354 4.336283,7.247787 4.336283,7.216814 5.29646,5.977876 6.535398,5.017699 8.022124,4.39823 9.570796,4.212389 9.973452,4.212389 15.641593,65.292038 39.862831,63.712391 40.0177,63.712391 118.00885,60.676991 135.35399,55.814159 "
       id="polygon31"
       style="fill:#bebebe;stroke:none;stroke-width:1" />
    <polygon
       points="116.58407,37.199116 38.964603,36.548672 38.654869,36.548672 33.915928,36.238937 33.915928,45.778763 29.115044,25.646017 39.336285,26.327435 39.367256,26.327435 117.82301,28.340708 118.87611,28.464602 119.30974,28.619469 136.84071,35.309734 257.07965,36.765488 258.13275,36.889381 259.18585,37.323009 260.0531,38.004425 260.73453,38.902657 261.16815,39.924778 261.29202,41.00885 261.16815,42.092922 260.73453,43.146019 260.0531,44.013275 259.18585,44.694691 258.13275,45.128319 257.07965,45.252213 136.87169,46.707966 119.27876,53.429203 118.84513,53.584072 117.79204,53.707966 39.336285,55.690266 39.305309,55.690266 29.115044,56.371681 28.774336,56.371681 27.473452,56.216816 26.203539,55.690266 25.150442,54.884956 24.345133,53.83186 23.818584,52.561947 23.663717,51.261063 23.663717,30.756638 23.818584,29.455751 24.035398,28.929203 24.345133,28.185841 25.150442,27.132744 25.305309,27.00885 26.203539,26.327435 27.473452,25.800884 28.774336,25.646017 29.115044,25.646017 33.915928,45.778763 38.623894,45.469025 38.933628,45.469025 116.5531,44.849556 123.70796,41.00885 "
       id="polygon33"
       style="fill:#d0d0d0;stroke:none;stroke-width:1" />
    <polygon
       points="136.99558,56.557522 257.29645,52.716816 274.33185,46.615044 274.82742,46.460178 276.28317,46.274338 396.27432,44.446903 401.84955,41.039822 396.3053,37.632744 276.28317,35.805309 274.82742,35.619469 274.36282,35.464603 257.23453,29.424778 136.99558,25.522123 135.72566,25.336283 118.07079,20.659292 40.110619,17.40708 39.955753,17.40708 14.712389,15.734513 14.712389,66.283188 9.911505,5.141593 40.637169,7.185841 40.66814,7.185841 119.09292,11.831859 119.27876,11.862832 119.37168,11.862832 137.70796,14.123894 258.31857,20.969027 258.44247,21 258.72125,21 276.90265,23.725664 397.6062,29.920355 397.79202,29.951328 398.22568,29.982302 416.3761,33.915928 546,38.530975 546.5575,38.592922 547.177,38.84071 547.70355,39.243362 548.1062,39.769913 548.354,40.389381 548.41596,41.00885 548.354,41.628319 548.1062,42.247787 547.70355,42.774338 547.177,43.176991 546.5575,43.424778 546,43.486725 416.43805,48.101768 398.22568,52.097343 397.79202,52.128319 397.6062,52.15929 276.9646,58.353981 258.72125,61.141594 258.44247,61.141594 258.31857,61.172565 137.73894,67.924782 119.37168,70.247787 119.21681,70.247787 119.06195,70.278763 40.575222,74.862831 40.544247,74.862831 9.880531,76.876106 9.570796,76.876106 8.269912,76.721237 7,76.194687 5.946903,75.389381 5.141593,74.336281 4.615044,73.066368 4.460177,71.765488 4.460177,10.252213 4.615044,8.951327 5.141593,7.712389 5.141593,7.681416 5.946903,6.628319 7,5.823009 8.269912,5.29646 9.570796,5.141593 9.911505,5.141593 14.712389,66.283188 39.924778,64.641594 40.048672,64.641594 118.03982,61.451328 135.69469,56.743362 "
       id="polygon35"
       style="fill:#d0d0d0;stroke:none;stroke-width:1" />
    <polygon
       points="116.83186,36.238937 38.964603,35.433628 38.747787,35.433628 32.800884,35.030975 32.800884,46.986725 29.022123,26.761063 39.243362,27.442478 39.274338,27.442478 117.79204,29.300884 118.62832,29.393805 119,29.517698 136.65486,36.548672 257.07965,37.694691 257.88495,37.787609 258.72125,38.128319 259.40265,38.654869 259.9292,39.367256 260.2699,40.172565 260.36282,41.00885 260.2699,41.845131 259.9292,42.681416 259.40265,43.362831 258.72125,43.889381 257.88495,44.230087 257.07965,44.323009 136.65486,45.469025 118.96903,52.5 118.75221,52.592922 118.59734,52.654869 117.76106,52.747787 39.243362,54.575222 39.212391,54.575222 29.022123,55.256638 28.774336,55.256638 27.752213,55.132744 26.761063,54.730087 25.955751,54.079647 25.707964,53.769913 25.305309,53.274338 24.902655,52.283184 24.778761,51.261063 24.778761,30.756638 24.902655,29.734512 25.026548,29.424778 25.305309,28.743362 25.955751,27.938053 26.420355,27.566372 26.761063,27.287611 27.752213,26.884956 28.774336,26.761063 29.022123,26.761063 32.800884,46.986725 38.716816,46.584072 38.933628,46.584072 116.80089,45.809734 126.06195,41.00885 "
       id="polygon37"
       style="fill:#e4e4e4;stroke:none;stroke-width:1" />
    <polygon
       points="136.00442,57.920353 136.99558,57.796459 257.45132,53.646019 274.88937,47.792034 275.16815,47.730087 276.31415,47.575222 396.5531,45.283184 404.07965,41.039822 396.5531,36.796459 276.31415,34.504425 275.16815,34.349556 274.88937,34.287609 257.4823,28.495575 137.02655,24.283186 136.0354,24.159292 135.94247,24.128319 118.31858,19.699116 40.141594,16.292036 40.048672,16.292036 13.597345,14.526548 13.597345,67.49115 9.818584,6.256637 40.544247,8.300885 40.575222,8.300885 119.03097,12.792035 119.21681,12.823009 119.30974,12.823009 137.64601,15.362832 258.25662,21.89823 258.34955,21.89823 258.6593,21.929203 276.87167,25.026548 397.54425,30.756638 398.1947,30.849558 398.25662,30.880531 416.34512,35.433628 545.96906,39.088497 546.43366,39.150444 546.89825,39.336285 547.3009,39.646019 547.6106,40.048672 547.79645,40.513275 547.8584,41.00885 547.79645,41.504425 547.6106,41.969025 547.3009,42.371681 546.89825,42.681416 546.43366,42.867256 545.96906,42.929203 416.3761,46.584072 398.25662,51.199116 398.1947,51.230087 397.54425,51.323009 276.90265,57.053097 258.6593,60.212391 258.34955,60.243362 258.25662,60.243362 137.67699,66.685844 119.27876,69.287613 119.18584,69.287613 119,69.318581 40.513275,73.747787 40.4823,73.747787 9.818584,75.761063 9.570796,75.761063 8.548673,75.637169 7.557522,75.234512 6.752213,74.584068 6.10177,73.778763 5.699115,72.787613 5.575221,71.765488 5.575221,10.252213 5.699115,9.230088 6.039823,8.424779 6.10177,8.238938 6.752213,7.433628 7.557522,6.783186 8.548673,6.380531 9.570796,6.256637 9.818584,6.256637 13.597345,67.49115 39.986725,65.756638 40.079647,65.756638 118.28761,62.411503 135.9115,57.951328 "
       id="polygon39"
       style="fill:#e4e4e4;stroke:none;stroke-width:1" />
    <polygon
       points="117.14159,35.092922 38.964603,34.132744 38.84071,34.132744 31.5,33.637169 31.5,48.380531 28.929203,28.061947 39.150444,28.743362 39.181416,28.743362 117.76106,30.446903 118.31858,30.50885 118.62832,30.60177 136.40707,38.004425 257.04868,38.778763 257.6062,38.84071 258.16373,39.057522 258.62833,39.429203 259,39.893806 259.21683,40.451328 259.27875,41.00885 259.21683,41.566372 259,42.123894 258.62833,42.588497 258.16373,42.960178 257.6062,43.176991 257.04868,43.238937 136.40707,44.013275 118.59734,51.446903 118.28761,51.539822 117.73009,51.601768 39.150444,53.274338 39.119469,53.274338 28.929203,53.955753 28.774336,53.955753 28.09292,53.893806 27.411505,53.615044 26.853983,53.181416 26.420355,52.623894 26.141592,51.942478 26.079645,51.261063 26.079645,30.756638 26.141592,30.075222 26.265488,29.765488 26.420355,29.393805 26.853983,28.836283 26.977877,28.743362 27.411505,28.402655 28.09292,28.123894 28.774336,28.061947 28.929203,28.061947 31.5,48.380531 38.809734,47.884956 38.933628,47.884956 117.17257,46.955753 129.0354,41.00885 "
       id="polygon41"
       style="fill:#fdfdfd;stroke:none;stroke-width:1" />
    <polygon
       points="136.87169,59.283184 137.05753,59.252213 257.69913,54.699116 275.4469,49.247787 275.5708,49.216816 276.31415,49.123894 396.8938,46.243362 407.14603,41.00885 396.8938,35.836285 276.31415,32.955753 275.5708,32.862831 275.4469,32.83186 257.7301,27.442478 137.0885,22.827435 136.90265,22.796461 136.5,22.765488 118.38053,18.553097 40.172565,14.991151 40.141594,14.991151 12.29646,13.132744 12.29646,68.884956 9.725664,7.557522 40.451328,9.601769 40.4823,9.601769 118.96903,13.938053 119.18584,13.938053 137.52212,16.818584 258.1947,22.982302 258.31857,23.013275 258.50443,23.013275 276.90265,26.606195 397.4823,31.747787 397.9469,31.809734 398.00885,31.809734 416.09735,37.230087 545.93805,39.707966 546.27875,39.738937 546.5885,39.862831 546.86725,40.079647 547.08404,40.358406 547.20795,40.66814 547.23895,41.00885 547.20795,41.349556 547.08404,41.65929 546.86725,41.938053 546.5885,42.154869 546.27875,42.278763 545.93805,42.309734 416.12833,44.787609 398.00885,50.269913 397.9469,50.269913 397.4823,50.33186 276.93362,55.47345 258.5354,59.128319 258.2876,59.15929 258.1947,59.15929 137.49115,65.261063 119.15487,68.172569 118.93805,68.172569 40.420353,72.446899 40.389381,72.446899 9.725664,74.460175 9.570796,74.460175 8.88938,74.398232 8.207965,74.119469 7.650443,73.685844 7.216814,73.128319 6.938053,72.446899 6.876106,71.765488 6.876106,10.252213 6.938053,9.570796 7.216814,8.920354 7.216814,8.88938 7.650443,8.331859 8.207965,7.89823 8.88938,7.619469 9.570796,7.557522 9.725664,7.557522 12.29646,68.884956 40.079647,67.057526 40.141594,67.057526 118.34956,63.557522 136.46902,59.314159 "
       id="polygon43"
       style="fill:#fdfdfd;stroke:none;stroke-width:1" />
  </g>
  <g
     inkscape:groupmode="layer"
     inkscape:label="layer2"
     id="layer2"
     transform="translate(-0.030973,-0.712389)">
    <path
       id="line100"
       style="stroke:#000000;stroke-width:2;fill:none;stroke-miterlimit:4;stroke-dasharray:4,2;stroke-dashoffset:0"
       d="M 28.774336,51.261063 V 41.00885 30.756638 l 10.221239,0.681415 78.734515,1.33186 18.02655,8.238937 v 0 l -18.05753,8.269913 -78.734507,1.300884 z M 257.04868,41.00885 H 135.75664 M 258.10178,56.929203 137.15044,62.256638 118.81416,65.849556 40.234512,69.752213 9.570796,71.765488 V 41.00885 10.252213 l 30.725663,2.044247 78.548671,3.964603 18.33628,3.561946 120.92037,5.38938 18.27432,4.553099 121.04425,4.026546 18.0885,7.216816 -18.0885,7.278759 -121.04425,4.02655 z M 415.50885,41.00885 Z m 130.4292,0 h -130.4292"
       inkscape:connector-curvature="0"
       sodipodi:nodetypes="ccccccccccccccccccccccccccccccccc" />
    <path
       id="path862"
       style="fill:#ff00ff;fill-rule:evenodd;stroke:none;stroke-width:1px;stroke-linecap:butt;stroke-linejoin:miter;stroke-opacity:1;fill-opacity:0.39215687"
       d="M 117.35843,41.00885 119.35621,73.933632 137.8938,72.849556 135.75664,41.00885 137.92477,9.446902 119.38718,8.176991 Z"
       inkscape:connector-curvature="0"
       sodipodi:nodetypes="ccccccc" />
    <path
       style="fill:#ff00ff;fill-rule:evenodd;stroke:none;stroke-width:1px;stroke-linecap:butt;stroke-linejoin:miter;stroke-opacity:1;fill-opacity:0.39215687"
       d="m 258.6593,17.314159 -1.61062,23.694691 1.6416,23.199112 -0.062,0.619469 18.5531,-1.486721 -0.80533,-22.053101 0.7124,-22.796459 z"
       id="path865"
       inkscape:connector-curvature="0" />
    <path
       style="fill:#ff00ff;fill-rule:evenodd;stroke:none;stroke-width:1px;stroke-linecap:butt;stroke-linejoin:miter;stroke-opacity:1;fill-opacity:0.39215687"
       d="m 398.00885,27.132744 -0.99115,13.907078 0.9292,14.340709 18.11948,-1.362831 -0.55753,-13.00885 0.86725,-13.287611 -18.32818,-1.178636 z"
       id="path867"
       inkscape:connector-curvature="0" />
  </g>
  <g
     inkscape:groupmode="layer"
     inkscape:label="layer3"
     id="layer3"
     style="display:none"
     transform="translate(-0.030973,-0.712389)">
    <polygon
       points="2.787611,3.530973 1.331858,5.451327 0.340708,7.836283 0.278761,8.176991 0,8.176991 0,0.030973 8.424779,0.557522 8.424779,0.836283 7.154867,1.022124 4.769911,2.013274 "
       style="fill:#0000ff;stroke:none;stroke-width:1"
       id="polygon103" />
    <polygon
       points="21.99115,24.035398 20.535398,25.955751 19.544249,28.340708 19.420355,29.176991 19.141592,29.176991 19.141592,20.504425 27.814159,21.061947 27.814159,21.340708 26.358408,21.526548 23.973452,22.517698 "
       style="fill:#0000ff;stroke:none;stroke-width:1"
       id="polygon105" />
    <polygon
       points="548.29205,45.004425 549.2522,44.261063 549.93366,43.362831 550.4292,42.185841 550.58404,40.946903 550.4292,39.769913 549.93366,38.654869 549.19025,37.694691 548.29205,37.013275 547.6106,36.734512 547.67255,36.486725 613.95575,40.853981 613.95575,41.163715 547.67255,45.530975 547.6106,45.283184 "
       style="fill:#0000ff;stroke:none;stroke-width:1"
       id="polygon107" />
    <polygon
       points="273.52655,41.380531 271.7301,42.030975 263.677,45.685841 263.5531,45.5 263.8938,45.004425 264.7301,43.022125 264.97787,40.946903 264.7301,38.933628 263.8938,37.013275 263.677,36.703541 263.83185,36.5177 271.7301,40.048672 273.49557,40.699116 275.01328,40.915928 275.01328,41.163715 "
       style="fill:#0000ff;stroke:none;stroke-width:1"
       id="polygon109" />
    <polygon
       points="26.358408,60.49115 27.876106,60.707966 27.876106,60.986725 19.141592,61.513275 19.141592,52.871681 19.420355,52.871681 19.544249,53.676991 20.535398,56.061947 21.99115,57.9823 23.973452,59.5 "
       style="fill:#0000ff;stroke:none;stroke-width:1"
       id="polygon111" />
    <polygon
       points="7.154867,80.995575 8.455752,81.181419 8.455752,81.460175 0,81.986725 0,73.840706 0.278761,73.840706 0.340708,74.181419 1.331858,76.566368 2.787611,78.486725 4.769911,80.004425 "
       style="fill:#0000ff;stroke:none;stroke-width:1"
       id="polygon113" />
  </g>
  <g
     inkscape:groupmode="layer"
     inkscape:label="layer4"
     id="layer4"
     style="display:none"
     transform="translate(-0.030973,-0.712389)">
    <polygon
       points="12.017699,19.482302 14.309734,18.522123 16.384956,17.004425 17.840708,14.991151 18.800884,12.699115 18.831858,12.358407 19.141592,12.38938 19.141592,20.504425 10.809734,19.884956 10.809734,19.637169 "
       style="fill:#ff0000;stroke:none;stroke-width:1"
       id="polygon116" />
    <polygon
       points="262.6239,35.371681 263.05753,35.898232 262.90265,36.084072 256.11948,33.0177 255.68584,32.83186 255.77876,32.553097 257.6062,33.048672 257.6062,33.110619 259.06195,33.327435 261.04425,34.163715 "
       style="fill:#ff0000;stroke:none;stroke-width:1"
       id="polygon118" />
    <polygon
       points="278.51328,41.287609 279.25662,41.380531 279.90707,41.690266 279.81415,41.938053 278.45132,41.535397 "
       style="fill:#ff0000;stroke:none;stroke-width:1"
       id="polygon120" />
    <polygon
       points="257.26547,48.907078 257.17258,48.65929 262.77875,46.119469 262.90265,46.305309 262.68585,46.584072 261.04425,47.853981 259.06195,48.690266 "
       style="fill:#ff0000;stroke:none;stroke-width:1"
       id="polygon122" />
    <polygon
       points="38.345131,42.309734 38.345131,49.061947 38.066372,49.092922 38.004425,48.814159 37.075222,46.522125 36.765488,46.150444 35.52655,44.477875 33.513275,42.99115 31.221239,42.030975 29.858408,41.876106 29.858408,41.628319 36.424778,41.163715 36.424778,40.853981 30.013275,40.389381 30.013275,40.141594 31.221239,39.986725 33.389381,39.119469 33.544247,38.995575 35.588497,37.50885 37.044247,35.495575 38.004425,33.203541 38.035397,32.800884 38.345131,32.83186 38.345131,40.915928 38.314159,40.915928 38.128319,42.278763 "
       style="fill:#ff0000;stroke:none;stroke-width:1"
       id="polygon124" />
    <polygon
       points="256.64603,49.030975 256.677,49.309734 256.18143,49.433628 256.05753,49.154869 256.3053,49.030975 "
       style="fill:#ff0000;stroke:none;stroke-width:1"
       id="polygon126" />
    <polygon
       points="424.8938,31.561947 427.03098,34.318584 428.3938,37.539822 428.82742,40.946903 428.3938,44.415928 427.03098,47.699116 424.95575,50.393806 422.19913,52.530975 418.91592,53.893806 415.50885,54.327435 412.10178,53.893806 408.81857,52.530975 406.96017,51.230087 404.57523,49.247787 395.1593,41.442478 393.88937,42.154869 393.73453,41.907078 394.75662,41.039822 394.1062,40.513275 394.2301,40.296459 395.1593,40.66814 406.96017,30.787611 408.81857,29.486725 412.10178,28.123894 415.50885,27.690266 416.99557,27.90708 417.02655,27.814159 418.91592,28.123894 422.19913,29.486725 "
       style="fill:#ff0000;stroke:none;stroke-width:1"
       id="polygon128" />
    <polygon
       points="131.54425,28.557522 131.57523,28.526548 136.68584,30.137169 137.52212,30.446903 138.42035,30.725664 138.51327,30.725664 138.97788,30.880531 140.21681,31.438053 141.11505,31.809734 142.94247,33.203541 143.25221,33.451328 144.92477,35.681416 145.66814,37.446903 146.03983,38.221237 146.38052,40.946903 146.03983,43.734512 144.92477,46.367256 143.31416,48.504425 141.11505,50.176991 138.97788,51.106194 138.51327,51.261063 136.12831,51.601768 136.22124,52.004425 121.88053,56.619469 121.81858,56.495575 119.80531,57.269913 118.84513,57.393806 118.78319,57.146019 122.65487,55.876106 133.83629,52.15929 134.45575,51.97345 135.32301,51.849556 135.32301,51.601768 133.03098,51.292034 130.46017,50.176991 130.18141,50.053097 125.69026,47.296459 115.71681,41.256638 115.53097,41.287609 115.22124,41.47345 115.06637,41.225662 115.37611,41.00885 114.41593,40.420353 114.50885,40.172565 116.08849,40.575222 130.24336,31.902655 130.49115,31.778761 132.96902,30.725664 135.1062,30.446903 135.1062,30.199116 134.45575,30.106195 133.68141,29.796461 133.65044,29.827435 118.62832,24.871681 118.69026,24.623894 119.83628,24.778761 120.23894,24.871681 130.92477,28.216814 130.95575,28.154867 "
       style="fill:#ff0000;stroke:none;stroke-width:1"
       id="polygon130" />
    <polygon
       points="16.384956,65.013275 14.309734,63.495575 12.017699,62.535397 10.654867,62.380531 10.654867,62.132744 19.141592,61.513275 19.141592,69.659294 18.831858,69.690262 18.800884,69.287613 17.840708,67.02655 "
       style="fill:#ff0000;stroke:none;stroke-width:1"
       id="polygon132" />
    <polygon
       points="418.91592,28.123894 419.16373,28.185841 419.0708,28.464602 418.63718,28.402655 418.66815,28.123894 "
       style="fill:#ffa500;stroke:none;stroke-width:1"
       id="polygon134" />
    <polygon
       points="138.0177,30.942478 138.07965,30.694691 138.42035,30.725664 138.57523,30.787611 138.88495,30.942478 138.79204,31.190266 "
       style="fill:#ffa500;stroke:none;stroke-width:1"
       id="polygon136" />
    <polygon
       points="116.02655,40.575222 116.98673,40.884956 116.95575,41.101768 115.77876,41.256638 115.37611,41.00885 "
       style="fill:#ffa500;stroke:none;stroke-width:1"
       id="polygon138" />
    <polygon
       points="395.22125,41.442478 394.75662,41.039822 395.1593,40.66814 395.53098,40.823009 396.11948,40.884956 396.11948,41.194691 395.56195,41.256638 "
       style="fill:#ffa500;stroke:none;stroke-width:1"
       id="polygon140" />
    <polygon
       points="138.04868,72.880531 137.73894,72.880531 137.70796,72.632744 138.11063,72.477875 138.11063,72.818581 138.42035,72.818581 138.45132,73.066368 138.04868,73.221237 "
       style="fill:#ffa500;stroke:none;stroke-width:1"
       id="polygon142" />
  </g>
</svg>
